<?xml version="1.0" encoding="UTF-8"?> <!-- Generator: Adobe Illustrator 16.0.0, SVG Export Plug-In . SVG Version: 6.00 Build 0) --> <svg xmlns="http://www.w3.org/2000/svg" xmlns:xlink="http://www.w3.org/1999/xlink" version="1.1" x="0px" y="0px" width="64px" height="64px" viewBox="0 0 64 64" xml:space="preserve"> <g id="Background_xA0_Image_1_"> </g> <g id="Icons_1_"> <g id="AC_2_"> <g id="Rectangle_14"> <g> <path fill="#FFFFFF" d="M61,22H3c-1.1,0-2,0.9-2,2v14c0,1.1,0.9,2,2,2h4v2h50v-2h4c1.1,0,2-0.9,2-2V24C63,22.9,62.1,22,61,22z"></path> </g> </g> <g id="Rectangle_15"> <g> <rect x="7" y="38" fill="#FFC20E" width="50" height="4"></rect> </g> </g> <g id="Shape_2_copy"> <g> <path fill="#323232" d="M7,33c-0.6,0-1,0.4-1,1c0,0.6,0.4,1,1,1c0.6,0,1-0.4,1-1C8,33.4,7.6,33,7,33z M11,33c-0.6,0-1,0.4-1,1 c0,0.6,0.4,1,1,1c0.6,0,1-0.4,1-1C12,33.4,11.6,33,11,33z M60,21H4c-2.2,0-4,1.8-4,4v12c0,2.2,1.8,4,4,4h2v1c0,0.6,0.4,1,1,1h50 c0.6,0,1-0.4,1-1v-1h2c2.2,0,4-1.8,4-4V25C64,22.8,62.2,21,60,21z M56,41H8v-2h48V41z M62,37c0,1.1-0.9,2-2,2h-2v-1 c0-0.6-0.4-1-1-1H7c-0.6,0-1,0.4-1,1v1H4c-1.1,0-2-0.9-2-2V25c0-1.1,0.9-2,2-2h56c1.1,0,2,0.9,2,2V37z M58,26.1l-2,1.1V25h-2 v2.3l-2-1.1l-1,1.7l2,1.1l-2,1.1l1,1.7l2-1.1V33h2v-2.3l2,1.1l1-1.7L57,29l2-1.1L58,26.1z"></path> </g> </g> <g id="Rounded_Rectangle_9_copy_2"> <g> <path fill="#777777" d="M37,19c0.6,0,1-0.4,1-1V3c0-0.6-0.4-1-1-1c-0.6,0-1,0.4-1,1v15C36,18.6,36.4,19,37,19z M20,48v-2 c0-0.6-0.4-1-1-1c-0.6,0-1,0.4-1,1v2c0,3.3-2.7,6-6,6c-0.6,0-1,0.4-1,1c0,0.6,0.4,1,1,1C16.4,56,20,52.4,20,48z M45,17 c0.6,0,1-0.4,1-1V1c0-0.6-0.4-1-1-1c-0.6,0-1,0.4-1,1v15C44,16.6,44.4,17,45,17z M19,17c0.6,0,1-0.4,1-1V1c0-0.6-0.4-1-1-1 c-0.6,0-1,0.4-1,1v15C18,16.6,18.4,17,19,17z M47,62c-5,0-9-4-9-9v-5c0-0.6-0.4-1-1-1c-0.6,0-1,0.4-1,1v5c0,6.1,4.9,11,11,11 c0.6,0,1-0.4,1-1C48,62.4,47.6,62,47,62z M52,54c-3.3,0-6-2.7-6-6v-2c0-0.6-0.4-1-1-1c-0.6,0-1,0.4-1,1v2c0,4.4,3.6,8,8,8 c0.6,0,1-0.4,1-1C53,54.4,52.6,54,52,54z M27,2c-0.6,0-1,0.4-1,1v15c0,0.6,0.4,1,1,1c0.6,0,1-0.4,1-1V3C28,2.4,27.6,2,27,2z M27,47c-0.6,0-1,0.4-1,1v5c0,5-4,9-9,9c-0.6,0-1,0.4-1,1c0,0.6,0.4,1,1,1c6.1,0,11-4.9,11-11v-5C28,47.4,27.6,47,27,47z"></path> </g> </g> </g> <g id="Install_AC_2_"> </g> <g id="Relocate_and_install_AC_1_"> </g> <g id="AC_cleaning_1_"> </g> <g id="Overall_maintenance_package_1_"> </g> <g id="Freon_refill_1_"> </g> <g id="Fix_issue_1_"> </g> <g id="Other_9_"> </g> <g id="Electrical_2_"> </g> <g id="Lighting_2_"> </g> <g id="Electrical_plugs_1_"> </g> <g id="Cooling_exhaust_fan_1_"> </g> <g id="Fix_cabling_issue_1_"> </g> <g id="Convert_110V_to_220V_1_"> </g> <g id="Fix_circuit_breaker_1_"> </g> <g id="Other_2_1_"> </g> <g id="Plumbing_2_"> </g> <g id="Leakage__x26__blockings_1_"> </g> <g id="Sinks_2_"> </g> <g id="Mixer_2_"> </g> <g id="Valves_2_"> </g> <g id="Hoses__x26__nozzle_1_"> </g> <g id="Toilet_2_"> </g> <g id="Bathtub__x26__showers_1_"> </g> <g id="Water_heaters_1_"> </g> <g id="Water_pumps_1_"> </g> <g id="Other_3_1_"> </g> <g id="Cleaning_2_"> </g> <g id="Home_cleaning_1_"> </g> <g id="Water_tank_cleaning_1_"> </g> <g id="Other_4_1_"> </g> <g id="Pest_control_1_"> </g> <g id="General_pest_control_1_"> </g> <g id="White_ants_1_"> </g> <g id="Other_5_1_"> </g> <g id="Walls_2_"> </g> <g id="Paint_2_"> </g> <g id="Paint_treatment_1_"> </g> <g id="Wallpaper_2_"> </g> <g id="Other_6_1_"> </g> <g id="Security_system_1_"> </g> <g id="Surveillance_cameras_1_"> </g> <g id="Anti_theft_system_1_"> </g> <g id="Other_7_1_"> </g> <g id="Mounting_and_assembly_1_"> </g> <g id="Install_wall_frames_and_furniture_1_"> </g> <g id="Other_8_1_"> </g> <g id="Carpentry_2_"> </g> <g id="Woodwork_2_"> </g> </g> <g id="Titles_1_"> <g id="AC_1_"> </g> <g id="Install_AC_1_"> </g> <g id="AC_Cleaning"> </g> <g id="Relocate_and_x0D_Install_AC"> </g> <g id="Overall_Maintenance_x0D_Package"> </g> <g id="Freon_Refill"> </g> <g id="Fix_Issue"> </g> <g id="Other_8_"> </g> <g id="Electrical_1_"> </g> <g id="Lighting_1_"> </g> <g id="Ceiling_x0D_Exhaust_Fan"> </g> <g id="Electrical_Plugs"> </g> <g id="Fix_Cabling_Issue"> </g> <g id="Convert_110V_x0D_to_220V"> </g> <g id="Fix_circuit_x0D_breaker"> </g> <g id="Other_7_"> </g> <g id="Plumbing_1_"> </g> <g id="Leakage_and_x0D_Blockage"> </g> <g id="Mixer_1_"> </g> <g id="Sinks_1_"> </g> <g id="Valves_1_"> </g> <g id="Hoses_and_x0D_Nozzle"> </g> <g id="Toilet_1_"> </g> <g id="Bathtub_and_x0D_Showers"> </g> <g id="Water_x0D_heaters"> </g> <g id="Water_x0D_Pumps"> </g> <g id="Other_6_"> </g> <g id="Cleaning_1_"> </g> <g id="Home_Cleaning"> </g> <g id="Other_5_"> </g> <g id="Water_Tank_x0D_Cleaning"> </g> <g id="Pest_Control"> </g> <g id="General_Pest_x0D_Control"> </g> <g id="White_Ants"> </g> <g id="Other_4_"> </g> <g id="Walls_1_"> </g> <g id="Paint_1_"> </g> <g id="Paint_x0D_Treatment"> </g> <g id="Wallpaper_1_"> </g> <g id="Other_3_"> </g> <g id="Security_x0D_System"> </g> <g id="Surveillance_x0D_Cameras"> </g> <g id="Anti_Theft_x0D_System"> </g> <g id="Other_2_"> </g> <g id="Mounting_and_x0D_Assembly"> </g> <g id="Install_Wall_Frames_and_Furniture_1_"> </g> <g id="Other_1_"> </g> <g id="Carpentry_1_"> </g> <g id="Woodwork_1_"> </g> </g> </svg> 