<?xml version="1.0" encoding="UTF-8"?> <!-- Generator: Adobe Illustrator 16.0.0, SVG Export Plug-In . SVG Version: 6.00 Build 0) --> <svg xmlns="http://www.w3.org/2000/svg" xmlns:xlink="http://www.w3.org/1999/xlink" version="1.1" id="Layer_1" x="0px" y="0px" width="64px" height="64px" viewBox="0 0 64 64" xml:space="preserve"> <g id="Carpentry_and_Furniture_Installations_2_"> <g id="Rounded_Rectangle_199_copy"> <g> <rect x="32" y="11" fill="#FFFFFF" width="7" height="52"></rect> </g> </g> <g id="Rounded_Rectangle_199_copy_3"> <g> <path fill="#FFC20E" d="M21,56c-0.552,0-1-0.447-1-1V25h-7v38h19v-7H21z"></path> </g> </g> <g id="Rounded_Rectangle_199_copy_2"> <g> <polygon fill="#777777" points="39.764,1 22,1 22,11 51,11 51,7 "></polygon> </g> </g> <g id="Rounded_Rectangle_204"> <g> <path fill="#323232" d="M51.443,6.114l0.004-0.009l-12-6l-0.004,0.009C39.309,0.047,39.161,0,39,0H22c-0.552,0-1,0.448-1,1v10 c0,0.553,0.448,1,1,1h9v43H21V25c0-0.552-0.448-1-1-1h-7c-0.552,0-1,0.448-1,1v38c0,0.553,0.448,1,1,1h26c0.552,0,1-0.447,1-1V12 h11c0.552,0,1-0.447,1-1V7C52,6.609,51.77,6.279,51.443,6.114z M31,62H14v-5h2c0.552,0,1-0.447,1-1s-0.448-1-1-1h-2v-4h2 c0.552,0,1-0.447,1-1c0-0.552-0.448-1-1-1h-2v-4h2c0.552,0,1-0.447,1-1s-0.448-1-1-1h-2v-4h2c0.552,0,1-0.447,1-1s-0.448-1-1-1 h-2v-4h2c0.552,0,1-0.447,1-1c0-0.552-0.448-1-1-1h-2v-5h5v30c0,0.553,0.448,1,1,1h11V62z M38,62h-5V12h5V62z M50,10H23V2h15.764 L50,7.618V10z"></path> </g> </g> </g> </svg> 