<?xml version="1.0" encoding="UTF-8"?> <!-- Generator: Adobe Illustrator 16.0.0, SVG Export Plug-In . SVG Version: 6.00 Build 0) --> <svg xmlns="http://www.w3.org/2000/svg" xmlns:xlink="http://www.w3.org/1999/xlink" version="1.1" x="0px" y="0px" width="64px" height="64px" viewBox="0 0 64 64" xml:space="preserve"> <g id="Background_xA0_Image_1_"> </g> <g id="Icons_1_"> <g id="AC_2_"> </g> <g id="Install_AC_2_"> </g> <g id="Relocate_and_install_AC_1_"> </g> <g id="AC_cleaning_1_"> </g> <g id="Overall_maintenance_package_1_"> </g> <g id="Freon_refill_1_"> </g> <g id="Fix_issue_1_"> </g> <g id="Other_9_"> </g> <g id="Electrical_2_"> </g> <g id="Lighting_2_"> </g> <g id="Electrical_plugs_1_"> </g> <g id="Cooling_exhaust_fan_1_"> </g> <g id="Fix_cabling_issue_1_"> </g> <g id="Convert_110V_to_220V_1_"> </g> <g id="Fix_circuit_breaker_1_"> </g> <g id="Other_2_1_"> </g> <g id="Plumbing_2_"> </g> <g id="Leakage__x26__blockings_1_"> </g> <g id="Sinks_2_"> </g> <g id="Mixer_2_"> </g> <g id="Valves_2_"> </g> <g id="Hoses__x26__nozzle_1_"> </g> <g id="Toilet_2_"> </g> <g id="Bathtub__x26__showers_1_"> </g> <g id="Water_heaters_1_"> </g> <g id="Water_pumps_1_"> </g> <g id="Other_3_1_"> </g> <g id="Cleaning_2_"> <g id="Rounded_Rectangle_6_copy_2"> <g> <path fill="#777777" d="M19.1,62H6c-2.3,0-4-1.7-4-4s1.7-4,4-4s4,1.7,4,4c0,0.5,0.5,1,1,1s1-0.5,1-1c0-3.3-2.7-6-6-6s-6,2.7-6,6 s2.7,6,6,6h13.1c0.6,0,1-0.4,1-1C20.1,62.4,19.7,62,19.1,62z"></path> </g> </g> <g id="Rectangle_29_copy_5"> <g> <path fill="#FFFFFF" d="M47,53H17c-0.4,2.9-1.3,7.3,0,10h30C48.5,60.7,47.5,55.9,47,53z"></path> </g> </g> <g id="Shape_5"> <g> <path fill="#FFC20E" d="M22,58c-0.6,0-1,0.4-1,1l0,3c0,0.6,0.4,1,1,1c0.6,0,1-0.4,1-1l0-3C23,58.4,22.6,58,22,58z M45,25 c0.6,0,1-0.4,1-1c0-0.6-0.4-1-1-1c-0.6,0-1,0.4-1,1C44,24.6,44.4,25,45,25z M36,60c-0.6,0-1,0.4-1,1l0,1c0,0.6,0.4,1,1,1 c0.6,0,1-0.4,1-1l0-1C37,60.4,36.6,60,36,60z M13,37c-0.6,0-1,0.4-1,1c0,0.6,0.4,1,1,1s1-0.4,1-1C14,37.4,13.5,37,13,37z M63,31 h-1c-1.7,0-3-1.3-3-3v-4c0-0.6-0.4-1-1-1s-1,0.4-1,1v4c0,1.7-1.3,3-3,3h-1c-0.6,0-1,0.4-1,1c0,0.6,0.4,1,1,1h1c1.7,0,3,1.3,3,3 v4c0,0.6,0.4,1,1,1s1-0.4,1-1v-4c0-1.7,1.3-3,3-3h1c0.6,0,1-0.4,1-1C64,31.4,63.5,31,63,31z M58,33c-0.3-0.4-0.6-0.7-1-1 c0.4-0.3,0.7-0.6,1-1c0.3,0.4,0.6,0.7,1,1C58.6,32.3,58.3,32.6,58,33z M34,3c0-1.1-0.9-2-2-2c-1.1,0-2,0.9-2,2v46H15v4h34v-4H34 V3z M40.9,57.7C40.8,57.3,40.4,57,40,57c-0.6,0-1,0.5-1,1v5h1l2-0.7L40.9,57.7L40.9,57.7z"></path> </g> </g> <g id="Rectangle_31_copy"> <g> <path fill="#323232" d="M50,53l0-4c0-0.6-0.4-1-1-1l-14,0l0-45c0-1.7-1.4-3-3-3c-1.6,0-3,1.3-3,3l0,45l-14,0c-0.6,0-1,0.4-1,1 l0,4c0,0.6,0.4,1,1,1l0.9,0L15,61c0,1.7,1.3,3,3,3h28c1.7,0,3-1.3,3-3l-0.9-7H49C49.5,54,50,53.6,50,53z M32,2c0.5,0,1,0.4,1,1 v45l-2,0l0-45C31,2.4,31.5,2,32,2z M46,62H18c-0.6,0-1-0.4-1-1l0.9-7l28.2,0l0.9,7C47,61.6,46.5,62,46,62z M16,52l0-2l32,0l0,2 L16,52z"></path> </g> </g> </g> <g id="Home_cleaning_1_"> </g> <g id="Water_tank_cleaning_1_"> </g> <g id="Other_4_1_"> </g> <g id="Pest_control_1_"> </g> <g id="General_pest_control_1_"> </g> <g id="White_ants_1_"> </g> <g id="Other_5_1_"> </g> <g id="Walls_2_"> </g> <g id="Paint_2_"> </g> <g id="Paint_treatment_1_"> </g> <g id="Wallpaper_2_"> </g> <g id="Other_6_1_"> </g> <g id="Security_system_1_"> </g> <g id="Surveillance_cameras_1_"> </g> <g id="Anti_theft_system_1_"> </g> <g id="Other_7_1_"> </g> <g id="Mounting_and_assembly_1_"> </g> <g id="Install_wall_frames_and_furniture_1_"> </g> <g id="Other_8_1_"> </g> <g id="Carpentry_2_"> </g> <g id="Woodwork_2_"> </g> </g> <g id="Titles_1_"> <g id="AC_1_"> </g> <g id="Install_AC_1_"> </g> <g id="AC_Cleaning"> </g> <g id="Relocate_and_x0D_Install_AC"> </g> <g id="Overall_Maintenance_x0D_Package"> </g> <g id="Freon_Refill"> </g> <g id="Fix_Issue"> </g> <g id="Other_8_"> </g> <g id="Electrical_1_"> </g> <g id="Lighting_1_"> </g> <g id="Ceiling_x0D_Exhaust_Fan"> </g> <g id="Electrical_Plugs"> </g> <g id="Fix_Cabling_Issue"> </g> <g id="Convert_110V_x0D_to_220V"> </g> <g id="Fix_circuit_x0D_breaker"> </g> <g id="Other_7_"> </g> <g id="Plumbing_1_"> </g> <g id="Leakage_and_x0D_Blockage"> </g> <g id="Mixer_1_"> </g> <g id="Sinks_1_"> </g> <g id="Valves_1_"> </g> <g id="Hoses_and_x0D_Nozzle"> </g> <g id="Toilet_1_"> </g> <g id="Bathtub_and_x0D_Showers"> </g> <g id="Water_x0D_heaters"> </g> <g id="Water_x0D_Pumps"> </g> <g id="Other_6_"> </g> <g id="Cleaning_1_"> </g> <g id="Home_Cleaning"> </g> <g id="Other_5_"> </g> <g id="Water_Tank_x0D_Cleaning"> </g> <g id="Pest_Control"> </g> <g id="General_Pest_x0D_Control"> </g> <g id="White_Ants"> </g> <g id="Other_4_"> </g> <g id="Walls_1_"> </g> <g id="Paint_1_"> </g> <g id="Paint_x0D_Treatment"> </g> <g id="Wallpaper_1_"> </g> <g id="Other_3_"> </g> <g id="Security_x0D_System"> </g> <g id="Surveillance_x0D_Cameras"> </g> <g id="Anti_Theft_x0D_System"> </g> <g id="Other_2_"> </g> <g id="Mounting_and_x0D_Assembly"> </g> <g id="Install_Wall_Frames_and_Furniture_1_"> </g> <g id="Other_1_"> </g> <g id="Carpentry_1_"> </g> <g id="Woodwork_1_"> </g> </g> </svg> 