<?xml version="1.0" encoding="UTF-8"?> <!-- Generator: Adobe Illustrator 16.0.0, SVG Export Plug-In . SVG Version: 6.00 Build 0) --> <svg xmlns="http://www.w3.org/2000/svg" xmlns:xlink="http://www.w3.org/1999/xlink" version="1.1" x="0px" y="0px" width="64px" height="64px" viewBox="0 0 64 64" xml:space="preserve"> <g id="Background_xA0_Image_1_"> </g> <g id="Icons_1_"> <g id="AC_2_"> </g> <g id="Install_AC_2_"> </g> <g id="Relocate_and_install_AC_1_"> </g> <g id="AC_cleaning_1_"> </g> <g id="Overall_maintenance_package_1_"> </g> <g id="Freon_refill_1_"> </g> <g id="Fix_issue_1_"> </g> <g id="Other_9_"> </g> <g id="Electrical_2_"> <g id="Shape_13_copy"> <g> <path fill="#FFFFFF" d="M48,29H37c-0.6,0-1-0.4-1-1c0-0.1,0-0.1,0-0.2l0,0L41,8.7L16,35h11c0.6,0,1,0.4,1,1c0,0.1,0,0.1,0,0.2 l0,0L23,55.3L48,29z"></path> </g> </g> <g id="Shape_13"> <g> <path fill="#323232" d="M49,29c0-0.6-0.4-1-1-1H37.3L43,7.2l0,0c0-0.1,0-0.1,0-0.2c0-0.6-0.4-1-1-1c-0.3,0-0.5,0.1-0.7,0.3l0,0 l-26,28l0,0C15.1,34.5,15,34.7,15,35c0,0.6,0.4,1,1,1h10.7L21,56.8l0,0c0,0.1,0,0.1,0,0.2c0,0.6,0.4,1,1,1 c0.3,0,0.5-0.1,0.7-0.3l0,0l26-28l0,0C48.9,29.5,49,29.3,49,29z M24,53.3L29,35.2l0,0c0-0.1,0-0.1,0-0.2c0-0.6-0.4-1-1-1h-9.7 L40,10.7L35,28.8l0,0c0,0.1,0,0.1,0,0.2c0,0.6,0.4,1,1,1h9.7L24,53.3z"></path> </g> </g> <g id="Rounded_Rectangle_16_copy_3"> <g> <path fill="#FFC20E" d="M10,32c0-0.6-0.4-1-1-1H1c-0.6,0-1,0.4-1,1c0,0.6,0.4,1,1,1h8C9.6,33,10,32.6,10,32z M54.5,22.9l6-3 c0.5-0.3,0.6-0.9,0.4-1.4s-0.9-0.6-1.4-0.4l-6,3c-0.5,0.3-0.6,0.9-0.4,1.4S54,23.1,54.5,22.9z M9.5,41.1l-6,3 C3,44.4,2.9,45,3.1,45.5s0.9,0.6,1.4,0.4l6-3c0.5-0.3,0.6-0.9,0.4-1.4S10,40.9,9.5,41.1z M10.5,21.1l-6-3 C4,17.9,3.4,18,3.1,18.5S3,19.6,3.5,19.9l6,3c0.5,0.3,1.1,0.1,1.4-0.4S11,21.4,10.5,21.1z M63,31h-8c-0.6,0-1,0.4-1,1 c0,0.6,0.4,1,1,1h8c0.6,0,1-0.4,1-1C64,31.4,63.6,31,63,31z M60.5,44.1l-6-3c-0.5-0.3-1.1-0.1-1.4,0.4s-0.1,1.1,0.4,1.4l6,3 c0.5,0.3,1.1,0.1,1.4-0.4S61,44.4,60.5,44.1z"></path> </g> </g> </g> <g id="Lighting_2_"> </g> <g id="Electrical_plugs_1_"> </g> <g id="Cooling_exhaust_fan_1_"> </g> <g id="Fix_cabling_issue_1_"> </g> <g id="Convert_110V_to_220V_1_"> </g> <g id="Fix_circuit_breaker_1_"> </g> <g id="Other_2_1_"> </g> <g id="Plumbing_2_"> </g> <g id="Leakage__x26__blockings_1_"> </g> <g id="Sinks_2_"> </g> <g id="Mixer_2_"> </g> <g id="Valves_2_"> </g> <g id="Hoses__x26__nozzle_1_"> </g> <g id="Toilet_2_"> </g> <g id="Bathtub__x26__showers_1_"> </g> <g id="Water_heaters_1_"> </g> <g id="Water_pumps_1_"> </g> <g id="Other_3_1_"> </g> <g id="Cleaning_2_"> </g> <g id="Home_cleaning_1_"> </g> <g id="Water_tank_cleaning_1_"> </g> <g id="Other_4_1_"> </g> <g id="Pest_control_1_"> </g> <g id="General_pest_control_1_"> </g> <g id="White_ants_1_"> </g> <g id="Other_5_1_"> </g> <g id="Walls_2_"> </g> <g id="Paint_2_"> </g> <g id="Paint_treatment_1_"> </g> <g id="Wallpaper_2_"> </g> <g id="Other_6_1_"> </g> <g id="Security_system_1_"> </g> <g id="Surveillance_cameras_1_"> </g> <g id="Anti_theft_system_1_"> </g> <g id="Other_7_1_"> </g> <g id="Mounting_and_assembly_1_"> </g> <g id="Install_wall_frames_and_furniture_1_"> </g> <g id="Other_8_1_"> </g> <g id="Carpentry_2_"> </g> <g id="Woodwork_2_"> </g> </g> <g id="Titles_1_"> <g id="AC_1_"> </g> <g id="Install_AC_1_"> </g> <g id="AC_Cleaning"> </g> <g id="Relocate_and_x0D_Install_AC"> </g> <g id="Overall_Maintenance_x0D_Package"> </g> <g id="Freon_Refill"> </g> <g id="Fix_Issue"> </g> <g id="Other_8_"> </g> <g id="Electrical_1_"> </g> <g id="Lighting_1_"> </g> <g id="Ceiling_x0D_Exhaust_Fan"> </g> <g id="Electrical_Plugs"> </g> <g id="Fix_Cabling_Issue"> </g> <g id="Convert_110V_x0D_to_220V"> </g> <g id="Fix_circuit_x0D_breaker"> </g> <g id="Other_7_"> </g> <g id="Plumbing_1_"> </g> <g id="Leakage_and_x0D_Blockage"> </g> <g id="Mixer_1_"> </g> <g id="Sinks_1_"> </g> <g id="Valves_1_"> </g> <g id="Hoses_and_x0D_Nozzle"> </g> <g id="Toilet_1_"> </g> <g id="Bathtub_and_x0D_Showers"> </g> <g id="Water_x0D_heaters"> </g> <g id="Water_x0D_Pumps"> </g> <g id="Other_6_"> </g> <g id="Cleaning_1_"> </g> <g id="Home_Cleaning"> </g> <g id="Other_5_"> </g> <g id="Water_Tank_x0D_Cleaning"> </g> <g id="Pest_Control"> </g> <g id="General_Pest_x0D_Control"> </g> <g id="White_Ants"> </g> <g id="Other_4_"> </g> <g id="Walls_1_"> </g> <g id="Paint_1_"> </g> <g id="Paint_x0D_Treatment"> </g> <g id="Wallpaper_1_"> </g> <g id="Other_3_"> </g> <g id="Security_x0D_System"> </g> <g id="Surveillance_x0D_Cameras"> </g> <g id="Anti_Theft_x0D_System"> </g> <g id="Other_2_"> </g> <g id="Mounting_and_x0D_Assembly"> </g> <g id="Install_Wall_Frames_and_Furniture_1_"> </g> <g id="Other_1_"> </g> <g id="Carpentry_1_"> </g> <g id="Woodwork_1_"> </g> </g> </svg> 