<?xml version="1.0" encoding="UTF-8"?> <!-- Generator: Adobe Illustrator 16.0.0, SVG Export Plug-In . SVG Version: 6.00 Build 0) --> <svg xmlns="http://www.w3.org/2000/svg" xmlns:xlink="http://www.w3.org/1999/xlink" version="1.1" id="Layer_1" x="0px" y="0px" width="64px" height="64px" viewBox="0 0 64 64" xml:space="preserve"> <g id="Establishment_of_new_plumbing_work_2_"> <g id="Rounded_Rectangle_222"> <g> <path fill="#FFFFFF" d="M16,23c2.972,0,6.433-2.163,6.91-5H28c2.209,0,3,0.791,3,3v7h4v-7c0-3.313-3.687-7-7-7h-5.09 c-0.477-2.837-3.938-5-6.91-5s-6.433,2.163-6.91,5H1v4h8.09C9.567,20.837,13.028,23,16,23z M52,32h9c1.104,0,2-0.896,2-2 s-0.896-2-2-2h-9l-5,3h-6v4h6L52,32z M24,43c-3.313,0-7,3.688-7,7v3c0,3.866-2.134,6-6,6s-6-2.134-6-6V33H1v20 c0,4.971,5.029,10,10,10s10-5.029,10-10v-3c0-2.209,0.791-3,3-3h40v-4H24z"></path> </g> </g> <g id="Rounded_Rectangle_174"> <g> <path fill="#FFC20E" d="M24,1H8C7.448,1,7,1.447,7,2v2c0,0.553,0.448,1,1,1h16c0.552,0,1-0.447,1-1V2C25,1.447,24.552,1,24,1z M31,49h4v-8h-4V49z M53,41v8h4v-8H53z M39,51h10V39H39V51z"></path> </g> </g> <g id="Shape_167"> <g> <path fill="#323232" d="M1,19h7.587c1.188,2.931,4.057,5,7.413,5s6.226-2.069,7.413-5H28c1.104,0,2,0.896,2,2v7 c0,0.553,0.448,1,1,1h4c0.552,0,1-0.447,1-1v-7c0-4.418-3.582-8-8-8h-4.587C22.346,10.366,19.917,8.442,17,8.077V6h6 c1.657,0,3-1.343,3-3c0-1.656-1.343-3-3-3H9C7.343,0,6,1.344,6,3c0,1.657,1.343,3,3,3h6v2.077 C12.083,8.442,9.654,10.366,8.587,13H1c-0.552,0-1,0.447-1,1v4C0,18.553,0.448,19,1,19z M9,4C8.448,4,8,3.553,8,3s0.448-1,1-1h14 c0.552,0,1,0.447,1,1s-0.448,1-1,1H9z M2,15h8.09c0.477-2.837,2.938-5,5.91-5s5.433,2.163,5.91,5H28c3.313,0,6,2.687,6,6v6h-2v-6 c0-2.209-1.791-4-4-4h-6.09c-0.477,2.837-2.938,5-5.91,5s-5.433-2.163-5.91-5H2V15z M58,41c0-0.553-0.448-1-1-1h-4 c-0.552,0-1,0.447-1,1v1h-2v-3c0-0.553-0.448-1-1-1h-4v-2h2c0.161,0,0.309-0.047,0.443-0.114l0.004,0.009L53.236,33H61 c1.657,0,3-1.343,3-3c0-1.656-1.343-3-3-3h-9c-0.188,0-0.355,0.066-0.506,0.157l-0.01-0.015L46.723,30H45v-1c0-0.552-0.448-1-1-1 s-1,0.448-1,1v1h-2c-0.552,0-1,0.448-1,1v4c0,0.553,0.448,1,1,1h2v2h-4c-0.552,0-1,0.447-1,1v3h-2v-1c0-0.553-0.448-1-1-1h-4 c-0.552,0-1,0.447-1,1v1h-6c-4.418,0-8,3.582-8,8v3c0,2.762-2.239,5-5,5s-5-2.238-5-5V34c0-0.553-0.448-1-1-1s-1,0.447-1,1v19 c0,3.866,3.134,7,7,7s7-3.134,7-7v-3c0-3.312,2.687-6,6-6h6v2h-6c-2.209,0-4,1.791-4,4v3c0,4.971-4.029,9-9,9s-9-4.029-9-9V34 c0-0.553-0.448-1-1-1s-1,0.447-1,1v19c0,6.075,4.925,11,11,11s11-4.925,11-11v-3c0-1.104,0.896-2,2-2h6v1c0,0.553,0.448,1,1,1h4 c0.552,0,1-0.447,1-1v-1h2v3c0,0.553,0.448,1,1,1h10c0.552,0,1-0.447,1-1v-3h2v1c0,0.553,0.448,1,1,1h4c0.552,0,1-0.447,1-1v-1h6 v-2h-6v-2h6v-2h-6V41z M48,31.566L52.277,29H61c0.552,0,1,0.447,1,1s-0.448,1-1,1h-8c-0.161,0-0.309,0.047-0.443,0.114 l-0.004-0.009L48,33.382V31.566z M34,48h-2v-6h2V48z M38,46h-2v-2h2V46z M42,34v-2h4v2H42z M48,50h-8V40h8V50z M52,46h-2v-2h2V46 z M56,48h-2v-6h2V48z"></path> </g> </g> </g> </svg> 