<?xml version="1.0" encoding="UTF-8"?> <!-- Generator: Adobe Illustrator 16.0.0, SVG Export Plug-In . SVG Version: 6.00 Build 0) --> <svg xmlns="http://www.w3.org/2000/svg" xmlns:xlink="http://www.w3.org/1999/xlink" version="1.1" x="0px" y="0px" width="64px" height="64px" viewBox="0 0 64 64" xml:space="preserve"> <g id="Background_xA0_Image_1_"> </g> <g id="Icons_1_"> <g id="AC_2_"> </g> <g id="Install_AC_2_"> </g> <g id="Relocate_and_install_AC_1_"> </g> <g id="AC_cleaning_1_"> </g> <g id="Overall_maintenance_package_1_"> </g> <g id="Freon_refill_1_"> </g> <g id="Fix_issue_1_"> </g> <g id="Other_9_"> </g> <g id="Electrical_2_"> </g> <g id="Lighting_2_"> </g> <g id="Electrical_plugs_1_"> </g> <g id="Cooling_exhaust_fan_1_"> </g> <g id="Fix_cabling_issue_1_"> </g> <g id="Convert_110V_to_220V_1_"> </g> <g id="Fix_circuit_breaker_1_"> </g> <g id="Other_2_1_"> </g> <g id="Plumbing_2_"> </g> <g id="Leakage__x26__blockings_1_"> </g> <g id="Sinks_2_"> </g> <g id="Mixer_2_"> </g> <g id="Valves_2_"> </g> <g id="Hoses__x26__nozzle_1_"> </g> <g id="Toilet_2_"> </g> <g id="Bathtub__x26__showers_1_"> </g> <g id="Water_heaters_1_"> </g> <g id="Water_pumps_1_"> </g> <g id="Other_3_1_"> </g> <g id="Cleaning_2_"> </g> <g id="Home_cleaning_1_"> </g> <g id="Water_tank_cleaning_1_"> </g> <g id="Other_4_1_"> </g> <g id="Pest_control_1_"> <g id="Ellipse_61"> <g> <circle fill="#FFFFFF" cx="32" cy="32" r="28"></circle> </g> </g> <g id="Rectangle_45_copy_4"> <g> <path fill="#FFC20E" d="M32,1C15.4,1,1,15.4,1,32s14.4,31,31,31s31-14.4,31-31S48.6,1,32,1z M7,32C7,17.6,17.6,7,32,7 c6.5,0,11.4,1.4,15.9,5.3L12.3,47.9C8.4,43.4,7,38.5,7,32z M32,57c-6.5,0-11.4-1.4-15.9-5.3l35.6-35.6C55.6,20.6,57,25.5,57,32 C57,46.4,46.4,57,32,57z"></path> </g> </g> <g id="Rectangle_45_copy_3"> <g> <path fill="#323232" d="M51.7,15.1L15.1,51.7C19.6,55.6,25.5,58,32,58c14.4,0,26-11.6,26-26C58,25.5,55.6,19.6,51.7,15.1z M33,36.7l6.7-6.7h1c0.2,1,0.3,2,0.3,3c0,5.7-3.5,10.3-8,10.9V36.7z M31,38.7v5.3c-0.4-0.1-0.9-0.2-1.3-0.3 c-0.9-0.3-1.6-0.7-2.4-1.3L31,38.7z M32,56c-5.2,0-10-1.7-13.9-4.4l7.8-7.8c1.4,1.1,3.1,1.9,4.9,2.1c0,0,0,0,0.1,0 c0.4,0,0.7,0.1,1.1,0.1c2.7,0,5.1-1.1,7-3c0.3,0,0.6,0,1,0c2.2,0,4,1.8,4,4c0,0.6,0.4,1,1,1c0.6,0,1-0.4,1-1 c0-3.1-2.4-5.6-5.4-5.9c1.3-2,2.2-4.4,2.3-7.1c0,0,0,0,0,0c2.2,0,4,1.8,4,4c0,0.6,0.4,1,1,1c0.6,0,1-0.4,1-1c0-3.3-2.7-6-6-6 c0,0,0,0,0,0c-0.1-1.5-0.4-3-1-4.3l2.1-2.1c1.2,0.7,1.9,2,1.9,3.4c0,0.6,0.4,1,1,1c0.6,0,1-0.4,1-1c0-2-1-3.8-2.5-4.8l6-6 C54.3,22,56,26.8,56,32C56,45.3,45.3,56,32,56z M32,0C14.3,0,0,14.3,0,32s14.3,32,32,32c17.7,0,32-14.3,32-32S49.7,0,32,0z M32,62C15.4,62,2,48.6,2,32S15.4,2,32,2s30,13.4,30,30S48.6,62,32,62z M32,6C17.6,6,6,17.6,6,32c0,6.5,2.4,12.4,6.3,16.9 l36.6-36.6C44.4,8.4,38.5,6,32,6z M32,8c0.1,0,0.1,0,0.2,0c1.3,3,2.8,8.3,2.8,12.5c-1-0.3-2-0.5-3-0.5c-1,0-2.1,0.2-3,0.5 c-0.1-4.3-1.7-9-3.1-11.7C27.8,8.3,29.9,8,32,8z M12.4,45.9C9.7,42,8,37.2,8,32c0-10.4,6.7-19.3,16-22.6c1.4,2.4,3,7,3,11.6 c0,0.1,0,0.3,0.1,0.4c-0.9,0.5-1.6,1.2-2.4,1.9c-0.1,0.1-0.2,0.1-0.2,0.2C23.7,23.2,22.9,23,22,23c-3.3,0-6,2.7-6,6 c0,0.6,0.4,1,1,1c0.6,0,1-0.4,1-1c0-2.2,1.8-4,4-4c0.4,0,0.8,0.1,1.2,0.2c-1.2,1.9-2,4.3-2.2,6.8c0,0,0,0,0,0c-3.3,0-6,2.7-6,6 c0,0.6,0.4,1,1,1c0.6,0,1-0.4,1-1c0-2.2,1.8-4,4-4c0,0,0,0,0,0c0.1,1,0.2,1.9,0.5,2.8L12.4,45.9z M23.2,35.2 C23.1,34.5,23,33.7,23,33c0-1,0.1-2,0.3-3h5L23.2,35.2z M30.3,28H29H24c1.6-3.5,4.5-6,8-6c1.2,0,2.4,0.3,3.5,0.9L30.3,28z M36.9,21.4c0-0.1,0.1-0.3,0.1-0.4c0-4.2-1.3-9.6-2.6-12.9c4.3,0.4,8.2,2,11.5,4.3L36.9,21.4C36.9,21.4,36.9,21.4,36.9,21.4z"></path> </g> </g> </g> <g id="General_pest_control_1_"> </g> <g id="White_ants_1_"> </g> <g id="Other_5_1_"> </g> <g id="Walls_2_"> </g> <g id="Paint_2_"> </g> <g id="Paint_treatment_1_"> </g> <g id="Wallpaper_2_"> </g> <g id="Other_6_1_"> </g> <g id="Security_system_1_"> </g> <g id="Surveillance_cameras_1_"> </g> <g id="Anti_theft_system_1_"> </g> <g id="Other_7_1_"> </g> <g id="Mounting_and_assembly_1_"> </g> <g id="Install_wall_frames_and_furniture_1_"> </g> <g id="Other_8_1_"> </g> <g id="Carpentry_2_"> </g> <g id="Woodwork_2_"> </g> </g> <g id="Titles_1_"> <g id="AC_1_"> </g> <g id="Install_AC_1_"> </g> <g id="AC_Cleaning"> </g> <g id="Relocate_and_x0D_Install_AC"> </g> <g id="Overall_Maintenance_x0D_Package"> </g> <g id="Freon_Refill"> </g> <g id="Fix_Issue"> </g> <g id="Other_8_"> </g> <g id="Electrical_1_"> </g> <g id="Lighting_1_"> </g> <g id="Ceiling_x0D_Exhaust_Fan"> </g> <g id="Electrical_Plugs"> </g> <g id="Fix_Cabling_Issue"> </g> <g id="Convert_110V_x0D_to_220V"> </g> <g id="Fix_circuit_x0D_breaker"> </g> <g id="Other_7_"> </g> <g id="Plumbing_1_"> </g> <g id="Leakage_and_x0D_Blockage"> </g> <g id="Mixer_1_"> </g> <g id="Sinks_1_"> </g> <g id="Valves_1_"> </g> <g id="Hoses_and_x0D_Nozzle"> </g> <g id="Toilet_1_"> </g> <g id="Bathtub_and_x0D_Showers"> </g> <g id="Water_x0D_heaters"> </g> <g id="Water_x0D_Pumps"> </g> <g id="Other_6_"> </g> <g id="Cleaning_1_"> </g> <g id="Home_Cleaning"> </g> <g id="Other_5_"> </g> <g id="Water_Tank_x0D_Cleaning"> </g> <g id="Pest_Control"> </g> <g id="General_Pest_x0D_Control"> </g> <g id="White_Ants"> </g> <g id="Other_4_"> </g> <g id="Walls_1_"> </g> <g id="Paint_1_"> </g> <g id="Paint_x0D_Treatment"> </g> <g id="Wallpaper_1_"> </g> <g id="Other_3_"> </g> <g id="Security_x0D_System"> </g> <g id="Surveillance_x0D_Cameras"> </g> <g id="Anti_Theft_x0D_System"> </g> <g id="Other_2_"> </g> <g id="Mounting_and_x0D_Assembly"> </g> <g id="Install_Wall_Frames_and_Furniture_1_"> </g> <g id="Other_1_"> </g> <g id="Carpentry_1_"> </g> <g id="Woodwork_1_"> </g> </g> </svg> 