<?xml version="1.0" encoding="UTF-8"?> <!-- Generator: Adobe Illustrator 16.0.0, SVG Export Plug-In . SVG Version: 6.00 Build 0) --> <svg xmlns="http://www.w3.org/2000/svg" xmlns:xlink="http://www.w3.org/1999/xlink" version="1.1" id="Layer_1" x="0px" y="0px" width="64px" height="64px" viewBox="0 0 64 64" xml:space="preserve"> <g id="Satellite_and_Channel_receiver_1_"> <g id="Shape_99"> <g> <path fill="#FFFFFF" d="M12.042,15.387C8.325,19.168,5,25.307,5,31c0,11.598,10.506,22,22.219,22 c5.75,0,11.95-3.292,15.769-6.973L12.042,15.387z"></path> </g> </g> <g id="Shape_104"> <g> <path fill="#777777" d="M39,18c-1.104,0-2,0.896-2,2c0,0.117,0.016,0.23,0.034,0.342l-10.741,8.951l3.414,3.414l8.951-10.741 C38.77,21.984,38.883,22,39,22c1.104,0,2-0.896,2-2S40.104,18,39,18z"></path> </g> </g> <g id="Shape_103"> <g> <path fill="#323232" d="M43.707,45.293l-31-31C12.526,14.112,12.276,14,12,14c-0.708,0-0.957,0.458-0.957,0.458 C6.708,18.641,4,24.5,4,31c0,7.328,3.438,13.841,8.777,18.053L4.159,62.459l0.016,0.01C4.073,62.625,4,62.801,4,63 c0,0.553,0.448,1,1,1h18c0.552,0,1-0.447,1-1c0-0.199-0.073-0.375-0.174-0.531l0.015-0.01l-6.957-10.82 C19.938,53.143,23.366,54,27,54c6.5,0,12.359-2.708,16.542-7.043c0,0,0.458-0.249,0.458-0.957 C44,45.725,43.889,45.475,43.707,45.293z M14,50.85l2.505,3.896L14,56.287l-2.505-1.541L14,50.85z M10.414,56.43l1.678,1.032 l-3.876,2.386L10.414,56.43z M8.533,62L14,58.636L19.467,62H8.533z M17.586,56.43l2.198,3.418l-3.876-2.386L17.586,56.43z M27,52 C15.402,52,6,42.598,6,31c0-5.693,2.292-10.832,5.973-14.613l29.64,29.64C37.832,49.708,32.693,52,27,52z"></path> </g> </g> <g id="Rectangle_217"> <g> <path fill="#FFC20E" d="M39,0c-9.801,0-17.94,7.055-19.653,16.36l1.965,0.364C22.854,8.35,30.179,2,39,2c9.941,0,18,8.059,18,18 c0,9.01-6.626,16.45-15.266,17.771l0.304,1.975C51.639,38.277,59,30.01,59,20C59,8.954,50.046,0,39,0z M47,20 c0-4.418-3.582-8-8-8c-3.92,0-7.176,2.822-7.861,6.544l1.97,0.365C33.624,16.118,36.061,14,39,14c3.312,0,6,2.687,6,6 c0,3.002-2.212,5.468-5.091,5.908l0.306,1.99C44.055,27.312,47,24.004,47,20z M53,20c0-7.732-6.268-14-14-14 c-6.861,0-12.558,4.938-13.757,11.452l1.965,0.364C28.236,12.233,33.12,8,39,8c6.627,0,12,5.373,12,12 c0,6.006-4.417,10.967-10.177,11.848l0.304,1.974C47.848,32.795,53,27.007,53,20z"></path> </g> </g> </g> </svg> 