<?xml version="1.0" encoding="UTF-8"?> <svg xmlns="http://www.w3.org/2000/svg" xmlns:xlink="http://www.w3.org/1999/xlink" version="1.1" x="0px" y="0px" width="64px" viewBox="0 0 1000 1000" xml:space="preserve" height="64px"> <g><g transform="translate(0.000000,512.000000) scale(0.100000,-0.100000)"> <path fill="#ddd" stroke="#3f4141" d="M0 0h220v220H0z"></path><path d="M3355.2,4972.1l-47.9-45.9v-518.8v-518.8l47.9-45.9l45.9-47.9h451.8c247,0,449.9-3.8,449.9-9.6c0-5.7-67-90-149.3-185.7c-474.8-568.6-786.8-1077.8-804-1317.1c-11.5-149.3,32.5-241.2,137.8-289.1c91.9-42.1,153.1-44,243.1-13.4c245,82.3,681.5,499.6,1125.6,1073.9c86.1,113,164.6,204.8,170.4,204.8c7.7-1.9,72.8-76.6,145.5-166.6c82.3-101.5,157-174.2,195.3-189.5c53.6-23,348.4-26.8,1680.8-26.8c1510.4,0,1617.6,1.9,1655.9,34.4c21.1,17.2,45.9,59.4,51.7,90c9.6,53.6-30.6,114.9-407.8,631.7c-470.9,647-717.9,976.3-911.2,1221.3l-134,166.5H5351.9H3401.2L3355.2,4972.1z" style="&#10; fill: #ffc20e;&#10; stroke: #3e3c3c;&#10; stroke-width: 150px;&#10; /* stroke-dasharray: 2,2; */&#10; stroke-linejoin: round;&#10;"></path> <path style="/* stroke: #ffc20e; *//* stroke-width: 150px; *//* stroke-dasharray: 2,2; *//* stroke-linejoin: round; *//* text-shadow: 0 0 black; */fill: #484848;stroke: #ffc20e;stroke-width: 150px;/* stroke-dasharray: 2,2; */stroke-linejoin: round;" d="M1752.9,4229.4c-486.2-153.1-526.4-176.1-505.4-289.1c15.3-80.4,55.5-126.3,111-126.3c61.3,0,957.2,248.9,1005,279.5c55.5,34.5,72.7,109.1,44,181.9C2354,4403.6,2294.7,4399.8,1752.9,4229.4z"></path><path d="M2183.6,3496.2c-407.7-335-426.9-354.2-426.9-438.4c0-103.4,113-185.7,195.3-141.7c51.7,26.8,673.9,518.8,758.1,597.3c47.9,45.9,61.3,74.7,61.3,128.3c0,95.7-45.9,134-158.9,134C2528.2,3775.7,2512.9,3766.1,2183.6,3496.2z" style="&#10; fill: #484848;&#10; stroke: #ffc20e;&#10; stroke-width: 150px;&#10; /* stroke-dasharray: 2,2; */&#10; stroke-linejoin: round;&#10;"></path><path d="M3083.4,3488.5c-55.5-23-61.2-32.5-237.4-526.4c-124.4-346.5-153.1-446-143.6-497.7c15.3-74.7,90-143.6,157-143.6c97.6,0,134,65.1,302.5,560.9c179.9,526.4,181.9,547.5,59.3,597.3C3146.6,3511.5,3140.8,3511.5,3083.4,3488.5z" style="&#10; fill: #484848;&#10; stroke: #ffc20e;&#10; stroke-width: 150px;&#10; /* stroke-dasharray: 2,2; */&#10; stroke-linejoin: round;&#10;"></path><path d="M5149,2228.9c5.7-356.1,7.7-381,49.8-438.4c23-32.5,80.4-78.5,124.4-99.5c80.4-38.3,109.1-40.2,1083.5-40.2c1112.2,0,1098.8-1.9,1158.2,124.4c24.9,49.8,30.6,135.9,30.6,426.9v363.7l-597.3,11.5c-329.3,5.8-882.5,15.3-1227.1,19.1l-627.9,9.6L5149,2228.9z" style="&#10; /* stroke: #d41818; */&#10; /* stroke-width: 1px; */&#10; /* stroke-dasharray: 2,2; */&#10; /* stroke-linejoin: round; */&#10; fill: #FFC107;&#10; stroke: #3e3c3c;&#10; stroke-width: 150px;&#10; /* stroke-dasharray: 2,2; */&#10; stroke-linejoin: round;&#10;"></path><path d="M5238.9,1287c-93.8-291-363.7-532.2-806-717.9c-310.1-130.2-380.9-168.5-513-277.6c-212.5-178-384.8-432.6-457.5-679.6c-21.1-72.7-57.4-268-78.5-430.7c-86.1-670-250.8-2463.7-252.7-2756.6c-3.8-348.4,109.1-622.2,358-872.9c158.9-160.8,262.3-227.8,446-294.8c107.2-38.3,135.9-40.2,1929.7-34.5l1820.5,5.7l170.4,84.2c419.3,208.7,702.6,675.8,700.7,1160.1c0,153.1-55.5,430.7-499.6,2488.6c-275.7,1275-505.4,2333.6-511.1,2354.6c-9.6,38.3-24.9,38.3-1148.6,38.3H5260L5238.9,1287z M6646-721.1c26.8-30.6,32.5-70.8,28.7-243.1c-1.9-113,3.8-208.7,13.4-210.6c90-19.1,237.4-76.6,279.5-105.3l53.6-38.3l112.9,76.6c134,91.9,170.4,95.7,248.9,28.7c103.4-86.2,74.6-176.1-93.8-291l-88-57.4l19.1-126.4l19.1-124.4l130.2-40.2c103.4-30.6,135.9-49.8,158.9-95.7c47.9-91.9,38.3-166.5-28.7-201c-76.6-40.2-128.3-36.4-269.9,17.2l-122.5,45.9l-74.7-65.1l-72.7-63.2l49.8-59.4c65.1-78.5,63.2-141.7-5.8-212.5c-86.1-84.2-155-76.6-271.8,34.5l-97.6,90l-88-45.9c-47.9-26.8-90-57.4-93.8-68.9c-3.8-11.5,181.9-202.9,413.5-426.9c231.6-223.9,426.9-423,432.6-444.1c17.2-53.6-23-143.6-78.5-180c-107.2-68.9-120.6-59.3-591.5,430.7l-438.4,459.4l-63.2-61.3c-103.4-99.6-101.5-118.7,40.2-264.2c143.6-147.4,156.9-201,76.6-279.5c-65.1-67-124.4-49.8-247,70.8c-53.6,51.7-103.4,93.8-111,93.8s-34.5-40.2-59.3-90c-24.9-51.7-72.8-126.3-103.4-166.6l-55.5-74.6l63.2-158.9c36.4-88.1,65.1-181.9,65.1-206.8c0-70.8-88-132.1-170.4-118.7c-97.6,15.3-145.5,72.7-191.4,231.6l-42.1,143.6h-76.6c-95.7,0-214.4,59.3-315.9,157l-78.5,74.6l-189.5-114.9c-218.2-135.9-300.6-149.3-381-68.9c-109.1,107.2-30.6,216.3,237.4,325.4c97.6,40.2,179.9,82.3,183.8,93.8c3.8,11.5,11.5,103.4,17.2,204.8l9.6,183.8l-195.3,45.9c-224,51.7-281.4,91.9-281.4,197.2c0,47.9,13.4,76.6,49.8,105.3c63.2,49.8,112.9,49.8,294.8,1.9c78.5-21.1,157-38.3,172.3-38.3c17.2,0,55.5,51.7,91.9,124.4c34.5,68.9,61.3,128.3,61.3,132.1c0,3.8-55.5,42.1-120.6,86.2c-224,145.5-268,229.7-170.4,327.3c32.5,30.6,78.5,57.4,103.4,57.4c24.9,0,116.8-47.9,204.8-107.2l158.9-107.2l45.9,44l45.9,44l-361.8,363.7c-227.8,229.7-367.6,384.8-375.2,419.2c-24.9,95.7,80.4,201,176.1,176.1c26.8-5.7,218.2-174.2,428.8-375.2l379-363.7l99.6,67c53.6,38.3,111,68.9,126.3,68.9c15.3,0,24.9,11.5,19.1,24.9c-149.3,367.6-153.2,409.7-51.7,463.3c122.5,63.2,172.3,23,268-214.4c34.5-88.1,67-158.9,74.7-158.9c5.7,1.9,59.3,17.2,116.8,38.3s132.1,36.4,162.7,38.3h57.4l-5.7,212.5c-7.7,199.1-3.8,214.4,36.4,258.4C6466-671.3,6596.2-665.6,6646-721.1z" style="&#10; fill: white;&#10; stroke: #3e3c3c;&#10; stroke-width: 150px;&#10; /* stroke-dasharray: 2,2; */&#10; stroke-linejoin: round;&#10;"></path><path d="M6322.4-1500.2c-124.4-26.8-469-180-555.1-247c-36.4-28.7-26.8-38.3,202.9-269.9l241.2-241.2l319.7,158.9c390.5,195.3,421.2,222.1,407.8,348.4c-9.6,99.6-70.8,183.8-172.3,237.4C6686.2-1473.4,6477.5-1465.8,6322.4-1500.2z M6452.6-1641.9c97.6-76.6,84.2-241.2-23-296.7c-86.1-44-132.1-36.4-204.8,36.4c-84.2,84.2-88.1,164.6-9.6,243.1C6284.1-1592.1,6379.9-1584.5,6452.6-1641.9z" style="&#10; fill: #ffc20e;&#10; /* stroke: #ffc20e; */&#10; stroke-width: 150px;&#10; /* stroke-dasharray: 2,2; */&#10; stroke-linejoin: round;&#10;"></path><path d="M5418.9-2070.7c-216.3-264.2-382.9-752.3-342.7-1012.7c28.7-183.8,193.3-285.3,321.6-201c26.8,17.2,90,112.9,139.7,210.6c120.6,233.6,195.3,348.4,323.5,499.6l105.3,126.3l-235.5,220.2c-130.2,122.5-241.2,222.1-247,222.1C5478.2-2005.6,5449.5-2034.3,5418.9-2070.7z" style="&#10; fill: #ffc20e;&#10; /* stroke: #ffc20e; */&#10; stroke-width: 150px;&#10; /* stroke-dasharray: 2,2; */&#10; stroke-linejoin: round;&#10;"></path></g></g> </svg> 