<svg width="516" height="424" viewBox="0 0 516 424" fill="none" xmlns="http://www.w3.org/2000/svg">
<g clip-path="url(#clip0_165_26321)">
<path opacity="0.18" d="M403.206 141.347C433.638 157.57 464.993 174.56 486.205 201.73C498.943 218.066 507.431 237.511 511.9 257.744C519.556 292.28 513.888 332.317 487.551 356.068C478.387 364.369 467.179 370.23 455.618 374.732C431.653 384.048 405.895 387.859 380.253 385.883C359.196 384.244 338.175 378.707 317.224 381.345C291.67 384.553 269.359 399.468 245.553 409.289C215.972 421.444 183.763 425.828 152.001 422.023C143.993 421.052 135.886 419.497 128.843 415.571C120.483 410.907 114.286 403.288 107.695 396.323C92.8334 380.561 75.3035 367.536 55.9104 357.848C45.7381 352.768 34.9596 348.554 26.1267 341.407C2.86376 322.623 -1.11911 289.009 0.234375 259.201C1.58786 229.393 8.32001 196.489 32.2245 178.388C37.5609 174.349 43.567 171.219 48.7412 166.962C65.9981 152.765 71.1582 129.001 82.2117 109.576C106.997 66.1413 162.3 47.1252 212.09 52.5001C283.436 60.2036 341.869 108.655 403.206 141.347Z" fill="#EAC7D1"/>
<g clip-path="url(#clip1_165_26321)">
<path d="M249.591 421.4C232.391 413.2 225.491 393.8 223.091 375.8C222.691 372.8 221.791 369.7 222.791 366.8C223.791 363.9 226.791 361.6 229.691 362.4C232.091 363.1 233.491 365.5 235.091 367.4C237.191 370 240.091 371.9 243.291 372.9C245.391 373.6 247.791 373.8 249.591 372.4C251.891 370.5 251.591 366.9 251.091 363.9C250.091 358.3 249.091 352.8 248.191 347.2C247.691 344.2 247.191 341.2 247.591 338.2C247.991 335.2 249.691 332.2 252.391 331C255.091 329.7 258.891 330.8 259.991 333.6C260.491 334.8 260.391 336.1 260.691 337.3C260.991 338.5 261.791 339.8 262.991 339.9C264.191 340 265.291 339 265.991 338C268.591 334.5 269.991 330.2 271.291 326C272.591 321.8 273.791 317.5 276.091 313.8C278.291 310 281.791 306.8 285.991 305.8C290.191 304.8 295.191 306.7 296.991 310.7C298.791 314.7 297.091 319.4 294.991 323.3C291.891 329 287.991 334.3 283.391 338.9C282.591 339.7 281.691 340.6 281.491 341.8C281.191 343.9 283.391 345.6 285.491 345.9C287.791 346.3 290.191 345.6 292.591 345.5C294.991 345.4 297.691 346 298.891 348C300.591 350.8 298.591 354.5 296.491 357C292.191 362 286.991 366.3 281.291 369.6C279.191 370.8 277.091 371.9 275.491 373.7C273.991 375.5 273.391 378.4 274.791 380.3C276.191 382.2 279.091 382.4 281.291 381.6C283.491 380.8 285.391 379.2 287.391 378C291.191 375.8 296.591 375.1 299.791 378.2C301.891 380.2 302.591 383.5 302.191 386.4C301.791 389.3 300.391 392 298.891 394.5C293.591 403.3 286.291 410.9 277.291 415.9C268.291 420.8 259.591 423.2 249.591 421.4Z" fill="#660D33" fill-opacity="0.07"/>
<path d="M252.29 409.3C253.39 399.8 255.49 389.5 257.99 378.7C258.59 376 259.29 373.4 259.89 370.8C260.49 368.2 261.19 365.6 261.89 363.1C263.39 358.1 265.29 353.4 267.19 349.1C269.09 344.7 270.99 340.6 272.89 336.8C274.79 333 276.59 329.5 278.29 326.3C281.79 320 285.29 315.3 287.79 312.1C288.99 310.5 290.09 309.3 290.69 308.5C290.99 308.1 291.29 307.8 291.49 307.6C291.69 307.4 291.79 307.3 291.79 307.3C291.79 307.3 291.69 307.4 291.59 307.6C291.39 307.8 291.19 308.1 290.79 308.5C290.09 309.3 289.19 310.5 287.89 312.1C285.49 315.3 282.09 320 278.59 326.3C276.79 329.4 275.09 333 273.19 336.8C271.39 340.6 269.39 344.7 267.59 349.1C265.69 353.5 263.89 358.1 262.39 363.1C261.59 365.6 260.99 368.1 260.39 370.7C259.79 373.3 259.09 376 258.49 378.6C255.99 389.3 253.89 399.6 252.69 409.1" fill="#E0E0E0"/>
<path d="M262.19 363.1C262.19 363.1 261.99 362.7 261.69 361.9C261.39 361.1 260.99 359.9 260.59 358.5C259.69 355.6 258.49 351.6 257.29 347.1C256.09 342.6 254.89 338.6 253.89 335.7C253.39 334.3 252.99 333.1 252.69 332.3C252.39 331.5 252.29 331 252.29 331C252.29 331 252.49 331.4 252.89 332.2C253.19 333 253.69 334.1 254.19 335.5C255.29 338.4 256.49 342.4 257.79 346.8C258.99 351.2 260.09 355.2 260.89 358.2C261.29 359.6 261.59 360.7 261.89 361.7C262.09 362.6 262.19 363.1 262.19 363.1Z" fill="#E0E0E0"/>
<path d="M299.291 349.4C299.291 349.4 298.791 349.6 297.791 349.8C296.791 350.1 295.391 350.4 293.691 350.9C290.291 351.9 285.491 353.4 280.391 355.3C275.291 357.2 270.691 359.1 267.391 360.6C265.791 361.3 264.491 362 263.491 362.4C262.591 362.8 262.091 363.1 262.091 363C262.091 363 262.591 362.7 263.391 362.2C264.291 361.7 265.591 361 267.191 360.2C270.391 358.6 274.991 356.6 280.091 354.7C285.191 352.8 289.991 351.3 293.491 350.5C295.191 350 296.691 349.7 297.591 349.6C298.791 349.5 299.291 349.4 299.291 349.4Z" fill="#E0E0E0"/>
<path d="M252.691 408.5C252.691 408.5 252.591 408.4 252.391 408.1C252.191 407.8 251.891 407.3 251.491 406.8C250.691 405.7 249.691 404.1 248.391 402C245.791 397.9 242.391 392.2 238.691 385.8C234.991 379.4 231.691 373.6 229.191 369.5C227.991 367.5 226.991 365.8 226.191 364.6C225.891 364.1 225.591 363.6 225.391 363.3C225.191 363 225.091 362.8 225.191 362.8C225.191 362.8 225.291 362.9 225.491 363.2C225.691 363.5 225.991 364 226.391 364.5C227.191 365.6 228.191 367.2 229.491 369.3C232.091 373.4 235.491 379.1 239.191 385.5C242.891 391.9 246.191 397.7 248.691 401.8C249.891 403.8 250.891 405.5 251.691 406.7C251.991 407.2 252.291 407.7 252.491 408C252.591 408.4 252.691 408.5 252.691 408.5Z" fill="#E0E0E0"/>
<path d="M300.89 383.5C300.89 383.5 300.69 383.6 300.39 383.8C299.99 384 299.59 384.2 298.99 384.5C297.69 385.2 295.99 386.1 293.79 387.2C289.39 389.5 283.49 392.7 276.89 396.2C270.29 399.8 264.29 402.9 259.89 405.1C257.69 406.2 255.89 407.1 254.69 407.6C254.09 407.9 253.59 408.1 253.29 408.3C252.99 408.4 252.79 408.5 252.79 408.5C252.79 408.5 252.99 408.4 253.29 408.2C253.69 408 254.09 407.8 254.69 407.5C255.99 406.8 257.69 405.9 259.89 404.8C264.29 402.5 270.19 399.3 276.79 395.8C283.39 392.2 289.39 389.1 293.79 386.9C295.99 385.8 297.79 384.9 298.99 384.4C299.59 384.1 300.09 383.9 300.39 383.7C300.69 383.5 300.89 383.5 300.89 383.5Z" fill="#E0E0E0"/>
<path d="M123.391 286.6C123.391 286.6 123.791 286.8 124.491 287.2C125.191 287.6 126.191 288.3 127.491 289.1C129.991 290.7 133.391 293 137.091 295.6C140.691 298.2 143.991 300.5 146.491 302.3C147.591 303.1 148.591 303.8 149.391 304.3C150.091 304.8 150.391 305.1 150.391 305.1C150.391 305.1 149.991 304.9 149.291 304.5C148.591 304.1 147.591 303.4 146.291 302.6C143.791 301 140.491 298.6 136.791 296C133.191 293.4 129.891 291.1 127.291 289.3C126.191 288.5 125.191 287.8 124.391 287.3C123.791 286.9 123.391 286.6 123.391 286.6Z" fill="#E0E0E0"/>
<path d="M151.891 304.3C151.791 304.2 156.191 297 161.791 288.2C167.391 279.4 172.091 272.4 172.191 272.4C172.291 272.5 167.891 279.7 162.291 288.5C156.691 297.3 151.991 304.3 151.891 304.3Z" fill="#E0E0E0"/>
<path d="M161.491 349.5C161.491 349.5 161.791 349.1 162.391 348.6C163.091 348 163.991 347.2 165.091 346.2C167.391 344.2 170.491 341.4 173.791 338.3C177.091 335.1 180.091 332.1 182.191 330C183.191 329 183.991 328.1 184.691 327.4C185.291 326.8 185.591 326.5 185.691 326.5C185.691 326.5 185.391 326.9 184.891 327.5C184.391 328.1 183.591 329.1 182.491 330.2C180.491 332.4 177.591 335.5 174.191 338.7C170.891 341.9 167.691 344.6 165.291 346.5C164.091 347.5 163.191 348.2 162.491 348.7C161.891 349.3 161.491 349.6 161.491 349.5Z" fill="#E0E0E0"/>
<path d="M132.191 339.2C132.191 339.2 132.591 339.3 133.391 339.5C134.291 339.8 135.291 340.1 136.591 340.5C139.291 341.3 142.891 342.6 146.991 343.9C150.991 345.3 154.691 346.5 157.291 347.5C158.491 348 159.591 348.3 160.391 348.6C161.091 348.9 161.491 349.1 161.491 349.1C161.491 349.1 161.091 349 160.291 348.8C159.391 348.5 158.391 348.2 157.091 347.8C154.391 347 150.791 345.7 146.691 344.4C142.691 343 138.991 341.8 136.391 340.8C135.191 340.3 134.091 340 133.291 339.7C132.591 339.4 132.191 339.2 132.191 339.2Z" fill="#E0E0E0"/>
<path d="M135.591 380.3C135.591 380.3 136.091 380.4 137.091 380.7C138.191 381 139.491 381.4 141.191 381.9C144.591 383 149.291 384.5 154.491 386.2C159.691 387.9 164.391 389.5 167.791 390.6C169.391 391.2 170.791 391.6 171.791 392C172.691 392.3 173.291 392.6 173.191 392.6C173.191 392.6 172.691 392.5 171.691 392.2C170.591 391.9 169.291 391.5 167.591 391C164.191 389.9 159.491 388.4 154.291 386.7C149.091 385 144.391 383.4 140.991 382.3C139.391 381.7 137.991 381.3 136.991 380.9C136.091 380.5 135.591 380.3 135.591 380.3Z" fill="#E0E0E0"/>
<path d="M172.391 392C172.391 392 172.791 391.5 173.591 390.8C174.491 390 175.591 388.9 176.891 387.7C179.691 385.1 183.491 381.4 187.691 377.3C191.791 373.2 195.491 369.3 198.091 366.5C199.391 365.2 200.391 364 201.191 363.2C201.891 362.4 202.391 362 202.391 362C202.391 362 202.091 362.5 201.391 363.3C200.691 364.1 199.691 365.3 198.391 366.7C195.891 369.6 192.191 373.5 188.091 377.6C183.991 381.8 180.091 385.4 177.191 387.9C175.791 389.2 174.591 390.2 173.791 390.9C172.891 391.7 172.391 392.1 172.391 392Z" fill="#E0E0E0"/>
<path d="M72.9909 51.5998L63.1909 48.5998C63.1909 48.5998 60.5909 56.7998 52.0909 54.2998C47.6909 52.9998 46.2909 49.3998 45.9909 46.8998C45.6909 43.9998 46.9909 41.1998 49.1909 39.1998C51.6909 36.9998 56.0909 35.5998 62.2909 38.7998L69.1909 16.7998L59.5909 13.7998L55.5909 26.6998C55.5909 26.6998 40.9909 25.9998 36.2909 40.8998C31.7909 55.1998 43.5909 62.4998 49.0909 64.1998C53.1909 65.3998 67.7909 68.7998 72.9909 51.5998Z" fill="#660D33" fill-opacity="0.26"/>
<path d="M60.776 9.14799L70.6084 12.2153L73.4673 3.05117L63.6349 -0.0161682L60.776 9.14799Z" fill="#660D33" fill-opacity="0.26"/>
<path d="M99.8903 26.7001L103.79 25.7001C103.79 25.7001 102.89 22.4001 106.29 21.5001C108.09 21.0001 109.29 21.9001 109.89 22.7001C110.59 23.6001 110.79 24.8001 110.49 25.9001C110.09 27.2001 108.89 28.5001 106.19 28.8001L108.49 37.6001L112.39 36.6001L110.99 31.4001C110.99 31.4001 116.09 28.6001 114.49 22.6001C112.99 16.9001 107.49 16.9001 105.29 17.5001C103.59 17.9001 97.9903 19.8001 99.8903 26.7001Z" fill="#660D33" fill-opacity="0.26"/>
<path d="M112.933 38.3242L108.969 39.3701L109.938 43.0443L113.902 41.9984L112.933 38.3242Z" fill="#660D33" fill-opacity="0.26"/>
<path d="M422.69 127.9L426.49 129.3C426.49 129.3 427.69 126.1 430.99 127.3C432.69 127.9 433.19 129.3 433.29 130.3C433.39 131.5 432.79 132.6 431.89 133.3C430.89 134.1 429.09 134.6 426.69 133.2L423.59 141.8L427.39 143.2L429.19 138.2C429.19 138.2 434.99 138.7 437.09 132.9C439.09 127.3 434.59 124.2 432.49 123.5C430.79 122.8 425.09 121.2 422.69 127.9Z" fill="#EBEBEB"/>
<path d="M426.805 144.919L422.95 143.523L421.656 147.096L425.511 148.492L426.805 144.919Z" fill="#EBEBEB"/>
<path d="M19.3909 171.4L27.3909 168.3C27.3909 168.3 24.7909 161.5 31.7909 158.7C35.3909 157.2 38.1909 158.9 39.6909 160.4C41.3909 162.2 42.0909 164.7 41.5909 167.1C41.0909 169.9 38.8909 173.1 33.0909 174.2L40.0909 192.3L48.0909 189.2L43.9909 178.6C43.9909 178.6 53.9909 171.4 49.2909 159.1C44.7909 147.3 33.1909 148.7 28.6909 150.4C25.1909 152 13.7909 157.3 19.3909 171.4Z" fill="#660D33" fill-opacity="0.26"/>
<path d="M49.6536 193.107L41.6289 196.198L44.5409 203.756L52.5655 200.665L49.6536 193.107Z" fill="#660D33" fill-opacity="0.26"/>
<path d="M436.391 423.4C436.391 423.6 355.766 424 256.391 424C156.934 424 76.3906 423.8 76.3906 423.4C76.3906 423 156.934 422.8 256.391 422.8C355.847 422.8 436.391 423 436.391 423.4Z" fill="#263238"/>
<path d="M392.591 48.1005H388.591C388.591 48.1005 388.591 51.4005 385.091 51.5005C383.291 51.5005 382.391 50.3005 381.991 49.4005C381.591 48.3005 381.691 47.2005 382.291 46.2005C382.991 45.1005 384.491 44.1005 387.091 44.5005V35.5005H383.191V40.8005C383.191 40.8005 377.691 42.2005 377.691 48.3005C377.691 54.1005 382.891 55.5005 385.191 55.5005C386.891 55.5005 392.691 55.1005 392.591 48.1005Z" fill="#B61B5D"/>
<path d="M383.204 33.7393H387.204V30.0393H383.204V33.7393Z" fill="#B61B5D"/>
<path d="M414.391 42.8002C414.391 42.8002 414.391 42.6002 414.391 42.3002C414.391 41.9002 414.391 41.4002 414.391 40.8002C414.391 40.5002 414.391 40.1002 414.391 39.7002C414.291 39.3002 414.291 38.9002 414.191 38.4002C414.091 37.9002 414.091 37.4002 413.991 36.9002C413.891 36.4002 413.691 35.8002 413.591 35.2002C412.991 32.8002 411.891 29.9002 409.991 26.9002C408.091 23.9002 405.391 20.9002 401.691 18.4002C397.991 15.9002 393.291 14.1002 388.091 13.6002C386.791 13.6002 385.491 13.4002 384.091 13.5002C383.391 13.5002 382.691 13.5002 382.091 13.6002C381.391 13.7002 380.691 13.8002 379.991 13.9002C377.291 14.5002 374.491 15.3002 371.891 16.7002C369.291 18.1002 366.791 19.8002 364.591 22.0002C362.391 24.2002 360.591 26.8002 359.091 29.6002C357.591 32.5002 356.591 35.6002 356.191 38.9002C355.991 39.7002 355.991 40.6002 355.991 41.4002C355.891 42.2002 355.891 43.1002 355.991 43.9002C356.091 45.6002 356.291 47.3002 356.591 48.9002C357.391 52.5002 358.791 55.9002 360.791 58.9002V58.6002C359.391 62.1002 357.991 65.5002 356.691 68.8002L356.491 69.4002L357.091 69.2002C360.791 68.2002 364.491 67.2002 367.991 66.2002L367.691 66.1002C371.491 69.0002 375.791 70.8002 380.191 71.5002C382.391 71.9002 384.491 72.0002 386.591 71.9002C387.591 71.9002 388.691 71.8002 389.691 71.6002C390.191 71.5002 390.691 71.4002 391.191 71.4002C391.691 71.3002 392.191 71.2002 392.591 71.0002C400.291 69.0002 405.891 64.3002 409.191 59.6002C410.891 57.3002 411.991 54.9002 412.791 52.8002C412.991 52.3002 413.191 51.8002 413.291 51.3002C413.391 50.8002 413.591 50.3002 413.691 49.9002C413.791 49.4002 413.891 49.0002 413.991 48.6002C414.091 48.2002 414.091 47.8002 414.191 47.4002C414.291 46.6002 414.391 46.0002 414.491 45.4002C414.491 44.8002 414.491 44.3002 414.591 43.9002C414.591 43.5002 414.591 43.2002 414.591 43.0002C414.491 42.9002 414.491 42.8002 414.391 42.8002C414.391 42.8002 414.391 42.9002 414.391 43.1002C414.391 43.3002 414.391 43.6002 414.291 44.0002C414.291 44.4002 414.191 44.9002 414.191 45.5002C414.191 46.1002 413.991 46.8002 413.891 47.5002C413.291 50.5002 412.191 55.0002 408.791 59.6002C405.591 64.2002 399.891 68.8002 392.391 70.7002C391.891 70.8002 391.491 71.0002 390.991 71.0002C390.491 71.1002 389.991 71.1002 389.491 71.2002C388.491 71.4002 387.491 71.4002 386.491 71.5002C384.491 71.6002 382.391 71.5002 380.191 71.1002C375.991 70.3002 371.691 68.5002 367.991 65.7002L367.891 65.6002H367.791C364.291 66.6002 360.591 67.6002 356.891 68.6002L357.291 69.0002C358.591 65.7002 359.991 62.3002 361.391 58.8002L361.491 58.6002L361.391 58.5002C359.491 55.6002 357.991 52.2002 357.291 48.7002C356.991 47.1002 356.691 45.4002 356.691 43.8002C356.691 43.0002 356.691 42.2002 356.691 41.3002C356.691 40.5002 356.691 39.7002 356.891 38.9002C357.291 35.7002 358.291 32.6002 359.691 29.8002C361.091 27.0002 362.891 24.5002 365.091 22.3002C367.291 20.2002 369.691 18.4002 372.191 17.1002C374.691 15.7002 377.491 14.9002 380.091 14.4002C380.791 14.3002 381.391 14.2002 382.091 14.1002C382.791 14.0002 383.391 14.0002 384.091 14.0002C385.391 13.9002 386.691 14.0002 387.991 14.1002C393.091 14.6002 397.691 16.4002 401.391 18.8002C405.091 21.2002 407.791 24.2002 409.691 27.1002C411.591 30.0002 412.691 32.9002 413.391 35.2002C413.591 35.8002 413.691 36.4002 413.791 36.9002C413.891 37.4002 413.991 37.9002 413.991 38.4002C414.091 38.9002 414.091 39.3002 414.191 39.7002C414.191 40.1002 414.291 40.5002 414.291 40.8002C414.291 41.4002 414.391 41.9002 414.391 42.3002C414.391 42.6002 414.391 42.8002 414.391 42.8002Z" fill="#263238"/>
<path d="M116.191 160.7H173.991C173.991 160.7 173.991 112.2 224.391 111.3C250.591 110.8 264.091 128 269.691 141.1C276.091 156.4 274.191 173.7 265.591 187.9C255.791 204.1 234.691 220.3 195.791 213.4L195.391 342.1H252.391V265.8C252.391 265.8 332.491 245.1 332.491 156.8C332.491 72.2999 264.191 54.0999 227.491 52.8999C207.091 52.1999 199.691 51.3999 174.391 54.9999C142.291 59.5999 115.591 96.9999 116.191 160.7Z" fill="#B61B5D"/>
<path d="M253.19 369H195.19V423.1H253.19V369Z" fill="#B61B5D"/>
<path opacity="0.1" d="M253.19 369H195.19V423.1H253.19V369Z" fill="black"/>
<path opacity="0.1" d="M116.191 160.7H173.991C173.991 160.7 173.991 112.2 224.391 111.3C250.591 110.8 264.091 128 269.691 141.1C276.091 156.4 274.191 173.7 265.591 187.9C255.791 204.1 234.691 220.3 195.791 213.4L195.391 342.1H252.391V265.8C252.391 265.8 332.491 245.1 332.491 156.8C332.491 72.2999 264.191 54.0999 227.491 52.8999C207.091 52.1999 199.691 51.3999 174.391 54.9999C142.291 59.5999 115.591 96.9999 116.191 160.7Z" fill="black"/>
<path d="M92.2909 160.7H150.091C150.091 160.7 150.091 112.2 200.491 111.3C226.691 110.8 240.191 128 245.791 141.1C252.191 156.4 250.291 173.7 241.691 187.9C231.891 204.1 210.391 218.7 171.491 211.9V342.1H228.591V265.8C228.591 265.8 308.691 245.1 308.691 156.8C308.691 72.2997 232.991 52.6997 200.491 52.6997C175.691 52.7997 91.1909 58.7997 92.2909 160.7Z" fill="#B61B5D"/>
<path opacity="0.3" d="M92.2909 160.7H150.091C150.091 160.7 150.091 112.2 200.491 111.3C226.691 110.8 240.191 128 245.791 141.1C252.191 156.4 250.291 173.7 241.691 187.9C231.891 204.1 210.391 218.7 171.491 211.9V342.1H228.591V265.8C228.591 265.8 308.691 245.1 308.691 156.8C308.691 72.2997 232.991 52.6997 200.491 52.6997C175.691 52.7997 91.1909 58.7997 92.2909 160.7Z" fill="black"/>
<path d="M229.291 369H171.291V423.1H229.291V369Z" fill="#B61B5D"/>
<path opacity="0.3" d="M229.291 369H171.291V423.1H229.291V369Z" fill="black"/>
<path d="M206.991 111.6C206.991 111.6 206.691 111.6 206.091 111.5C205.491 111.5 204.691 111.3 203.591 111.3C201.491 111.2 198.291 111.2 194.491 111.7C190.691 112.2 186.191 113.1 181.391 114.8C178.991 115.7 176.491 116.6 174.091 117.9C171.591 119.1 169.191 120.7 166.991 122.5C164.691 124.3 162.791 126.5 161.191 128.7C159.491 130.9 158.091 133.1 156.791 135.3C154.291 139.7 152.691 144 151.591 147.7C150.491 151.4 150.091 154.5 149.891 156.6C149.791 157.7 149.691 158.5 149.691 159.1C149.691 159.7 149.591 160 149.591 160C149.591 160 149.591 159.7 149.591 159.1C149.591 158.5 149.591 157.7 149.691 156.6C149.791 154.5 150.291 151.3 151.291 147.6C152.291 143.9 153.991 139.6 156.391 135.1C157.691 132.9 159.091 130.6 160.791 128.4C162.491 126.2 164.391 124 166.691 122.1C168.991 120.2 171.391 118.7 173.891 117.4C176.391 116.1 178.891 115.1 181.291 114.3C186.091 112.7 190.691 111.7 194.491 111.3C198.291 110.9 201.491 110.9 203.591 111.1C204.691 111.1 205.491 111.3 206.091 111.4C206.691 111.5 206.991 111.6 206.991 111.6Z" fill="#263238"/>
<path d="M293.991 101.3C293.991 101.3 293.891 101.2 293.791 101.1C293.691 100.9 293.491 100.7 293.291 100.4C292.791 99.7999 292.191 98.8999 291.391 97.6999C290.991 97.0999 290.491 96.3999 289.991 95.7999C289.391 95.0999 288.791 94.3999 288.191 93.5999C287.591 92.7999 286.891 91.9999 286.091 91.0999C285.291 90.1999 284.491 89.3999 283.591 88.3999C282.691 87.4999 281.791 86.4999 280.791 85.4999C279.791 84.5999 278.691 83.5999 277.591 82.5999C276.991 82.0999 276.491 81.5999 275.891 81.0999C275.291 80.5999 274.691 80.0999 273.991 79.5999C272.691 78.5999 271.491 77.5999 270.091 76.5999C264.591 72.5999 258.191 68.7999 251.191 65.3999C249.391 64.5999 247.691 63.7999 245.891 62.9999C244.091 62.2999 242.391 61.5999 240.691 60.9999C238.991 60.2999 237.291 59.7999 235.591 59.1999C233.891 58.6999 232.291 58.0999 230.591 57.6999C228.991 57.2999 227.391 56.8999 225.791 56.3999C224.291 55.9999 222.691 55.6999 221.191 55.3999C219.691 55.0999 218.291 54.7999 216.891 54.5999C215.491 54.3999 214.191 54.1999 212.891 53.9999C210.391 53.5999 208.091 53.4999 205.991 53.2999C204.991 53.1999 203.991 53.0999 203.191 53.0999C202.291 53.0999 201.491 53.0999 200.791 52.9999C199.391 52.9999 198.291 52.8999 197.491 52.8999C197.091 52.8999 196.891 52.8999 196.591 52.8999C196.391 52.8999 196.291 52.8999 196.291 52.8999C196.291 52.8999 196.391 52.8999 196.591 52.8999C196.791 52.8999 197.091 52.8999 197.491 52.8999C198.291 52.8999 199.391 52.8999 200.791 52.8999C201.491 52.8999 202.291 52.8999 203.191 52.8999C204.091 52.8999 204.991 52.9999 205.991 53.0999C207.991 53.2999 210.391 53.2999 212.891 53.6999C214.191 53.8999 215.491 54.0999 216.891 54.1999C218.291 54.3999 219.691 54.6999 221.191 54.9999C222.691 55.2999 224.191 55.4999 225.791 55.9999C227.391 56.3999 228.991 56.7999 230.591 57.1999C232.291 57.5999 233.891 58.1999 235.591 58.6999C237.291 59.2999 238.991 59.7999 240.691 60.4999C242.391 61.1999 244.191 61.7999 245.991 62.4999C247.691 63.2999 249.491 64.0999 251.291 64.8999C258.391 68.2999 264.791 72.0999 270.291 76.1999C271.691 77.1999 272.891 78.2999 274.191 79.2999C274.791 79.7999 275.391 80.2999 276.091 80.7999C276.691 81.2999 277.191 81.7999 277.791 82.2999C278.891 83.2999 279.991 84.2999 280.991 85.2999C281.991 86.2999 282.891 87.2999 283.791 88.1999C284.691 89.0999 285.491 89.9999 286.291 90.8999C286.991 91.7999 287.691 92.6999 288.291 93.4999C288.891 94.2999 289.491 94.9999 290.091 95.6999C290.591 96.3999 290.991 97.0999 291.391 97.6999C292.191 98.8999 292.791 99.7999 293.191 100.5C293.391 100.8 293.491 101 293.691 101.2C293.991 101.2 293.991 101.3 293.991 101.3Z" fill="#263238"/>
<path d="M287.991 225.3C287.991 225.3 287.891 225.5 287.591 225.9C287.291 226.3 286.791 226.9 286.291 227.6C285.691 228.3 284.991 229.2 284.091 230.2C283.191 231.2 282.291 232.3 281.091 233.5C279.991 234.7 278.691 236 277.291 237.3C275.891 238.7 274.391 240 272.691 241.5C269.391 244.4 265.591 247.3 261.491 250.2C257.291 253.1 253.191 255.5 249.391 257.6C247.491 258.6 245.591 259.6 243.891 260.4C242.191 261.3 240.491 262 238.991 262.6C237.491 263.3 236.091 263.8 234.891 264.2C233.691 264.7 232.591 265 231.691 265.3C230.891 265.6 230.191 265.8 229.691 266C229.191 266.1 228.991 266.2 228.991 266.2C228.991 266.2 229.191 266.1 229.691 265.9C230.191 265.7 230.891 265.5 231.691 265.2C232.591 264.9 233.591 264.5 234.791 264C235.991 263.5 237.391 263 238.891 262.3C240.391 261.6 242.091 260.9 243.791 260.1C245.591 259.3 247.391 258.3 249.291 257.3C253.091 255.2 257.191 252.7 261.391 249.9C265.491 247 269.291 244.1 272.591 241.2C274.191 239.8 275.791 238.4 277.191 237.1C278.591 235.8 279.891 234.5 280.991 233.3C282.191 232.1 283.191 231 284.091 230.1C284.991 229.2 285.691 228.3 286.291 227.6C286.891 226.9 287.391 226.4 287.691 226C287.791 225.5 287.991 225.3 287.991 225.3Z" fill="#263238"/>
<path d="M227.491 337.6C227.391 337.6 227.191 321.5 227.191 301.7C227.191 281.9 227.291 265.8 227.491 265.8C227.591 265.8 227.791 281.9 227.791 301.7C227.791 321.5 227.691 337.6 227.491 337.6Z" fill="#263238"/>
<path d="M229.691 419.4C229.591 419.4 229.391 408.1 229.391 394.2C229.391 380.3 229.491 369 229.691 369C229.791 369 229.991 380.3 229.991 394.2C229.991 408.1 229.891 419.4 229.691 419.4Z" fill="#263238"/>
<path d="M322.253 198.248L357.61 206.046L363.003 198.248L362.204 188.15L356.811 183.251H338.233L320.954 198.848" fill="#660D33"/>
<g opacity="0.3">
<path d="M322.253 198.248L357.61 206.046L363.003 198.248L362.204 188.15L356.811 183.251H338.233L320.954 198.848" fill="black"/>
</g>
<path d="M376.188 125.363L420.834 119.364L427.825 117.364C427.825 117.364 443.906 113.865 445.404 113.265C447.102 112.665 447.901 113.365 448.001 113.965C448.301 114.965 447.302 116.165 445.804 116.665C445.304 116.865 437.114 119.664 437.114 119.664C437.114 119.664 437.913 119.764 439.911 120.464C441.908 121.164 443.706 123.663 444.705 126.562C445.604 129.462 445.604 130.362 444.505 130.862C444.006 131.062 443.606 130.862 443.207 130.662C442.607 130.262 442.108 129.662 441.908 128.962C440.31 124.263 437.414 123.863 437.414 123.863L436.515 124.163C436.515 124.163 439.511 126.263 439.511 128.862C439.511 129.262 439.411 129.662 439.311 129.962C439.711 131.162 439.511 132.661 438.712 133.661C437.813 134.761 436.415 135.261 435.017 135.061C434.417 134.961 433.718 134.561 433.618 133.961C433.618 133.661 433.718 133.261 433.818 132.961C433.918 132.761 433.918 132.661 434.018 132.461L431.321 132.861C431.321 132.861 425.228 133.361 422.632 133.861L380.882 146.458C375.089 148.158 368.996 144.859 367.298 139.06C365.401 132.661 369.696 126.263 376.188 125.363Z" fill="#FFBE9D"/>
<path d="M421.832 120.464C421.932 121.364 422.831 122.064 423.73 122.264C424.629 122.464 425.627 122.364 426.526 122.464C429.323 122.863 431.42 125.363 434.217 125.563C434.617 125.563 435.116 125.563 435.216 125.163C435.316 124.863 435.016 124.463 434.716 124.263C432.419 122.164 430.122 120.164 427.725 118.064" fill="#FFBE9D"/>
<path d="M427.925 118.064C427.925 118.064 428.225 118.264 428.724 118.664C429.223 119.064 429.923 119.664 430.822 120.464C431.72 121.264 432.819 122.164 433.918 123.163C434.217 123.463 434.517 123.663 434.817 123.963C435.116 124.263 435.516 124.463 435.616 125.063C435.616 125.363 435.416 125.663 435.116 125.763C434.817 125.863 434.617 125.863 434.317 125.863C433.818 125.863 433.418 125.763 433.019 125.563C431.221 124.963 429.923 123.963 428.524 123.263C427.825 122.963 427.226 122.663 426.527 122.563C425.927 122.464 425.228 122.464 424.629 122.464C423.43 122.464 422.432 121.964 422.132 121.364C421.733 120.764 421.832 120.364 421.832 120.364C421.932 120.364 421.832 120.764 422.332 121.164C422.731 121.664 423.63 122.064 424.729 122.064C425.328 122.064 425.927 122.064 426.627 122.164C427.326 122.264 428.025 122.464 428.724 122.863C430.122 123.463 431.521 124.563 433.119 125.063C433.518 125.163 433.918 125.263 434.317 125.263C434.717 125.263 435.016 125.163 435.016 124.963C435.016 124.763 434.717 124.463 434.417 124.163C434.118 123.863 433.818 123.663 433.518 123.363C432.42 122.364 431.421 121.464 430.522 120.664C429.623 119.864 429.024 119.264 428.524 118.764C428.125 118.364 427.925 118.164 427.925 118.064Z" fill="#EB996E"/>
<path d="M436.415 124.164C436.415 124.264 437.114 123.864 438.213 124.164C438.712 124.264 439.312 124.664 439.711 125.263C440.21 125.863 440.51 126.563 440.81 127.363C441.109 128.163 441.409 128.963 441.809 129.563C442.208 130.162 442.707 130.662 443.307 130.962C443.806 131.262 444.405 131.162 444.705 130.962C445.005 130.762 445.105 130.662 445.105 130.662C445.105 130.662 444.905 130.762 444.705 130.862C444.405 130.962 444.006 130.962 443.506 130.762C443.007 130.462 442.608 130.062 442.208 129.363C441.809 128.763 441.509 127.963 441.209 127.163C440.91 126.363 440.51 125.563 440.011 124.964C439.511 124.364 438.912 123.964 438.313 123.864C437.713 123.764 437.214 123.864 436.914 123.864C436.615 124.064 436.415 124.164 436.415 124.164Z" fill="#EB996E"/>
<path d="M446.502 116.465C446.502 116.465 445.903 116.665 444.904 117.065C443.806 117.465 442.507 117.965 441.009 118.465C439.511 118.965 438.212 119.465 437.114 119.865C436.115 120.165 435.516 120.465 435.516 120.465C435.516 120.465 436.215 120.365 437.214 120.065C438.212 119.765 439.611 119.365 441.109 118.765C442.607 118.265 444.005 117.665 445.004 117.265C445.903 116.865 446.502 116.565 446.502 116.465Z" fill="#EB996E"/>
<path d="M435.317 126.662C435.317 126.662 435.417 126.862 435.716 127.062C435.916 127.262 436.315 127.762 436.216 128.262C436.216 128.562 436.016 128.762 435.716 128.962C435.417 129.162 435.017 129.162 434.617 129.262C434.218 129.362 433.719 129.462 433.419 129.861C433.119 130.261 433.019 130.861 433.219 131.361C433.419 131.861 433.818 132.261 434.218 132.461C434.617 132.661 435.117 132.761 435.516 132.661C436.315 132.461 437.015 132.161 437.614 131.861C438.213 131.561 438.613 131.261 438.812 130.961C439.012 130.661 439.112 130.461 439.112 130.461C439.112 130.461 439.012 130.661 438.713 130.861C438.513 131.061 438.013 131.361 437.514 131.661C437.015 131.961 436.315 132.161 435.516 132.361C434.817 132.461 433.818 132.061 433.519 131.261C433.419 130.861 433.419 130.361 433.619 130.061C433.818 129.761 434.218 129.661 434.617 129.561C435.017 129.462 435.417 129.362 435.716 129.162C436.116 128.962 436.315 128.662 436.315 128.262C436.315 127.562 435.916 127.162 435.616 126.862C435.417 126.762 435.317 126.662 435.317 126.662Z" fill="#EB996E"/>
<path d="M434.318 132.261C434.318 132.261 434.118 132.261 433.918 132.461C433.719 132.661 433.419 133.061 433.419 133.66C433.419 134.26 433.918 134.96 434.618 135.26C435.317 135.56 436.216 135.56 437.015 135.26C437.814 134.96 438.513 134.46 438.912 133.76C439.312 133.16 439.512 132.461 439.512 131.861C439.512 131.261 439.412 130.861 439.412 130.561C439.312 130.261 439.212 130.161 439.212 130.161C439.112 130.161 439.412 130.861 439.312 131.861C439.212 132.361 439.012 132.961 438.613 133.56C438.213 134.16 437.614 134.66 436.815 134.86C436.016 135.16 435.217 135.16 434.618 134.86C434.018 134.56 433.619 134.06 433.519 133.56C433.419 133.061 433.719 132.661 433.918 132.461C434.218 132.361 434.318 132.261 434.318 132.261Z" fill="#EB996E"/>
<path d="M426.926 128.562C426.926 128.562 426.926 128.262 426.627 127.763C426.327 127.363 425.828 126.763 425.029 126.463V126.763C425.328 126.563 425.728 126.463 426.027 126.163C427.925 124.963 428.924 123.264 428.824 123.264C428.724 123.164 427.725 124.663 425.828 125.863C425.528 126.063 425.129 126.263 424.829 126.463L424.529 126.663L424.929 126.763C425.628 127.063 426.227 127.563 426.527 127.863C426.727 128.362 426.827 128.562 426.926 128.562Z" fill="#EB996E"/>
<path d="M440.81 123.863C440.71 123.763 440.31 124.363 440.21 125.163C440.11 125.963 440.51 126.563 440.61 126.563C440.71 126.563 440.51 125.963 440.51 125.263C440.61 124.363 440.91 123.863 440.81 123.863Z" fill="#EB996E"/>
<path d="M232.561 139.361C232.561 139.361 226.069 128.763 224.87 127.863C223.672 126.963 213.384 123.164 212.485 123.464C211.586 123.764 199.101 125.864 200.5 127.363C201.898 128.863 210.687 127.263 210.687 127.263L211.886 127.863C211.886 127.863 204.395 129.063 202.797 129.963C201.299 130.763 201.798 132.562 203.196 132.462C204.595 132.362 211.087 131.062 211.486 131.362C211.886 131.662 204.395 133.162 203.596 133.562C202.497 134.162 202.397 136.161 203.796 136.061C204.595 135.961 211.686 134.162 211.686 134.162C211.686 134.162 206.093 136.361 205.594 136.861C204.795 137.661 205.394 138.861 206.592 138.661C207.391 138.461 211.387 136.561 212.485 136.361C212.485 136.361 213.484 136.661 214.483 138.761C214.882 139.761 216.98 145.959 220.675 145.859C223.971 145.759 227.168 148.459 227.168 148.459L232.561 139.361Z" fill="#FFBE9D"/>
<path d="M200.6 127.463C200.6 127.563 201.399 127.863 202.897 128.063C203.596 128.163 204.495 128.263 205.494 128.163C206.492 128.063 207.491 127.863 208.59 127.763C209.389 127.663 210.188 127.563 210.887 127.463H210.787C213.884 128.563 216.181 129.263 216.181 129.163C216.181 129.063 214.083 128.063 210.987 126.963H210.887H210.787C210.088 127.063 209.289 127.163 208.49 127.263C207.391 127.463 206.393 127.563 205.394 127.663C204.495 127.763 203.596 127.763 202.897 127.663C201.499 127.563 200.6 127.363 200.6 127.463Z" fill="#EB996E"/>
<path d="M227.667 138.061C226.868 138.761 225.67 138.561 224.771 138.061C223.872 137.561 223.173 136.662 222.374 136.062C219.877 134.262 216.181 134.662 213.684 132.762C213.384 132.462 212.985 132.063 213.185 131.663C213.384 131.263 213.884 131.263 214.283 131.263C217.679 131.363 221.175 131.463 224.571 131.463" fill="#FFBE9D"/>
<path d="M224.571 131.662C224.571 131.662 224.171 131.562 223.472 131.562C222.773 131.462 221.674 131.462 220.475 131.362C219.177 131.262 217.579 131.262 215.981 131.162C215.581 131.162 215.082 131.162 214.682 131.162C214.283 131.162 213.684 131.062 213.184 131.462C212.885 131.662 212.885 132.162 212.985 132.462C213.084 132.762 213.284 132.962 213.484 133.162C213.883 133.462 214.283 133.762 214.782 133.962C216.68 134.862 218.578 134.962 220.076 135.462C220.875 135.662 221.574 136.061 222.173 136.461C222.773 136.861 223.272 137.361 223.772 137.761C224.77 138.661 225.969 138.961 226.668 138.761C227.467 138.661 227.667 138.161 227.667 138.161C227.667 138.061 227.367 138.461 226.668 138.461C225.969 138.561 224.97 138.261 224.071 137.361C223.572 136.961 223.072 136.461 222.473 135.961C221.874 135.462 221.075 135.162 220.276 134.862C218.678 134.262 216.78 134.162 214.982 133.362C214.583 133.162 214.183 132.862 213.784 132.662C213.484 132.362 213.284 132.062 213.484 131.862C213.684 131.662 214.083 131.662 214.583 131.662C214.982 131.662 215.482 131.662 215.881 131.662C217.579 131.662 219.077 131.662 220.376 131.662C221.674 131.662 222.673 131.662 223.372 131.662C224.171 131.662 224.571 131.662 224.571 131.662Z" fill="#EB996E"/>
<path d="M283.299 373.51L280.902 399.704L273.012 419.9C272.412 421.4 273.211 422.999 274.71 423.499C275.509 423.799 276.408 423.599 277.107 423.099C281.501 419.7 297.782 407.203 297.782 405.303C297.882 403.103 302.176 377.809 302.176 377.809L283.299 373.51Z" fill="#660D33"/>
<g opacity="0.6">
<path d="M274.81 423.499L298.181 403.503L298.081 404.603C297.982 405.602 297.482 406.402 296.783 407.102C294.885 408.902 289.592 413.601 277.307 423.099C276.607 423.699 275.609 423.799 274.81 423.499Z" fill="white"/>
</g>
<g opacity="0.6">
<path d="M293.687 394.505C292.988 394.905 292.688 395.805 292.988 396.605C293.287 397.305 294.286 397.705 294.985 397.305C295.685 396.905 296.084 395.805 295.685 395.105C295.285 394.405 294.086 394.105 293.487 394.605" fill="white"/>
</g>
<path d="M282.101 412.802C281.902 412.902 281.502 411.402 280.004 410.502C278.606 409.502 277.107 409.702 277.107 409.602C277.107 409.502 277.407 409.402 278.106 409.402C278.705 409.402 279.604 409.602 280.403 410.102C281.202 410.602 281.702 411.302 282.002 411.902C282.101 412.402 282.101 412.802 282.101 412.802Z" fill="#263238"/>
<path d="M279.803 416.101C279.703 416.201 278.904 415.301 277.606 414.701C276.307 414.101 275.109 414.201 275.109 414.101C275.009 414.001 276.407 413.501 277.805 414.201C279.303 414.801 279.903 416.001 279.803 416.101Z" fill="#263238"/>
<path d="M285.995 408.703C285.896 408.803 284.697 407.303 282.799 406.303C280.902 405.203 279.004 405.103 279.004 405.003C279.004 404.903 281.001 404.703 283.099 405.803C285.196 406.903 286.195 408.603 285.995 408.703Z" fill="#263238"/>
<path d="M287.394 400.804C287.294 400.904 285.896 400.204 284.098 399.904C282.2 399.604 280.702 399.904 280.602 399.704C280.502 399.604 282.1 399.004 284.098 399.304C286.195 399.604 287.494 400.604 287.394 400.804Z" fill="#263238"/>
<path d="M288.293 393.106C288.193 393.206 286.795 392.206 284.897 392.106C282.9 391.906 281.402 392.706 281.302 392.606C281.302 392.506 281.601 392.206 282.201 392.006C282.8 391.706 283.799 391.506 284.897 391.606C285.996 391.706 286.895 392.106 287.494 392.406C288.094 392.706 288.393 393.006 288.293 393.106Z" fill="#263238"/>
<path d="M285.097 390.606C285.097 390.606 284.997 390.206 285.197 389.606C285.297 389.006 285.596 388.106 286.295 387.106C286.595 386.606 286.995 386.107 287.794 385.807C288.193 385.707 288.693 385.807 288.992 386.207C289.292 386.606 289.292 387.006 289.292 387.406C289.092 389.106 287.494 390.506 285.596 390.506C283.699 390.506 282.101 389.206 281.501 387.706C281.401 387.306 281.301 386.806 281.601 386.406C281.901 386.007 282.4 385.907 282.8 386.007C283.599 386.206 283.998 386.706 284.398 387.106C285.197 387.906 285.696 388.806 285.996 389.306C286.295 389.906 286.295 390.206 286.295 390.306C286.196 390.406 285.796 388.906 284.198 387.406C283.798 387.006 283.299 386.606 282.8 386.506C282.5 386.406 282.3 386.506 282.2 386.706C282.101 386.906 282.101 387.206 282.2 387.506C282.7 388.706 284.098 389.906 285.696 389.906C287.294 389.906 288.693 388.606 288.892 387.306C288.892 387.006 288.892 386.606 288.693 386.406C288.593 386.206 288.293 386.107 287.993 386.207C287.494 386.306 287.095 386.906 286.695 387.306C285.297 389.106 285.197 390.606 285.097 390.606Z" fill="#263238"/>
<path d="M307.371 388.907L326.947 233.44L320.655 197.348L283.7 199.347L279.205 386.007C279.205 387.407 280.104 388.607 281.502 388.907L303.076 392.206C305.174 392.606 307.171 391.106 307.371 388.907Z" fill="#263238"/>
<path d="M326.448 238.739L362.105 274.031L310.767 286.528L314.462 312.423L383.878 302.925C389.771 302.125 395.165 298.926 398.66 294.027C404.054 286.528 404.154 276.531 398.96 268.932L344.825 189.449L320.655 197.348L326.448 238.739Z" fill="#263238"/>
<path d="M324.451 229.74C324.551 229.74 325.15 231.74 325.649 234.139C326.149 236.639 326.548 238.638 326.348 238.738C326.249 238.738 325.649 236.739 325.15 234.339C324.651 231.84 324.351 229.74 324.451 229.74Z" fill="#455A64"/>
<path d="M319.257 289.828C319.257 289.828 319.556 289.728 320.056 289.528C320.655 289.328 321.454 289.128 322.553 288.728C324.75 288.028 327.946 287.028 332.141 285.829C340.431 283.329 352.417 279.73 366.999 275.331L366.899 275.631C354.814 262.734 340.131 247.137 324.051 230.041L324.45 229.941C323.651 237.139 322.752 244.638 321.853 252.236C317.459 289.228 313.264 322.721 310.068 346.916C308.47 359.013 307.071 368.811 306.073 375.61C305.473 379.009 305.174 381.608 304.774 383.408C304.574 384.308 304.474 384.908 304.375 385.407C304.275 385.907 304.175 386.107 304.175 386.107C304.175 386.107 304.175 385.907 304.275 385.407C304.375 384.908 304.474 384.308 304.674 383.408C305.074 381.608 305.373 379.009 305.873 375.61C306.872 368.811 308.17 359.013 309.768 346.916C312.864 322.721 316.959 289.228 321.354 252.136C322.253 244.538 323.152 237.039 323.951 229.841L324.051 229.341L324.45 229.741C340.531 246.937 355.113 262.534 367.199 275.431L367.398 275.631L367.099 275.731C352.516 280.03 340.531 283.629 332.241 286.029C328.146 287.228 324.85 288.228 322.652 288.828C321.554 289.128 320.755 289.428 320.156 289.528C319.556 289.728 319.257 289.828 319.257 289.828Z" fill="#455A64"/>
<path d="M307.771 386.007C307.671 386.007 311.667 353.014 316.86 312.323C322.054 271.631 326.349 238.738 326.449 238.738C326.549 238.738 322.554 271.731 317.36 312.423C312.166 353.014 307.871 386.007 307.771 386.007Z" fill="#455A64"/>
<path d="M320.655 213.244C320.755 213.244 321.055 214.144 321.454 215.644C321.854 217.143 322.453 219.243 322.953 221.642C323.452 223.942 323.851 226.141 324.051 227.641C324.251 229.241 324.351 230.141 324.351 230.141C324.251 230.141 324.051 229.241 323.752 227.641C323.352 225.941 322.953 223.942 322.453 221.642C321.954 219.443 321.454 217.343 321.155 215.644C320.755 214.244 320.555 213.344 320.655 213.244Z" fill="#455A64"/>
<path d="M322.952 210.245C322.852 210.245 323.451 209.745 324.45 210.045C324.85 210.245 325.449 210.645 325.549 211.345C325.649 211.945 325.449 212.845 324.75 213.245C324.051 213.645 323.252 213.445 322.652 213.045C322.153 212.645 322.053 211.845 322.153 211.445C322.253 210.945 322.552 210.645 322.852 210.545C323.052 210.445 323.252 210.445 323.252 210.445C323.252 210.545 322.752 210.745 322.552 211.545C322.453 211.945 322.552 212.445 322.952 212.745C323.352 213.045 323.951 213.145 324.45 212.845C324.95 212.545 325.149 211.945 325.049 211.445C324.95 210.945 324.65 210.645 324.25 210.445C323.551 210.045 322.952 210.345 322.952 210.245Z" fill="#455A64"/>
<path d="M372.592 280.13C372.493 280.23 370.495 278.43 367.598 276.731C364.702 275.031 362.105 274.231 362.205 274.031C362.205 273.931 364.902 274.531 367.898 276.231C370.795 277.93 372.692 280.03 372.592 280.13Z" fill="#455A64"/>
<path d="M295.485 91.4704L275.01 101.368L283.799 163.055L280.303 190.749C279.904 194.348 281.202 197.848 283.899 200.247L316.959 199.547L340.131 186.85L350.718 185.05L346.324 163.955L348.321 134.061L372.492 146.959C374.39 147.958 376.487 148.258 378.585 147.658L422.931 136.161L420.634 119.065L380.482 123.564L349.919 96.4694L327.147 91.3704L323.052 84.6719H299.78L298.182 85.8716C297.383 86.4715 296.783 87.2713 296.484 88.1711L295.485 91.4704Z" fill="#660D33"/>
<path d="M275.01 101.368C275.01 101.368 268.318 105.667 265.821 113.366C263.524 120.664 258.23 150.058 258.23 150.058L234.958 135.561L221.574 149.658L252.637 177.052C257.431 181.251 264.223 182.151 269.916 179.451C274.71 177.152 278.006 172.653 278.705 167.354L282.501 139.46L275.01 101.368Z" fill="#660D33"/>
<path d="M344.926 189.449L343.428 187.35L328.146 190.149L325.35 196.748L344.926 189.449Z" fill="#FFBE9D"/>
<path d="M283.999 200.147C297.682 205.646 312.265 203.646 325.349 196.747C329.244 194.648 332.94 192.048 336.835 190.049C340.83 187.949 345.125 186.45 349.62 186.75C354.014 187.05 358.509 189.549 360.307 193.648C362.105 197.747 360.307 203.346 356.112 204.846C356.611 205.246 357.111 205.746 357.61 206.145C363.803 203.246 366.699 195.048 363.703 188.949C361.406 184.25 356.611 181.551 353.016 177.652C347.822 172.053 347.223 161.255 347.223 152.757" fill="#660D33"/>
<path d="M314.063 103.368C314.063 103.368 313.663 103.368 313.064 103.468C312.465 103.568 311.466 103.667 310.667 104.567C309.868 105.467 309.468 106.867 309.468 108.466C309.468 110.066 309.768 111.966 310.567 113.665L310.966 114.565L310.167 113.965C308.47 112.666 306.672 111.166 304.974 109.366C300.979 105.267 298.382 100.668 297.083 97.1689C296.384 95.4692 295.985 93.9696 295.785 92.9698C295.585 91.97 295.485 91.3701 295.585 91.3701C295.685 91.3701 295.985 93.6696 297.483 97.0689C298.881 100.468 301.578 104.967 305.473 108.966C307.171 110.666 308.869 112.266 310.567 113.465L310.167 113.765C309.768 112.866 309.468 111.866 309.269 110.966C309.069 110.066 308.969 109.166 309.069 108.266C309.069 106.567 309.568 105.067 310.467 104.167C311.366 103.268 312.465 103.168 313.064 103.068C313.663 103.268 314.063 103.368 314.063 103.368Z" fill="#263238"/>
<path d="M315.261 103.368C316.959 102.668 319.456 103.668 320.654 105.068C321.453 105.967 321.953 107.267 322.951 107.867C324.05 108.467 327.346 108.967 328.345 108.167C328.345 108.167 328.944 105.368 329.244 104.168C330.442 99.4689 331.042 95.2698 331.541 90.4708C328.345 88.8711 329.244 86.8716 323.451 87.2715C323.451 87.2715 324.949 91.5706 323.651 95.4697" fill="#660D33"/>
<path d="M323.551 95.4695C323.451 95.4695 323.75 94.6697 323.85 93.27C323.95 91.8703 323.85 89.7707 323.151 87.3712L323.051 87.1713H323.251C324.55 87.0713 326.048 86.9713 327.546 87.5712C328.345 87.8711 328.944 88.471 329.543 88.9709C330.143 89.4708 330.742 89.9707 331.541 90.3706L331.741 90.4706V90.6705C331.441 93.07 331.142 95.7694 330.742 98.4689C330.442 100.268 330.043 101.968 329.643 103.668C329.244 105.367 328.944 106.867 328.545 108.367V108.467H328.445C327.846 108.867 327.246 108.867 326.747 108.867C326.148 108.867 325.648 108.867 325.149 108.767C324.649 108.667 324.15 108.567 323.651 108.467C323.151 108.367 322.652 108.067 322.352 107.767C321.653 107.067 321.254 106.267 320.854 105.667C320.355 105.067 319.855 104.568 319.256 104.268C318.157 103.568 317.059 103.368 316.359 103.368C315.66 103.368 315.261 103.568 315.261 103.568C315.261 103.568 315.56 103.368 316.359 103.268C317.059 103.168 318.157 103.368 319.356 104.068C319.955 104.368 320.554 104.867 321.054 105.567C321.553 106.167 321.953 106.967 322.552 107.567C323.151 108.167 324.15 108.267 325.149 108.467C325.648 108.567 326.148 108.567 326.647 108.567C327.146 108.567 327.746 108.467 328.045 108.267L327.945 108.367C328.245 106.867 328.645 105.267 329.044 103.568C329.444 101.968 329.843 100.169 330.143 98.4689C330.642 95.7694 330.942 93.07 331.142 90.6705L331.241 90.8705C330.442 90.4706 329.743 89.9707 329.144 89.3708C328.545 88.7709 327.945 88.271 327.346 87.9711C325.948 87.4712 324.55 87.4712 323.251 87.5712L323.451 87.2713C324.15 89.7707 324.15 91.8703 324.05 93.37C323.95 94.0698 323.85 94.6697 323.75 94.9696C323.651 95.2696 323.551 95.4695 323.551 95.4695Z" fill="#263238"/>
<path d="M357.71 189.849C357.71 189.849 357.71 189.449 357.71 188.749C357.61 188.049 357.411 186.85 356.712 185.65C356.012 184.45 354.814 183.15 353.016 182.051C351.318 181.051 349.021 180.451 346.424 180.251C343.927 180.051 341.03 180.151 338.034 179.951C335.038 179.751 331.742 179.251 328.546 177.952C325.349 176.652 322.253 174.552 320.056 171.553C318.957 170.053 318.058 168.254 317.559 166.454C317.059 164.554 316.96 162.555 316.96 160.655C317.159 156.656 318.058 152.957 318.558 149.358C319.157 145.758 319.457 142.159 319.556 138.76C319.756 131.961 319.157 125.863 318.258 120.864C317.359 115.865 316.161 111.866 315.361 109.066C314.962 107.667 314.562 106.667 314.263 105.967C314.163 105.667 314.063 105.367 313.963 105.167C313.863 104.967 313.863 104.867 313.863 104.867C313.863 104.867 313.963 104.967 313.963 105.167C314.063 105.367 314.163 105.667 314.263 105.967C314.562 106.667 314.962 107.667 315.461 109.066C316.36 111.766 317.659 115.765 318.558 120.864C319.556 125.963 320.156 132.061 319.956 138.86C319.856 142.259 319.556 145.858 318.957 149.458C318.458 153.157 317.559 156.856 317.359 160.755C317.159 164.654 318.058 168.454 320.256 171.353C322.453 174.252 325.449 176.352 328.546 177.552C331.642 178.851 334.838 179.351 337.834 179.551C340.831 179.751 343.627 179.651 346.224 179.951C348.821 180.151 351.118 180.751 352.916 181.851C354.714 182.951 355.912 184.25 356.612 185.55C357.311 186.85 357.511 187.949 357.511 188.749C357.511 189.149 357.511 189.449 357.511 189.649C357.71 189.749 357.71 189.849 357.71 189.849Z" fill="#263238"/>
<path d="M342.728 171.554C342.728 171.554 342.328 171.954 341.529 172.753C341.13 173.153 340.63 173.553 340.131 174.053C339.531 174.553 338.932 175.153 338.133 175.653C336.635 176.853 334.737 178.152 332.64 179.452C330.442 180.752 327.945 182.051 325.349 183.151C322.652 184.251 319.955 185.151 317.558 185.751C315.061 186.351 312.864 186.75 310.966 187.05C310.067 187.15 309.168 187.25 308.369 187.35C307.57 187.45 306.971 187.45 306.471 187.45C305.373 187.45 304.773 187.45 304.773 187.45C304.773 187.45 305.373 187.35 306.372 187.25C306.871 187.25 307.57 187.15 308.269 187.05C309.068 186.95 309.867 186.85 310.766 186.75C312.664 186.451 314.861 186.051 317.258 185.351C319.655 184.651 322.352 183.851 324.949 182.751C327.646 181.652 330.043 180.352 332.24 179.052C334.438 177.752 336.235 176.453 337.834 175.353C338.633 174.853 339.232 174.253 339.831 173.753C340.43 173.253 340.93 172.853 341.329 172.553C342.228 171.954 342.728 171.554 342.728 171.554Z" fill="#263238"/>
<path d="M336.336 138.761C336.336 138.761 336.336 138.961 336.236 139.361C336.136 139.761 336.036 140.26 335.936 140.96C335.837 141.66 335.537 142.46 335.237 143.36C334.938 144.26 334.638 145.359 334.139 146.559C333.939 147.159 333.639 147.759 333.439 148.359C333.24 148.959 332.84 149.658 332.541 150.258C331.941 151.558 331.242 152.958 330.443 154.457C328.845 157.357 326.748 160.356 324.35 163.256C321.853 166.155 319.257 168.654 316.76 170.754C315.461 171.754 314.263 172.753 313.064 173.553C312.465 173.953 311.865 174.353 311.266 174.753C310.667 175.053 310.168 175.453 309.568 175.753C308.569 176.453 307.471 176.853 306.672 177.353C305.773 177.852 305.074 178.152 304.375 178.452C303.775 178.652 303.276 178.952 302.876 179.052C302.577 179.152 302.377 179.252 302.377 179.252C302.377 179.252 302.577 179.152 302.876 178.952C303.276 178.752 303.775 178.552 304.275 178.252C304.874 177.952 305.673 177.552 306.472 177.053C307.371 176.553 308.37 176.053 309.369 175.353C309.868 175.053 310.467 174.653 310.967 174.353C311.566 173.953 312.065 173.553 312.665 173.153C313.863 172.354 315.062 171.354 316.36 170.354C318.857 168.254 321.454 165.755 323.851 162.856C326.248 159.956 328.246 156.957 329.944 154.157C330.743 152.758 331.442 151.358 332.041 150.058C332.341 149.358 332.64 148.759 332.94 148.159C333.24 147.559 333.439 146.959 333.639 146.359C334.139 145.259 334.438 144.16 334.738 143.26C335.038 142.36 335.337 141.56 335.437 140.86C335.637 140.26 335.737 139.761 335.837 139.361C336.236 138.961 336.336 138.761 336.336 138.761Z" fill="#263238"/>
<path d="M294.186 205.146C294.186 205.146 293.387 204.746 292.388 203.746C291.389 202.746 290.191 201.247 289.292 199.247C288.493 197.248 288.193 195.248 288.193 193.848C288.193 192.449 288.493 191.549 288.493 191.549C288.593 191.549 288.493 192.449 288.593 193.748C288.693 195.148 288.992 197.048 289.791 198.947C290.59 200.847 291.689 202.446 292.688 203.446C293.587 204.546 294.286 205.146 294.186 205.146Z" fill="#263238"/>
<path d="M293.488 197.348C293.588 197.348 293.388 198.647 293.488 200.247C293.588 201.847 294.087 203.046 293.987 203.146C293.888 203.246 293.089 202.047 292.989 200.347C292.789 198.647 293.288 197.348 293.488 197.348Z" fill="#263238"/>
<path d="M283.599 161.555C283.599 161.555 283.5 161.355 283.5 161.055C283.4 160.655 283.4 160.256 283.3 159.656C283.1 158.356 282.8 156.656 282.501 154.657C281.802 150.458 280.803 144.559 279.604 138.16C278.406 131.762 277.207 125.963 276.408 121.764C276.009 119.764 275.609 118.065 275.409 116.765C275.309 116.265 275.21 115.765 275.11 115.365C275.01 115.065 275.01 114.865 275.01 114.865C275.01 114.865 275.11 115.065 275.21 115.365C275.309 115.765 275.409 116.165 275.609 116.665C275.909 117.865 276.308 119.564 276.808 121.564C277.806 125.763 279.005 131.562 280.204 137.96C281.402 144.359 282.301 150.258 282.9 154.457C283.2 156.556 283.4 158.256 283.599 159.456C283.699 159.956 283.699 160.455 283.799 160.855C283.599 161.455 283.599 161.555 283.599 161.555Z" fill="#263238"/>
<path d="M347.522 161.555C347.522 161.555 347.522 161.355 347.422 161.055C347.422 160.655 347.422 160.155 347.422 159.655C347.422 158.456 347.422 156.656 347.422 154.457C347.422 150.058 347.622 143.959 348.121 137.26C348.62 130.562 349.32 124.463 349.819 120.164C350.119 118.064 350.318 116.265 350.518 114.965C350.618 114.365 350.718 113.965 350.718 113.565C350.818 113.265 350.818 113.065 350.818 113.065C350.818 113.065 350.818 113.265 350.818 113.565C350.818 113.965 350.718 114.465 350.718 114.965C350.618 116.265 350.418 118.064 350.219 120.164C349.819 124.563 349.22 130.562 348.62 137.26C348.121 143.959 347.821 150.058 347.722 154.457C347.622 156.556 347.622 158.356 347.622 159.655C347.622 160.255 347.622 160.655 347.522 161.055C347.522 161.455 347.522 161.555 347.522 161.555Z" fill="#263238"/>
<path d="M267.619 164.155C267.419 164.255 266.121 160.555 263.624 156.656C261.027 152.657 258.13 150.158 258.23 150.058C258.23 150.058 259.029 150.558 260.228 151.657C261.326 152.757 262.824 154.357 264.123 156.356C265.421 158.356 266.32 160.355 266.92 161.755C267.419 163.255 267.719 164.155 267.619 164.155Z" fill="#263238"/>
<path d="M269.417 159.856C269.317 159.856 269.017 159.056 268.318 157.956C267.619 156.756 266.52 155.257 264.822 153.957C263.224 152.657 261.526 151.757 260.228 151.158C258.929 150.558 258.13 150.258 258.23 150.158C258.23 150.058 259.129 150.258 260.427 150.758C261.726 151.258 263.524 152.157 265.222 153.457C266.92 154.857 268.018 156.456 268.618 157.756C269.217 158.956 269.417 159.856 269.417 159.856Z" fill="#263238"/>
<path d="M279.704 135.761C279.704 135.761 279.704 135.961 279.505 136.161C279.305 136.461 279.005 136.86 278.606 137.26C277.707 138.06 275.909 138.96 273.712 138.56C271.514 138.26 269.117 136.661 267.519 134.161C266.72 132.961 266.021 131.562 265.521 130.162C265.222 129.462 264.922 128.662 264.722 127.862C264.523 127.063 264.323 126.263 264.423 125.363C264.523 124.463 264.922 123.663 265.621 123.063C266.32 122.464 267.319 122.464 268.118 122.664C269.716 123.063 270.915 124.363 271.414 125.763C271.914 127.163 271.714 128.762 271.015 129.862C270.316 130.962 269.217 131.762 268.118 132.062C267.02 132.361 266.021 132.261 265.122 131.962C264.323 131.662 263.724 131.162 263.324 130.662C262.925 130.162 262.625 129.762 262.525 129.462C262.425 129.162 262.325 128.962 262.425 128.962C262.525 128.962 262.625 129.662 263.524 130.462C263.923 130.862 264.523 131.262 265.322 131.562C266.121 131.862 267.119 131.962 268.118 131.662C269.117 131.362 270.116 130.662 270.715 129.562C271.314 128.562 271.514 127.163 271.015 125.863C270.515 124.563 269.517 123.463 268.018 123.063C267.319 122.863 266.52 122.963 266.021 123.463C265.422 123.863 265.122 124.663 265.022 125.363C264.822 126.863 265.521 128.462 266.021 129.862C266.62 131.262 267.219 132.661 268.018 133.861C269.517 136.261 271.714 137.76 273.811 138.16C275.909 138.56 277.607 137.76 278.506 137.06C279.305 136.361 279.604 135.761 279.704 135.761Z" fill="#FAFAFA"/>
<path d="M318.957 151.157C318.957 151.157 318.857 151.257 318.657 151.357C318.457 151.557 318.158 151.757 317.858 151.957C317.159 152.457 315.96 153.357 314.462 154.157C313.663 154.557 312.764 154.856 311.665 155.056C310.567 155.256 309.368 155.256 308.17 154.856C305.673 154.057 303.475 151.957 301.877 149.258C300.179 146.558 299.081 143.159 298.981 139.36C298.881 135.661 299.78 131.561 302.077 127.962C303.176 126.163 304.674 124.463 306.771 123.563C307.77 123.163 308.969 122.963 310.167 123.163C311.266 123.363 312.465 123.863 313.164 124.863C313.863 125.863 314.162 127.062 314.063 128.262C313.963 129.462 313.563 130.662 312.964 131.661C311.765 133.761 309.668 135.261 307.371 136.16C305.073 137.06 302.576 137.26 300.279 136.86C297.882 136.56 295.685 135.561 293.887 134.161C290.092 131.461 287.694 127.462 286.296 123.563C285.597 121.564 285.098 119.564 285.397 117.464C285.597 116.465 285.897 115.465 286.596 114.665C287.195 113.865 288.094 113.265 288.993 113.065C290.891 112.665 292.888 113.465 293.987 114.765C295.185 116.165 295.485 117.964 295.185 119.564C294.886 121.164 294.187 122.563 293.088 123.563C292.089 124.563 290.891 125.263 289.692 125.763C287.295 126.662 285.098 126.762 283.3 126.762C281.502 126.662 280.203 126.463 279.305 126.363C278.905 126.263 278.506 126.263 278.306 126.163C278.106 126.163 277.906 126.063 277.906 126.063C277.906 126.063 278.006 126.063 278.306 126.063C278.605 126.063 278.905 126.163 279.305 126.163C280.203 126.263 281.602 126.463 283.3 126.463C284.998 126.463 287.195 126.363 289.492 125.463C290.591 124.963 291.789 124.263 292.788 123.263C293.787 122.263 294.486 120.864 294.686 119.364C294.886 117.864 294.686 116.165 293.487 114.865C292.389 113.665 290.591 112.865 288.893 113.265C287.095 113.665 285.897 115.365 285.597 117.264C285.297 119.164 285.797 121.164 286.496 123.063C287.894 126.962 290.291 130.762 293.887 133.361C295.685 134.661 297.782 135.661 300.079 135.96C302.377 136.36 304.774 136.06 306.971 135.261C309.168 134.461 311.066 132.961 312.265 130.962C312.864 129.962 313.164 128.862 313.264 127.762C313.363 126.662 313.064 125.563 312.465 124.663C311.865 123.763 310.767 123.263 309.768 123.163C308.769 122.963 307.67 123.163 306.672 123.563C304.774 124.363 303.276 126.063 302.177 127.762C299.98 131.262 299.081 135.161 299.181 138.86C299.28 142.559 300.379 145.858 301.977 148.558C303.575 151.257 305.773 153.257 308.07 154.057C310.467 154.856 312.664 154.157 314.162 153.457C315.761 152.757 316.859 151.957 317.658 151.357C318.058 151.057 318.258 150.857 318.557 150.757C318.857 151.157 318.957 151.157 318.957 151.157Z" fill="#FAFAFA"/>
<path d="M291.39 95.0689C291.39 95.0689 291.29 95.3688 291.09 95.9687C290.891 96.5686 290.391 97.2684 289.792 98.1682C288.593 99.9678 286.396 102.267 283.3 103.667C280.203 105.167 277.107 105.367 274.91 105.267C273.811 105.167 272.912 104.967 272.313 104.867C271.714 104.667 271.414 104.567 271.414 104.567C271.414 104.467 272.712 104.867 274.91 104.967C277.007 105.067 280.104 104.667 283 103.267C285.996 101.867 288.094 99.7679 289.392 97.9683C290.791 96.2686 291.29 94.9689 291.39 95.0689Z" fill="#FAFAFA"/>
<path d="M306.172 99.2681C306.172 99.4681 304.674 99.4681 303.375 100.668C301.977 101.768 301.677 103.268 301.577 103.268C301.477 103.268 301.477 102.868 301.677 102.268C301.877 101.668 302.276 100.868 303.076 100.268C303.775 99.6681 304.674 99.3681 305.273 99.2681C305.772 99.1681 306.172 99.2681 306.172 99.2681Z" fill="#FAFAFA"/>
<path d="M327.247 105.168C327.247 105.168 326.948 105.068 326.448 104.768C325.949 104.468 325.25 103.868 324.551 103.068C323.951 102.168 323.252 100.969 323.152 99.5689C323.152 98.8691 323.252 97.9693 323.752 97.3694C324.251 96.6696 325.15 96.1697 326.049 96.3696C326.948 96.5696 327.647 97.3694 327.847 98.0693C328.146 98.8691 327.847 99.7689 327.347 100.369C326.348 101.569 324.75 101.768 323.752 101.369C322.653 100.969 322.054 100.269 321.754 99.7689C321.454 99.269 321.354 98.8691 321.354 98.8691C321.354 98.8691 321.554 99.169 321.854 99.5689C322.253 99.9689 322.853 100.669 323.752 100.969C324.651 101.269 326.049 101.069 326.848 100.069C327.247 99.5689 327.447 98.8691 327.147 98.2692C326.948 97.6693 326.348 97.0695 325.749 96.8695C325.05 96.6696 324.351 97.0695 323.951 97.6693C323.552 98.2692 323.352 98.9691 323.452 99.5689C323.552 100.869 324.051 102.068 324.651 102.968C326.049 104.568 327.347 105.068 327.247 105.168Z" fill="#FAFAFA"/>
<path d="M331.241 93.4706C331.142 93.5706 330.043 91.9706 327.945 91.1706C325.848 90.2706 323.95 90.6706 323.95 90.4706C323.95 90.3706 324.35 90.2706 325.149 90.1706C325.948 90.0706 327.046 90.1706 328.145 90.6706C329.244 91.1706 330.143 91.7706 330.642 92.3706C331.142 93.0706 331.341 93.4706 331.241 93.4706Z" fill="#FAFAFA"/>
<path d="M358.709 105.167C358.709 105.167 358.609 105.167 358.509 105.267C358.309 105.367 358.109 105.467 357.909 105.567C357.41 105.867 356.611 106.167 355.512 106.567C353.415 107.367 350.219 108.267 346.124 108.367C345.125 108.367 344.026 108.267 342.928 108.067C341.829 107.867 340.73 107.367 339.731 106.567C338.833 105.767 338.233 104.468 338.233 103.168C338.233 101.868 338.633 100.469 339.532 99.3687C341.329 97.1692 344.626 96.4694 347.522 97.3692C350.419 98.169 353.015 100.469 353.914 103.568C354.813 106.567 354.014 110.066 352.017 112.266C350.019 114.565 347.222 115.665 344.626 116.265C342.029 116.865 339.432 116.965 337.035 117.065C334.638 117.165 332.44 117.265 330.543 117.665C326.647 118.465 323.851 120.464 322.452 122.264C321.054 124.063 320.954 125.363 320.954 125.363C320.954 125.363 320.954 125.263 320.954 125.163C320.954 125.063 321.054 124.763 321.154 124.463C321.354 123.863 321.653 123.064 322.352 122.164C323.651 120.264 326.447 118.165 330.443 117.365C332.44 116.965 334.638 116.765 337.035 116.665C339.432 116.565 341.929 116.465 344.526 115.865C347.023 115.265 349.719 114.166 351.617 111.966C353.515 109.866 354.214 106.667 353.415 103.768C352.616 100.868 350.119 98.6689 347.422 97.969C344.725 97.1692 341.629 97.8691 339.931 99.8686C339.132 100.868 338.633 102.068 338.733 103.268C338.733 104.468 339.232 105.567 340.131 106.367C340.93 107.167 342.029 107.567 343.127 107.867C344.226 108.167 345.225 108.167 346.224 108.167C350.219 108.167 353.415 107.267 355.612 106.567C356.711 106.167 357.51 105.867 358.009 105.667C358.409 105.267 358.709 105.167 358.709 105.167Z" fill="#FAFAFA"/>
<path d="M333.838 144.36C333.738 144.36 333.439 143.56 332.54 142.36C331.641 141.16 330.043 139.761 327.945 138.961C325.848 138.161 323.75 138.261 322.252 138.461C320.754 138.761 319.955 139.161 319.955 139.061C319.955 139.061 320.754 138.461 322.252 138.061C323.75 137.661 325.948 137.561 328.145 138.361C330.343 139.161 331.941 140.76 332.84 142.06C333.639 143.46 333.838 144.36 333.838 144.36Z" fill="#FAFAFA"/>
<path d="M345.425 151.958C345.425 151.958 345.125 152.858 344.026 153.958C343.027 155.058 341.13 156.258 338.733 156.458C336.335 156.658 334.338 155.758 333.139 154.858C331.941 153.958 331.441 153.058 331.441 153.058C331.541 152.958 332.041 153.758 333.339 154.558C334.538 155.358 336.535 156.158 338.733 155.958C340.93 155.758 342.728 154.658 343.826 153.758C344.925 152.758 345.425 151.858 345.425 151.958Z" fill="#FAFAFA"/>
<path d="M348.521 132.062C348.521 132.162 347.922 131.762 346.823 131.462C345.725 131.162 344.226 131.062 342.628 131.562C341.03 132.062 339.832 133.062 339.133 133.962C338.433 134.762 338.134 135.462 338.034 135.462C337.934 135.462 338.134 134.762 338.833 133.762C339.432 132.862 340.731 131.662 342.429 131.162C344.127 130.662 345.824 130.862 346.923 131.262C348.022 131.562 348.521 132.062 348.521 132.062Z" fill="#FAFAFA"/>
<path d="M385.676 122.864C385.676 122.864 385.776 123.164 385.876 123.564C385.976 123.764 385.976 124.163 385.976 124.463C385.976 124.863 386.076 125.263 385.976 125.763C385.976 127.663 385.277 130.462 383.079 133.262C381.981 134.561 380.582 135.861 378.784 136.861C376.987 137.761 374.789 138.26 372.592 138.26C368.097 138.26 363.003 136.061 359.807 131.862C359.008 130.862 358.309 129.662 358.009 128.363C357.71 127.063 357.71 125.763 358.109 124.563C358.509 123.364 359.308 122.264 360.407 121.664C361.505 121.064 362.804 121.064 363.902 121.264C365.001 121.464 366.1 122.064 366.899 122.864C367.698 123.664 368.197 124.563 368.497 125.563C369.096 127.563 368.996 129.462 368.497 131.162C367.997 132.762 367.099 134.161 366.1 135.161C365.201 136.161 364.202 136.861 363.303 137.261C362.504 137.761 361.705 137.961 361.306 138.061C360.806 138.161 360.606 138.26 360.506 138.161C360.506 138.061 361.505 137.961 363.203 137.061C364.801 136.161 366.999 134.261 368.097 131.062C368.597 129.462 368.697 127.563 368.097 125.763C367.798 124.863 367.298 123.964 366.599 123.264C365.9 122.564 364.901 122.064 363.902 121.864C362.904 121.664 361.705 121.764 360.706 122.264C359.707 122.764 359.008 123.764 358.609 124.863C358.209 125.963 358.209 127.263 358.609 128.363C358.908 129.562 359.508 130.662 360.307 131.662C363.503 135.661 368.297 137.861 372.692 137.861C374.889 137.861 376.987 137.461 378.685 136.561C380.482 135.661 381.881 134.461 382.879 133.162C384.977 130.562 385.776 127.763 385.776 125.963C385.976 123.864 385.676 122.864 385.676 122.864Z" fill="#FAFAFA"/>
<path d="M393.367 143.559C393.367 143.559 393.067 143.359 392.768 142.859C392.468 142.359 391.969 141.66 391.669 140.56C391.369 139.56 391.269 138.26 391.469 136.861C391.669 135.461 392.068 133.961 392.468 132.461C393.467 129.362 394.965 126.863 396.064 125.063C396.663 124.163 397.062 123.463 397.462 122.964C397.762 122.464 397.961 122.264 398.061 122.264C398.161 122.264 397.462 123.463 396.463 125.263C395.464 127.063 393.966 129.562 393.067 132.561C392.668 134.061 392.268 135.561 392.068 136.861C391.869 138.16 391.869 139.46 392.068 140.46C392.568 142.559 393.567 143.459 393.367 143.559Z" fill="#FAFAFA"/>
<path d="M412.344 120.564C412.344 120.564 412.444 120.764 412.643 121.264C412.843 121.764 412.943 122.464 413.143 123.364C413.442 125.163 413.542 127.663 412.943 130.362C412.344 133.062 411.245 135.261 410.146 136.761C409.647 137.461 409.148 138.061 408.848 138.461C408.548 138.861 408.349 138.961 408.249 138.961C408.149 138.861 408.948 138.061 409.847 136.561C410.746 135.061 411.844 132.862 412.444 130.262C413.043 127.663 412.943 125.163 412.743 123.464C412.544 121.664 412.244 120.564 412.344 120.564Z" fill="#FAFAFA"/>
<path d="M346.922 167.354C346.922 167.354 346.723 167.254 346.523 167.154C346.223 166.954 345.824 166.754 345.324 166.454C344.226 165.954 342.628 165.254 340.43 165.054C338.333 164.854 335.636 165.054 333.139 166.254C331.841 166.854 330.542 167.654 329.444 168.654C328.844 169.153 328.345 169.753 328.045 170.453C327.646 171.153 327.446 171.853 327.546 172.653C327.646 173.453 328.045 174.152 328.645 174.552C329.244 174.952 330.043 174.952 330.642 174.652C332.04 174.052 332.54 172.453 332.54 171.153C332.44 168.354 330.642 166.054 328.844 165.154C326.947 164.155 325.149 164.255 323.95 164.554C322.752 164.854 322.152 165.154 322.152 165.154C322.152 165.154 322.252 165.054 322.552 164.854C322.851 164.754 323.251 164.554 323.85 164.355C325.049 164.055 326.947 163.855 328.944 164.854C330.942 165.854 332.839 168.154 332.939 171.153C332.939 171.853 332.839 172.653 332.54 173.453C332.24 174.152 331.641 174.852 330.842 175.152C330.043 175.552 329.044 175.552 328.345 175.052C327.546 174.552 327.146 173.653 327.046 172.853C326.947 171.953 327.246 171.053 327.646 170.353C328.045 169.653 328.645 168.954 329.144 168.454C330.342 167.354 331.641 166.554 332.939 165.954C335.636 164.754 338.333 164.554 340.53 164.854C342.727 165.154 344.425 165.854 345.424 166.454C345.924 166.754 346.323 167.054 346.623 167.254C346.823 167.154 347.022 167.254 346.922 167.354Z" fill="#FAFAFA"/>
<path d="M350.619 175.553C350.719 175.653 350.219 176.653 349.42 177.853C348.621 179.053 347.922 179.953 347.822 179.853C347.722 179.753 348.222 178.753 349.021 177.553C349.72 176.453 350.419 175.553 350.619 175.553Z" fill="#FAFAFA"/>
<path d="M363.303 189.95C363.204 189.95 363.104 189.55 362.704 189.05C362.405 188.55 361.805 187.85 360.906 187.45C360.107 186.95 359.208 186.85 358.609 186.75C358.01 186.75 357.61 186.85 357.61 186.75C357.61 186.65 358.01 186.45 358.609 186.45C359.308 186.35 360.207 186.55 361.206 187.05C362.105 187.55 362.704 188.35 363.004 188.95C363.303 189.45 363.303 189.85 363.303 189.95Z" fill="#FAFAFA"/>
<path d="M322.053 184.851C322.053 184.951 320.855 185.551 318.957 186.651C317.059 187.751 314.363 189.35 312.165 191.95C309.968 194.449 308.769 197.449 308.57 199.548C308.27 201.748 308.769 203.047 308.669 203.147C308.669 203.147 308.47 202.847 308.37 202.248C308.27 201.648 308.17 200.748 308.27 199.548C308.37 197.249 309.568 194.149 311.866 191.65C314.163 189.05 316.86 187.451 318.857 186.451C319.856 185.951 320.655 185.551 321.254 185.351C321.654 184.851 321.953 184.751 322.053 184.851Z" fill="#FAFAFA"/>
<path d="M336.635 189.65C336.635 189.65 336.036 189.35 335.537 188.45C335.037 187.55 334.538 186.15 334.737 184.651C334.837 183.051 335.537 181.751 336.236 181.052C336.935 180.252 337.434 180.052 337.534 180.052C337.634 180.152 337.135 180.452 336.535 181.251C335.936 182.051 335.437 183.251 335.337 184.751C335.237 186.25 335.537 187.55 335.936 188.35C336.336 189.15 336.735 189.65 336.635 189.65Z" fill="#FAFAFA"/>
<path d="M313.762 171.553C313.762 171.553 313.562 171.353 313.163 170.953C312.763 170.653 312.064 170.153 311.065 170.053C310.067 169.953 308.768 170.053 307.57 170.753C306.371 171.453 305.272 172.753 304.274 174.253C303.275 175.752 302.476 177.552 301.177 179.351C299.979 181.151 297.981 182.751 295.684 183.451C293.387 184.25 290.59 184.15 288.093 183.051C285.696 181.951 283.499 179.851 282.5 177.152C282.001 175.852 281.901 174.253 282.3 172.953C282.7 171.553 283.699 170.453 284.897 169.754C286.096 169.054 287.394 168.754 288.792 168.854C290.091 169.054 291.289 169.654 292.188 170.453C294.086 172.153 294.985 174.552 294.885 176.752C294.885 178.952 294.086 180.951 292.987 182.451C291.989 183.95 290.59 185.05 289.392 185.85C288.093 186.65 286.995 187.05 285.996 187.35C284.997 187.65 284.198 187.75 283.699 187.85C283.399 187.85 283.199 187.95 283.099 187.95C282.999 187.95 282.9 187.95 282.9 187.95C282.9 187.95 283.199 187.85 283.699 187.75C284.198 187.65 284.997 187.45 285.996 187.15C286.995 186.85 288.093 186.35 289.292 185.65C290.49 184.85 291.789 183.751 292.788 182.251C293.786 180.751 294.486 178.852 294.486 176.752C294.486 174.652 293.686 172.353 291.889 170.853C290.99 170.053 289.891 169.554 288.693 169.354C287.494 169.254 286.196 169.554 285.197 170.153C284.098 170.853 283.199 171.853 282.8 173.053C282.4 174.253 282.5 175.652 282.999 176.952C283.898 179.551 285.996 181.551 288.293 182.551C290.59 183.651 293.287 183.751 295.484 182.951C297.782 182.251 299.579 180.751 300.778 179.052C301.976 177.352 302.875 175.552 303.874 173.953C304.873 172.453 306.072 171.153 307.37 170.453C308.668 169.654 310.067 169.554 311.065 169.754C312.064 169.953 312.763 170.453 313.163 170.753C313.662 171.353 313.762 171.553 313.762 171.553Z" fill="#FAFAFA"/>
<path d="M314.062 187.15C314.062 187.15 313.363 186.85 312.464 185.85C311.565 184.951 310.566 183.451 309.967 181.551C309.368 179.652 309.468 177.852 309.667 176.552C309.867 175.253 310.267 174.553 310.367 174.553C310.466 174.553 310.167 175.353 310.067 176.552C309.967 177.752 309.967 179.552 310.466 181.351C310.966 183.151 311.865 184.651 312.664 185.55C313.563 186.55 314.162 187.05 314.062 187.15Z" fill="#FAFAFA"/>
<path d="M317.759 164.055C317.759 164.155 317.06 163.755 315.761 163.255C314.463 162.755 312.565 162.055 310.068 161.755C307.571 161.455 304.575 161.455 301.378 162.155C299.78 162.555 298.082 163.055 296.584 163.955C295.885 164.355 295.186 165.055 294.986 165.854C294.786 166.654 295.286 167.654 295.985 167.854C296.384 167.954 296.784 167.854 297.084 167.554C297.383 167.254 297.583 166.854 297.683 166.454C297.883 165.654 297.983 164.655 297.883 163.755C297.783 161.955 297.383 160.256 296.584 158.856C295.885 157.356 294.886 156.157 293.788 155.257C292.689 154.357 291.49 153.657 290.292 153.257C287.995 152.457 285.897 152.457 284.499 152.657C283.101 152.857 282.401 153.157 282.401 153.157C282.401 153.157 282.601 153.057 282.901 152.957C283.2 152.857 283.8 152.657 284.499 152.557C285.897 152.257 287.995 152.157 290.492 152.957C291.69 153.357 292.989 154.057 294.087 154.957C295.286 155.957 296.285 157.156 297.084 158.656C297.883 160.156 298.382 161.955 298.482 163.755C298.482 164.655 298.482 165.654 298.282 166.554C298.182 167.054 297.983 167.554 297.583 167.854C297.184 168.254 296.584 168.454 295.985 168.254C295.386 168.054 294.986 167.654 294.786 167.154C294.587 166.654 294.487 166.154 294.587 165.654C294.786 164.555 295.585 163.855 296.384 163.455C297.983 162.555 299.68 162.055 301.378 161.655C304.674 160.856 307.771 160.955 310.268 161.355C312.765 161.755 314.662 162.455 315.961 163.055C316.56 163.355 317.06 163.555 317.459 163.755C317.559 163.955 317.759 164.055 317.759 164.055Z" fill="#FAFAFA"/>
<path d="M239.952 166.954C239.952 166.954 240.551 166.454 241.55 165.454C242.548 164.454 243.847 162.854 244.646 160.455C245.545 158.155 245.844 154.956 244.346 151.957C243.647 150.457 242.548 149.057 241.15 148.058C239.752 146.958 237.954 146.258 236.156 146.158C235.257 146.158 234.358 146.358 233.559 146.758C232.76 147.158 232.061 147.758 231.761 148.557C231.462 149.357 231.662 150.257 232.161 150.857C232.66 151.557 233.359 152.057 234.059 152.257C235.557 152.757 237.155 152.257 238.353 151.557C239.552 150.757 240.451 149.657 240.95 148.557C242.049 146.258 242.049 144.158 242.249 142.859C242.249 142.159 242.349 141.659 242.349 141.259C242.349 140.859 242.349 140.659 242.349 140.659C242.349 140.659 242.349 140.859 242.449 141.259C242.449 141.659 242.449 142.159 242.449 142.859C242.449 144.258 242.349 146.358 241.35 148.757C240.85 149.957 239.952 151.057 238.653 151.957C237.355 152.757 235.657 153.356 233.959 152.757C233.16 152.457 232.361 151.957 231.761 151.157C231.262 150.357 230.962 149.357 231.362 148.358C231.662 147.358 232.461 146.658 233.359 146.258C234.258 145.858 235.257 145.658 236.256 145.658C238.254 145.758 240.151 146.558 241.55 147.658C243.048 148.757 244.146 150.257 244.846 151.757C245.545 153.256 245.844 154.956 245.844 156.456C245.844 157.955 245.445 159.355 245.045 160.555C244.146 162.954 242.748 164.554 241.749 165.554C241.25 166.054 240.751 166.354 240.451 166.554C240.051 166.854 239.952 166.954 239.952 166.954Z" fill="#FAFAFA"/>
<path d="M260.627 181.851C260.627 181.851 260.327 181.551 259.828 181.051C259.329 180.452 258.729 179.652 258.13 178.452C256.832 176.152 255.733 172.553 255.933 168.454C256.232 164.355 257.83 160.956 259.429 158.856C260.228 157.756 260.927 156.957 261.426 156.457C261.926 155.957 262.325 155.757 262.325 155.757C262.425 155.857 261.126 156.857 259.728 159.056C258.33 161.156 256.732 164.555 256.532 168.454C256.232 172.353 257.331 175.953 258.53 178.252C259.628 180.552 260.727 181.751 260.627 181.851Z" fill="#FAFAFA"/>
<path d="M280.103 160.155C280.003 160.155 279.604 158.656 278.405 156.456C277.207 154.257 275.009 151.457 271.813 149.258C268.617 147.158 265.121 146.258 262.624 145.958C260.127 145.658 258.529 145.858 258.529 145.758C258.529 145.758 258.929 145.658 259.628 145.558C260.327 145.458 261.426 145.458 262.624 145.558C265.221 145.758 268.717 146.558 272.013 148.758C275.309 150.957 277.506 153.857 278.705 156.156C279.304 157.256 279.704 158.256 279.903 158.956C280.103 159.755 280.203 160.055 280.103 160.155Z" fill="#FAFAFA"/>
<g opacity="0.3">
<path d="M307.471 188.049C306.472 188.449 306.572 189.949 307.371 190.649C308.17 191.349 309.269 191.349 310.368 191.249C322.054 190.649 333.34 184.35 339.932 174.652C330.943 182.051 319.057 184.85 307.671 187.45" fill="black"/>
</g>
<g opacity="0.3">
<path d="M305.673 177.852C304.675 176.352 305.374 174.253 306.572 172.953C307.871 171.653 309.569 170.954 311.167 170.154C317.06 167.254 321.854 162.256 324.651 156.357C326.448 152.458 327.847 147.559 331.842 145.959C329.744 159.856 319.457 172.153 306.173 176.652" fill="black"/>
</g>
<g opacity="0.3">
<path d="M277.307 126.062C278.306 136.96 277.507 148.058 275.01 158.756C274.51 161.055 273.811 163.355 273.911 165.654C273.911 167.954 275.409 170.653 277.207 172.153C278.905 168.353 278.905 164.654 279.604 160.555C280.203 156.856 281.302 148.158 281.302 148.058C281.402 140.459 279.704 133.961 276.708 127.162" fill="black"/>
</g>
<g opacity="0.3">
<path d="M296.085 93.2706C297.583 101.269 301.578 108.767 307.371 114.466C309.568 116.666 312.365 118.565 315.361 118.465C313.564 114.866 313.064 110.667 313.863 106.668C316.46 108.367 319.157 109.967 322.053 111.167C324.95 112.267 328.146 112.866 331.242 112.167C331.841 106.668 332.541 101.069 333.14 95.5701C333.24 94.9703 333.24 94.2704 332.94 93.6706C332.64 93.0707 331.742 92.8707 331.342 93.2706C331.142 93.4706 331.042 93.7705 331.042 93.9705C329.944 98.8694 329.245 103.169 328.146 108.067C327.347 108.867 324.85 108.567 323.252 107.967C321.854 107.468 321.254 106.268 320.355 105.068C319.456 103.868 319.556 104.068 318.158 103.468C315.561 102.369 310.667 103.269 309.568 105.568C308.47 107.868 309.269 110.967 310.068 113.166C302.976 108.567 297.583 101.169 295.485 92.9707" fill="black"/>
</g>
<g opacity="0.3">
<path d="M350.618 116.665C350.418 117.065 356.81 138.76 356.81 138.76L348.521 134.061L350.618 116.665Z" fill="black"/>
</g>
<path d="M298.881 53.7783V88.2709C298.881 90.2705 299.58 92.1701 300.878 93.6697C302.776 95.9693 305.173 97.9688 307.77 99.3685L314.762 103.268L320.555 98.1688C322.253 96.6691 323.251 94.5695 323.351 92.27C323.451 89.7706 323.451 87.2711 323.451 87.2711C323.451 87.2711 333.239 86.5713 334.138 76.9733C334.538 72.4743 334.738 63.1763 334.738 54.5781C334.738 44.7802 327.247 36.6819 317.558 35.8821H317.259C307.171 35.5822 298.881 43.6804 298.881 53.7783Z" fill="#FFBE9D"/>
<path d="M323.351 87.2713C323.351 87.2713 317.259 87.1713 311.166 82.5723C311.166 82.5723 313.663 89.8707 323.351 89.7707V87.2713Z" fill="#EB996E"/>
<path d="M331.74 60.777C331.74 61.477 331.041 62.077 330.341 62.077C329.542 62.077 329.043 61.477 329.043 60.677C329.043 59.977 329.742 59.377 330.441 59.377C331.24 59.377 331.84 59.977 331.74 60.777Z" fill="#263238"/>
<path d="M332.139 58.4784C331.939 58.6784 330.941 57.7784 329.542 57.6784C328.044 57.5784 326.945 58.1784 326.746 57.9784C326.646 57.8784 326.846 57.5784 327.345 57.2784C327.844 56.9784 328.643 56.6784 329.542 56.7784C330.441 56.8784 331.24 57.2784 331.64 57.6784C332.139 58.0784 332.239 58.3784 332.139 58.4784Z" fill="#263238"/>
<path d="M317.857 60.0777C317.857 60.7777 317.158 61.3777 316.459 61.3777C315.66 61.3777 315.16 60.7777 315.16 59.9777C315.16 59.2777 315.859 58.6777 316.558 58.6777C317.258 58.6777 317.857 59.2777 317.857 60.0777Z" fill="#263238"/>
<path d="M317.557 57.4784C317.357 57.6784 316.359 56.7784 314.96 56.6784C313.462 56.5784 312.363 57.1784 312.164 56.9784C312.064 56.8784 312.264 56.5784 312.763 56.2784C313.262 55.9784 314.061 55.6784 314.96 55.7784C315.859 55.8784 316.658 56.2784 317.058 56.6784C317.557 57.0784 317.657 57.4784 317.557 57.4784Z" fill="#263238"/>
<path d="M322.052 68.9761C322.052 68.8761 322.951 68.7761 324.449 68.7761C324.848 68.7761 325.148 68.6761 325.248 68.4762C325.348 68.1763 325.248 67.7763 325.048 67.3764C324.749 66.4766 324.449 65.4768 324.149 64.3771C322.951 60.178 322.052 56.6787 322.252 56.6787C322.451 56.6787 323.55 59.978 324.748 64.2771C325.048 65.2769 325.348 66.2767 325.548 67.2764C325.647 67.6764 325.847 68.1763 325.647 68.7761C325.548 69.0761 325.248 69.276 324.948 69.276C324.748 69.376 324.449 69.276 324.349 69.276C322.951 69.0761 322.052 69.0761 322.052 68.9761Z" fill="#263238"/>
<path d="M317.658 69.5752C317.857 69.5752 317.758 71.1752 319.056 72.4752C320.354 73.7752 322.052 73.6752 322.052 73.8752C322.052 73.9752 321.653 74.1752 320.954 74.0752C320.254 74.0752 319.256 73.7752 318.457 72.9752C317.658 72.1752 317.358 71.2752 317.358 70.5752C317.258 69.9752 317.558 69.5752 317.658 69.5752Z" fill="#263238"/>
<path d="M318.456 51.7793C318.256 52.1793 316.858 51.8793 315.06 51.8793C313.262 51.8793 311.864 52.2793 311.664 51.8793C311.565 51.6793 311.864 51.3793 312.463 50.9793C313.063 50.6793 313.962 50.3793 315.06 50.2793C316.159 50.2793 317.058 50.4793 317.657 50.7793C318.256 51.1793 318.556 51.5793 318.456 51.7793Z" fill="#263238"/>
<path d="M331.94 54.0786C331.64 54.3786 330.641 53.9786 329.443 53.8786C328.244 53.6786 327.146 53.8786 326.946 53.5786C326.846 53.3786 327.046 53.0786 327.545 52.7786C328.045 52.4786 328.744 52.2786 329.643 52.3786C330.442 52.4786 331.141 52.8786 331.54 53.1786C331.94 53.5786 332.14 53.9786 331.94 54.0786Z" fill="#263238"/>
<path d="M310.167 44.0806C308.469 45.1803 307.37 46.88 306.871 48.7796C306.871 48.8796 306.871 48.8796 306.871 48.9795C306.271 51.679 306.072 54.4784 305.472 57.1778C304.873 59.8772 304.973 61.9768 302.276 62.5766C300.578 62.9765 299.08 61.9768 298.481 61.0769C298.281 60.677 298.281 60.2771 298.281 59.7772C298.281 53.0787 296.983 50.4792 297.582 43.5807C297.782 41.6811 298.78 39.9815 300.378 38.9817C301.877 38.0819 303.774 37.0821 305.372 37.9819C306.971 38.8817 308.768 42.081 309.867 43.4807" fill="#3F3D56"/>
<path d="M301.777 58.3774C301.577 58.2774 295.285 55.8779 294.985 62.4765C294.686 69.0751 301.378 68.0753 301.378 67.8754C301.378 67.6754 301.777 58.3774 301.777 58.3774Z" fill="#FFBE9D"/>
<path d="M299.48 65.276C299.48 65.276 299.38 65.376 299.181 65.476C298.981 65.576 298.681 65.576 298.282 65.476C297.582 65.1761 297.083 64.0763 297.083 62.8766C297.083 62.2767 297.283 61.6768 297.483 61.2769C297.682 60.777 298.082 60.4771 298.382 60.4771C298.781 60.3771 298.981 60.677 299.081 60.777C299.181 60.977 299.081 61.0769 299.181 61.0769C299.181 61.0769 299.28 60.977 299.28 60.677C299.28 60.577 299.181 60.3771 299.081 60.2771C298.881 60.1771 298.681 60.0771 298.481 60.0771C297.982 60.0771 297.483 60.577 297.183 61.0769C296.883 61.5768 296.684 62.1767 296.684 62.8766C296.684 64.1763 297.283 65.476 298.182 65.7759C298.681 65.8759 299.081 65.7759 299.28 65.676C299.48 65.476 299.48 65.276 299.48 65.276Z" fill="#EB996E"/>
<path d="M304.974 39.0818C303.575 36.2824 308.369 32.8831 311.665 32.1833C314.961 31.3834 319.156 33.383 322.253 34.6827C324.25 35.4826 326.148 36.6823 328.345 36.6823C329.744 36.7823 331.242 36.2824 332.64 35.9825C334.038 35.5825 335.537 35.2826 336.935 35.4826C338.333 35.6825 339.732 36.5823 340.231 37.982C340.63 39.3817 339.732 41.0814 338.333 41.1813C340.231 40.2815 342.728 41.8812 342.928 43.9808C343.028 46.0803 340.73 47.8799 338.733 47.28C339.732 46.6802 341.03 47.9799 340.83 49.0797C340.63 50.2794 339.532 50.9793 338.333 51.3792C335.537 52.379 332.341 51.6791 329.544 50.4794C326.747 49.2796 324.25 47.58 321.554 46.2803C318.857 44.9805 314.262 42.781 311.366 43.5808C309.268 44.1807 307.57 46.5802 306.472 45.8803C305.373 45.2805 304.774 43.9808 304.674 42.781C304.374 41.5813 304.674 40.2815 304.974 39.0818Z" fill="#3F3D56"/>
<path d="M339.032 41.0821C338.932 41.0821 338.632 41.582 337.833 42.2818C337.034 42.9817 335.836 43.8815 333.938 44.3814C332.14 44.8813 329.843 44.8813 327.645 43.5815C325.448 42.3818 323.75 40.1823 321.653 38.1827C319.655 36.0831 317.158 34.4835 314.561 33.9836C311.964 33.4837 309.567 34.2835 308.069 35.6832C306.571 37.0829 306.171 38.7826 306.271 39.7824C306.271 40.2822 306.371 40.7821 306.471 40.9821C306.571 41.282 306.671 41.382 306.671 41.382C306.771 41.382 306.471 40.7821 306.571 39.7824C306.671 38.7826 307.07 37.1829 308.469 35.9832C309.867 34.7834 312.164 34.0836 314.561 34.5835C316.958 35.0834 319.355 36.583 321.353 38.5826C323.351 40.5822 325.148 42.8817 327.446 44.0814C329.743 45.3812 332.24 45.2812 334.138 44.7813C336.035 44.2814 337.334 43.2816 338.033 42.4818C338.432 42.0819 338.632 41.7819 338.832 41.482C339.032 41.282 339.032 41.0821 339.032 41.0821Z" fill="white" fill-opacity="0.34"/>
<path d="M300.079 57.978C300.079 57.978 300.378 57.7781 300.678 57.2782C300.978 56.7783 301.277 55.9785 301.177 54.8787C301.177 52.7792 299.479 50.2797 299.479 47.3803C299.479 45.8806 299.779 44.4809 300.578 43.4811C301.277 42.4814 302.276 41.8815 303.175 41.5815C304.074 41.2816 304.873 41.3816 305.372 41.4816C305.872 41.5815 306.171 41.7815 306.171 41.6815C306.171 41.6815 305.972 41.3816 305.372 41.1816C304.873 40.9817 303.974 40.8817 302.975 41.0817C301.976 41.2816 300.778 41.9815 299.979 43.0812C299.18 44.181 298.78 45.7806 298.78 47.2803C298.78 48.88 299.28 50.2797 299.679 51.5794C300.179 52.7792 300.478 53.8789 300.578 54.8787C300.978 56.9783 299.979 57.978 300.079 57.978Z" fill="white" fill-opacity="0.34"/>
</g>
</g>
<defs>
<clipPath id="clip0_165_26321">
<rect width="515.043" height="423.4" fill="white"/>
</clipPath>
<clipPath id="clip1_165_26321">
<rect width="441.5" height="423.4" fill="white" transform="translate(0.390625)"/>
</clipPath>
</defs>
</svg>
