<svg width="439" height="330" viewBox="0 0 439 330" fill="none" xmlns="http://www.w3.org/2000/svg">
<g clip-path="url(#clip0_162_25129)">
<path d="M75.1588 312.356C75.1588 312.356 20.5388 273.466 4.81884 207.256C-10.9012 141.046 13.0888 60.7762 58.6088 20.2562C104.129 -20.2638 186.059 7.01622 222.469 40.9462L258.889 74.8762C258.889 74.8762 293.649 93.8762 339.159 92.2562C384.669 90.6362 425.229 152.676 435.989 201.506C446.749 250.336 421.089 314.876 421.089 314.876L75.1588 312.356Z" fill="#660D33" fill-opacity="0.1"/>
<g style="mix-blend-mode:multiply">
<path d="M129.819 311.526C127.459 309.046 92.7191 239.526 131.399 175.806C170.079 112.086 267.179 119.526 305.849 144.356C344.519 169.186 363.479 201.466 367.429 235.356C371.379 269.246 345.319 322.246 345.319 322.246L129.819 311.526Z" fill="#660D33" fill-opacity="0.1"/>
</g>
<path d="M402.159 162.216H357.539C354.778 162.216 352.539 164.455 352.539 167.216V189.496C352.539 192.258 354.778 194.496 357.539 194.496H402.159C404.92 194.496 407.159 192.258 407.159 189.496V167.216C407.159 164.455 404.92 162.216 402.159 162.216Z" fill="#660D33"/>
<path d="M379.849 207.116L386.919 190.356H372.779L379.849 207.116Z" fill="#660D33"/>
<path d="M379.679 172.816H392.459V174.686L398.719 171.076L392.459 167.466V169.336H379.679V172.816Z" fill="#660D33"/>
<path d="M398.719 180.156H385.949V178.296L379.679 181.906L385.949 185.516V183.646H398.719V180.156Z" fill="white"/>
<path d="M371.839 183.446L371.239 183.666C370.071 182.302 369.102 180.781 368.359 179.146C367.737 177.471 367.399 175.703 367.359 173.916L367.799 173.726L365.099 167.266C364.573 167.673 364.129 168.175 363.789 168.746C362.259 171.336 362.409 175.296 363.949 179.166C365.489 183.036 367.129 186.496 370.129 188.666C370.746 189.177 371.461 189.557 372.229 189.784C372.997 190.011 373.803 190.079 374.599 189.986L371.839 183.446Z" fill="#660D33"/>
<path d="M373.778 182.686L372.938 182.986L375.708 189.606C375.996 189.512 376.273 189.392 376.538 189.246C376.883 189.059 377.147 188.753 377.281 188.384C377.416 188.016 377.411 187.612 377.268 187.246L375.828 183.616C375.676 183.224 375.376 182.907 374.993 182.734C374.61 182.56 374.174 182.543 373.778 182.686V182.686Z" fill="#660D33"/>
<path d="M367.189 166.096C366.815 166.235 366.454 166.405 366.109 166.606L368.869 173.206L369.799 172.826C370.184 172.66 370.49 172.353 370.654 171.967C370.817 171.582 370.827 171.148 370.679 170.756L369.229 167.096C369.088 166.695 368.796 166.366 368.414 166.179C368.032 165.991 367.593 165.962 367.189 166.096V166.096Z" fill="#660D33"/>
<path d="M116.919 300.356V225.876C116.919 225.876 116.089 205.806 126.649 200.016C137.209 194.226 181.649 197.326 181.649 197.326V300.326L116.919 300.356Z" fill="#660D33" fill-opacity="0.6"/>
<path d="M195.579 127.596C195.579 127.596 192.889 150.156 191.849 152.016L190.849 153.876L185.699 157.396C185.699 157.396 195.629 171.466 207.829 173.736C220.029 176.006 219.009 168.736 219.009 168.736L217.139 164.796L219.629 143.286C219.629 143.286 197.439 133.186 195.579 127.596Z" fill="#FF9D8C"/>
<path d="M179.229 159.256L187.299 155.736C187.299 155.736 192.469 164.216 204.469 169.186C216.469 174.156 216.679 171.256 217.299 169.186C217.639 167.745 217.566 166.238 217.089 164.836L217.979 157.596L222.779 159.196L239.439 293.946L196.609 296.016L179.229 159.256Z" fill="white"/>
<path d="M218.749 157.736C218.749 157.736 221.649 164.426 224.339 180.156C227.029 195.886 229.509 222.356 230.129 240.566C230.749 258.776 231.129 300.356 231.129 300.356H285.129C285.749 300.356 289.479 279.876 289.479 279.876C289.479 279.876 265.919 259.666 264.699 256.356C263.869 254.156 264.289 213.256 260.769 194.426C257.249 175.596 252.699 171.806 243.159 167.096C233.329 162.266 218.749 157.736 218.749 157.736Z" fill="#660D33"/>
<path d="M246.889 276.656C246.756 276.656 246.629 276.603 246.535 276.51C246.441 276.416 246.389 276.289 246.389 276.156C246.389 274.676 246.119 253.656 245.869 233.326C245.619 212.996 245.349 191.986 245.349 190.496C245.349 190.363 245.401 190.236 245.495 190.143C245.589 190.049 245.716 189.996 245.849 189.996C245.981 189.996 246.108 190.049 246.202 190.143C246.296 190.236 246.349 190.363 246.349 190.496C246.349 191.976 246.619 212.996 246.869 233.316C247.119 253.636 247.389 274.666 247.389 276.156C247.386 276.288 247.333 276.414 247.239 276.507C247.146 276.6 247.02 276.654 246.889 276.656V276.656Z" fill="#FF96C3" fill-opacity="0.26"/>
<path d="M139.299 271.596L138.889 300.356H201.779C201.779 300.356 204.469 275.946 203.439 273.666C202.409 271.386 139.299 271.596 139.299 271.596Z" fill="#660D33"/>
<g style="mix-blend-mode:multiply">
<path d="M209.299 151.396C211.975 153.408 214.942 154.999 218.099 156.116L219.579 143.326C219.579 143.326 202.949 135.706 197.309 130.036C198.489 136.476 201.389 145.006 209.299 151.396Z" fill="#8E9BBB"/>
</g>
<path d="M239.029 85.5963C241.813 90.7274 243.569 96.3525 244.199 102.156C245.029 111.256 244.199 134.636 236.749 144.566C229.299 154.496 213.749 151.566 206.749 145.566C200.289 140.066 193.919 133.986 192.269 121.986C190.619 109.986 195.779 87.2263 210.469 82.4663C225.159 77.7063 239.029 85.5963 239.029 85.5963Z" fill="#FF9D8C"/>
<path d="M257.699 287.356C257.699 287.356 256.969 287.356 255.859 287.356H255.009L251.329 287.256H250.449C249.149 287.256 248.039 287.386 246.999 287.326C246.779 287.326 246.459 287.326 246.199 287.326C246.089 287.336 245.979 287.336 245.869 287.326C245.388 287.217 244.926 287.035 244.499 286.786C237.481 285.001 230.279 284.041 223.039 283.926C213.799 283.926 205.509 284.596 204.159 283.466C202.809 282.336 201.979 270.706 209.869 269.946L219.569 273.626C219.569 273.626 241.719 270.996 249.839 276.986C257.959 282.976 257.699 287.356 257.699 287.356Z" fill="#FF9D8C"/>
<path d="M246.959 287.256C246.739 287.256 246.419 287.256 246.159 287.256C245.905 286.856 245.621 286.474 245.309 286.116C242.809 283.566 236.769 281.916 234.579 281.386C234.483 281.363 234.4 281.302 234.347 281.218C234.295 281.134 234.278 281.033 234.299 280.936C234.311 280.888 234.332 280.842 234.361 280.802C234.391 280.761 234.428 280.727 234.471 280.701C234.513 280.675 234.561 280.658 234.61 280.65C234.66 280.642 234.71 280.645 234.759 280.656C237.949 281.426 244.759 283.396 246.639 286.656C246.699 286.746 246.859 287.096 246.959 287.256Z" fill="#660D33"/>
<path d="M251.319 287.206C251.029 287.206 250.729 287.206 250.439 287.206C247.709 282.206 243.249 280.806 237.729 279.026L237.399 278.916C237.353 278.901 237.31 278.876 237.273 278.843C237.235 278.811 237.205 278.772 237.183 278.727C237.162 278.683 237.149 278.635 237.145 278.586C237.142 278.537 237.148 278.488 237.164 278.441C237.18 278.395 237.205 278.352 237.237 278.315C237.27 278.278 237.309 278.247 237.353 278.225C237.397 278.204 237.445 278.191 237.494 278.187C237.543 278.184 237.593 278.19 237.639 278.206L237.959 278.316C243.789 280.156 248.489 281.656 251.319 287.206Z" fill="#660D33"/>
<path d="M255.849 287.316H254.999C253.494 284.622 251.433 282.279 248.954 280.441C246.475 278.604 243.634 277.314 240.619 276.656C240.569 276.649 240.521 276.632 240.478 276.605C240.435 276.579 240.398 276.544 240.369 276.503C240.34 276.462 240.32 276.415 240.31 276.366C240.299 276.317 240.299 276.266 240.309 276.216C240.331 276.122 240.387 276.039 240.466 275.983C240.546 275.928 240.643 275.904 240.739 275.916C248.209 277.316 254.239 283.406 255.849 287.316Z" fill="#660D33"/>
<path d="M197.228 111.776C200.581 109.849 203.283 106.966 204.988 103.496C206.9 99.937 207.861 95.945 207.778 91.906C207.778 91.906 213.578 90.976 222.268 93.566C230.958 96.156 241.268 99.666 249.988 94.706C258.708 89.746 258.678 81.776 254.438 78.466C249.688 74.756 240.268 77.016 240.268 77.016C240.268 77.016 243.888 73.496 241.918 71.426C239.948 69.356 232.818 72.046 232.818 72.046C232.818 72.046 224.128 65.116 207.678 65.946C191.228 66.776 183.368 78.256 182.438 91.096C181.508 103.936 186.158 116.746 186.158 116.746L197.228 111.776Z" fill="#660D33"/>
<g style="mix-blend-mode:multiply">
<path d="M230.599 114.886C229.669 117.176 229.689 119.886 229.459 122.286C229.279 124.186 228.929 126.396 230.669 127.676C231.499 128.286 235.419 129.936 233.399 131.276C232.473 131.661 231.457 131.775 230.469 131.606C229.859 131.606 229.249 131.606 228.649 131.506C228.049 131.406 227.359 131.266 226.719 131.256C226.638 131.259 226.56 131.288 226.497 131.338C226.434 131.389 226.388 131.458 226.367 131.536C226.346 131.614 226.35 131.697 226.379 131.773C226.408 131.848 226.461 131.912 226.529 131.956C227.699 132.564 229.001 132.873 230.319 132.856C231.397 132.978 232.487 132.787 233.459 132.306C233.814 132.178 234.131 131.964 234.383 131.683C234.634 131.402 234.812 131.063 234.899 130.696C234.902 130.252 234.789 129.814 234.572 129.427C234.354 129.039 234.04 128.715 233.659 128.486C232.879 127.906 231.919 127.636 231.129 127.066C230.029 126.286 230.129 124.966 230.199 123.736C230.379 120.796 231.059 117.906 231.319 114.976C231.319 114.536 230.739 114.536 230.599 114.886V114.886Z" fill="#8E9BBB"/>
</g>
<path d="M239.059 121.756C238.749 123.506 237.479 124.756 236.229 124.516C234.979 124.276 234.229 122.696 234.509 120.956C234.789 119.216 236.089 117.956 237.339 118.196C238.589 118.436 239.369 120.016 239.059 121.756Z" fill="#660D33"/>
<path d="M223.229 120.376C222.949 122.256 221.619 123.626 220.229 123.376C218.839 123.126 217.999 121.486 218.279 119.606C218.559 117.726 219.889 116.366 221.279 116.606C222.669 116.846 223.509 118.496 223.229 120.376Z" fill="#660D33"/>
<path d="M235.369 114.576C236.369 114.736 237.319 114.576 238.289 114.636L238.989 114.706H238.909H239.059L239.429 114.776C239.629 114.826 239.829 114.906 240.039 114.956C240.232 115.003 240.43 115.029 240.629 115.036L240.949 114.986H240.749C240.882 114.994 241.016 114.994 241.149 114.986C241.417 114.905 241.643 114.723 241.781 114.48C241.919 114.236 241.957 113.948 241.889 113.676C241.847 113.524 241.776 113.381 241.679 113.256C241.679 113.196 241.589 113.146 241.549 113.096L241.669 113.226L241.539 113.056C241.484 112.967 241.409 112.891 241.319 112.836L241.079 112.656C240.805 112.486 240.504 112.364 240.189 112.296C239.607 112.151 239.009 112.073 238.409 112.066C237.82 112.073 237.232 112.12 236.649 112.206C236.108 112.269 235.59 112.461 235.139 112.766C234.971 112.868 234.837 113.018 234.753 113.196C234.67 113.373 234.64 113.572 234.669 113.766C234.695 113.956 234.775 114.134 234.899 114.279C235.023 114.424 235.186 114.531 235.369 114.586V114.576Z" fill="#660D33"/>
<path d="M224.338 111.806C224.207 111.726 224.07 111.656 223.928 111.596C223.818 111.546 223.498 111.376 223.738 111.506L223.468 111.366C223.07 111.17 222.65 111.02 222.218 110.916C221.271 110.68 220.289 110.612 219.318 110.716C218.306 110.795 217.325 111.103 216.448 111.616C216.315 111.688 216.191 111.775 216.078 111.876L215.878 112.146V112.056C215.743 112.15 215.633 112.276 215.558 112.422C215.483 112.569 215.445 112.732 215.448 112.896C215.448 113.05 215.49 113.202 215.57 113.334C215.649 113.466 215.762 113.574 215.898 113.646C216.057 113.713 216.227 113.747 216.398 113.747C216.57 113.747 216.74 113.713 216.898 113.646H216.378C216.635 113.701 216.901 113.701 217.158 113.646C217.158 113.646 217.438 113.576 217.258 113.646C217.078 113.716 217.538 113.646 217.588 113.646C217.638 113.646 217.958 113.646 217.588 113.646H217.768L218.238 113.596C218.918 113.596 219.598 113.516 220.288 113.496C220.978 113.476 221.568 113.496 222.208 113.496H223.018C223.168 113.496 223.108 113.496 223.018 113.496H223.188L223.528 113.606C223.751 113.658 223.985 113.631 224.191 113.531C224.396 113.431 224.561 113.263 224.658 113.056C224.741 112.842 224.748 112.606 224.677 112.387C224.606 112.168 224.461 111.981 224.268 111.856L224.338 111.806Z" fill="#660D33"/>
<path d="M229.249 140.566C230.275 138.667 231.924 137.181 233.919 136.356C232.189 136.176 224.009 135.426 221.919 136.596C219.609 137.906 222.349 143.186 227.129 143.446C227.597 143.472 228.066 143.445 228.529 143.366C228.569 142.393 228.815 141.439 229.249 140.566Z" fill="#660D33"/>
<path d="M191.438 129.466C191.438 129.466 192.268 132.666 197.028 136.396C200.643 139.008 204.562 141.171 208.698 142.836L209.248 140.426C209.248 140.426 202.108 137.326 198.798 133.906C195.488 130.486 195.078 128.636 195.078 128.636L191.438 129.466Z" fill="#DEE1EB"/>
<path d="M210.059 138.646C211.501 138.562 212.926 139.002 214.07 139.883C215.215 140.765 216.003 142.03 216.289 143.446C216.559 145.446 214.719 147.606 210.419 145.676C205.069 143.276 206.229 138.816 210.059 138.646Z" fill="white"/>
<path d="M194.439 105.776C194.439 105.776 196.089 93.8864 204.059 85.7764C219.269 70.3664 232.199 71.2964 232.199 71.2964C232.199 71.2964 232.089 69.1264 227.199 67.4664C222.639 65.9164 220.579 66.7464 220.579 66.7464C220.579 66.7464 208.059 67.7464 197.509 79.4664C186.959 91.1864 185.849 106.096 185.849 106.096L194.439 105.776Z" fill="#DEE1EB"/>
<path d="M193.299 104.326C183.299 102.636 177.779 110.426 177.369 118.326C176.959 126.226 182.699 132.096 190.299 131.526C207.469 130.186 205.509 106.396 193.299 104.326Z" fill="white"/>
<path d="M188.339 123.886C187.081 123.906 185.844 123.576 184.763 122.933C183.683 122.29 182.802 121.36 182.219 120.246C181.55 119.04 181.224 117.674 181.275 116.296C181.326 114.918 181.752 113.58 182.509 112.426C182.536 112.386 182.571 112.351 182.613 112.324C182.654 112.297 182.7 112.278 182.748 112.269C182.796 112.259 182.846 112.26 182.894 112.27C182.942 112.279 182.988 112.299 183.029 112.326C183.069 112.354 183.104 112.389 183.131 112.43C183.158 112.471 183.177 112.517 183.186 112.566C183.196 112.614 183.195 112.664 183.185 112.712C183.175 112.76 183.156 112.806 183.129 112.846C182.457 113.881 182.079 115.079 182.035 116.312C181.991 117.545 182.282 118.766 182.879 119.846C183.407 120.875 184.221 121.729 185.224 122.305C186.226 122.882 187.374 123.157 188.529 123.096C189.605 123.092 190.664 122.823 191.611 122.312C192.558 121.801 193.364 121.064 193.959 120.166C194.656 119.089 195.094 117.864 195.236 116.588C195.378 115.312 195.222 114.021 194.779 112.816C194.367 111.686 193.602 110.718 192.597 110.056C191.592 109.395 190.4 109.076 189.199 109.146C189.15 109.153 189.1 109.151 189.053 109.138C189.005 109.126 188.961 109.104 188.921 109.074C188.882 109.045 188.85 109.007 188.825 108.965C188.801 108.922 188.785 108.875 188.779 108.826C188.767 108.728 188.794 108.63 188.854 108.552C188.913 108.473 189.001 108.421 189.099 108.406C190.472 108.3 191.841 108.649 192.996 109.399C194.151 110.149 195.027 111.259 195.489 112.556C195.964 113.869 196.13 115.274 195.974 116.662C195.818 118.049 195.344 119.382 194.589 120.556C193.928 121.546 193.037 122.36 191.991 122.928C190.946 123.496 189.778 123.801 188.589 123.816L188.339 123.886Z" fill="#818FB3"/>
<path d="M181.089 156.356C181.089 156.356 150.889 163.806 140.339 175.806C129.789 187.806 124.819 246.976 124.609 257.946C124.399 268.916 132.059 273.466 136.609 276.566C141.159 279.666 161.229 285.256 177.369 286.086C193.509 286.916 208.819 286.086 208.819 286.086C209.006 283.051 209.834 280.089 211.249 277.396C213.549 272.596 216.469 271.596 216.469 271.596L202.609 266.596C202.609 266.596 200.179 223.096 196.399 202.096C192.059 177.876 181.089 156.356 181.089 156.356Z" fill="#660D33"/>
<path d="M231.159 259.686C231.093 259.699 231.025 259.699 230.959 259.686C230.838 259.632 230.745 259.531 230.698 259.408C230.651 259.284 230.655 259.147 230.709 259.026C233.539 252.636 236.469 240.106 238.119 231.306L238.259 230.596C238.759 228.006 239.379 224.786 238.139 222.596C237.499 221.466 236.069 219.006 234.699 216.646C233.329 214.286 231.929 211.876 231.549 211.186C230.819 209.836 233.119 206.186 236.439 201.276C237.329 199.936 238.109 198.786 238.559 198.006C239.749 196.006 238.959 194.076 238.049 191.906L237.699 191.096C236.879 189.096 235.939 187.036 235.029 185.096L233.919 182.676C233.429 181.606 232.919 180.526 232.449 179.416C229.588 172.632 226.332 166.021 222.699 159.616C222.633 159.5 222.615 159.363 222.648 159.234C222.682 159.105 222.765 158.995 222.879 158.926C222.935 158.892 222.998 158.87 223.063 158.861C223.127 158.852 223.194 158.855 223.257 158.872C223.32 158.889 223.38 158.918 223.432 158.959C223.484 158.999 223.527 159.049 223.559 159.106C227.233 165.532 230.529 172.166 233.429 178.976L234.899 182.226L236.009 184.636C236.919 186.636 237.859 188.636 238.699 190.706L239.009 191.446C239.939 193.666 240.899 195.956 239.469 198.446C238.999 199.256 238.219 200.446 237.309 201.776C235.579 204.356 231.969 209.726 232.469 210.646C232.839 211.326 234.179 213.646 235.599 216.086C237.019 218.526 238.419 220.916 239.049 222.086C240.469 224.626 239.809 228.036 239.279 230.786L239.139 231.486C238.539 234.696 235.349 251.096 231.659 259.426C231.611 259.515 231.538 259.587 231.449 259.633C231.36 259.68 231.259 259.698 231.159 259.686Z" fill="#FF96C3" fill-opacity="0.26"/>
<path d="M201.699 261.446C201.634 261.447 201.569 261.434 201.508 261.408C201.448 261.382 201.394 261.344 201.349 261.296C198.989 258.926 187.659 239.296 186.809 235.606C186.349 233.606 187.509 228.456 188.629 223.496C189.499 219.656 190.399 215.686 190.149 214.616C189.759 213.006 186.859 210.616 184.059 208.346C180.669 205.576 177.169 202.716 176.489 200.136C175.719 197.206 176.379 178.876 176.819 166.746C176.969 162.376 177.099 158.936 177.099 157.746C177.099 157.613 177.152 157.486 177.246 157.393C177.339 157.299 177.467 157.246 177.599 157.246C177.732 157.246 177.859 157.299 177.953 157.393C178.047 157.486 178.099 157.613 178.099 157.746C178.099 158.986 177.969 162.446 177.819 166.816C177.409 178.156 176.729 197.136 177.459 199.926C178.059 202.186 181.579 205.066 184.689 207.616C187.799 210.166 190.689 212.486 191.119 214.416C191.429 215.716 190.579 219.416 189.609 223.756C188.609 228.386 187.379 233.616 187.789 235.426C188.619 239.036 199.789 258.306 202.059 260.636C202.106 260.682 202.143 260.736 202.168 260.796C202.193 260.856 202.206 260.921 202.206 260.986C202.206 261.051 202.193 261.116 202.168 261.176C202.143 261.236 202.106 261.29 202.059 261.336C202.01 261.378 201.953 261.41 201.891 261.429C201.829 261.448 201.764 261.454 201.699 261.446V261.446Z" fill="#FF96C3" fill-opacity="0.26"/>
<path d="M161.029 252.856H160.959C160.893 252.848 160.829 252.826 160.772 252.793C160.715 252.759 160.664 252.715 160.624 252.662C160.584 252.609 160.555 252.548 160.539 252.484C160.522 252.419 160.519 252.352 160.529 252.286C160.899 249.686 166.639 197.886 166.899 193.916C166.908 193.784 166.97 193.66 167.07 193.573C167.17 193.486 167.301 193.442 167.434 193.451C167.567 193.461 167.69 193.522 167.777 193.623C167.864 193.723 167.908 193.854 167.899 193.986C167.629 197.986 161.899 249.826 161.519 252.426C161.502 252.545 161.444 252.653 161.354 252.732C161.264 252.811 161.149 252.855 161.029 252.856V252.856Z" fill="#FF96C3" fill-opacity="0.26"/>
<path d="M202.199 266.926C202.136 266.94 202.071 266.94 202.009 266.926C200.739 266.416 195.119 264.516 188.009 262.116C173.649 257.276 154.009 250.646 150.239 248.706C150.122 248.642 150.035 248.536 149.995 248.409C149.956 248.282 149.968 248.144 150.029 248.026C150.09 247.91 150.195 247.823 150.321 247.784C150.446 247.744 150.582 247.756 150.699 247.816C154.369 249.726 174.809 256.616 188.319 261.176C195.449 263.576 201.089 265.476 202.389 266.006C202.51 266.057 202.607 266.154 202.657 266.275C202.708 266.397 202.708 266.534 202.659 266.656C202.614 266.739 202.548 266.808 202.467 266.856C202.386 266.904 202.293 266.928 202.199 266.926Z" fill="#FF96C3" fill-opacity="0.26"/>
<path d="M195.289 287.556C182.659 287.556 158.159 285.276 139.549 278.696C139.483 278.675 139.423 278.64 139.37 278.595C139.318 278.55 139.275 278.495 139.244 278.433C139.213 278.372 139.194 278.304 139.189 278.235C139.184 278.166 139.192 278.097 139.214 278.031C139.236 277.966 139.27 277.905 139.315 277.853C139.36 277.8 139.415 277.757 139.477 277.726C139.539 277.695 139.606 277.676 139.675 277.671C139.744 277.666 139.813 277.675 139.879 277.696C163.389 286.016 196.279 287.436 202.399 286.066C202.465 286.052 202.533 286.051 202.599 286.062C202.665 286.074 202.728 286.099 202.785 286.135C202.841 286.171 202.89 286.218 202.929 286.273C202.967 286.329 202.995 286.391 203.009 286.456C203.023 286.522 203.025 286.59 203.013 286.656C203.001 286.722 202.977 286.786 202.94 286.842C202.904 286.899 202.857 286.948 202.802 286.986C202.747 287.025 202.685 287.052 202.619 287.066C200.196 287.456 197.742 287.621 195.289 287.556V287.556Z" fill="#FF96C3" fill-opacity="0.26"/>
<path d="M78.789 216.946C79.039 217.276 79.259 217.626 79.519 217.946C79.6369 218.109 79.7746 218.257 79.929 218.386C80.0847 218.544 80.2888 218.646 80.509 218.676C80.5306 218.677 80.552 218.672 80.5711 218.662C80.5902 218.652 80.6063 218.637 80.6175 218.619C80.6288 218.6 80.6349 218.579 80.6351 218.558C80.6354 218.536 80.6298 218.515 80.619 218.496C80.492 218.342 80.3439 218.208 80.179 218.096L79.739 217.706C79.449 217.426 79.189 217.126 78.899 216.846C78.899 216.796 78.739 216.846 78.789 216.936V216.946Z" fill="#660D33"/>
<path d="M417.889 214.706L378.339 293.046L263.019 293.876L298.609 213.596L417.889 214.706Z" fill="#F6F7FA"/>
<path d="M186.499 293.386V287.116H261.139L295.489 211.806H414.889L417.889 214.706H301.269L265.579 293.326C265.579 293.326 186.499 293.176 186.499 293.386Z" fill="#D9DEE8"/>
<path d="M358.009 257.936C356.709 261.846 349.639 264.856 342.219 264.676C334.799 264.496 329.839 261.176 331.139 257.266C332.439 253.356 339.519 250.336 346.939 250.526C354.359 250.716 359.309 254.026 358.009 257.936Z" fill="#D9DEE8"/>
<path d="M265.579 293.826C265.506 293.824 265.435 293.807 265.369 293.776C265.248 293.721 265.154 293.621 265.108 293.498C265.061 293.374 265.065 293.237 265.119 293.116L300.939 214.206H417.939C418.072 214.206 418.199 214.259 418.292 214.353C418.386 214.446 418.439 214.573 418.439 214.706C418.436 214.838 418.383 214.964 418.29 215.057C418.196 215.15 418.071 215.203 417.939 215.206H301.589L266.029 293.536C265.99 293.623 265.927 293.696 265.847 293.748C265.767 293.799 265.674 293.827 265.579 293.826V293.826Z" fill="white"/>
<path d="M181.299 299.326H44.1289V329.736H181.299V299.326Z" fill="#660D33" fill-opacity="0.75"/>
<path d="M427.319 299.326H180.519V329.736H427.319V299.326Z" fill="#660D33"/>
<g style="mix-blend-mode:multiply">
<path d="M181.299 299.326H180.519H44.1289V304.906H180.519H181.299H427.319V299.326H181.299Z" fill="#BDC4D7"/>
</g>
<path d="M187.299 293.326H37.5088V300.776H187.299V293.326Z" fill="#660D33" fill-opacity="0.75"/>
<path d="M433.319 293.326H186.519V300.776H433.319V293.326Z" fill="#660D33"/>
<path d="M146.668 98.7261H98.2484C95.2495 98.7261 92.8184 101.157 92.8184 104.156V128.326C92.8184 131.325 95.2495 133.756 98.2484 133.756H146.668C149.667 133.756 152.098 131.325 152.098 128.326V104.156C152.098 101.157 149.667 98.7261 146.668 98.7261Z" fill="white"/>
<path d="M165.889 116.236L147.709 108.566V123.916L165.889 116.236Z" fill="white"/>
<path d="M110.969 119.586C112.819 119.586 114.319 118.086 114.319 116.236C114.319 114.386 112.819 112.886 110.969 112.886C109.119 112.886 107.619 114.386 107.619 116.236C107.619 118.086 109.119 119.586 110.969 119.586Z" fill="#660D33"/>
<path d="M122.458 119.586C124.309 119.586 125.808 118.086 125.808 116.236C125.808 114.386 124.309 112.886 122.458 112.886C120.608 112.886 119.108 114.386 119.108 116.236C119.108 118.086 120.608 119.586 122.458 119.586Z" fill="#660D33"/>
<path d="M133.939 119.586C135.789 119.586 137.289 118.086 137.289 116.236C137.289 114.386 135.789 112.886 133.939 112.886C132.089 112.886 130.589 114.386 130.589 116.236C130.589 118.086 132.089 119.586 133.939 119.586Z" fill="#660D33"/>
<path d="M393.198 24.3564H281.398C277.951 24.3564 274.644 25.7261 272.206 28.1641C269.768 30.602 268.398 33.9086 268.398 37.3564V90.3564C268.398 93.8043 269.768 97.1109 272.206 99.5488C274.644 101.987 277.951 103.356 281.398 103.356H291.398C291.678 108.156 290.988 115.356 286.968 124.456C296.932 119.936 305.358 112.602 311.208 103.356H393.208C396.656 103.356 399.963 101.987 402.401 99.5488C404.839 97.1109 406.208 93.8043 406.208 90.3564V37.3564C406.208 35.6484 405.872 33.9571 405.218 32.3793C404.564 30.8014 403.605 29.3678 402.397 28.1605C401.189 26.9532 399.755 25.9959 398.176 25.3431C396.598 24.6904 394.906 24.3551 393.198 24.3564V24.3564Z" fill="#660D33"/>
<path d="M345.509 49.6362H290.059C289.328 49.6336 288.627 49.342 288.11 48.8249C287.593 48.3079 287.301 47.6074 287.299 46.8762V46.8762C287.301 46.145 287.593 45.4445 288.11 44.9275C288.627 44.4105 289.328 44.1188 290.059 44.1162H345.509C346.24 44.1188 346.94 44.4105 347.458 44.9275C347.975 45.4445 348.266 46.145 348.269 46.8762V46.8762C348.266 47.6074 347.975 48.3079 347.458 48.8249C346.94 49.342 346.24 49.6336 345.509 49.6362V49.6362Z" fill="white"/>
<path d="M385.269 65.7062H288.989C288.541 65.7062 288.111 65.5281 287.794 65.2112C287.477 64.8942 287.299 64.4644 287.299 64.0162C287.299 63.568 287.477 63.1381 287.794 62.8212C288.111 62.5042 288.541 62.3262 288.989 62.3262H385.269C385.717 62.3262 386.147 62.5042 386.464 62.8212C386.781 63.1381 386.959 63.568 386.959 64.0162C386.959 64.2381 386.915 64.4579 386.83 64.6629C386.745 64.868 386.621 65.0543 386.464 65.2112C386.307 65.3681 386.121 65.4926 385.916 65.5775C385.711 65.6625 385.491 65.7062 385.269 65.7062Z" fill="#D2E6FF"/>
<path d="M385.269 75.0963H288.989C288.541 75.0963 288.111 74.9183 287.794 74.6013C287.477 74.2844 287.299 73.8545 287.299 73.4063C287.299 72.9581 287.477 72.5282 287.794 72.2113C288.111 71.8944 288.541 71.7163 288.989 71.7163H385.269C385.717 71.7163 386.147 71.8944 386.464 72.2113C386.781 72.5282 386.959 72.9581 386.959 73.4063C386.959 73.6282 386.915 73.848 386.83 74.0531C386.745 74.2581 386.621 74.4444 386.464 74.6013C386.307 74.7582 386.121 74.8827 385.916 74.9677C385.711 75.0526 385.491 75.0963 385.269 75.0963Z" fill="#D2E6FF"/>
<path d="M364.269 85.0963H288.989C288.541 85.0963 288.111 84.9183 287.794 84.6013C287.477 84.2844 287.299 83.8545 287.299 83.4063C287.299 82.9581 287.477 82.5282 287.794 82.2113C288.111 81.8944 288.541 81.7163 288.989 81.7163H364.269C364.717 81.7163 365.147 81.8944 365.464 82.2113C365.781 82.5282 365.959 82.9581 365.959 83.4063C365.959 83.8545 365.781 84.2844 365.464 84.6013C365.147 84.9183 364.717 85.0963 364.269 85.0963Z" fill="#D2E6FF"/>
<path d="M384.509 49.6362H358.059C357.328 49.6336 356.627 49.342 356.11 48.8249C355.593 48.3079 355.301 47.6074 355.299 46.8762V46.8762C355.301 46.145 355.593 45.4445 356.11 44.9275C356.627 44.4105 357.328 44.1188 358.059 44.1162H384.509C385.24 44.1188 385.94 44.4105 386.458 44.9275C386.975 45.4445 387.266 46.145 387.269 46.8762V46.8762C387.266 47.6074 386.975 48.3079 386.458 48.8249C385.94 49.342 385.24 49.6336 384.509 49.6362V49.6362Z" fill="white"/>
<path d="M317.839 147.086H287.809C286.704 147.086 285.809 147.982 285.809 149.086V169.606C285.809 170.711 286.704 171.606 287.809 171.606H317.839C318.943 171.606 319.839 170.711 319.839 169.606V149.086C319.839 147.982 318.943 147.086 317.839 147.086Z" fill="white"/>
<path d="M303.029 163.006C302.858 163.003 302.693 162.943 302.559 162.836L286.209 149.336C286.133 149.271 286.07 149.191 286.025 149.101C285.98 149.011 285.953 148.913 285.945 148.813C285.938 148.712 285.95 148.612 285.982 148.516C286.013 148.421 286.063 148.332 286.129 148.256C286.195 148.18 286.275 148.118 286.365 148.072C286.454 148.027 286.552 148 286.653 147.993C286.753 147.985 286.854 147.997 286.949 148.029C287.045 148.061 287.133 148.111 287.209 148.176L303.059 161.276L318.509 147.826C318.583 147.761 318.67 147.71 318.763 147.678C318.857 147.646 318.956 147.632 319.055 147.638C319.154 147.644 319.251 147.67 319.34 147.713C319.429 147.756 319.508 147.817 319.574 147.891C319.64 147.965 319.69 148.052 319.722 148.145C319.755 148.239 319.768 148.338 319.762 148.437C319.756 148.536 319.731 148.633 319.687 148.722C319.644 148.811 319.583 148.891 319.509 148.956L303.579 162.816C303.505 162.884 303.418 162.936 303.324 162.968C303.229 163.001 303.129 163.014 303.029 163.006Z" fill="#6F7FA9"/>
<path d="M286.699 171.036C286.552 171.039 286.407 170.997 286.284 170.918C286.16 170.838 286.063 170.723 286.005 170.588C285.947 170.452 285.931 170.303 285.958 170.158C285.986 170.014 286.056 169.881 286.159 169.776L297.589 157.776C297.73 157.636 297.92 157.557 298.119 157.557C298.318 157.557 298.508 157.636 298.649 157.776C298.789 157.917 298.868 158.107 298.868 158.306C298.868 158.505 298.789 158.695 298.649 158.836L287.219 170.836C287.151 170.903 287.069 170.956 286.98 170.99C286.89 171.024 286.795 171.04 286.699 171.036V171.036Z" fill="#6F7FA9"/>
<path d="M318.968 170.596C318.868 170.597 318.769 170.579 318.676 170.541C318.583 170.503 318.499 170.447 318.428 170.376L307.048 158.966C306.908 158.826 306.829 158.635 306.829 158.436C306.829 158.237 306.908 158.047 307.048 157.906C307.117 157.835 307.2 157.779 307.291 157.741C307.382 157.702 307.48 157.683 307.578 157.683C307.677 157.683 307.775 157.702 307.866 157.741C307.957 157.779 308.04 157.835 308.108 157.906L319.498 169.316C319.64 169.459 319.719 169.651 319.719 169.851C319.719 170.052 319.64 170.244 319.498 170.386C319.429 170.455 319.346 170.509 319.255 170.545C319.164 170.581 319.066 170.599 318.968 170.596V170.596Z" fill="#6F7FA9"/>
<path d="M321.399 156.356C326.939 156.356 331.429 151.866 331.429 146.326C331.429 140.787 326.939 136.296 321.399 136.296C315.86 136.296 311.369 140.787 311.369 146.326C311.369 151.866 315.86 156.356 321.399 156.356Z" fill="#FF5F42"/>
<path d="M318.981 146.296L318.957 146.02C319.261 146.156 319.525 146.332 319.749 146.548C319.973 146.764 320.145 147 320.265 147.256C320.385 147.512 320.445 147.776 320.445 148.048C320.445 148.504 320.317 148.924 320.061 149.308C319.813 149.684 319.477 149.988 319.053 150.22C318.629 150.444 318.157 150.556 317.637 150.556C317.117 150.556 316.645 150.444 316.221 150.22C315.797 149.988 315.457 149.684 315.201 149.308C314.953 148.924 314.829 148.504 314.829 148.048C314.829 147.68 314.905 147.364 315.057 147.1C315.217 146.828 315.413 146.6 315.645 146.416C315.885 146.232 316.121 146.08 316.353 145.96L316.257 146.296C316.057 146.216 315.861 146.104 315.669 145.96C315.485 145.808 315.333 145.616 315.213 145.384C315.093 145.152 315.033 144.88 315.033 144.568C315.033 144.12 315.149 143.716 315.381 143.356C315.613 142.988 315.925 142.696 316.317 142.48C316.717 142.264 317.157 142.156 317.637 142.156C318.125 142.156 318.561 142.264 318.945 142.48C319.337 142.696 319.649 142.988 319.881 143.356C320.113 143.716 320.229 144.12 320.229 144.568C320.229 144.912 320.161 145.2 320.025 145.432C319.889 145.664 319.725 145.848 319.533 145.984C319.341 146.12 319.157 146.224 318.981 146.296ZM316.473 144.592C316.473 144.808 316.521 145 316.617 145.168C316.721 145.336 316.861 145.472 317.037 145.576C317.213 145.672 317.413 145.72 317.637 145.72C317.861 145.72 318.057 145.672 318.225 145.576C318.401 145.472 318.537 145.336 318.633 145.168C318.737 145 318.789 144.808 318.789 144.592C318.789 144.272 318.677 144.008 318.453 143.8C318.237 143.584 317.965 143.476 317.637 143.476C317.301 143.476 317.021 143.584 316.797 143.8C316.581 144.008 316.473 144.272 316.473 144.592ZM317.637 149.236C318.021 149.236 318.345 149.12 318.609 148.888C318.873 148.648 319.005 148.36 319.005 148.024C319.005 147.792 318.945 147.584 318.825 147.4C318.705 147.216 318.541 147.072 318.333 146.968C318.125 146.856 317.893 146.8 317.637 146.8C317.381 146.8 317.149 146.856 316.941 146.968C316.733 147.072 316.569 147.216 316.449 147.4C316.329 147.584 316.269 147.792 316.269 148.024C316.269 148.36 316.401 148.648 316.665 148.888C316.929 149.12 317.253 149.236 317.637 149.236ZM323.815 150.676C323.519 150.676 323.203 150.632 322.867 150.544C322.531 150.448 322.255 150.312 322.039 150.136C321.935 150.048 321.851 149.936 321.787 149.8C321.731 149.656 321.703 149.52 321.703 149.392C321.703 149.256 321.759 149.128 321.871 149.008C321.991 148.888 322.159 148.828 322.375 148.828C322.519 148.828 322.699 148.904 322.915 149.056C323.043 149.136 323.183 149.208 323.335 149.272C323.487 149.336 323.643 149.368 323.803 149.368C324.187 149.368 324.519 149.3 324.799 149.164C325.079 149.02 325.295 148.824 325.447 148.576C325.599 148.328 325.675 148.036 325.675 147.7C325.675 147.396 325.603 147.136 325.459 146.92C325.323 146.704 325.139 146.536 324.907 146.416C324.683 146.296 324.439 146.236 324.175 146.236C323.927 146.236 323.711 146.276 323.527 146.356C323.343 146.436 323.175 146.52 323.023 146.608C322.871 146.688 322.719 146.728 322.567 146.728C322.303 146.728 322.107 146.672 321.979 146.56C321.851 146.44 321.771 146.3 321.739 146.14C321.707 145.98 321.699 145.836 321.715 145.708L322.087 142.792C322.119 142.624 322.199 142.488 322.327 142.384C322.463 142.272 322.623 142.216 322.807 142.216H326.275C326.467 142.216 326.627 142.28 326.755 142.408C326.883 142.536 326.947 142.696 326.947 142.888C326.947 143.072 326.883 143.228 326.755 143.356C326.627 143.476 326.467 143.536 326.275 143.536H323.179L323.311 143.428L322.987 145.864L322.831 145.408C322.879 145.328 322.983 145.252 323.143 145.18C323.303 145.108 323.487 145.048 323.695 145C323.903 144.944 324.107 144.916 324.307 144.916C324.843 144.916 325.323 145.04 325.747 145.288C326.171 145.528 326.503 145.86 326.743 146.284C326.991 146.7 327.115 147.172 327.115 147.7C327.115 148.3 326.979 148.824 326.707 149.272C326.435 149.72 326.051 150.068 325.555 150.316C325.067 150.556 324.487 150.676 323.815 150.676Z" fill="white"/>
<path d="M422.188 125.456H363.568C361.359 125.456 359.568 127.247 359.568 129.456V138.626C359.568 140.835 361.359 142.626 363.568 142.626H422.188C424.397 142.626 426.188 140.835 426.188 138.626V129.456C426.188 127.247 424.397 125.456 422.188 125.456Z" fill="#660D33"/>
<path d="M367.799 138.546C367.679 138.552 367.56 138.529 367.451 138.481C367.341 138.432 367.245 138.359 367.169 138.266C367.087 138.17 367.025 138.059 366.987 137.939C366.95 137.818 366.936 137.692 366.949 137.566L367.209 135.336C367.209 135.286 367.209 135.246 367.209 135.226C367.209 135.206 367.129 135.226 367.069 135.226L365.239 136.546C365.142 136.626 365.03 136.683 364.909 136.714C364.788 136.745 364.661 136.75 364.539 136.726C364.413 136.704 364.294 136.653 364.19 136.579C364.086 136.505 364 136.408 363.939 136.296C363.86 136.182 363.811 136.05 363.796 135.912C363.78 135.775 363.798 135.635 363.849 135.506C363.899 135.396 363.971 135.296 364.06 135.214C364.149 135.131 364.254 135.067 364.369 135.026L366.419 134.096C366.479 134.096 366.509 134.096 366.509 134.016C366.509 133.936 366.509 133.946 366.419 133.926L364.369 133.006C364.248 132.961 364.14 132.888 364.051 132.795C363.963 132.701 363.897 132.589 363.859 132.466C363.822 132.345 363.811 132.219 363.824 132.093C363.838 131.968 363.877 131.846 363.939 131.736C364.002 131.625 364.088 131.528 364.192 131.452C364.295 131.376 364.413 131.323 364.539 131.296C364.784 131.261 365.033 131.318 365.239 131.456L367.069 132.806C367.129 132.806 367.169 132.806 367.209 132.806C367.249 132.806 367.209 132.746 367.209 132.686L366.949 130.466C366.935 130.34 366.948 130.212 366.988 130.091C367.027 129.971 367.092 129.86 367.179 129.766C367.264 129.672 367.369 129.597 367.487 129.549C367.604 129.5 367.732 129.479 367.859 129.486C367.984 129.484 368.108 129.51 368.222 129.561C368.336 129.613 368.437 129.69 368.517 129.786C368.598 129.882 368.656 129.994 368.687 130.115C368.719 130.237 368.722 130.363 368.699 130.486L368.449 132.706C368.449 132.766 368.449 132.806 368.449 132.826C368.471 132.839 368.497 132.846 368.524 132.846C368.55 132.846 368.576 132.839 368.599 132.826L370.419 131.506C370.519 131.427 370.635 131.369 370.759 131.336C370.883 131.303 371.012 131.297 371.139 131.316C371.262 131.341 371.379 131.393 371.479 131.469C371.58 131.545 371.662 131.644 371.719 131.756C371.798 131.87 371.848 132.001 371.866 132.139C371.883 132.277 371.867 132.416 371.819 132.546C371.71 132.764 371.525 132.935 371.299 133.026L369.239 133.946C369.189 133.946 369.159 133.946 369.159 134.036C369.159 134.126 369.159 134.096 369.239 134.116L371.299 135.046C371.419 135.093 371.528 135.166 371.618 135.259C371.708 135.352 371.776 135.464 371.819 135.586C371.858 135.708 371.87 135.836 371.853 135.963C371.836 136.089 371.79 136.21 371.719 136.316C371.663 136.429 371.581 136.527 371.481 136.601C371.38 136.676 371.262 136.726 371.139 136.746C371.015 136.771 370.887 136.77 370.763 136.745C370.64 136.719 370.522 136.668 370.419 136.596L368.599 135.246C368.576 135.233 368.55 135.226 368.524 135.226C368.497 135.226 368.471 135.233 368.449 135.246C368.436 135.262 368.43 135.281 368.43 135.301C368.43 135.321 368.436 135.34 368.449 135.356L368.699 137.586C368.722 137.711 368.715 137.84 368.678 137.962C368.642 138.083 368.577 138.195 368.489 138.286C368.398 138.376 368.29 138.445 368.171 138.49C368.052 138.535 367.925 138.554 367.799 138.546V138.546Z" fill="white"/>
<path d="M379.919 138.546C379.799 138.551 379.68 138.528 379.571 138.48C379.462 138.431 379.365 138.358 379.289 138.266C379.208 138.17 379.148 138.058 379.112 137.938C379.076 137.817 379.065 137.691 379.079 137.566L379.329 135.336C379.329 135.286 379.329 135.246 379.329 135.226C379.329 135.206 379.249 135.226 379.189 135.226L377.359 136.546C377.263 136.626 377.15 136.684 377.029 136.715C376.908 136.747 376.781 136.75 376.659 136.726C376.407 136.654 376.193 136.486 376.064 136.257C375.935 136.029 375.901 135.759 375.969 135.506C376.078 135.288 376.263 135.118 376.489 135.026L378.549 134.096C378.599 134.096 378.629 134.096 378.629 134.016C378.629 133.936 378.629 133.946 378.549 133.926L376.489 133.006C376.37 132.958 376.263 132.884 376.175 132.791C376.087 132.698 376.02 132.587 375.979 132.466C375.915 132.22 375.947 131.959 376.069 131.736C376.131 131.626 376.216 131.53 376.317 131.454C376.419 131.378 376.535 131.324 376.659 131.296C376.904 131.255 377.156 131.312 377.359 131.456L379.189 132.806C379.249 132.806 379.299 132.806 379.329 132.806C379.359 132.806 379.329 132.746 379.329 132.686L379.079 130.466C379.066 130.341 379.079 130.214 379.117 130.094C379.155 129.973 379.216 129.862 379.299 129.766C379.385 129.673 379.49 129.599 379.608 129.551C379.725 129.503 379.852 129.48 379.979 129.486C380.101 129.482 380.223 129.505 380.335 129.554C380.447 129.602 380.548 129.675 380.629 129.766C380.713 129.86 380.773 129.972 380.806 130.094C380.839 130.215 380.844 130.343 380.819 130.466L380.569 132.686C380.569 132.746 380.569 132.786 380.569 132.806C380.569 132.806 380.649 132.806 380.709 132.806L382.539 131.486C382.638 131.406 382.754 131.347 382.878 131.314C383.002 131.282 383.132 131.275 383.259 131.296C383.381 131.321 383.496 131.373 383.595 131.449C383.694 131.526 383.774 131.624 383.829 131.736C383.91 131.849 383.962 131.98 383.98 132.118C383.997 132.257 383.98 132.397 383.929 132.526C383.82 132.744 383.635 132.915 383.409 133.006L381.359 133.926C381.299 133.926 381.269 133.956 381.269 134.016C381.269 134.016 381.269 134.076 381.359 134.096L383.409 135.026C383.53 135.072 383.64 135.144 383.73 135.237C383.82 135.331 383.888 135.443 383.929 135.566C383.971 135.687 383.984 135.816 383.966 135.943C383.949 136.07 383.902 136.191 383.829 136.296C383.775 136.408 383.695 136.506 383.596 136.58C383.497 136.655 383.381 136.705 383.259 136.726C383.135 136.752 383.007 136.752 382.883 136.726C382.759 136.701 382.642 136.649 382.539 136.576L380.699 135.256C380.639 135.256 380.599 135.256 380.559 135.256C380.519 135.256 380.559 135.316 380.559 135.366L380.809 137.596C380.832 137.721 380.825 137.85 380.788 137.972C380.752 138.093 380.687 138.205 380.599 138.296C380.509 138.383 380.402 138.45 380.285 138.493C380.168 138.536 380.043 138.554 379.919 138.546V138.546Z" fill="white"/>
<path d="M392.049 138.546C391.928 138.551 391.808 138.528 391.697 138.48C391.586 138.431 391.488 138.358 391.409 138.266C391.329 138.17 391.269 138.058 391.233 137.938C391.196 137.817 391.185 137.691 391.199 137.566L391.459 135.336C391.459 135.286 391.459 135.246 391.459 135.226C391.438 135.213 391.414 135.206 391.389 135.206C391.364 135.206 391.34 135.213 391.319 135.226L389.489 136.546C389.393 136.626 389.28 136.683 389.159 136.714C389.038 136.745 388.912 136.75 388.789 136.726C388.664 136.704 388.544 136.653 388.441 136.579C388.337 136.505 388.251 136.408 388.189 136.296C388.109 136.183 388.059 136.051 388.043 135.913C388.028 135.775 388.047 135.635 388.099 135.506C388.149 135.396 388.221 135.296 388.311 135.214C388.4 135.131 388.505 135.067 388.619 135.026L390.669 134.096C390.729 134.096 390.759 134.096 390.759 134.016C390.759 133.936 390.759 133.946 390.669 133.926L388.619 133.006C388.499 132.961 388.39 132.888 388.302 132.795C388.214 132.701 388.148 132.589 388.109 132.466C388.073 132.345 388.061 132.219 388.075 132.093C388.089 131.968 388.128 131.846 388.189 131.736C388.253 131.625 388.339 131.528 388.442 131.452C388.546 131.376 388.664 131.323 388.789 131.296C389.034 131.261 389.284 131.318 389.489 131.456L391.319 132.806C391.34 132.82 391.364 132.827 391.389 132.827C391.414 132.827 391.438 132.82 391.459 132.806C391.459 132.806 391.459 132.746 391.459 132.686L391.199 130.466C391.185 130.34 391.199 130.212 391.238 130.091C391.278 129.971 391.343 129.86 391.429 129.766C391.513 129.673 391.617 129.599 391.733 129.551C391.849 129.503 391.974 129.481 392.099 129.486C392.225 129.482 392.35 129.507 392.466 129.558C392.581 129.609 392.683 129.686 392.765 129.782C392.846 129.878 392.905 129.991 392.937 130.113C392.969 130.235 392.973 130.362 392.949 130.486L392.699 132.706C392.699 132.766 392.699 132.806 392.699 132.826C392.72 132.84 392.744 132.847 392.769 132.847C392.794 132.847 392.818 132.84 392.839 132.826L394.669 131.506C394.77 131.427 394.885 131.369 395.009 131.336C395.133 131.303 395.263 131.297 395.389 131.316C395.513 131.341 395.63 131.393 395.73 131.469C395.831 131.545 395.912 131.644 395.969 131.756C396.048 131.87 396.099 132.001 396.116 132.139C396.134 132.277 396.117 132.416 396.069 132.546C395.96 132.764 395.775 132.935 395.549 133.026L393.489 133.946C393.439 133.946 393.409 133.946 393.409 134.036C393.409 134.126 393.409 134.096 393.489 134.116L395.549 135.046C395.67 135.093 395.779 135.166 395.869 135.259C395.959 135.352 396.027 135.464 396.069 135.586C396.109 135.708 396.121 135.836 396.103 135.963C396.086 136.089 396.04 136.21 395.969 136.316C395.914 136.429 395.832 136.527 395.731 136.601C395.63 136.676 395.513 136.726 395.389 136.746C395.265 136.771 395.138 136.77 395.014 136.745C394.89 136.719 394.773 136.668 394.669 136.596L392.839 135.246C392.818 135.233 392.794 135.226 392.769 135.226C392.744 135.226 392.72 135.233 392.699 135.246C392.687 135.262 392.68 135.281 392.68 135.301C392.68 135.321 392.687 135.34 392.699 135.356L392.949 137.586C392.972 137.711 392.965 137.84 392.929 137.962C392.892 138.083 392.827 138.195 392.739 138.286C392.649 138.376 392.541 138.445 392.422 138.49C392.303 138.535 392.176 138.554 392.049 138.546V138.546Z" fill="white"/>
<path d="M404.168 138.546C404.049 138.551 403.93 138.528 403.821 138.479C403.711 138.431 403.615 138.358 403.538 138.266C403.458 138.17 403.398 138.058 403.362 137.938C403.326 137.817 403.314 137.691 403.328 137.566L403.578 135.336C403.578 135.286 403.578 135.246 403.578 135.226C403.578 135.206 403.498 135.226 403.438 135.226L401.608 136.546C401.512 136.626 401.4 136.684 401.279 136.715C401.158 136.746 401.031 136.75 400.908 136.726C400.656 136.654 400.443 136.485 400.314 136.257C400.185 136.029 400.15 135.759 400.218 135.506C400.33 135.321 400.498 135.177 400.698 135.096L402.758 134.166C402.808 134.166 402.838 134.166 402.838 134.086C402.838 134.006 402.838 134.016 402.758 133.996L400.698 133.076C400.58 133.028 400.473 132.954 400.385 132.861C400.297 132.768 400.23 132.657 400.188 132.536C400.124 132.29 400.157 132.029 400.278 131.806C400.341 131.696 400.425 131.6 400.527 131.524C400.628 131.448 400.745 131.394 400.868 131.366C401.114 131.325 401.365 131.382 401.568 131.526L403.398 132.876C403.458 132.876 403.508 132.876 403.538 132.876C403.568 132.876 403.538 132.816 403.538 132.756L403.288 130.536C403.273 130.41 403.285 130.283 403.323 130.162C403.361 130.042 403.424 129.93 403.508 129.836C403.594 129.743 403.7 129.669 403.817 129.621C403.935 129.572 404.061 129.55 404.188 129.556C404.311 129.552 404.432 129.575 404.545 129.623C404.657 129.672 404.757 129.744 404.838 129.836C404.922 129.93 404.983 130.042 405.016 130.164C405.049 130.285 405.053 130.413 405.028 130.536L404.778 132.756C404.778 132.816 404.778 132.856 404.778 132.876C404.778 132.876 404.858 132.876 404.918 132.876L406.748 131.556C406.848 131.475 406.964 131.417 407.088 131.384C407.212 131.351 407.342 131.345 407.468 131.366C407.591 131.391 407.706 131.443 407.805 131.519C407.904 131.596 407.984 131.694 408.038 131.806C408.117 131.92 408.168 132.051 408.185 132.189C408.203 132.326 408.187 132.466 408.138 132.596C408.029 132.814 407.844 132.985 407.618 133.076L405.568 133.996C405.508 133.996 405.478 134.026 405.478 134.086C405.478 134.086 405.478 134.146 405.568 134.166L407.698 135.096C407.82 135.142 407.929 135.214 408.019 135.307C408.109 135.401 408.177 135.513 408.218 135.636C408.261 135.757 408.274 135.886 408.256 136.013C408.239 136.14 408.192 136.261 408.118 136.366C408.064 136.478 407.985 136.575 407.885 136.65C407.786 136.725 407.671 136.775 407.548 136.796C407.424 136.822 407.297 136.822 407.173 136.796C407.049 136.77 406.932 136.719 406.828 136.646L404.998 135.296C404.938 135.296 404.898 135.296 404.858 135.296C404.818 135.296 404.858 135.356 404.858 135.406L405.108 137.636C405.131 137.761 405.124 137.89 405.088 138.011C405.051 138.133 404.986 138.244 404.898 138.336C404.799 138.422 404.683 138.486 404.557 138.522C404.43 138.558 404.298 138.566 404.168 138.546Z" fill="white"/>
<path d="M416.299 138.546C416.178 138.552 416.057 138.529 415.946 138.481C415.835 138.432 415.737 138.359 415.659 138.266C415.578 138.17 415.518 138.058 415.482 137.938C415.446 137.817 415.435 137.691 415.449 137.566L415.709 135.336C415.709 135.286 415.709 135.246 415.709 135.226C415.688 135.213 415.664 135.206 415.639 135.206C415.614 135.206 415.59 135.213 415.569 135.226L413.699 136.576C413.544 136.68 413.36 136.733 413.174 136.73C412.987 136.727 412.806 136.668 412.654 136.559C412.502 136.451 412.387 136.299 412.323 136.123C412.26 135.947 412.251 135.757 412.299 135.576C412.41 135.356 412.599 135.185 412.829 135.096L414.879 134.166C414.939 134.166 414.959 134.166 414.959 134.086C414.959 134.006 414.959 134.016 414.879 133.996L412.829 133.076C412.709 133.031 412.6 132.958 412.512 132.865C412.424 132.771 412.358 132.659 412.319 132.536C412.28 132.416 412.267 132.288 412.281 132.163C412.295 132.037 412.335 131.915 412.399 131.806C412.461 131.696 412.546 131.6 412.647 131.524C412.749 131.448 412.865 131.394 412.989 131.366C413.237 131.328 413.491 131.385 413.699 131.526L415.529 132.876C415.55 132.889 415.574 132.897 415.599 132.897C415.624 132.897 415.648 132.889 415.669 132.876C415.669 132.876 415.669 132.816 415.669 132.756L415.409 130.536C415.395 130.41 415.408 130.282 415.448 130.161C415.488 130.04 415.553 129.93 415.639 129.836C415.723 129.743 415.827 129.669 415.943 129.621C416.058 129.572 416.184 129.55 416.309 129.556C416.435 129.552 416.56 129.577 416.675 129.628C416.791 129.679 416.893 129.756 416.974 129.852C417.056 129.948 417.115 130.061 417.147 130.183C417.179 130.305 417.183 130.432 417.159 130.556L416.899 132.776C416.899 132.836 416.899 132.876 416.899 132.896C416.92 132.909 416.944 132.916 416.969 132.916C416.994 132.916 417.018 132.909 417.039 132.896L418.869 131.576C418.969 131.496 419.085 131.439 419.209 131.406C419.333 131.373 419.462 131.366 419.589 131.386C419.713 131.41 419.829 131.463 419.93 131.539C420.03 131.615 420.112 131.713 420.169 131.826C420.248 131.94 420.298 132.071 420.316 132.209C420.333 132.346 420.317 132.486 420.269 132.616C420.157 132.836 419.969 133.007 419.739 133.096L417.689 134.016C417.629 134.016 417.609 134.016 417.609 134.106C417.609 134.196 417.609 134.166 417.689 134.186L419.739 135.116C419.862 135.161 419.973 135.233 420.065 135.326C420.157 135.42 420.226 135.532 420.269 135.656C420.309 135.777 420.321 135.906 420.303 136.033C420.286 136.159 420.24 136.28 420.169 136.386C420.113 136.499 420.032 136.596 419.931 136.671C419.83 136.746 419.713 136.796 419.589 136.816C419.465 136.841 419.337 136.84 419.214 136.814C419.09 136.789 418.973 136.738 418.869 136.666L417.039 135.316C417.018 135.303 416.994 135.296 416.969 135.296C416.944 135.296 416.92 135.303 416.899 135.316C416.899 135.316 416.899 135.376 416.899 135.426L417.159 137.656C417.182 137.781 417.175 137.91 417.139 138.031C417.102 138.153 417.037 138.264 416.949 138.356C416.765 138.502 416.532 138.57 416.299 138.546V138.546Z" fill="#660D33"/>
</g>
<defs>
<clipPath id="clip0_162_25129">
<rect width="438.625" height="329.736" fill="white"/>
</clipPath>
</defs>
</svg>
