<svg width="48" height="48" viewBox="0 0 48 48" fill="none" xmlns="http://www.w3.org/2000/svg">
<g clip-path="url(#clip0_107_8740)">
<path d="M1.14675 18.0883L23.6467 6.08831C23.868 5.97056 24.1313 5.97056 24.3525 6.08831L46.8525 18.0883C47.0978 18.2188 47.25 18.4731 47.25 18.7498C47.25 19.0266 47.0977 19.2808 46.8532 19.4113L40.5 22.7998V32.2498H39V23.6001L36.75 24.8001V29.3563C38.0407 29.6916 39 30.8556 39 32.2498C39 32.9353 38.76 33.5601 38.3715 34.0663C38.781 35.4666 39 36.9103 39 38.3713V40.4998C39 40.7841 38.8395 41.0436 38.5852 41.1711L37.7565 41.5858C37.2135 41.8566 36.6068 41.9998 36 41.9998C35.3932 41.9998 34.7865 41.8566 34.2435 41.5851L33.4147 41.1703C33.1605 41.0436 33 40.7841 33 40.4998V38.3713C33 36.9103 33.219 35.4666 33.6285 34.0663C33.24 33.5601 33 32.9353 33 32.2498C33 30.8556 33.9593 29.6916 35.25 29.3563V25.6003L24.3533 31.4121C24.2423 31.4706 24.1215 31.4998 24 31.4998C23.8785 31.4998 23.7577 31.4706 23.6467 31.4121L9 23.6001V31.8793C13.1715 35.0226 18.324 36.7498 23.5508 36.7498H24.4485C27.0233 36.7498 29.5688 36.3411 32.0153 35.5348L32.484 36.9598C29.8875 37.8156 27.183 38.2498 24.4493 38.2498H23.5515C17.871 38.2498 12.2738 36.3291 7.7895 32.8416C7.60725 32.6998 7.5 32.4816 7.5 32.2498V22.7998L1.14675 19.4113C0.902248 19.2808 0.75 19.0266 0.75 18.7498C0.75 18.4731 0.902248 18.2188 1.14675 18.0883ZM34.5 40.0363L34.9147 40.2433C35.586 40.5786 36.4148 40.5786 37.086 40.2433L37.5 40.0363V38.3713C37.5 37.2441 37.3628 36.1273 37.092 35.0368C36.753 35.1703 36.3862 35.2498 36 35.2498C35.6138 35.2498 35.247 35.1703 34.908 35.0368C34.6373 36.1273 34.5 37.2441 34.5 38.3713V40.0363ZM34.5 32.2498C34.5 33.0771 35.1727 33.7498 36 33.7498C36.8273 33.7498 37.5 33.0771 37.5 32.2498C37.5 31.4226 36.8273 30.7498 36 30.7498C35.1727 30.7498 34.5 31.4226 34.5 32.2498ZM24 29.8993L34.734 24.1746L25.4422 19.2193C25.0155 19.3933 24.5295 19.4998 24 19.4998C22.3177 19.4998 21 18.5113 21 17.2498C21 15.9883 22.3177 14.9998 24 14.9998C25.6823 14.9998 27 15.9883 27 17.2498C27 17.5926 26.8958 17.9121 26.7203 18.2008L36.3278 23.3248L44.9062 18.7498L24 7.59956L3.09375 18.7498L24 29.8993ZM25.5 17.2498C25.5 16.9438 24.9158 16.4998 24 16.4998C23.0842 16.4998 22.5 16.9438 22.5 17.2498C22.5 17.5558 23.0842 17.9998 24 17.9998C24.9158 17.9998 25.5 17.5558 25.5 17.2498Z" fill="#660D33"/>
</g>
<defs>
<clipPath id="clip0_107_8740">
<rect width="48" height="48" fill="white" transform="matrix(-1 0 0 1 48 0)"/>
</clipPath>
</defs>
</svg>
