<svg width="49" height="48" viewBox="0 0 49 48" fill="none" xmlns="http://www.w3.org/2000/svg">
<g clip-path="url(#clip0_107_8751)">
<path d="M8 35.25C7.99997 35.1515 8.01936 35.054 8.05704 34.963C8.09472 34.872 8.14996 34.7893 8.21961 34.7196C8.28926 34.65 8.37195 34.5947 8.46296 34.557C8.55396 34.5194 8.6515 34.5 8.75 34.5H20C20.1989 34.5 20.3897 34.579 20.5303 34.7197C20.671 34.8603 20.75 35.0511 20.75 35.25C20.75 35.4489 20.671 35.6397 20.5303 35.7803C20.3897 35.921 20.1989 36 20 36H8.75C8.6515 36 8.55396 35.9807 8.46296 35.943C8.37195 35.9053 8.28926 35.85 8.21961 35.7804C8.14996 35.7108 8.09472 35.6281 8.05704 35.5371C8.01936 35.446 7.99997 35.3485 8 35.25ZM25.25 30.75C25.25 30.6515 25.2306 30.554 25.193 30.463C25.1553 30.372 25.1 30.2893 25.0304 30.2196C24.9607 30.15 24.878 30.0947 24.787 30.057C24.696 30.0194 24.5985 30 24.5 30H16.25C16.0511 30 15.8603 30.079 15.7197 30.2197C15.579 30.3603 15.5 30.5511 15.5 30.75C15.5 30.9489 15.579 31.1397 15.7197 31.2803C15.8603 31.421 16.0511 31.5 16.25 31.5H24.5C24.5985 31.5 24.696 31.4807 24.787 31.443C24.878 31.4053 24.9607 31.35 25.0304 31.2804C25.1 31.2108 25.1553 31.1281 25.193 31.0371C25.2306 30.9461 25.25 30.8485 25.25 30.75ZM8.75 31.5H13.25C13.4489 31.5 13.6397 31.421 13.7803 31.2803C13.921 31.1397 14 30.9489 14 30.75C14 30.5511 13.921 30.3603 13.7803 30.2197C13.6397 30.079 13.4489 30 13.25 30H8.75C8.55109 30 8.36032 30.079 8.21967 30.2197C8.07902 30.3603 8 30.5511 8 30.75C8 30.9489 8.07902 31.1397 8.21967 31.2803C8.36032 31.421 8.55109 31.5 8.75 31.5ZM17.5881 41.25C17.5882 41.3485 17.5688 41.446 17.5311 41.5371C17.4934 41.6281 17.4382 41.7108 17.3685 41.7804C17.2989 41.85 17.2162 41.9053 17.1252 41.943C17.0342 41.9807 16.9366 42 16.8381 42H7.25C6.2558 41.9988 5.30265 41.6034 4.59964 40.9004C3.89663 40.1974 3.50117 39.2442 3.5 38.25V5.25001C3.50117 4.25581 3.89663 3.30266 4.59964 2.59965C5.30265 1.89664 6.2558 1.50118 7.25 1.50001H27.0071C27.4998 1.49863 27.9879 1.59498 28.4431 1.7835C28.8984 1.97202 29.3117 2.24896 29.6592 2.59828L33.9014 6.8412C34.2507 7.18857 34.5276 7.60176 34.7162 8.05686C34.9048 8.51196 35.0012 8.99995 35 9.49257V21.2575C35 21.4564 34.921 21.6471 34.7803 21.7878C34.6397 21.9284 34.4489 22.0075 34.25 22.0075C34.0511 22.0075 33.8603 21.9284 33.7197 21.7878C33.579 21.6471 33.5 21.4564 33.5 21.2575V9.49257C33.4984 9.32665 33.4781 9.16143 33.4397 9.00001H29.75C29.1535 8.99936 28.5815 8.7621 28.1597 8.34029C27.7379 7.91847 27.5007 7.34655 27.5 6.75001V3.05847C27.3383 3.02095 27.173 3.00135 27.0071 3.00001H7.25C6.65346 3.00067 6.08154 3.23793 5.65973 3.65974C5.23791 4.08156 5.00065 4.65348 5 5.25001V38.25C5.00065 38.8465 5.23791 39.4185 5.65973 39.8403C6.08154 40.2621 6.65346 40.4994 7.25 40.5H16.8381C16.9366 40.5 17.0342 40.5194 17.1252 40.557C17.2162 40.5947 17.2989 40.65 17.3685 40.7196C17.4382 40.7893 17.4934 40.872 17.5311 40.963C17.5688 41.054 17.5882 41.1515 17.5881 41.25ZM29 4.06029V6.75001C29.0002 6.94887 29.0793 7.13952 29.2199 7.28013C29.3605 7.42073 29.5511 7.49982 29.75 7.50001H32.4392L29 4.06029ZM44.6592 23.6517L43.3164 24.9942C43.4067 25.3655 43.3992 25.7539 43.2946 26.1214C43.19 26.4889 42.9919 26.8231 42.7197 27.0912L42.0608 27.7501L42.511 28.2001C42.9834 28.6727 43.2492 29.3134 43.25 29.9816C43.2508 30.6498 42.9866 31.2911 42.5154 31.7648L37.0317 37.2788C36.9623 37.3487 36.8798 37.4041 36.7889 37.4421C36.698 37.48 36.6006 37.4997 36.5021 37.4999C36.4036 37.5002 36.306 37.4811 36.2149 37.4437C36.1238 37.4062 36.041 37.3512 35.9712 37.2818C35.9014 37.2123 35.8459 37.1298 35.8079 37.0389C35.77 36.948 35.7503 36.8506 35.7501 36.7521C35.7498 36.6536 35.7689 36.556 35.8064 36.4649C35.8438 36.3739 35.8988 36.291 35.9683 36.2212L41.4519 30.7068C41.6431 30.5145 41.7502 30.2543 41.75 29.9832C41.7497 29.7121 41.642 29.4521 41.4504 29.2603L41.0003 28.8105L25.7803 44.0303C25.698 44.1127 25.5977 44.1747 25.4873 44.2115L18.7373 46.4615C18.6051 46.5056 18.4633 46.512 18.3278 46.48C18.1922 46.448 18.0682 46.3788 17.9697 46.2803C17.8713 46.1818 17.8022 46.0578 17.7702 45.9222C17.7382 45.7866 17.7447 45.6448 17.7888 45.5127L20.0388 38.7627C20.0756 38.6524 20.1376 38.5521 20.2197 38.4698L37.1592 21.5303V21.5299C37.4293 21.2614 37.7633 21.0661 38.1297 20.9621C38.4961 20.8582 38.8829 20.8491 39.2537 20.9358L40.5986 19.5912C41.1456 19.069 41.8727 18.7776 42.6289 18.7776C43.3851 18.7776 44.1122 19.069 44.6592 19.5912C45.1967 20.1301 45.4985 20.8603 45.4985 21.6215C45.4985 22.3826 45.1967 23.1128 44.6592 23.6517ZM28.5606 32.2501L32 35.6895L41.6592 26.0303C41.7288 25.9607 41.7841 25.878 41.8218 25.7871C41.8595 25.6961 41.8789 25.5986 41.8789 25.5002C41.8789 25.4017 41.8595 25.3042 41.8218 25.2133C41.7841 25.1223 41.7288 25.0397 41.6592 24.9701L39.2803 22.5908C39.1395 22.4504 38.9488 22.3715 38.7499 22.3716C38.5511 22.3716 38.3604 22.4506 38.2197 22.5912L28.5606 32.2501ZM25.25 42.4395L30.9395 36.75L27.5 33.3106L21.8105 39L25.25 42.4395ZM19.6858 44.5642L23.8617 43.1722L21.0778 40.3883L19.6858 44.5642ZM43.5986 20.6517C43.3375 20.4021 42.9902 20.2628 42.6289 20.2628C42.2677 20.2628 41.9203 20.4021 41.6592 20.6517L40.5608 21.7499L42.5001 23.6895L43.5986 22.5912C43.8554 22.3338 43.9996 21.9851 43.9996 21.6215C43.9996 21.2579 43.8554 20.9091 43.5986 20.6517ZM25.9561 27H12.5C12.4015 27 12.304 26.9807 12.213 26.943C12.122 26.9053 12.0393 26.85 11.9696 26.7804C11.9 26.7108 11.8447 26.6281 11.807 26.5371C11.7694 26.4461 11.75 26.3485 11.75 26.25V18.3177C11.5929 18.4317 11.3977 18.48 11.2056 18.4525C11.0135 18.425 10.8397 18.3238 10.7209 18.1703L8.906 15.8152C8.78465 15.6575 8.7309 15.4581 8.75658 15.2608C8.78227 15.0635 8.88528 14.8844 9.04296 14.7631L17.8782 7.96657C18.2715 7.66416 18.7538 7.5002 19.25 7.5002C19.7462 7.5002 20.2284 7.66416 20.6218 7.96657L29.457 14.7631C29.6147 14.8844 29.7177 15.0635 29.7434 15.2608C29.7691 15.4581 29.7153 15.6575 29.594 15.8152L27.7791 18.1703C27.719 18.2482 27.6442 18.3136 27.5589 18.3627C27.4736 18.4118 27.3794 18.4436 27.2818 18.4563C27.1842 18.4689 27.0851 18.4623 26.9901 18.4366C26.895 18.411 26.806 18.3669 26.728 18.3069L26.7061 18.29V26.25C26.7061 26.3485 26.6867 26.4461 26.649 26.5371C26.6113 26.6281 26.5561 26.7108 26.4864 26.7804C26.4168 26.85 26.3341 26.9053 26.2431 26.943C26.1521 26.9807 26.0546 27 25.9561 27ZM11.4519 16.6611L18.793 11.0131C18.9239 10.9122 19.0847 10.8574 19.25 10.8574C19.4153 10.8574 19.5761 10.9122 19.707 11.0131L27.0481 16.6611L27.9475 15.494L19.7078 9.15526C19.5764 9.05462 19.4155 9.00008 19.25 9.00008C19.0845 9.00008 18.9236 9.05462 18.7922 9.15526L10.5525 15.494L11.4519 16.6611ZM20.75 20.25H17.7061V25.5H20.75V20.25ZM25.2061 25.5V17.136L19.25 12.5537L13.25 17.1698V25.5H16.2061V19.5C16.206 19.4015 16.2254 19.304 16.2631 19.213C16.3008 19.122 16.356 19.0393 16.4257 18.9696C16.4953 18.9 16.578 18.8447 16.669 18.807C16.76 18.7694 16.8576 18.75 16.9561 18.75H21.5C21.5985 18.75 21.696 18.7694 21.787 18.8071C21.878 18.8447 21.9607 18.9 22.0304 18.9696C22.1 19.0393 22.1553 19.122 22.193 19.213C22.2306 19.304 22.25 19.4015 22.25 19.5V25.5H25.2061Z" fill="#660D33"/>
</g>
<defs>
<clipPath id="clip0_107_8751">
<rect width="48" height="48" fill="white" transform="translate(0.5)"/>
</clipPath>
</defs>
</svg>
