<svg width="49" height="48" viewBox="0 0 49 48" fill="none" xmlns="http://www.w3.org/2000/svg">
<g clip-path="url(#clip0_107_8776)">
<g clip-path="url(#clip1_107_8776)">
<path d="M36.7613 5.32008L24.8179 0.0672762C24.6148 -0.0217744 24.384 -0.0217744 24.1809 0.0672762L12.2375 5.32008C11.9475 5.44726 11.7599 5.73493 11.7598 6.05288V18.6129C11.7641 21.4355 13.1141 24.0853 15.3906 25.7393L23.645 31.7209C24.1548 32.0916 24.8439 32.0916 25.3537 31.7209L33.6082 25.7401C35.8847 24.0861 37.2347 21.4363 37.239 18.6137V6.05288C37.2388 5.73493 37.0513 5.44726 36.7613 5.32008ZM35.6466 18.6137C35.6429 20.9224 34.5387 23.0896 32.6766 24.4425L24.4994 30.3681L16.3221 24.4425C14.4601 23.0896 13.3559 20.9224 13.3522 18.6137V6.57608L24.4994 1.67368L35.6466 6.57608V18.6137Z" fill="#660D33"/>
<path d="M24.1796 3.55995L15.4211 7.41275C15.1311 7.53993 14.9435 7.8276 14.9434 8.14555V18.6136C14.9458 20.4085 15.8045 22.0934 17.2524 23.1448L24.0323 28.0584C24.3104 28.2599 24.6857 28.2599 24.9639 28.0584L31.7437 23.1448C33.1917 22.0934 34.0503 20.4085 34.0528 18.6136V8.14555C34.0526 7.8276 33.8651 7.53993 33.5751 7.41275L24.8166 3.55995C24.6135 3.4709 24.3827 3.4709 24.1796 3.55995ZM32.4603 8.66795V18.6136C32.4579 19.8944 31.8451 21.0966 30.8122 21.8472L24.4981 26.4232L18.184 21.8472C17.151 21.0966 16.5383 19.8944 16.5358 18.6136V8.66795L24.4981 5.16635L32.4603 8.66795Z" fill="#660D33"/>
<path d="M7.20981 26.5603L5.48757 22.5171C5.12132 21.6835 4.34029 21.1095 3.43867 21.0114C2.53706 20.9133 1.65184 21.306 1.11648 22.0414C0.581113 22.7769 0.476933 23.7435 0.84318 24.5771L3.96359 31.4739C4.38457 32.4075 4.9702 33.2569 5.6922 33.9811L10.5993 38.9123C10.323 39.2066 10.1687 39.5956 10.1678 40.0003V46.4003C10.1678 47.2839 10.8808 48.0003 11.7602 48.0003H20.5187C21.3982 48.0003 22.1112 47.2839 22.1112 46.4003V40.0003C22.1112 39.1166 21.3982 38.4003 20.5187 38.4003V36.9115C20.5431 35.0168 19.9279 33.1697 18.7734 31.6715C18.0965 30.777 17.174 30.101 16.1196 29.7267C14.4426 29.0187 12.9003 28.0243 11.5612 26.7875C10.3182 25.7588 8.55226 25.6666 7.20981 26.5603ZM20.5187 46.4003H11.7602V40.0003H20.5187V46.4003ZM17.5305 32.6707C18.4586 33.8856 18.9505 35.3801 18.9263 36.9115V38.4003H12.3423L6.81806 32.8499C6.23135 32.2612 5.75526 31.5709 5.41272 30.8123L2.29231 23.9155C2.15915 23.6211 2.18393 23.2789 2.35811 23.007C2.53229 22.7351 2.83201 22.5708 3.15383 22.5707C3.53255 22.5703 3.87482 22.7974 4.02331 23.1475L5.80447 27.3211C6.27744 28.4346 6.95919 29.4463 7.81255 30.3011L11.4497 33.9563C11.6496 34.1642 11.9457 34.2476 12.224 34.1744C12.5024 34.1012 12.7198 33.8828 12.7927 33.6031C12.8656 33.3234 12.7826 33.0259 12.5756 32.8251L8.93841 29.1699C8.57268 28.8033 8.24384 28.4013 7.95667 27.9699C8.72131 27.3787 9.79104 27.3966 10.5356 28.0131C12.0241 29.3855 13.7443 30.48 15.6156 31.2451C16.378 31.5236 17.0433 32.0189 17.5305 32.6707Z" fill="#660D33"/>
<path d="M18.1296 42.3999H17.3333C16.8936 42.3999 16.5371 42.7581 16.5371 43.1999C16.5371 43.6417 16.8936 43.9999 17.3333 43.9999H18.1296C18.5693 43.9999 18.9258 43.6417 18.9258 43.1999C18.9258 42.7581 18.5693 42.3999 18.1296 42.3999Z" fill="#660D33"/>
<path d="M45.0343 31.4738L48.1547 24.577C48.5384 23.7406 48.4435 22.7613 47.9064 22.015C47.3693 21.2687 46.4735 20.8713 45.5628 20.9753C44.652 21.0793 43.8678 21.6686 43.5111 22.517L41.7929 26.545C40.4458 25.6557 38.679 25.7531 37.4367 26.785C36.0976 28.0218 34.5553 29.0162 32.8783 29.7242C31.8239 30.0985 30.9014 30.7745 30.2245 31.669C29.0695 33.1679 28.4542 35.0159 28.4792 36.9114V38.4002C27.5997 38.4002 26.8867 39.1165 26.8867 40.0002V46.4002C26.8867 47.2838 27.5997 48.0002 28.4792 48.0002H37.2377C38.1171 48.0002 38.8301 47.2838 38.8301 46.4002V40.0002C38.8292 39.5955 38.6749 39.2065 38.3986 38.9122L43.3057 33.981C44.0277 33.2568 44.6133 32.4074 45.0343 31.4738ZM37.2377 46.4002H28.4792V40.0002H37.2377V46.4002ZM36.6556 38.4002H30.0716V36.9114C30.0476 35.3803 30.5395 33.8861 31.4674 32.6714C31.9535 32.0201 32.6174 31.5245 33.3784 31.245C35.2499 30.4801 36.9705 29.3856 38.4591 28.013C39.2029 27.3918 40.2756 27.3709 41.0428 27.9626C40.7548 28.3972 40.4243 28.8019 40.0563 29.1706L36.4191 32.8258C36.1174 33.1397 36.1217 33.6386 36.4288 33.9472C36.736 34.2558 37.2326 34.2601 37.545 33.957L41.1822 30.3018C42.0355 29.447 42.7173 28.4353 43.1903 27.3218L44.9714 23.1474C45.1203 22.7978 45.4624 22.5711 45.8409 22.5714C46.1627 22.5715 46.4624 22.7359 46.6366 23.0077C46.8108 23.2796 46.8356 23.6218 46.7024 23.9162L43.582 30.813C43.2395 31.5716 42.7634 32.2619 42.1767 32.8506L36.6556 38.4002Z" fill="#660D33"/>
<path d="M31.6667 42.3999H30.8704C30.4307 42.3999 30.0742 42.7581 30.0742 43.1999C30.0742 43.6417 30.4307 43.9999 30.8704 43.9999H31.6667C32.1064 43.9999 32.4629 43.6417 32.4629 43.1999C32.4629 42.7581 32.1064 42.3999 31.6667 42.3999Z" fill="#660D33"/>
<path d="M20.1998 16.9602C19.848 16.6951 19.3489 16.7667 19.0851 17.1202C18.8212 17.4737 18.8925 17.9751 19.2443 18.2402L22.4292 20.6402C22.567 20.7441 22.7347 20.8002 22.907 20.8002C22.952 20.8001 22.997 20.7963 23.0415 20.789C23.2572 20.7518 23.4481 20.6271 23.5694 20.4442L29.9392 10.8442C30.0971 10.6064 30.1167 10.302 29.9907 10.0458C29.8647 9.7895 29.6121 9.62025 29.3282 9.60178C29.0443 9.5833 28.7722 9.71841 28.6143 9.9562L22.7111 18.853L20.1998 16.9602Z" fill="#660D33"/>
</g>
</g>
<defs>
<clipPath id="clip0_107_8776">
<rect width="47.7736" height="48" fill="white" transform="translate(0.613281)"/>
</clipPath>
<clipPath id="clip1_107_8776">
<rect width="47.7736" height="48" fill="white" transform="translate(0.613281)"/>
</clipPath>
</defs>
</svg>
