<svg width="48" height="48" viewBox="0 0 48 48" fill="none" xmlns="http://www.w3.org/2000/svg">
<g clip-path="url(#clip0_107_8763)">
<g clip-path="url(#clip1_107_8763)">
<path d="M47.6721 28.6608C47.4992 28.3792 47.1987 28.211 46.8682 28.211H46.7008L39.9257 13.2847H41.5118C42.575 13.2847 43.4399 12.4198 43.4399 11.3567C43.4399 10.2935 42.575 9.42861 41.5118 9.42861H26.0863V6.88986C27.0955 6.21449 27.7616 5.06455 27.7616 3.76162C27.7616 1.6875 26.0741 0 23.9999 0C21.9258 0 20.2383 1.6875 20.2383 3.76162C20.2383 5.06455 20.9043 6.21449 21.9136 6.88986V9.42851H6.48795C5.42473 9.42851 4.55989 10.2934 4.55989 11.3566C4.55989 12.4197 5.42482 13.2846 6.48795 13.2846H8.0741L1.29899 28.2109H1.13155C0.801084 28.2109 0.500615 28.3791 0.327741 28.6607C0.154866 28.9423 0.140991 29.2865 0.29071 29.5813L1.51527 31.9916C1.98936 32.9248 2.93427 33.5047 3.98117 33.5047H14.8152C15.8621 33.5047 16.8069 32.9249 17.2811 31.9916L18.5055 29.5815C18.6554 29.2869 18.6416 28.9428 18.4688 28.661C18.2959 28.3793 17.9954 28.211 17.6648 28.211H17.4975L10.7223 13.2847H21.9135V39.5965H16.826C15.5771 39.5965 14.561 40.6126 14.561 41.8615V43.0928H13.4344C12.1855 43.0928 11.1694 44.1088 11.1694 45.3577V47.2944C11.1694 47.6841 11.4853 48 11.875 48H36.1248C36.5145 48 36.8304 47.6842 36.8304 47.2944V45.3577C36.8304 44.1088 35.8143 43.0928 34.5654 43.0928H33.4388V41.8615C33.4388 40.6126 32.4227 39.5965 31.1738 39.5965H26.0863V19.2217C26.0863 18.8321 25.7704 18.5161 25.3807 18.5161C24.991 18.5161 24.6751 18.832 24.6751 19.2217V39.5965H23.3245V12.5792C23.3245 12.1895 23.0086 11.8736 22.6189 11.8736H6.48795C6.20285 11.8736 5.97092 11.6417 5.97092 11.3566C5.97092 11.0715 6.20285 10.8395 6.48795 10.8395H22.619C23.0087 10.8395 23.3246 10.5237 23.3246 10.134V7.46314C23.3509 7.46792 23.3775 7.47149 23.4041 7.4757C23.4176 7.47786 23.431 7.48011 23.4444 7.48208C23.4897 7.48873 23.5352 7.49445 23.5809 7.49952C23.5978 7.50139 23.6146 7.50355 23.6316 7.50514C23.6745 7.50927 23.7177 7.51227 23.7608 7.51499C23.7797 7.5162 23.7986 7.51789 23.8176 7.51873C23.8713 7.52127 23.9251 7.52249 23.9789 7.52286C23.986 7.52286 23.9928 7.52342 23.9998 7.52342C24.0069 7.52342 24.0138 7.52295 24.0208 7.52286C24.0746 7.52258 24.1284 7.52136 24.1821 7.51873C24.2011 7.5178 24.22 7.51611 24.2389 7.51499C24.282 7.51227 24.3252 7.50927 24.3681 7.50514C24.3851 7.50345 24.4019 7.50139 24.4189 7.49952C24.4646 7.49445 24.51 7.48883 24.5553 7.48217C24.5688 7.4802 24.5822 7.47795 24.5956 7.4758C24.6221 7.47158 24.6488 7.46802 24.6751 7.46324V10.1341C24.6751 10.5237 24.991 10.8396 25.3807 10.8396H41.5118C41.7968 10.8396 42.0288 11.0716 42.0288 11.3567C42.0288 11.6418 41.7968 11.8737 41.5118 11.8737H25.3808C24.9911 11.8737 24.6752 12.1895 24.6752 12.5793V15.8772C24.6752 16.2668 24.9911 16.5827 25.3808 16.5827C25.7705 16.5827 26.0863 16.2669 26.0863 15.8772V13.2847H37.2775L30.5024 28.2109H30.3351C30.0045 28.2109 29.704 28.3792 29.5311 28.6609C29.3583 28.9427 29.3445 29.2869 29.4942 29.5813L30.7188 31.9916C31.1929 32.9248 32.1378 33.5047 33.1847 33.5047H44.0187C45.0656 33.5047 46.0104 32.9249 46.4846 31.9916L47.7093 29.5813C47.8589 29.2866 47.845 28.9424 47.6721 28.6608ZM31.1739 41.0076C31.6447 41.0076 32.0277 41.3906 32.0277 41.8615V43.0927H21.2323C20.8425 43.0927 20.5267 43.4085 20.5267 43.7982C20.5267 44.1879 20.8425 44.5038 21.2323 44.5038H34.5654C35.0362 44.5038 35.4192 44.8868 35.4192 45.3577V46.5889H12.5806V45.3577C12.5806 44.8868 12.9636 44.5038 13.4344 44.5038H17.9578C18.3475 44.5038 18.6633 44.1879 18.6633 43.7982C18.6633 43.4086 18.3475 43.0927 17.9578 43.0927H15.9721V41.8615C15.9721 41.3905 16.3551 41.0076 16.8259 41.0076H31.1739ZM16.0231 31.3525C15.7908 31.8096 15.328 32.0936 14.8152 32.0936H3.98126C3.46845 32.0936 3.00561 31.8096 2.77339 31.3525L1.89421 29.622H16.9022L16.0231 31.3525ZM15.9563 28.2109H2.84014L9.39822 13.7628L15.9563 28.2109ZM25.0425 5.86761C25.0168 5.88036 24.9909 5.89246 24.9649 5.90427C24.9517 5.91027 24.9386 5.91655 24.9252 5.92227C24.8957 5.93493 24.866 5.94664 24.8362 5.95808C24.8133 5.9668 24.7902 5.97514 24.7669 5.98321C24.7424 5.99174 24.7179 6.00027 24.6931 6.00796C24.6706 6.01489 24.6478 6.02108 24.625 6.02736C24.6077 6.03214 24.5905 6.03702 24.573 6.04143C24.5495 6.04733 24.5257 6.05268 24.5019 6.05793C24.4844 6.06168 24.467 6.06543 24.4496 6.0688C24.4262 6.0733 24.4029 6.07752 24.3793 6.08136C24.3598 6.08455 24.3403 6.08727 24.3209 6.08989C24.2991 6.09289 24.2773 6.09589 24.2554 6.09824C24.2311 6.10086 24.2066 6.10274 24.1821 6.10461C24.1645 6.10602 24.1469 6.10771 24.1293 6.10864C24.0864 6.11099 24.0434 6.11239 24 6.11239C23.9567 6.11239 23.9136 6.11099 23.8708 6.10864C23.853 6.10771 23.8355 6.10602 23.818 6.10461C23.7935 6.10274 23.769 6.10086 23.7447 6.09824C23.7227 6.09589 23.701 6.09289 23.6792 6.08989C23.6597 6.08727 23.6402 6.08446 23.6208 6.08136C23.5973 6.07752 23.5739 6.0733 23.5505 6.0688C23.533 6.06543 23.5155 6.06168 23.4982 6.05793C23.4744 6.05277 23.4506 6.04743 23.427 6.04143C23.4097 6.03702 23.3924 6.03214 23.3751 6.02736C23.3523 6.02108 23.3294 6.01489 23.3069 6.00796C23.2822 6.00027 23.2577 5.99174 23.2332 5.98321C23.2099 5.97514 23.1868 5.96689 23.1639 5.95808C23.1341 5.94664 23.1044 5.93493 23.0749 5.92227C23.0615 5.91655 23.0484 5.91027 23.0352 5.90427C23.0092 5.89246 22.9832 5.88046 22.9575 5.86761C22.1832 5.48268 21.6495 4.68346 21.6495 3.76162C21.6495 2.46553 22.7039 1.41103 24.0001 1.41103C25.2963 1.41103 26.3507 2.46553 26.3507 3.76162C26.3505 4.68346 25.817 5.48268 25.0425 5.86761ZM38.6017 13.7628L45.1597 28.2109H32.0435L38.6017 13.7628ZM45.2265 31.3525C44.9943 31.8096 44.5314 32.0936 44.0186 32.0936H33.1846C32.6718 32.0936 32.209 31.8096 31.9767 31.3525L31.0976 29.622H46.1056L45.2265 31.3525Z" fill="#660D33"/>
</g>
</g>
<defs>
<clipPath id="clip0_107_8763">
<rect width="48" height="48" fill="white"/>
</clipPath>
<clipPath id="clip1_107_8763">
<rect width="48" height="48" fill="white"/>
</clipPath>
</defs>
</svg>
