<svg width="49" height="48" viewBox="0 0 49 48" fill="none" xmlns="http://www.w3.org/2000/svg">
<g clip-path="url(#clip0_107_8708)">
<path d="M45.5 35.25V27H44V35.25H39.5V32.25H38V35.25H33.5V9H44V25.5H45.5V8.25C45.5 8.05109 45.421 7.86032 45.2803 7.71967C45.1397 7.57902 44.9489 7.5 44.75 7.5H44V5.25C44 5.05109 43.921 4.86032 43.7803 4.71967C43.6397 4.57902 43.4489 4.5 43.25 4.5H39.5V1.5H38V4.5H34.25C34.0511 4.5 33.8603 4.57902 33.7197 4.71967C33.579 4.86032 33.5 5.05109 33.5 5.25V7.5H32.75C32.5511 7.5 32.3603 7.57902 32.2197 7.71967C32.079 7.86032 32 8.05109 32 8.25V12.75H28.25C28.1515 12.75 28.054 12.7694 27.963 12.8071C27.872 12.8448 27.7893 12.9 27.7197 12.9697L21.7197 18.9697C21.65 19.0393 21.5948 19.122 21.5571 19.213C21.5194 19.304 21.5 19.4015 21.5 19.5V23.8693L17.4881 20.4306C17.3522 20.3141 17.179 20.25 17 20.25C16.821 20.25 16.6478 20.3141 16.5119 20.4306L11.2619 24.9306C11.1798 25.001 11.1138 25.0883 11.0686 25.1866C11.0234 25.2849 11 25.3918 11 25.5V28.6753L8.38589 27.1069C8.26933 27.0369 8.13594 27 8 27C7.86406 27 7.73067 27.0369 7.61411 27.1069L3.86411 29.3569C3.75306 29.4235 3.66115 29.5178 3.59735 29.6305C3.53354 29.7432 3.5 29.8705 3.5 30V35.25H2V36.75H5.95884C8.02717 39.7567 10.7957 42.2154 14.0258 43.9139C17.2559 45.6125 20.8506 46.5 24.5 46.5C28.1494 46.5 31.7441 45.6125 34.9742 43.9139C38.2043 42.2154 40.9728 39.7567 43.0412 36.75H47V35.25H45.5ZM35 6H42.5V7.5H35V6ZM32.7762 36.75C32.1176 38.0612 31.3514 39.3155 30.4853 40.5H18.5146C17.6486 39.3155 16.8823 38.0612 16.2238 36.75H32.7762ZM23 19.8106L28.5606 14.25H32V35.25H28.25V32.25H26.75V35.25H23V19.8106ZM12.5 25.845L17 21.9878L21.5 25.845V35.25H17.75V32.25H16.25V35.25H12.5V25.845ZM5 30.4247L8 28.6247L11 30.4247V35.25H8.75V32.25H7.25V35.25H5V30.4247ZM7.81156 36.75H14.5559C15.1679 38.0525 15.8788 39.3061 16.6823 40.5H11.5031C10.1205 39.4093 8.88036 38.1495 7.81156 36.75ZM17.7673 42C18.4513 42.8823 19.1899 43.7208 19.9789 44.5106C17.7544 44.0224 15.6246 43.1743 13.6733 42H17.7673ZM22.6472 44.9188C21.584 44.0311 20.5982 43.0547 19.7004 42H29.2996C28.4018 43.0547 27.416 44.0311 26.3528 44.9188C25.7402 44.9727 25.1226 44.9997 24.5 45C23.8779 45 23.2603 44.9729 22.6472 44.9188H22.6472ZM31.2327 42H35.3267C33.3754 43.1743 31.2456 44.0224 29.0211 44.5106C29.8101 43.7208 30.5487 42.8823 31.2327 42ZM37.4969 40.5H32.3177C33.1212 39.3061 33.8321 38.0525 34.4441 36.75H41.1884C40.1196 38.1495 38.8795 39.4093 37.4969 40.5Z" fill="#660D33"/>
<path d="M14 27H15.5V30.75H14V27Z" fill="#660D33"/>
<path d="M18.5 27H20V30.75H18.5V27Z" fill="#660D33"/>
<path d="M24.5 27H26V30.75H24.5V27Z" fill="#660D33"/>
<path d="M29 27H30.5V30.75H29V27Z" fill="#660D33"/>
<path d="M24.5 21.75H26V25.5H24.5V21.75Z" fill="#660D33"/>
<path d="M29 21.75H30.5V25.5H29V21.75Z" fill="#660D33"/>
<path d="M35 21.75H36.5V25.5H35V21.75Z" fill="#660D33"/>
<path d="M38 21.75H39.5V25.5H38V21.75Z" fill="#660D33"/>
<path d="M35 16.5H36.5V20.25H35V16.5Z" fill="#660D33"/>
<path d="M38 16.5H39.5V20.25H38V16.5Z" fill="#660D33"/>
<path d="M35 11.25H36.5V15H35V11.25Z" fill="#660D33"/>
<path d="M38 11.25H39.5V15H38V11.25Z" fill="#660D33"/>
<path d="M41 21.75H42.5V25.5H41V21.75Z" fill="#660D33"/>
<path d="M35 27H36.5V30.75H35V27Z" fill="#660D33"/>
<path d="M38 27H39.5V30.75H38V27Z" fill="#660D33"/>
<path d="M41 27H42.5V30.75H41V27Z" fill="#660D33"/>
<path d="M41 16.5H42.5V20.25H41V16.5Z" fill="#660D33"/>
<path d="M41 11.25H42.5V15H41V11.25Z" fill="#660D33"/>
<path d="M29 16.5H30.5V20.25H29V16.5Z" fill="#660D33"/>
<path d="M2.45108 25.4379C2.58511 25.4961 2.73323 25.5139 2.87724 25.4891C3.02126 25.4643 3.15489 25.398 3.26173 25.2983L14.0281 15.2497L18.0199 18.5762C18.1676 18.6993 18.3571 18.7609 18.549 18.7484C18.7409 18.7358 18.9207 18.65 19.0511 18.5087L27.6168 9.22922L29.334 10.374C29.4417 10.4458 29.5661 10.4885 29.6952 10.4979C29.8242 10.5074 29.9535 10.4833 30.0705 10.428C30.1875 10.3727 30.2882 10.2881 30.3628 10.1824C30.4374 10.0766 30.4834 9.95338 30.4963 9.82462L31.2463 2.32462C31.2586 2.20199 31.2404 2.07823 31.1935 1.96429C31.1465 1.85034 31.0722 1.74972 30.9771 1.67132C30.882 1.59292 30.7691 1.53917 30.6483 1.5148C30.5275 1.49044 30.4025 1.49622 30.2845 1.53163L22.7845 3.78163C22.6482 3.82254 22.5263 3.90139 22.4331 4.00897C22.3399 4.11656 22.2793 4.24843 22.2583 4.3892C22.2372 4.52997 22.2567 4.67381 22.3144 4.80393C22.3721 4.93405 22.4656 5.04507 22.584 5.12402L24.1123 6.14296L18.4255 12.4617L14.4802 9.17384C14.3398 9.0569 14.1616 8.9952 13.979 9.00033C13.7963 9.00546 13.6219 9.07708 13.4883 9.20172L9.47046 12.9517L10.4939 14.0483L14.0281 10.7497L18.0199 14.0762C18.1689 14.2003 18.3602 14.2619 18.5537 14.2481C18.7472 14.2342 18.9277 14.1459 19.0575 14.0017L25.8075 6.50171C25.8795 6.42171 25.9334 6.32714 25.9656 6.22444C25.9978 6.12174 26.0076 6.0133 25.9941 5.90651C25.9807 5.79971 25.9445 5.69706 25.8879 5.60552C25.8312 5.51397 25.7556 5.43569 25.666 5.37598L24.7425 4.76029L29.6423 3.29036L29.1279 8.43388L27.916 7.62598C27.7675 7.52693 27.5885 7.48413 27.4112 7.50527C27.2339 7.5264 27.07 7.6101 26.9489 7.7413L18.4325 16.9674L14.4802 13.6738C14.3398 13.5569 14.1616 13.4951 13.9789 13.5003C13.7963 13.5054 13.6218 13.577 13.4883 13.7017L3.5 23.0241V20.5759L9.26173 15.1983L8.23827 14.1017L2.23827 19.7017C2.16308 19.7719 2.10313 19.8568 2.06215 19.9511C2.02116 20.0454 2 20.1472 2 20.25V24.75C2.00001 24.8961 2.0427 25.0391 2.12284 25.1613C2.20297 25.2835 2.31706 25.3796 2.45108 25.4379Z" fill="#660D33"/>
</g>
<defs>
<clipPath id="clip0_107_8708">
<rect width="48" height="48" fill="white" transform="translate(0.5)"/>
</clipPath>
</defs>
</svg>
