<svg width="50" height="44" viewBox="0 0 50 44" fill="none" xmlns="http://www.w3.org/2000/svg">
<path d="M8.33139 19.4409L5.25351 24.8885L0 22.033L0.923071 25.5561L6.17585 28.4097L9.25447 22.9643L8.33139 19.4409Z" fill="#991C51"/>
<path d="M43.571 11.0423L39.5277 9.37962C28.1937 -5.98874 2.83165 6.64348 6.67298 25.3189C6.80411 26.0069 6.35153 26.6994 5.66187 26.8632C4.05462 27.1879 4.06229 25.2778 3.91874 24.1625C1.45818 1.39843 33.2499 -9.86628 43.571 11.0423Z" fill="#991C51"/>
<path d="M41.6678 24.5583L44.7457 19.1103L49.9992 21.9662L49.0761 18.4431L43.8233 15.5898L40.7447 21.0349L41.6678 24.5583Z" fill="#660D33"/>
<path d="M42.3707 34.3292C33.815 47.5379 13.301 47.3021 6.49609 33.0919L10.7761 35.0094C22.344 49.8271 47.1256 37.1046 43.327 18.6784C43.1958 17.9907 43.6481 17.2997 44.3381 17.1344C45.9453 16.8087 45.9366 18.7206 46.0812 19.8351C46.6112 24.8828 45.3203 29.9685 42.3707 34.3292Z" fill="#660D33"/>
<path d="M40.1269 21.6282C39.6977 40.8364 12.4413 37.7335 12.6813 19.7372C13.3662 0.246915 40.1938 3.74647 40.1269 21.6282Z" fill="#660D33" fill-opacity="0.23"/>
<path d="M26.7861 9.06817C27.7976 9.17414 27.4436 10.6013 27.5017 11.2816C28.9021 11.4438 30.2825 11.7528 31.621 12.2039C31.7909 12.2616 31.9371 12.3756 32.0364 12.5279C32.1356 12.6801 32.1823 12.8618 32.1689 13.0442L32.0005 14.8005C31.7689 15.9915 30.5986 15.0419 29.9111 14.902C29.1272 14.6642 28.3196 14.5172 27.5035 14.464V18.4751C29.567 19.065 31.0833 19.8583 32.0619 20.856C35.5401 24.9037 32.6178 30.0566 27.3373 30.0801C27.2533 30.7386 27.6887 32.3599 26.621 32.3401C25.5518 32.2961 25.9635 30.7218 25.8904 30.0394C24.2302 29.9778 22.6536 29.7678 21.096 29.3069C20.7362 29.2006 20.4893 28.8506 20.5222 28.4745L20.7202 26.2167C20.7633 25.7287 21.2433 25.4447 21.6973 25.6279C22.2222 25.8399 22.7589 26.0199 23.3046 26.1671C24.1466 26.3944 25.0075 26.5414 25.8762 26.6063L25.8889 22.1444C23.9079 21.6437 22.4285 20.9021 21.4507 19.9198C20.4718 18.933 19.9817 17.6712 19.9805 16.1344C20.006 12.5767 22.6328 11.1689 26.0672 11.176C26.1421 10.5525 25.7373 8.9913 26.7861 9.06817ZM26.0676 14.4225C24.983 14.5016 24.1286 15.0166 24.1228 16.1419C24.1228 16.6193 24.2811 17.0181 24.5977 17.3385C24.9142 17.6589 25.4041 17.9143 26.0672 18.1046L26.0676 14.4225ZM27.3373 22.5019V26.5936C28.0028 26.5936 28.5135 26.4319 28.8693 26.1085C29.5725 25.5115 29.5758 24.0451 28.9058 23.3847C28.5756 23.0262 28.0528 22.732 27.3373 22.5019Z" fill="#660D33"/>
</svg>
