<svg width="675" height="481" viewBox="0 0 675 481" fill="none" xmlns="http://www.w3.org/2000/svg">
<path d="M114.275 311.447C154.851 405.941 261.963 446.523 345.886 439.599C368.802 437.711 414.905 433.906 450.901 399.991C520.036 334.863 509.382 198.715 443.205 118.568C434.677 108.24 375.693 39.0933 283.758 40.0088C216.462 40.6954 169.223 78.5731 163.48 83.2936C156.229 89.2585 140.22 103.42 125.79 125.892C91.9049 178.689 88.9184 252.399 114.275 311.447Z" fill="url(#paint0_linear_213_24670)"/>
<path d="M368.218 420.03L359.531 420.03L359.531 326.494L368.218 326.494L368.218 420.03Z" fill="#660D33" fill-opacity="0.3"/>
<path d="M401.896 421.831L325.855 421.831L325.855 416.61C325.855 416.381 326.042 416.195 326.271 416.195L401.465 416.195C401.709 416.195 401.91 416.396 401.91 416.639L401.91 421.831L401.896 421.831Z" fill="#660D33" fill-opacity="0.3"/>
<path d="M416.268 323.046C416.268 328.481 411.802 332.93 406.346 332.93L324.577 332.93C319.12 332.93 314.655 328.481 314.655 323.046L314.655 314.105C314.655 308.67 319.12 304.221 324.577 304.221L406.346 304.221C411.802 304.221 416.268 308.67 416.268 314.105L416.268 323.046Z" fill="#660D33" fill-opacity="0.3"/>
<path d="M315.512 403.464C315.512 403.464 290.715 421.273 295.023 433.232C295.023 433.232 322.145 421.574 325.433 412.39C328.707 403.207 324.873 399.145 324.873 399.145L315.512 403.464Z" fill="url(#paint1_linear_213_24670)"/>
<path d="M319.233 388.545L323.282 400.217C323.899 401.977 323.282 403.979 321.702 404.981C320.913 405.481 319.821 405.939 318.342 406.268C316.26 406.74 314.092 405.782 313.087 403.893L308.234 394.796L319.233 388.545Z" fill="url(#paint2_linear_213_24670)"/>
<path d="M358.688 283.451C358.688 283.451 307.759 292.249 285.921 312.346C264.082 332.444 305.965 396.57 305.965 396.57C305.965 396.57 312.828 396.527 321.141 389.432C321.141 389.432 296.302 341.198 317.71 327.137C341.774 311.331 369.514 307.769 369.514 307.769L359.176 285.011L358.688 283.451Z" fill="url(#paint3_linear_213_24670)"/>
<path d="M299.332 426.608C304.788 424.091 320.223 413.334 322.822 412.848C325.421 412.375 329.944 415.422 329.944 415.422C329.944 415.422 331.035 417.396 329.872 420.815C326.254 425.178 318.199 433.503 307.387 436.607C299.433 438.896 293.862 436.764 290.402 434.275C292.297 431.4 295.7 428.282 299.332 426.608Z" fill="url(#paint4_linear_213_24670)"/>
<path d="M307.373 436.622C318.184 433.517 326.239 425.192 329.857 420.83C329.068 423.147 327.23 426.136 323.324 429.641C313.633 438.324 295.111 441.456 291.162 440.856C288.003 440.369 288.305 437.465 290.387 434.304C293.862 436.779 299.418 438.91 307.373 436.622Z" fill="url(#paint5_linear_213_24670)"/>
<path d="M334.566 407.828C334.509 409.33 331.436 414.451 329.642 417.34C328.794 418.713 327.301 419.543 325.679 419.543C324.659 419.543 323.468 419.457 322.405 419.157C320.797 418.699 319.892 416.997 320.366 415.395L323.87 403.465L334.566 407.828Z" fill="url(#paint6_linear_213_24670)"/>
<path d="M407.706 268.218C407.706 268.218 419.02 298.343 407.706 307.512C396.392 316.666 369.413 326.994 363.397 345.232C357.366 363.484 347.143 398.945 333.46 411.504C333.46 411.504 323.84 410.574 320.25 406.755C320.25 406.755 328.047 353.815 333.187 340.226C337.638 328.467 344.2 311.488 356.763 301.99C360.367 299.272 359.735 294.967 358.07 290.79L355.026 283.18L407.706 268.218Z" fill="url(#paint7_linear_213_24670)"/>
<path d="M289.752 244.615C308.719 245.76 302.803 215.578 302.459 214.376L331.232 234.631C331.232 234.631 329.71 250.766 305.775 259.234C299.716 261.38 294.188 261.466 289.292 260.421C291.403 254.356 290.972 248.921 289.752 244.615Z" fill="url(#paint8_linear_213_24670)"/>
<path d="M253.083 235.532C260.148 230.64 268.16 235.532 268.16 235.532C277.607 241.683 284.6 244.301 289.754 244.615C290.975 248.921 291.405 254.357 289.309 260.422C278.727 258.162 271.146 250.523 267.858 246.604C266.681 245.188 264.57 244.944 263.134 246.089C261.67 247.247 260.234 248.835 260.492 250.494C261.009 253.784 257.176 254.829 256.888 253.641C256.601 252.454 258.195 245.374 258.195 245.374C258.195 245.374 250.528 253.055 247.541 256.002C244.555 258.948 240.793 256.002 240.793 256.002C240.793 256.002 246.019 240.424 253.083 235.532Z" fill="url(#paint9_linear_213_24670)"/>
<path d="M378.168 167.758C378.168 167.758 350.586 156.758 299.241 198.985C299.241 198.985 294.948 207.825 299.629 215.692C304.31 223.56 348.877 261.909 355.008 283.18C355.008 283.18 381.571 291.777 409.023 271.393C409.023 271.393 406.611 212.202 378.168 167.758Z" fill="url(#paint10_linear_213_24670)"/>
<path d="M323.638 157.946L337.221 174.353C338.571 175.984 338.872 178.244 337.939 180.146C336.058 183.98 331.578 189.558 321.657 188.786C318.713 188.557 316.1 186.783 314.808 184.123L305.317 164.569L323.638 157.946Z" fill="url(#paint11_linear_213_24670)"/>
<path d="M399.536 238.007C402.738 225.018 370.303 196.038 370.303 196.038L378.186 167.758C378.186 167.758 448.225 214.219 430.378 251.567C427.822 256.917 424.419 260.679 420.485 263.182C414.828 248.063 405.84 241.125 399.536 238.007Z" fill="url(#paint12_linear_213_24670)"/>
<path d="M399.551 236.119C399.896 236.119 400.212 235.89 400.298 235.533C403.572 222.244 372.17 194.021 370.835 192.82C370.519 192.534 370.031 192.562 369.758 192.877C369.471 193.192 369.5 193.678 369.816 193.95C370.132 194.236 401.877 222.759 398.819 235.161C398.719 235.575 398.963 235.99 399.379 236.09C399.437 236.105 399.494 236.119 399.551 236.119Z" fill="url(#paint13_linear_213_24670)"/>
<path d="M289.756 139.064C289.756 139.064 289.526 156.93 292.412 165.041C295.312 173.151 295.758 179.016 305.636 176.756C315.5 174.51 321.329 166.7 322.205 157.044C322.205 157.044 323.655 142.125 320.08 137.762C316.519 133.399 289.756 139.064 289.756 139.064Z" fill="url(#paint14_linear_213_24670)"/>
<path d="M318.532 152.681L317.369 153.167C317.369 153.167 318.03 141.366 313.105 141.409C308.18 141.452 294.456 145.042 288.383 140.651C282.527 135 285.638 123.071 285.638 123.071L286.695 123.697C286.695 123.697 286.695 123.697 285.638 123.071C286.695 123.697 291.668 125.989 300.298 124.115C312.531 121.454 321.964 122.899 325.439 130.624C325.654 131.11 326.3 131.167 326.616 130.724C327.233 129.865 328.483 129.064 330.909 129.822C335.13 131.124 336.71 138.434 332.216 146.859C332 147.259 332.216 147.76 332.661 147.846C334.24 148.132 336.882 149.276 333.178 153.825C329.387 158.474 326.372 159.404 325.152 159.59C324.821 159.633 324.52 159.447 324.405 159.146L321.921 152.037C321.792 151.665 321.375 151.494 321.016 151.637L318.532 152.681Z" fill="url(#paint15_linear_213_24670)"/>
<path d="M317.01 154.256C317.01 154.256 315.459 143.556 320.944 144.443C326.429 145.33 323.241 156.187 319.91 158.018L317.01 154.256Z" fill="url(#paint16_linear_213_24670)"/>
<path d="M330.686 266.216C330.628 266.216 330.556 266.216 330.499 266.216L249.806 266.13C247.81 266.13 246.202 264.514 246.202 262.525C246.202 260.537 247.825 258.892 249.821 258.935L330.513 259.021C332.509 259.021 334.117 260.637 334.117 262.625C334.117 264.556 332.595 266.13 330.686 266.216Z" fill="url(#paint17_linear_213_24670)"/>
<path d="M177.273 193.235L244.469 193.235C249.422 193.235 253.945 196.081 256.056 200.559L287.127 266.187L203.606 266.187C200.404 266.187 197.547 264.241 196.369 261.28L172.276 200.544C170.898 197.04 173.482 193.235 177.273 193.235Z" fill="url(#paint18_linear_213_24670)"/>
<path d="M224.622 226.878C226.072 231.384 224.996 235.761 222.224 236.663C219.439 237.549 216.007 234.631 214.543 230.111C213.093 225.605 214.169 221.228 216.941 220.327C219.726 219.44 223.158 222.373 224.622 226.878Z" fill="#660D33" fill-opacity="0.3"/>
<path d="M350.404 236.891C350.404 236.891 388.869 251.768 398.245 240.582C398.877 239.824 399.293 238.965 399.523 238.007C405.826 241.125 414.829 248.063 420.457 263.197C400.226 276.071 365.652 256.03 356.305 250.123C354.769 249.15 352.916 248.807 351.136 249.179C347.532 249.922 341.301 251.024 337.941 250.509C333.03 249.751 325.966 267.03 317.997 261.695C318.026 261.681 324.846 231.67 350.404 236.891Z" fill="url(#paint19_linear_213_24670)"/>
<path d="M174.13 438.639C173.685 438.639 173.226 438.554 172.795 438.368C171.072 437.652 170.282 435.736 171.014 434.076L242.13 274.626C242.877 272.967 244.858 272.209 246.581 272.91C248.304 273.625 249.094 275.542 248.362 277.201L177.246 436.651C176.7 437.896 175.437 438.639 174.13 438.639Z" fill="url(#paint20_linear_213_24670)"/>
<path d="M254.248 438.639C252.927 438.639 251.678 437.895 251.132 436.665L180.016 277.215C179.27 275.556 180.074 273.639 181.797 272.924C183.52 272.208 185.515 272.981 186.248 274.64L257.363 434.09C258.11 435.749 257.306 437.666 255.583 438.381C255.152 438.553 254.693 438.639 254.248 438.639Z" fill="url(#paint21_linear_213_24670)"/>
<path d="M394.265 438.639C393.82 438.639 393.36 438.554 392.93 438.368C391.207 437.652 390.417 435.736 391.149 434.076L462.265 274.626C463.012 272.967 464.993 272.209 466.716 272.91C468.439 273.625 469.229 275.542 468.496 277.201L397.381 436.651C396.821 437.896 395.572 438.639 394.265 438.639Z" fill="url(#paint22_linear_213_24670)"/>
<path d="M474.385 438.639C473.064 438.639 471.815 437.895 471.269 436.665L400.139 277.215C399.393 275.556 400.197 273.639 401.92 272.924C403.643 272.208 405.638 272.981 406.371 274.64L477.486 434.076C478.233 435.735 477.429 437.652 475.706 438.367C475.275 438.553 474.83 438.639 474.385 438.639Z" fill="url(#paint23_linear_213_24670)"/>
<path d="M482.714 269.706C482.9 268.662 482.642 267.575 482.039 266.759C481.436 265.944 480.531 265.458 479.569 265.458L156.052 265.458C154.803 265.458 153.625 266.173 152.95 267.346C152.276 268.533 152.189 270.006 152.706 271.279L156.21 279.748C157.014 281.679 158.751 282.923 160.661 282.923L477.358 282.923C479.139 282.923 480.675 281.521 481.005 279.562L482.714 269.706Z" fill="url(#paint24_linear_213_24670)"/>
<circle opacity="0.24" r="234.32" transform="matrix(-0.0223073 -0.999751 0.999753 -0.0222261 297.039 240.491)" stroke="#919EAB" stroke-width="2" stroke-dasharray="3 6"/>
<g filter="url(#filter0_i_213_24670)">
<ellipse rx="10.9007" ry="10.7918" transform="matrix(-0.0223073 -0.999751 0.999753 -0.0222261 190.157 450.032)" fill="url(#paint25_linear_213_24670)"/>
</g>
<g filter="url(#filter1_i_213_24670)">
<ellipse rx="6.35873" ry="6.29522" transform="matrix(-0.0223073 -0.999751 0.999753 -0.0222261 68.812 292.815)" fill="url(#paint26_linear_213_24670)"/>
</g>
<g filter="url(#filter2_i_213_24670)">
<path d="M106.497 369.21C110.47 369.121 113.763 372.303 113.852 376.315C113.942 380.328 110.794 383.652 106.822 383.74C102.849 383.829 99.5563 380.647 99.4668 376.635C99.3773 372.622 102.525 369.298 106.497 369.21Z" fill="url(#paint27_linear_213_24670)"/>
</g>
<g filter="url(#filter3_i_213_24670)">
<ellipse rx="5.45032" ry="5.39591" transform="matrix(-0.0223073 -0.999751 0.999753 -0.0222261 110.287 95.6337)" fill="url(#paint28_linear_213_24670)"/>
</g>
<g filter="url(#filter4_di_213_24670)">
<rect x="471.992" y="321.433" width="112.036" height="49.809" rx="16" fill="white" shape-rendering="crispEdges"/>
<g clip-path="url(#clip0_213_24670)">
<g clip-path="url(#clip1_213_24670)">
<path d="M557.16 337.252L563.077 334.697C563.178 334.653 563.292 334.653 563.393 334.697L569.31 337.252C569.454 337.313 569.547 337.453 569.547 337.608V343.717C569.545 345.09 568.876 346.379 567.748 347.184L563.658 350.093C563.406 350.274 563.064 350.274 562.812 350.093L558.722 347.184C557.594 346.38 556.925 345.091 556.923 343.718V337.608C556.923 337.453 557.016 337.313 557.16 337.252ZM557.712 343.718C557.714 344.841 558.261 345.895 559.184 346.553L563.235 349.435L567.286 346.553C568.209 345.895 568.756 344.841 568.758 343.718V337.863L563.235 335.478L557.712 337.863V343.718Z" fill="#660D33"/>
<path d="M563.395 336.395L567.734 338.269C567.878 338.331 567.971 338.471 567.971 338.626V343.718C567.969 344.591 567.544 345.41 566.827 345.922L563.468 348.312C563.33 348.41 563.144 348.41 563.006 348.312L559.647 345.922C558.93 345.41 558.504 344.591 558.503 343.718V338.626C558.503 338.471 558.596 338.331 558.74 338.269L563.079 336.395C563.18 336.352 563.294 336.352 563.395 336.395ZM559.292 338.88V343.718C559.293 344.341 559.597 344.925 560.108 345.29L563.237 347.516L566.365 345.29C566.877 344.925 567.181 344.341 567.182 343.718V338.88L563.237 337.177L559.292 338.88Z" fill="#660D33"/>
<path d="M571.801 347.583L572.654 345.616C572.836 345.211 573.223 344.932 573.669 344.884C574.116 344.836 574.555 345.027 574.82 345.385C575.085 345.743 575.137 346.213 574.955 346.618L573.409 349.973C573.201 350.427 572.911 350.84 572.553 351.193L570.122 353.591C570.259 353.734 570.335 353.924 570.335 354.12V357.233C570.335 357.663 569.982 358.012 569.546 358.012H565.207C564.771 358.012 564.418 357.663 564.418 357.233V354.12C564.418 353.691 564.771 353.342 565.207 353.342V352.618C565.195 351.696 565.5 350.798 566.072 350.069C566.407 349.634 566.864 349.305 567.387 349.123C568.217 348.779 568.982 348.295 569.645 347.693C570.261 347.193 571.136 347.148 571.801 347.583ZM565.207 357.233H569.546V354.12H565.207V357.233ZM566.688 350.555C566.228 351.146 565.984 351.873 565.996 352.618V353.342H569.258L571.995 350.642C572.286 350.356 572.522 350.02 572.691 349.651L574.237 346.296C574.303 346.153 574.291 345.987 574.205 345.855C574.118 345.722 573.97 345.642 573.811 345.642C573.623 345.642 573.453 345.753 573.38 345.923L572.497 347.953C572.263 348.495 571.925 348.987 571.502 349.403L569.7 351.18C569.601 351.282 569.455 351.322 569.317 351.287C569.179 351.251 569.071 351.145 569.035 351.009C568.999 350.873 569.04 350.728 569.143 350.63L570.945 348.852C571.126 348.674 571.289 348.478 571.431 348.269C571.052 347.981 570.522 347.99 570.153 348.29C569.416 348.957 568.563 349.49 567.636 349.862C567.259 349.997 566.929 350.238 566.688 350.555Z" fill="#660D33"/>
<path d="M566.391 355.288H566.785C567.003 355.288 567.18 355.462 567.18 355.677C567.18 355.892 567.003 356.066 566.785 356.066H566.391C566.173 356.066 565.996 355.892 565.996 355.677C565.996 355.462 566.173 355.288 566.391 355.288Z" fill="#660D33"/>
<path d="M553.059 349.973L551.513 346.618C551.323 346.211 551.37 345.735 551.637 345.372C551.903 345.009 552.346 344.816 552.798 344.866C553.249 344.917 553.637 345.204 553.814 345.616L554.665 347.576C555.333 347.143 556.208 347.19 556.824 347.692C557.487 348.294 558.251 348.778 559.082 349.122C559.605 349.304 560.062 349.633 560.397 350.068C560.969 350.797 561.274 351.696 561.262 352.618V353.342C561.698 353.342 562.051 353.691 562.051 354.12V357.233C562.051 357.663 561.698 358.012 561.262 358.012H556.922C556.487 358.012 556.133 357.663 556.133 357.233V354.12C556.134 353.924 556.21 353.734 556.347 353.591L553.916 351.192C553.558 350.84 553.268 350.427 553.059 349.973ZM556.922 357.233H561.262V354.12H556.922V357.233ZM557.211 353.342H560.473V352.618C560.485 351.873 560.241 351.146 559.781 350.555C559.54 350.239 559.212 349.998 558.834 349.862C557.907 349.49 557.055 348.957 556.317 348.29C555.949 347.987 555.417 347.977 555.037 348.265C555.18 348.476 555.344 348.673 555.526 348.853L557.328 350.631C557.477 350.783 557.475 351.026 557.323 351.176C557.171 351.326 556.925 351.328 556.77 351.181L554.968 349.403C554.545 348.987 554.207 348.495 553.973 347.953L553.091 345.923C553.017 345.753 552.847 345.643 552.66 345.643C552.5 345.643 552.352 345.723 552.266 345.855C552.179 345.987 552.167 346.154 552.233 346.297L553.779 349.652C553.949 350.021 554.185 350.356 554.475 350.643L557.211 353.342Z" fill="#660D33"/>
<path d="M559.684 355.288H560.078C560.296 355.288 560.473 355.462 560.473 355.677C560.473 355.892 560.296 356.066 560.078 356.066H559.684C559.466 356.066 559.289 355.892 559.289 355.677C559.289 355.462 559.466 355.288 559.684 355.288Z" fill="#660D33"/>
<path d="M565.365 342.913C565.539 342.784 565.786 342.819 565.917 342.991C566.048 343.163 566.013 343.407 565.838 343.536L564.26 344.703C564.192 344.754 564.109 344.781 564.023 344.781C564.001 344.781 563.979 344.779 563.957 344.775C563.85 344.757 563.755 344.697 563.695 344.608L560.539 339.938C560.46 339.822 560.451 339.674 560.513 339.55C560.576 339.425 560.701 339.343 560.841 339.334C560.982 339.325 561.117 339.391 561.195 339.506L564.12 343.834L565.365 342.913Z" fill="#660D33"/>
</g>
</g>
<path d="M485.134 340.878H487.171L487.171 351H485.134L485.134 340.878ZM489.182 351L489.182 343.762H491.191L491.191 344.784C491.303 344.607 491.447 344.436 491.625 344.273C491.807 344.105 492.035 343.967 492.311 343.86C492.586 343.753 492.913 343.699 493.291 343.699C493.734 343.699 494.147 343.785 494.53 343.958C494.917 344.131 495.23 344.404 495.468 344.777C495.706 345.146 495.825 345.629 495.825 346.226L495.825 351H493.781L493.781 346.478C493.781 346.086 493.664 345.792 493.431 345.596C493.197 345.4 492.913 345.302 492.577 345.302C492.353 345.302 492.136 345.342 491.926 345.421C491.72 345.5 491.552 345.619 491.422 345.778C491.291 345.937 491.226 346.133 491.226 346.366L491.226 351H489.182ZM500.261 351.14C499.757 351.14 499.272 351.058 498.805 350.895C498.339 350.727 497.944 350.466 497.622 350.111C497.3 349.752 497.095 349.287 497.006 348.718H498.777C498.838 348.975 498.948 349.178 499.106 349.327C499.27 349.476 499.454 349.584 499.659 349.649C499.865 349.71 500.061 349.74 500.247 349.74C500.639 349.74 500.954 349.679 501.192 349.558C501.435 349.432 501.556 349.241 501.556 348.984C501.556 348.788 501.484 348.632 501.339 348.515C501.199 348.398 500.966 348.31 500.639 348.249L499.365 347.983C498.726 347.848 498.213 347.619 497.825 347.297C497.438 346.97 497.24 346.508 497.23 345.911C497.23 345.477 497.345 345.087 497.573 344.742C497.807 344.397 498.15 344.124 498.602 343.923C499.055 343.722 499.61 343.622 500.268 343.622C501.16 343.622 501.871 343.818 502.403 344.21C502.94 344.602 503.213 345.155 503.222 345.869H501.514C501.463 345.589 501.323 345.374 501.094 345.225C500.87 345.071 500.588 344.994 500.247 344.994C499.893 344.994 499.601 345.057 499.372 345.183C499.144 345.309 499.029 345.5 499.029 345.757C499.029 345.948 499.123 346.1 499.309 346.212C499.496 346.319 499.785 346.413 500.177 346.492L501.353 346.758C501.759 346.856 502.088 346.991 502.34 347.164C502.597 347.332 502.795 347.516 502.935 347.717C503.075 347.918 503.171 348.121 503.222 348.326C503.278 348.527 503.306 348.709 503.306 348.872C503.306 349.353 503.178 349.763 502.921 350.104C502.665 350.44 502.308 350.697 501.85 350.874C501.393 351.051 500.863 351.14 500.261 351.14ZM507.407 351.14C507.071 351.14 506.74 351.089 506.413 350.986C506.091 350.883 505.797 350.732 505.531 350.531C505.265 350.33 505.051 350.083 504.887 349.789C504.729 349.495 504.649 349.154 504.649 348.767L504.649 343.762H506.693L506.693 348.508C506.693 348.844 506.803 349.119 507.022 349.334C507.242 349.549 507.564 349.656 507.988 349.656C508.39 349.656 508.707 349.553 508.94 349.348C509.178 349.138 509.297 348.846 509.297 348.473L509.297 343.762H511.32L511.32 351H509.78L509.542 349.565C509.458 349.99 509.3 350.316 509.066 350.545C508.838 350.769 508.574 350.923 508.275 351.007C507.981 351.096 507.692 351.14 507.407 351.14ZM513.025 351L513.025 343.762H514.992L514.992 345.477C515.109 345.108 515.272 344.786 515.482 344.511C515.697 344.231 515.956 344.014 516.259 343.86C516.563 343.701 516.906 343.622 517.288 343.622C517.354 343.622 517.414 343.627 517.47 343.636C517.531 343.641 517.575 343.65 517.603 343.664L517.603 345.61C517.561 345.591 517.51 345.58 517.449 345.575C517.393 345.57 517.342 345.566 517.295 345.561C516.894 345.528 516.551 345.54 516.266 345.596C515.982 345.652 515.751 345.748 515.573 345.883C515.396 346.018 515.268 346.184 515.188 346.38C515.109 346.576 515.069 346.795 515.069 347.038L515.069 351H513.025ZM520.731 351.14C520.269 351.14 519.854 351.054 519.485 350.881C519.116 350.708 518.825 350.459 518.61 350.132C518.395 349.801 518.288 349.399 518.288 348.928C518.288 348.135 518.584 347.533 519.177 347.122C519.77 346.707 520.705 346.492 521.984 346.478L522.887 346.464L522.887 346.03C522.887 345.699 522.789 345.444 522.593 345.267C522.402 345.085 522.103 344.996 521.697 345.001C521.398 345.006 521.114 345.076 520.843 345.211C520.577 345.346 520.395 345.582 520.297 345.918H518.596C518.624 345.395 518.776 344.966 519.051 344.63C519.326 344.289 519.7 344.037 520.171 343.874C520.647 343.706 521.186 343.622 521.788 343.622C522.53 343.622 523.125 343.715 523.573 343.902C524.021 344.084 524.345 344.348 524.546 344.693C524.747 345.034 524.847 345.44 524.847 345.911L524.847 351H523.139L522.971 349.754C522.724 350.277 522.413 350.638 522.04 350.839C521.671 351.04 521.235 351.14 520.731 351.14ZM521.417 349.796C521.604 349.796 521.783 349.763 521.956 349.698C522.133 349.628 522.29 349.537 522.425 349.425C522.565 349.308 522.677 349.178 522.761 349.033C522.845 348.888 522.887 348.739 522.887 348.585L522.887 347.514L522.152 347.528C521.811 347.533 521.494 347.575 521.2 347.654C520.906 347.729 520.668 347.852 520.486 348.025C520.309 348.198 520.22 348.431 520.22 348.725C520.22 349.061 520.337 349.325 520.57 349.516C520.803 349.703 521.086 349.796 521.417 349.796ZM526.656 351L526.656 343.762H528.665L528.665 344.784C528.777 344.607 528.922 344.436 529.099 344.273C529.281 344.105 529.51 343.967 529.785 343.86C530.061 343.753 530.387 343.699 530.765 343.699C531.209 343.699 531.622 343.785 532.004 343.958C532.392 344.131 532.704 344.404 532.942 344.777C533.18 345.146 533.299 345.629 533.299 346.226L533.299 351H531.255L531.255 346.478C531.255 346.086 531.139 345.792 530.905 345.596C530.672 345.4 530.387 345.302 530.051 345.302C529.827 345.302 529.61 345.342 529.4 345.421C529.195 345.5 529.027 345.619 528.896 345.778C528.766 345.937 528.7 346.133 528.7 346.366L528.7 351H526.656ZM538.056 343.622C538.663 343.622 539.185 343.746 539.624 343.993C540.067 344.24 540.415 344.574 540.667 344.994C540.924 345.414 541.071 345.883 541.108 346.401H539.407C539.374 346.21 539.307 346.021 539.204 345.834C539.101 345.643 538.957 345.486 538.77 345.365C538.583 345.239 538.35 345.176 538.07 345.176C537.594 345.176 537.207 345.36 536.908 345.729C536.614 346.093 536.467 346.648 536.467 347.395C536.467 348.1 536.612 348.66 536.901 349.075C537.19 349.486 537.594 349.691 538.112 349.691C538.387 349.691 538.616 349.623 538.798 349.488C538.985 349.353 539.129 349.192 539.232 349.005C539.335 348.814 539.4 348.636 539.428 348.473H541.087C541.054 348.972 540.91 349.425 540.653 349.831C540.396 350.232 540.046 350.552 539.603 350.79C539.164 351.023 538.649 351.14 538.056 351.14C537.384 351.14 536.784 350.991 536.257 350.692C535.73 350.393 535.314 349.966 535.011 349.411C534.712 348.851 534.563 348.184 534.563 347.409C534.563 346.662 534.708 346.004 534.997 345.435C535.286 344.866 535.692 344.422 536.215 344.105C536.742 343.783 537.356 343.622 538.056 343.622ZM544.196 347.85C544.191 348.219 544.249 348.541 544.371 348.816C544.492 349.087 544.667 349.297 544.896 349.446C545.129 349.591 545.409 349.663 545.736 349.663C546.086 349.663 546.391 349.588 546.653 349.439C546.919 349.29 547.103 349.045 547.206 348.704H549.047C548.967 349.217 548.762 349.656 548.431 350.02C548.104 350.384 547.707 350.662 547.241 350.853C546.774 351.044 546.289 351.14 545.785 351.14C545.071 351.14 544.441 350.991 543.895 350.692C543.353 350.389 542.931 349.962 542.628 349.411C542.324 348.86 542.173 348.212 542.173 347.465C542.173 346.742 542.31 346.091 542.586 345.512C542.861 344.929 543.26 344.469 543.783 344.133C544.31 343.792 544.942 343.622 545.68 343.622C546.417 343.622 547.035 343.778 547.535 344.091C548.039 344.399 548.417 344.831 548.669 345.386C548.925 345.937 549.054 346.574 549.054 347.297L549.054 347.85H544.196ZM544.189 346.632H547.143C547.143 346.343 547.089 346.077 546.982 345.834C546.874 345.591 546.711 345.4 546.492 345.26C546.277 345.12 546.006 345.05 545.68 345.05C545.362 345.05 545.092 345.127 544.868 345.281C544.648 345.43 544.48 345.626 544.364 345.869C544.247 346.112 544.189 346.366 544.189 346.632Z" fill="black"/>
</g>
<g filter="url(#filter5_di_213_24670)">
<rect width="148.727" height="49.9464" rx="16" transform="matrix(1 0 0.0100007 0.99995 477.799 215.803)" fill="white" shape-rendering="crispEdges"/>
<g clip-path="url(#clip2_213_24670)">
<g clip-path="url(#clip3_213_24670)">
<g clip-path="url(#clip4_213_24670)">
<path d="M594.611 247.165L594.428 243.044L595.177 243.004L595.36 247.124L597.607 247.003L597.54 245.504L598.289 245.463L598.355 246.962L600.602 246.84L600.02 233.728L594.777 234.012L595.144 242.254L594.395 242.295L594.012 233.678C594.007 233.579 594.043 233.482 594.11 233.408C594.177 233.333 594.27 233.289 594.37 233.283L594.744 233.263L594.694 232.139C594.69 232.04 594.725 231.942 594.792 231.868C594.859 231.794 594.953 231.75 595.052 231.744L596.924 231.643L596.858 230.144L597.607 230.104L597.673 231.602L599.545 231.5C599.645 231.495 599.742 231.529 599.815 231.596C599.888 231.662 599.932 231.755 599.936 231.855L599.986 232.979L600.361 232.958C600.46 232.953 600.557 232.987 600.63 233.054C600.704 233.12 600.747 233.213 600.752 233.313L600.852 235.56L602.724 235.459C602.773 235.456 602.822 235.463 602.869 235.48C602.915 235.496 602.957 235.521 602.994 235.554L606.122 238.389C606.159 238.422 606.188 238.461 606.209 238.506C606.23 238.55 606.242 238.599 606.244 238.648L606.341 240.83L608.267 239.004C608.333 238.942 608.418 238.905 608.507 238.901C608.597 238.896 608.684 238.923 608.755 238.977L611.476 241.083C611.518 241.116 611.553 241.158 611.578 241.206C611.603 241.254 611.617 241.306 611.619 241.36L611.69 242.946L612.96 242.092C613.017 242.054 613.082 242.032 613.15 242.028C613.218 242.025 613.286 242.04 613.345 242.071L615.268 243.094C615.324 243.124 615.372 243.168 615.407 243.223C615.441 243.278 615.461 243.34 615.464 243.405L615.58 246.027L616.329 245.987L616.362 246.736L614.386 246.843C613.42 248.401 612.092 249.704 610.517 250.64C608.942 251.576 607.167 252.117 605.345 252.216C603.523 252.315 601.709 251.969 600.058 251.208C598.408 250.447 596.971 249.294 595.872 247.848L593.895 247.955L593.862 247.206L594.611 247.165ZM599.204 232.27L595.46 232.473L595.493 233.222L599.237 233.019L599.204 232.27ZM600.997 247.57C601.355 248.207 601.765 248.813 602.224 249.381L608.2 249.057C608.606 248.441 608.961 247.794 609.261 247.121L600.997 247.57ZM605.502 238.844L602.602 236.217L600.885 236.31L601.351 246.799L603.223 246.698L603.157 245.199L603.906 245.159L603.972 246.657L605.844 246.556L605.502 238.844ZM610.878 241.573L608.546 239.769L606.385 241.817L606.593 246.515L608.466 246.413L608.399 244.915L609.148 244.874L609.214 246.373L611.087 246.271L610.878 241.573ZM614.724 243.658L613.186 242.84L611.729 243.82L611.836 246.231L612.959 246.17L612.892 244.671L613.641 244.63L613.708 246.129L614.831 246.068L614.724 243.658ZM613.461 246.893L610.094 247.076C609.817 247.743 609.49 248.389 609.115 249.007L611.701 248.867C612.367 248.284 612.958 247.621 613.461 246.893V246.893ZM608.607 249.786C608.285 250.245 607.935 250.684 607.558 251.1C608.658 250.795 609.703 250.314 610.651 249.675L608.607 249.786ZM606.235 251.376C606.746 250.903 607.217 250.389 607.642 249.838L602.849 250.098C603.321 250.6 603.835 251.061 604.385 251.476C604.692 251.486 605.001 251.483 605.312 251.466C605.623 251.45 605.93 251.419 606.235 251.376L606.235 251.376ZM601.884 250.15L599.84 250.261C600.84 250.795 601.922 251.161 603.044 251.344C602.632 250.971 602.245 250.572 601.884 250.15V250.15ZM598.723 249.571L601.309 249.43C600.881 248.856 600.499 248.249 600.164 247.615L596.797 247.798C597.362 248.468 598.009 249.063 598.723 249.571V249.571Z" fill="#660D33"/>
<path d="M610.156 242.191L609.407 242.232L609.49 244.105L610.239 244.065L610.156 242.191Z" fill="#660D33"/>
<path d="M607.908 242.313L607.159 242.354L607.242 244.227L607.991 244.186L607.908 242.313Z" fill="#660D33"/>
<path d="M604.912 242.475L604.163 242.516L604.246 244.389L604.995 244.348L604.912 242.475Z" fill="#660D33"/>
<path d="M602.666 242.597L601.917 242.637L602 244.51L602.749 244.47L602.666 242.597Z" fill="#660D33"/>
<path d="M604.797 239.852L604.048 239.893L604.131 241.766L604.88 241.725L604.797 239.852Z" fill="#660D33"/>
<path d="M602.549 239.975L601.8 240.015L601.883 241.888L602.632 241.848L602.549 239.975Z" fill="#660D33"/>
<path d="M599.555 240.138L598.806 240.179L598.889 242.052L599.638 242.011L599.555 240.138Z" fill="#660D33"/>
<path d="M598.055 240.218L597.306 240.259L597.389 242.132L598.138 242.091L598.055 240.218Z" fill="#660D33"/>
<path d="M599.439 237.515L598.69 237.556L598.774 239.429L599.523 239.388L599.439 237.515Z" fill="#660D33"/>
<path d="M597.941 237.597L597.192 237.637L597.276 239.51L598.025 239.47L597.941 237.597Z" fill="#660D33"/>
<path d="M599.322 234.893L598.573 234.933L598.656 236.807L599.405 236.766L599.322 234.893Z" fill="#660D33"/>
<path d="M597.822 234.974L597.073 235.015L597.156 236.888L597.905 236.847L597.822 234.974Z" fill="#660D33"/>
<path d="M596.559 240.3L595.81 240.341L595.893 242.214L596.642 242.173L596.559 240.3Z" fill="#660D33"/>
<path d="M599.67 242.76L598.921 242.8L599.004 244.674L599.753 244.633L599.67 242.76Z" fill="#660D33"/>
<path d="M598.174 242.84L597.425 242.881L597.508 244.754L598.257 244.713L598.174 242.84Z" fill="#660D33"/>
<path d="M596.674 242.922L595.925 242.963L596.008 244.836L596.757 244.796L596.674 242.922Z" fill="#660D33"/>
<path d="M596.441 237.678L595.692 237.718L595.776 239.592L596.525 239.551L596.441 237.678Z" fill="#660D33"/>
<path d="M596.324 235.055L595.575 235.096L595.658 236.969L596.407 236.928L596.324 235.055Z" fill="#660D33"/>
<path d="M602.434 237.352L601.685 237.393L601.768 239.266L602.517 239.225L602.434 237.352Z" fill="#660D33"/>
<path d="M615.886 241.098C615.82 241.131 615.747 241.143 615.674 241.135C615.602 241.126 615.534 241.097 615.478 241.05L609.88 236.322L607.961 238.092C607.89 238.158 607.797 238.193 607.701 238.192C607.604 238.191 607.513 238.153 607.444 238.086L602.962 233.683L602.13 234.301C602.078 234.34 602.017 234.365 601.953 234.373C601.888 234.381 601.823 234.373 601.764 234.348C601.704 234.324 601.652 234.284 601.612 234.234C601.573 234.183 601.547 234.122 601.538 234.059L600.997 230.333C600.988 230.272 600.994 230.209 601.015 230.151C601.036 230.093 601.071 230.041 601.117 229.999C601.162 229.957 601.218 229.927 601.277 229.912C601.337 229.896 601.4 229.896 601.459 229.91L605.254 230.831C605.323 230.848 605.385 230.884 605.434 230.935C605.483 230.986 605.516 231.051 605.53 231.12C605.544 231.19 605.537 231.262 605.511 231.329C605.485 231.396 605.441 231.454 605.384 231.496L604.643 232.047L607.623 235.049L609.519 233.3C609.587 233.237 609.675 233.202 609.766 233.199C609.857 233.197 609.946 233.228 610.015 233.287L612.104 235.051L611.618 235.626L609.78 234.075L607.861 235.844C607.789 235.91 607.695 235.946 607.598 235.945C607.501 235.943 607.409 235.904 607.341 235.835L603.805 232.272C603.767 232.234 603.738 232.188 603.72 232.137C603.701 232.087 603.694 232.033 603.698 231.979C603.703 231.926 603.719 231.873 603.745 231.826C603.771 231.779 603.807 231.738 603.85 231.706L604.298 231.373L601.819 230.771L602.19 233.327L602.777 232.89C602.849 232.837 602.937 232.811 603.026 232.816C603.115 232.822 603.199 232.86 603.262 232.922L607.719 237.3L609.619 235.547C609.687 235.485 609.774 235.45 609.866 235.447C609.957 235.445 610.046 235.476 610.115 235.534L615.309 239.92L615.254 238.698L612.259 236.168L612.745 235.592L615.865 238.227C615.904 238.26 615.936 238.301 615.959 238.347C615.981 238.393 615.994 238.443 615.996 238.494L616.096 240.742C616.099 240.815 616.081 240.888 616.044 240.951C616.007 241.014 615.952 241.065 615.886 241.098V241.098Z" fill="#660D33"/>
</g>
</g>
</g>
<path d="M493.257 235.738C494.018 235.738 494.694 235.892 495.287 236.2C495.884 236.503 496.365 236.919 496.729 237.446C497.098 237.973 497.315 238.568 497.38 239.231H495.238C495.173 238.881 495.054 238.571 494.881 238.3C494.708 238.025 494.482 237.81 494.202 237.656C493.922 237.497 493.586 237.418 493.194 237.418C492.723 237.418 492.317 237.532 491.976 237.761C491.635 237.99 491.374 238.358 491.192 238.867C491.01 239.376 490.919 240.048 490.919 240.883C490.919 242.143 491.12 243.055 491.521 243.62C491.927 244.18 492.485 244.46 493.194 244.46C493.586 244.46 493.922 244.371 494.202 244.194C494.482 244.012 494.708 243.774 494.881 243.48C495.054 243.181 495.173 242.855 495.238 242.5H497.38C497.319 242.981 497.203 243.44 497.03 243.879C496.857 244.313 496.612 244.7 496.295 245.041C495.978 245.382 495.569 245.65 495.07 245.846C494.571 246.042 493.966 246.14 493.257 246.14C492.314 246.14 491.5 245.921 490.814 245.482C490.128 245.043 489.598 244.427 489.225 243.634C488.856 242.841 488.672 241.914 488.672 240.855C488.672 239.791 488.856 238.879 489.225 238.118C489.594 237.353 490.121 236.765 490.807 236.354C491.493 235.943 492.31 235.738 493.257 235.738ZM502.059 246.14C501.35 246.14 500.732 245.988 500.204 245.685C499.682 245.382 499.276 244.952 498.986 244.397C498.702 243.842 498.559 243.184 498.559 242.423C498.559 241.662 498.702 240.997 498.986 240.428C499.276 239.859 499.682 239.415 500.204 239.098C500.732 238.781 501.352 238.622 502.066 238.622C502.78 238.622 503.399 238.778 503.921 239.091C504.444 239.399 504.848 239.838 505.132 240.407C505.417 240.976 505.559 241.648 505.559 242.423C505.559 243.151 505.419 243.795 505.139 244.355C504.864 244.91 504.465 245.347 503.942 245.664C503.424 245.981 502.797 246.14 502.059 246.14ZM502.066 244.621C502.426 244.621 502.715 244.516 502.934 244.306C503.154 244.096 503.312 243.821 503.41 243.48C503.513 243.135 503.564 242.759 503.564 242.353C503.564 241.97 503.518 241.609 503.424 241.268C503.336 240.927 503.182 240.652 502.962 240.442C502.743 240.232 502.444 240.127 502.066 240.127C501.707 240.127 501.415 240.227 501.191 240.428C500.972 240.624 500.811 240.892 500.708 241.233C500.606 241.569 500.554 241.942 500.554 242.353C500.554 242.731 500.601 243.095 500.694 243.445C500.788 243.79 500.944 244.073 501.163 244.292C501.383 244.511 501.684 244.621 502.066 244.621ZM506.922 246L506.922 238.762H508.924L508.924 239.784C509.143 239.467 509.437 239.194 509.806 238.965C510.179 238.736 510.648 238.622 511.213 238.622C511.46 238.622 511.712 238.666 511.969 238.755C512.226 238.844 512.466 238.974 512.69 239.147C512.919 239.315 513.103 239.527 513.243 239.784C513.476 239.453 513.782 239.177 514.16 238.958C514.543 238.734 514.967 238.622 515.434 238.622C515.705 238.622 515.978 238.666 516.253 238.755C516.533 238.844 516.79 238.988 517.023 239.189C517.256 239.39 517.443 239.658 517.583 239.994C517.728 240.325 517.8 240.736 517.8 241.226L517.8 246H515.756L515.756 241.478C515.756 241.189 515.698 240.958 515.581 240.785C515.469 240.608 515.324 240.482 515.147 240.407C514.974 240.328 514.79 240.288 514.594 240.288C514.412 240.288 514.228 240.325 514.041 240.4C513.854 240.47 513.696 240.584 513.565 240.743C513.434 240.902 513.369 241.109 513.369 241.366L513.369 246H511.332L511.332 241.296C511.332 241.077 511.274 240.892 511.157 240.743C511.04 240.594 510.893 240.482 510.716 240.407C510.543 240.328 510.366 240.288 510.184 240.288C509.997 240.288 509.811 240.328 509.624 240.407C509.437 240.482 509.281 240.601 509.155 240.764C509.029 240.923 508.966 241.123 508.966 241.366L508.966 246H506.922ZM519.459 248.254L519.459 238.762H521.51L521.517 239.805C521.624 239.632 521.755 239.476 521.909 239.336C522.068 239.191 522.243 239.065 522.434 238.958C522.625 238.851 522.833 238.769 523.057 238.713C523.281 238.652 523.517 238.622 523.764 238.622C524.301 238.622 524.779 238.755 525.199 239.021C525.619 239.282 525.948 239.688 526.186 240.239C526.429 240.785 526.55 241.48 526.55 242.325C526.55 243.202 526.419 243.923 526.158 244.488C525.901 245.048 525.547 245.463 525.094 245.734C524.641 246.005 524.13 246.14 523.561 246.14C523.328 246.14 523.108 246.107 522.903 246.042C522.698 245.981 522.506 245.895 522.329 245.783C522.156 245.671 522 245.543 521.86 245.398C521.725 245.249 521.606 245.088 521.503 244.915L521.503 248.254H519.459ZM523.071 244.642C523.514 244.642 523.885 244.458 524.184 244.089C524.487 243.72 524.639 243.137 524.639 242.339C524.639 241.639 524.494 241.093 524.205 240.701C523.92 240.304 523.542 240.106 523.071 240.106C522.544 240.106 522.149 240.321 521.888 240.75C521.631 241.175 521.503 241.704 521.503 242.339C521.503 242.745 521.559 243.123 521.671 243.473C521.788 243.823 521.96 244.105 522.189 244.32C522.422 244.535 522.716 244.642 523.071 244.642ZM529.967 246.14C529.505 246.14 529.09 246.054 528.721 245.881C528.353 245.708 528.061 245.459 527.846 245.132C527.632 244.801 527.524 244.399 527.524 243.928C527.524 243.135 527.821 242.533 528.413 242.122C529.006 241.707 529.942 241.492 531.22 241.478L532.123 241.464L532.123 241.03C532.123 240.699 532.025 240.444 531.829 240.267C531.638 240.085 531.339 239.996 530.933 240.001C530.635 240.006 530.35 240.076 530.079 240.211C529.813 240.346 529.631 240.582 529.533 240.918H527.832C527.86 240.395 528.012 239.966 528.287 239.63C528.563 239.289 528.936 239.037 529.407 238.874C529.883 238.706 530.422 238.622 531.024 238.622C531.766 238.622 532.361 238.715 532.809 238.902C533.257 239.084 533.582 239.348 533.782 239.693C533.983 240.034 534.083 240.44 534.083 240.911L534.083 246H532.375L532.207 244.754C531.96 245.277 531.65 245.638 531.276 245.839C530.908 246.04 530.471 246.14 529.967 246.14ZM530.653 244.796C530.84 244.796 531.02 244.763 531.192 244.698C531.37 244.628 531.526 244.537 531.661 244.425C531.801 244.308 531.913 244.178 531.997 244.033C532.081 243.888 532.123 243.739 532.123 243.585L532.123 242.514L531.388 242.528C531.048 242.533 530.73 242.575 530.436 242.654C530.142 242.729 529.904 242.852 529.722 243.025C529.545 243.198 529.456 243.431 529.456 243.725C529.456 244.061 529.573 244.325 529.806 244.516C530.04 244.703 530.322 244.796 530.653 244.796ZM535.893 246L535.893 238.762H537.902L537.902 239.784C538.014 239.607 538.158 239.436 538.336 239.273C538.518 239.105 538.746 238.967 539.022 238.86C539.297 238.753 539.624 238.699 540.002 238.699C540.445 238.699 540.858 238.785 541.241 238.958C541.628 239.131 541.941 239.404 542.179 239.777C542.417 240.146 542.536 240.629 542.536 241.226L542.536 246H540.492L540.492 241.478C540.492 241.086 540.375 240.792 540.142 240.596C539.908 240.4 539.624 240.302 539.288 240.302C539.064 240.302 538.847 240.342 538.637 240.421C538.431 240.5 538.263 240.619 538.133 240.778C538.002 240.937 537.937 241.133 537.937 241.366L537.937 246H535.893ZM546.249 238.762L546.249 246H544.296L544.296 238.762H546.249ZM546.27 235.885L546.27 237.726H544.282L544.282 235.885H546.27ZM549.782 242.85C549.777 243.219 549.835 243.541 549.957 243.816C550.078 244.087 550.253 244.297 550.482 244.446C550.715 244.591 550.995 244.663 551.322 244.663C551.672 244.663 551.977 244.588 552.239 244.439C552.505 244.29 552.689 244.045 552.792 243.704H554.633C554.553 244.217 554.348 244.656 554.017 245.02C553.69 245.384 553.293 245.662 552.827 245.853C552.36 246.044 551.875 246.14 551.371 246.14C550.657 246.14 550.027 245.991 549.481 245.692C548.939 245.389 548.517 244.962 548.214 244.411C547.91 243.86 547.759 243.212 547.759 242.465C547.759 241.742 547.896 241.091 548.172 240.512C548.447 239.929 548.846 239.469 549.369 239.133C549.896 238.792 550.528 238.622 551.266 238.622C552.003 238.622 552.621 238.778 553.121 239.091C553.625 239.399 554.003 239.831 554.255 240.386C554.511 240.937 554.64 241.574 554.64 242.297L554.64 242.85H549.782ZM549.775 241.632H552.729C552.729 241.343 552.675 241.077 552.568 240.834C552.46 240.591 552.297 240.4 552.078 240.26C551.863 240.12 551.592 240.05 551.266 240.05C550.948 240.05 550.678 240.127 550.454 240.281C550.234 240.43 550.066 240.626 549.95 240.869C549.833 241.112 549.775 241.366 549.775 241.632ZM558.908 246.14C558.404 246.14 557.919 246.058 557.452 245.895C556.985 245.727 556.591 245.466 556.269 245.111C555.947 244.752 555.742 244.287 555.653 243.718H557.424C557.485 243.975 557.594 244.178 557.753 244.327C557.916 244.476 558.101 244.584 558.306 244.649C558.511 244.71 558.707 244.74 558.894 244.74C559.286 244.74 559.601 244.679 559.839 244.558C560.082 244.432 560.203 244.241 560.203 243.984C560.203 243.788 560.131 243.632 559.986 243.515C559.846 243.398 559.613 243.31 559.286 243.249L558.012 242.983C557.373 242.848 556.859 242.619 556.472 242.297C556.085 241.97 555.886 241.508 555.877 240.911C555.877 240.477 555.991 240.087 556.22 239.742C556.453 239.397 556.796 239.124 557.249 238.923C557.702 238.722 558.257 238.622 558.915 238.622C559.806 238.622 560.518 238.818 561.05 239.21C561.587 239.602 561.86 240.155 561.869 240.869H560.161C560.11 240.589 559.97 240.374 559.741 240.225C559.517 240.071 559.235 239.994 558.894 239.994C558.539 239.994 558.248 240.057 558.019 240.183C557.79 240.309 557.676 240.5 557.676 240.757C557.676 240.948 557.769 241.1 557.956 241.212C558.143 241.319 558.432 241.413 558.824 241.492L560 241.758C560.406 241.856 560.735 241.991 560.987 242.164C561.244 242.332 561.442 242.516 561.582 242.717C561.722 242.918 561.818 243.121 561.869 243.326C561.925 243.527 561.953 243.709 561.953 243.872C561.953 244.353 561.825 244.763 561.568 245.104C561.311 245.44 560.954 245.697 560.497 245.874C560.04 246.051 559.51 246.14 558.908 246.14ZM566.517 235.878H568.554L568.554 246H566.517L566.517 235.878ZM570.564 246L570.564 238.762H572.573L572.573 239.784C572.685 239.607 572.83 239.436 573.007 239.273C573.189 239.105 573.418 238.967 573.693 238.86C573.969 238.753 574.295 238.699 574.673 238.699C575.117 238.699 575.53 238.785 575.912 238.958C576.3 239.131 576.612 239.404 576.85 239.777C577.088 240.146 577.207 240.629 577.207 241.226L577.207 246H575.163L575.163 241.478C575.163 241.086 575.047 240.792 574.813 240.596C574.58 240.4 574.295 240.302 573.959 240.302C573.735 240.302 573.518 240.342 573.308 240.421C573.103 240.5 572.935 240.619 572.804 240.778C572.674 240.937 572.608 241.133 572.608 241.366L572.608 246H570.564ZM581.644 246.14C581.14 246.14 580.655 246.058 580.188 245.895C579.722 245.727 579.327 245.466 579.005 245.111C578.683 244.752 578.478 244.287 578.389 243.718H580.16C580.221 243.975 580.331 244.178 580.489 244.327C580.653 244.476 580.837 244.584 581.042 244.649C581.248 244.71 581.444 244.74 581.63 244.74C582.022 244.74 582.337 244.679 582.575 244.558C582.818 244.432 582.939 244.241 582.939 243.984C582.939 243.788 582.867 243.632 582.722 243.515C582.582 243.398 582.349 243.31 582.022 243.249L580.748 242.983C580.109 242.848 579.596 242.619 579.208 242.297C578.821 241.97 578.623 241.508 578.613 240.911C578.613 240.477 578.728 240.087 578.956 239.742C579.19 239.397 579.533 239.124 579.985 238.923C580.438 238.722 580.993 238.622 581.651 238.622C582.543 238.622 583.254 238.818 583.786 239.21C584.323 239.602 584.596 240.155 584.605 240.869H582.897C582.846 240.589 582.706 240.374 582.477 240.225C582.253 240.071 581.971 239.994 581.63 239.994C581.276 239.994 580.984 240.057 580.755 240.183C580.527 240.309 580.412 240.5 580.412 240.757C580.412 240.948 580.506 241.1 580.692 241.212C580.879 241.319 581.168 241.413 581.56 241.492L582.736 241.758C583.142 241.856 583.471 241.991 583.723 242.164C583.98 242.332 584.178 242.516 584.318 242.717C584.458 242.918 584.554 243.121 584.605 243.326C584.661 243.527 584.689 243.709 584.689 243.872C584.689 244.353 584.561 244.763 584.304 245.104C584.048 245.44 583.691 245.697 583.233 245.874C582.776 246.051 582.246 246.14 581.644 246.14ZM585.941 246L585.941 243.774H588.181L588.181 246H585.941Z" fill="black"/>
</g>
<g filter="url(#filter6_di_213_24670)">
<rect width="158" height="48" rx="16" transform="matrix(1 0 -0.00557708 0.999985 425.922 110)" fill="white" shape-rendering="crispEdges"/>
<g clip-path="url(#clip5_213_24670)">
<g clip-path="url(#clip6_213_24670)">
<g clip-path="url(#clip7_213_24670)">
<path d="M571.657 131.975L560.331 126.197C560.22 126.14 560.088 126.14 559.977 126.197L548.721 131.975C548.598 132.038 548.523 132.16 548.523 132.293C548.524 132.427 548.601 132.549 548.724 132.612L551.923 134.243L551.95 138.793H552.703L552.678 134.629L553.81 135.206L553.824 137.4C553.177 137.562 552.699 138.122 552.703 138.793C552.705 139.124 552.827 139.424 553.024 139.668C552.822 140.342 552.716 141.037 552.721 141.741L552.727 142.766C552.728 142.903 552.809 143.028 552.937 143.089L553.354 143.289C553.627 143.419 553.932 143.488 554.237 143.488C554.541 143.488 554.845 143.419 555.117 143.288L555.532 143.089C555.659 143.028 555.739 142.903 555.738 142.766L555.732 141.741C555.727 141.037 555.613 140.342 555.404 139.668C555.597 139.424 555.716 139.124 555.714 138.793C555.71 138.122 555.225 137.562 554.576 137.4L554.565 135.592L560.051 138.39C560.106 138.418 560.167 138.432 560.228 138.432C560.289 138.432 560.35 138.418 560.405 138.39L567.733 134.629L567.757 138.615C565.672 140.129 563.092 140.96 560.469 140.96H560.018C558.726 140.96 557.448 140.763 556.218 140.375L555.986 141.061C557.292 141.473 558.65 141.682 560.022 141.682H560.473C563.323 141.682 566.127 140.758 568.367 139.078C568.458 139.01 568.511 138.905 568.51 138.793L568.483 134.243L571.661 132.612C571.784 132.549 571.859 132.427 571.858 132.293C571.858 132.16 571.781 132.038 571.657 131.975V131.975ZM554.984 142.543L554.776 142.642C554.44 142.804 554.024 142.804 553.687 142.642L553.478 142.543L553.473 141.741C553.47 141.198 553.536 140.66 553.668 140.135C553.839 140.2 554.023 140.238 554.217 140.238C554.411 140.238 554.595 140.2 554.764 140.135C554.904 140.66 554.976 141.198 554.979 141.741L554.984 142.543ZM554.961 138.793C554.963 139.192 554.628 139.516 554.213 139.516C553.798 139.516 553.458 139.192 553.456 138.793C553.453 138.395 553.789 138.071 554.204 138.071C554.619 138.071 554.959 138.395 554.961 138.793ZM560.223 137.662L554.82 134.905L559.469 132.519C559.683 132.603 559.927 132.654 560.193 132.654C561.037 132.654 561.696 132.178 561.692 131.571C561.688 130.964 561.024 130.488 560.18 130.488C559.336 130.488 558.677 130.964 558.681 131.571C558.682 131.736 558.735 131.89 558.824 132.029L554.018 134.496L549.7 132.293L560.159 126.924L570.682 132.293L560.223 137.662ZM559.434 131.571C559.433 131.424 559.725 131.21 560.184 131.21C560.644 131.21 560.938 131.424 560.939 131.571C560.94 131.718 560.648 131.932 560.189 131.932C559.729 131.932 559.435 131.718 559.434 131.571Z" fill="#660D33"/>
</g>
</g>
</g>
<path d="M451.233 135.143C451.233 135.96 451.1 136.669 450.834 137.271C450.568 137.868 450.136 138.33 449.539 138.657C448.946 138.979 448.16 139.14 447.18 139.14C446.195 139.14 445.407 138.977 444.814 138.65C444.221 138.319 443.792 137.85 443.526 137.243C443.265 136.636 443.134 135.913 443.134 135.073L443.134 128.878H445.213L445.213 135.227C445.213 135.983 445.395 136.536 445.759 136.886C446.123 137.231 446.597 137.404 447.18 137.404C447.567 137.404 447.91 137.329 448.209 137.18C448.508 137.026 448.741 136.79 448.909 136.473C449.082 136.151 449.168 135.736 449.168 135.227L449.168 128.878H451.233L451.233 135.143ZM453.006 139L453.006 131.762H455.015L455.015 132.784C455.127 132.607 455.272 132.436 455.449 132.273C455.631 132.105 455.86 131.967 456.135 131.86C456.41 131.753 456.737 131.699 457.115 131.699C457.558 131.699 457.971 131.785 458.354 131.958C458.741 132.131 459.054 132.404 459.292 132.777C459.53 133.146 459.649 133.629 459.649 134.226L459.649 139H457.605L457.605 134.478C457.605 134.086 457.488 133.792 457.255 133.596C457.022 133.4 456.737 133.302 456.401 133.302C456.177 133.302 455.96 133.342 455.75 133.421C455.545 133.5 455.377 133.619 455.246 133.778C455.115 133.937 455.05 134.133 455.05 134.366L455.05 139H453.006ZM463.363 131.762L463.363 139H461.41L461.41 131.762H463.363ZM463.384 128.885L463.384 130.726H461.396L461.396 128.885H463.384ZM471.438 131.762L468.722 139H467.245L464.522 131.762H466.37L467.952 136.375H468.008L469.569 131.762H471.438ZM473.868 135.85C473.863 136.219 473.921 136.541 474.043 136.816C474.164 137.087 474.339 137.297 474.568 137.446C474.801 137.591 475.081 137.663 475.408 137.663C475.758 137.663 476.063 137.588 476.325 137.439C476.591 137.29 476.775 137.045 476.878 136.704H478.719C478.639 137.217 478.434 137.656 478.103 138.02C477.776 138.384 477.379 138.662 476.913 138.853C476.446 139.044 475.961 139.14 475.457 139.14C474.743 139.14 474.113 138.991 473.567 138.692C473.025 138.389 472.603 137.962 472.3 137.411C471.996 136.86 471.845 136.212 471.845 135.465C471.845 134.742 471.982 134.091 472.258 133.512C472.533 132.929 472.932 132.469 473.455 132.133C473.982 131.792 474.614 131.622 475.352 131.622C476.089 131.622 476.707 131.778 477.207 132.091C477.711 132.399 478.089 132.831 478.341 133.386C478.597 133.937 478.726 134.574 478.726 135.297L478.726 135.85H473.868ZM473.861 134.632H476.815C476.815 134.343 476.761 134.077 476.654 133.834C476.546 133.591 476.383 133.4 476.164 133.26C475.949 133.12 475.678 133.05 475.352 133.05C475.034 133.05 474.764 133.127 474.54 133.281C474.32 133.43 474.152 133.626 474.036 133.869C473.919 134.112 473.861 134.366 473.861 134.632ZM480.145 139L480.145 131.762H482.112L482.112 133.477C482.228 133.108 482.392 132.786 482.602 132.511C482.816 132.231 483.075 132.014 483.379 131.86C483.682 131.701 484.025 131.622 484.408 131.622C484.473 131.622 484.534 131.627 484.59 131.636C484.65 131.641 484.695 131.65 484.723 131.664L484.723 133.61C484.681 133.591 484.629 133.58 484.569 133.575C484.513 133.57 484.461 133.566 484.415 133.561C484.013 133.528 483.67 133.54 483.386 133.596C483.101 133.652 482.87 133.748 482.693 133.883C482.515 134.018 482.387 134.184 482.308 134.38C482.228 134.576 482.189 134.795 482.189 135.038L482.189 139H480.145ZM488.681 139.14C488.177 139.14 487.692 139.058 487.225 138.895C486.759 138.727 486.364 138.466 486.042 138.111C485.72 137.752 485.515 137.287 485.426 136.718H487.197C487.258 136.975 487.368 137.178 487.526 137.327C487.69 137.476 487.874 137.584 488.079 137.649C488.285 137.71 488.481 137.74 488.667 137.74C489.059 137.74 489.374 137.679 489.612 137.558C489.855 137.432 489.976 137.241 489.976 136.984C489.976 136.788 489.904 136.632 489.759 136.515C489.619 136.398 489.386 136.31 489.059 136.249L487.785 135.983C487.146 135.848 486.633 135.619 486.245 135.297C485.858 134.97 485.66 134.508 485.65 133.911C485.65 133.477 485.765 133.087 485.993 132.742C486.227 132.397 486.57 132.124 487.022 131.923C487.475 131.722 488.03 131.622 488.688 131.622C489.58 131.622 490.291 131.818 490.823 132.21C491.36 132.602 491.633 133.155 491.642 133.869H489.934C489.883 133.589 489.743 133.374 489.514 133.225C489.29 133.071 489.008 132.994 488.667 132.994C488.313 132.994 488.021 133.057 487.792 133.183C487.564 133.309 487.449 133.5 487.449 133.757C487.449 133.948 487.543 134.1 487.729 134.212C487.916 134.319 488.205 134.413 488.597 134.492L489.773 134.758C490.179 134.856 490.508 134.991 490.76 135.164C491.017 135.332 491.215 135.516 491.355 135.717C491.495 135.918 491.591 136.121 491.642 136.326C491.698 136.527 491.726 136.709 491.726 136.872C491.726 137.353 491.598 137.763 491.341 138.104C491.085 138.44 490.728 138.697 490.27 138.874C489.813 139.051 489.283 139.14 488.681 139.14ZM495.218 131.762L495.218 139H493.265L493.265 131.762H495.218ZM495.239 128.885L495.239 130.726H493.251L493.251 128.885H495.239ZM501.48 133.183H499.87L499.884 137.04C499.884 137.217 499.905 137.35 499.947 137.439C499.994 137.523 500.064 137.579 500.157 137.607C500.255 137.63 500.379 137.642 500.528 137.642H501.501L501.501 138.902C501.408 138.944 501.261 138.984 501.06 139.021C500.864 139.058 500.589 139.077 500.234 139.077C499.6 139.077 499.107 138.995 498.757 138.832C498.412 138.669 498.172 138.44 498.036 138.146C497.901 137.852 497.833 137.511 497.833 137.124L497.833 133.183H496.657L496.657 131.762H497.903L498.414 129.578H499.87L499.87 131.755H501.48L501.48 133.183ZM504.131 141.31C503.636 141.31 503.286 141.268 503.081 141.184C502.88 141.105 502.78 141.065 502.78 141.065L502.78 139.763L503.494 139.791C503.807 139.81 504.059 139.793 504.25 139.742C504.441 139.695 504.586 139.632 504.684 139.553C504.787 139.474 504.859 139.39 504.901 139.301C504.943 139.217 504.973 139.149 504.992 139.098L505.125 138.699L502.311 131.762H504.334L506.07 136.48L507.827 131.762H509.822L506.889 139.042C506.637 139.658 506.371 140.129 506.091 140.456C505.811 140.783 505.508 141.007 505.181 141.128C504.859 141.249 504.509 141.31 504.131 141.31ZM514.009 139L514.009 128.878H520.96L520.953 130.6H516.06L516.06 133.057H520.309L520.309 134.744H516.046L516.046 137.257L521.03 137.264L521.03 139H514.009ZM525.284 139.14C524.313 139.14 523.557 138.806 523.016 138.139C522.474 137.467 522.204 136.534 522.204 135.339C522.204 134.583 522.313 133.927 522.533 133.372C522.752 132.817 523.076 132.387 523.506 132.084C523.935 131.776 524.46 131.622 525.081 131.622C525.342 131.622 525.585 131.652 525.809 131.713C526.037 131.769 526.245 131.848 526.432 131.951C526.618 132.054 526.782 132.173 526.922 132.308C527.062 132.443 527.176 132.588 527.265 132.742L527.265 128.598H529.316L529.316 139H527.832L527.601 137.516C527.535 137.717 527.444 137.913 527.328 138.104C527.211 138.295 527.062 138.47 526.88 138.629C526.698 138.783 526.474 138.907 526.208 139C525.946 139.093 525.638 139.14 525.284 139.14ZM525.732 137.67C526.245 137.67 526.628 137.49 526.88 137.131C527.136 136.772 527.265 136.165 527.265 135.311C527.26 134.816 527.202 134.406 527.09 134.079C526.978 133.752 526.81 133.51 526.586 133.351C526.366 133.188 526.086 133.106 525.746 133.106C525.302 133.106 524.934 133.276 524.64 133.617C524.346 133.953 524.199 134.518 524.199 135.311C524.199 136.118 524.336 136.713 524.612 137.096C524.887 137.479 525.26 137.67 525.732 137.67ZM533.739 139.14C533.403 139.14 533.072 139.089 532.745 138.986C532.423 138.883 532.129 138.732 531.863 138.531C531.597 138.33 531.383 138.083 531.219 137.789C531.061 137.495 530.981 137.154 530.981 136.767L530.981 131.762H533.025L533.025 136.508C533.025 136.844 533.135 137.119 533.354 137.334C533.574 137.549 533.896 137.656 534.32 137.656C534.722 137.656 535.039 137.553 535.272 137.348C535.51 137.138 535.629 136.846 535.629 136.473L535.629 131.762H537.652L537.652 139H536.112L535.874 137.565C535.79 137.99 535.632 138.316 535.398 138.545C535.17 138.769 534.906 138.923 534.607 139.007C534.313 139.096 534.024 139.14 533.739 139.14ZM539.134 139L539.134 136.774H541.374L541.374 139H539.134Z" fill="black"/>
</g>
<g filter="url(#filter7_di_213_24670)">
<rect width="128.576" height="49.8206" rx="16" transform="matrix(1 0 0.00327448 0.999995 48 162.462)" fill="white" shape-rendering="crispEdges"/>
<g clip-path="url(#clip8_213_24670)">
<path d="M160.57 192.963C160.57 192.916 160.56 192.868 160.542 192.824C160.523 192.78 160.496 192.739 160.462 192.705C160.428 192.672 160.387 192.645 160.342 192.626C160.298 192.608 160.25 192.599 160.201 192.599H154.655C154.557 192.599 154.462 192.637 154.393 192.705C154.323 192.774 154.284 192.867 154.284 192.963C154.283 193.06 154.322 193.153 154.391 193.222C154.46 193.29 154.554 193.328 154.652 193.328L160.199 193.328C160.247 193.328 160.295 193.319 160.34 193.301C160.385 193.282 160.426 193.255 160.46 193.222C160.495 193.188 160.522 193.147 160.541 193.103C160.56 193.059 160.569 193.011 160.57 192.963V192.963ZM152.072 190.774C152.072 190.726 152.082 190.679 152.101 190.634C152.12 190.59 152.147 190.55 152.181 190.516C152.216 190.482 152.257 190.455 152.302 190.437C152.347 190.419 152.395 190.409 152.443 190.409H156.511C156.609 190.409 156.703 190.448 156.772 190.516C156.841 190.585 156.879 190.677 156.879 190.774C156.879 190.871 156.84 190.964 156.77 191.032C156.7 191.101 156.606 191.139 156.508 191.139H152.441C152.392 191.139 152.344 191.13 152.299 191.111C152.255 191.093 152.214 191.066 152.18 191.032C152.146 190.998 152.118 190.958 152.1 190.914C152.082 190.869 152.072 190.822 152.072 190.774ZM160.206 191.139H157.987C157.889 191.139 157.795 191.101 157.726 191.032C157.657 190.964 157.618 190.871 157.619 190.774C157.619 190.677 157.658 190.585 157.728 190.516C157.797 190.448 157.892 190.409 157.99 190.409H160.208C160.306 190.409 160.4 190.448 160.469 190.516C160.538 190.585 160.577 190.677 160.577 190.774C160.576 190.871 160.537 190.964 160.468 191.032C160.398 191.101 160.304 191.139 160.206 191.139V191.139ZM155.833 195.883C155.833 195.931 155.842 195.978 155.861 196.022C155.879 196.067 155.906 196.107 155.94 196.141C155.975 196.175 156.015 196.201 156.06 196.22C156.105 196.238 156.153 196.248 156.202 196.248H160.929C161.419 196.247 161.889 196.055 162.237 195.713C162.585 195.371 162.781 194.907 162.783 194.423L162.836 178.368C162.837 177.884 162.643 177.42 162.298 177.078C161.952 176.736 161.483 176.544 160.993 176.543H151.253C151.01 176.543 150.769 176.589 150.544 176.681C150.32 176.773 150.115 176.908 149.943 177.078L147.845 179.142C147.673 179.311 147.535 179.512 147.442 179.733C147.348 179.955 147.3 180.192 147.299 180.432L147.281 186.156C147.28 186.253 147.319 186.345 147.388 186.414C147.457 186.482 147.551 186.521 147.649 186.521C147.747 186.521 147.841 186.482 147.911 186.414C147.981 186.345 148.02 186.253 148.02 186.156L148.039 180.432C148.04 180.351 148.05 180.271 148.069 180.192H149.888C150.183 180.192 150.465 180.076 150.674 179.871C150.882 179.666 151 179.388 151.001 179.097L151.007 177.301C151.087 177.283 151.168 177.274 151.25 177.273L160.991 177.273C161.285 177.273 161.566 177.389 161.774 177.594C161.981 177.799 162.097 178.077 162.096 178.368L162.044 194.423C162.042 194.713 161.925 194.992 161.716 195.197C161.507 195.402 161.225 195.517 160.931 195.518H156.204C156.155 195.518 156.107 195.527 156.062 195.545C156.017 195.564 155.977 195.591 155.942 195.625C155.908 195.658 155.88 195.699 155.862 195.743C155.843 195.787 155.833 195.835 155.833 195.883ZM150.266 177.789L150.262 179.097C150.261 179.194 150.222 179.287 150.153 179.355C150.083 179.424 149.989 179.462 149.891 179.462H148.565L150.266 177.789ZM142.515 187.321L143.175 187.974C143.13 188.154 143.133 188.343 143.184 188.522C143.235 188.701 143.332 188.864 143.466 188.994L143.789 189.315L143.567 189.534C143.333 189.763 143.201 190.075 143.199 190.4C143.198 190.725 143.327 191.037 143.559 191.268L146.253 193.951C146.288 193.985 146.328 194.012 146.373 194.03C146.418 194.048 146.466 194.058 146.514 194.058C146.563 194.058 146.611 194.049 146.656 194.031C146.701 194.013 146.742 193.986 146.776 193.952C146.811 193.918 146.838 193.878 146.857 193.834C146.876 193.79 146.886 193.742 146.886 193.694C146.886 193.646 146.877 193.599 146.859 193.555C146.841 193.51 146.814 193.47 146.779 193.436L144.085 190.753C143.991 190.66 143.938 190.533 143.939 190.401C143.94 190.269 143.993 190.143 144.088 190.049L144.31 189.83L151.79 197.235C151.83 197.275 151.88 197.306 151.934 197.324L155.258 198.418C155.323 198.44 155.393 198.443 155.46 198.427C155.527 198.412 155.588 198.378 155.637 198.33C155.686 198.282 155.72 198.222 155.736 198.156C155.752 198.09 155.749 198.021 155.727 197.957L154.629 194.672C154.611 194.619 154.58 194.57 154.54 194.53L146.216 186.288L146.216 186.288C146.083 186.158 145.919 186.063 145.738 186.012C145.558 185.961 145.367 185.957 145.184 185.999L144.523 185.345C144.254 185.091 143.896 184.949 143.524 184.949C143.151 184.949 142.792 185.091 142.521 185.345C142.255 185.607 142.105 185.962 142.104 186.333C142.103 186.703 142.251 187.058 142.515 187.321V187.321ZM150.438 191.504L148.737 193.177L143.99 188.478C143.956 188.444 143.929 188.404 143.91 188.36C143.892 188.315 143.882 188.268 143.883 188.22C143.883 188.172 143.892 188.125 143.911 188.08C143.93 188.036 143.957 187.996 143.992 187.962L145.168 186.804C145.238 186.736 145.332 186.698 145.43 186.698C145.528 186.698 145.622 186.736 145.691 186.805L150.438 191.504ZM152.054 196.461L149.258 193.693L150.959 192.02L153.755 194.788L152.054 196.461ZM154.794 197.495L152.737 196.818L154.114 195.463L154.794 197.495ZM143.042 185.861C143.172 185.74 143.343 185.672 143.521 185.672C143.699 185.672 143.87 185.74 143.999 185.861L144.538 186.395L143.579 187.339L143.039 186.805C142.913 186.679 142.843 186.51 142.843 186.333C142.844 186.156 142.915 185.986 143.042 185.861V185.861ZM151.73 188.95H158.364C158.413 188.95 158.461 188.94 158.506 188.922C158.551 188.904 158.592 188.877 158.626 188.843C158.66 188.809 158.688 188.769 158.707 188.724C158.725 188.68 158.735 188.633 158.735 188.585L158.748 184.725C158.825 184.781 158.921 184.804 159.016 184.791C159.111 184.778 159.196 184.728 159.255 184.654L160.154 183.508C160.214 183.431 160.241 183.334 160.228 183.238C160.216 183.142 160.166 183.055 160.088 182.996L155.743 179.689C155.55 179.542 155.312 179.462 155.067 179.462C154.823 179.462 154.585 179.542 154.39 179.689L150.024 182.996C149.946 183.055 149.895 183.142 149.882 183.238C149.869 183.334 149.895 183.431 149.955 183.508L150.846 184.654C150.875 184.692 150.912 184.723 150.954 184.747C150.996 184.771 151.042 184.787 151.09 184.793C151.138 184.799 151.187 184.796 151.234 184.783C151.281 184.771 151.325 184.749 151.363 184.72L151.374 184.712L151.362 188.585C151.362 188.633 151.371 188.68 151.389 188.724C151.408 188.769 151.435 188.809 151.469 188.843C151.503 188.877 151.544 188.904 151.589 188.922C151.634 188.94 151.682 188.95 151.73 188.95V188.95ZM158.897 183.92L155.287 181.172C155.223 181.122 155.144 181.096 155.062 181.096C154.981 181.096 154.901 181.122 154.836 181.172L151.208 183.92L150.767 183.352L154.839 180.268C154.904 180.219 154.983 180.192 155.065 180.192C155.147 180.192 155.226 180.219 155.29 180.268L159.343 183.352L158.897 183.92ZM154.308 185.666H155.808L155.8 188.22H154.299L154.308 185.666ZM152.102 188.22L152.116 184.151L155.059 181.921L158.01 184.167L157.997 188.22H156.539L156.549 185.301C156.549 185.253 156.54 185.205 156.521 185.161C156.503 185.117 156.476 185.077 156.442 185.043C156.407 185.009 156.367 184.982 156.322 184.964C156.277 184.945 156.229 184.936 156.18 184.936H153.94C153.892 184.936 153.844 184.945 153.799 184.964C153.754 184.982 153.713 185.009 153.678 185.043C153.644 185.077 153.617 185.117 153.598 185.161C153.579 185.205 153.569 185.253 153.569 185.301L153.56 188.22H152.102Z" fill="#660D33"/>
</g>
<path d="M72.988 192H70.867L69.222 188.101H67.171L67.171 192H65.134L65.134 181.878H69.404C70.2113 181.878 70.8717 182.006 71.385 182.263C71.8983 182.52 72.2763 182.877 72.519 183.334C72.7617 183.787 72.883 184.309 72.883 184.902C72.883 185.434 72.799 185.884 72.631 186.253C72.4677 186.617 72.2507 186.92 71.98 187.163C71.714 187.406 71.4223 187.604 71.105 187.758L72.988 192ZM69.04 186.526C69.586 186.526 70.0177 186.379 70.335 186.085C70.657 185.791 70.818 185.413 70.818 184.951C70.818 184.484 70.664 184.116 70.356 183.845C70.048 183.574 69.6583 183.439 69.187 183.439H67.171L67.171 186.526H69.04ZM76.0433 188.85C76.0386 189.219 76.0969 189.541 76.2183 189.816C76.3396 190.087 76.5146 190.297 76.7433 190.446C76.9766 190.591 77.2566 190.663 77.5833 190.663C77.9333 190.663 78.2389 190.588 78.5003 190.439C78.7663 190.29 78.9506 190.045 79.0533 189.704H80.8943C80.8149 190.217 80.6096 190.656 80.2783 191.02C79.9516 191.384 79.5549 191.662 79.0883 191.853C78.6216 192.044 78.1363 192.14 77.6323 192.14C76.9183 192.14 76.2883 191.991 75.7423 191.692C75.2009 191.389 74.7786 190.962 74.4753 190.411C74.1719 189.86 74.0203 189.212 74.0203 188.465C74.0203 187.742 74.1579 187.091 74.4333 186.512C74.7086 185.929 75.1076 185.469 75.6303 185.133C76.1576 184.792 76.7899 184.622 77.5273 184.622C78.2646 184.622 78.8829 184.778 79.3823 185.091C79.8863 185.399 80.2643 185.831 80.5163 186.386C80.7729 186.937 80.9013 187.574 80.9013 188.297L80.9013 188.85H76.0433ZM76.0363 187.632H78.9903C78.9903 187.343 78.9366 187.077 78.8293 186.834C78.7219 186.591 78.5586 186.4 78.3393 186.26C78.1246 186.12 77.8539 186.05 77.5273 186.05C77.2099 186.05 76.9393 186.127 76.7153 186.281C76.4959 186.43 76.3279 186.626 76.2113 186.869C76.0946 187.112 76.0363 187.366 76.0363 187.632ZM84.3793 192.14C83.9173 192.14 83.502 192.054 83.1333 191.881C82.7646 191.708 82.473 191.459 82.2583 191.132C82.0436 190.801 81.9363 190.399 81.9363 189.928C81.9363 189.135 82.2326 188.533 82.8253 188.122C83.418 187.707 84.3536 187.492 85.6323 187.478L86.5353 187.464L86.5353 187.03C86.5353 186.699 86.4373 186.444 86.2413 186.267C86.05 186.085 85.7513 185.996 85.3453 186.001C85.0466 186.006 84.762 186.076 84.4913 186.211C84.2253 186.346 84.0433 186.582 83.9453 186.918H82.2443C82.2723 186.395 82.424 185.966 82.6993 185.63C82.9746 185.289 83.348 185.037 83.8193 184.874C84.2953 184.706 84.8343 184.622 85.4363 184.622C86.1783 184.622 86.7733 184.715 87.2213 184.902C87.6693 185.084 87.9936 185.348 88.1943 185.693C88.395 186.034 88.4953 186.44 88.4953 186.911L88.4953 192H86.7873L86.6193 190.754C86.372 191.277 86.0616 191.638 85.6883 191.839C85.3196 192.04 84.8833 192.14 84.3793 192.14ZM85.0653 190.796C85.252 190.796 85.4316 190.763 85.6043 190.698C85.7816 190.628 85.938 190.537 86.0733 190.425C86.2133 190.308 86.3253 190.178 86.4093 190.033C86.4933 189.888 86.5353 189.739 86.5353 189.585L86.5353 188.514L85.8003 188.528C85.4596 188.533 85.1423 188.575 84.8483 188.654C84.5543 188.729 84.3163 188.852 84.1343 189.025C83.957 189.198 83.8683 189.431 83.8683 189.725C83.8683 190.061 83.985 190.325 84.2183 190.516C84.4516 190.703 84.734 190.796 85.0653 190.796ZM92.6147 192.126C92.0827 192.126 91.6604 192.063 91.3477 191.937C91.035 191.811 90.804 191.645 90.6547 191.44C90.5054 191.23 90.4097 190.999 90.3677 190.747C90.3257 190.49 90.3047 190.231 90.3047 189.97L90.3047 181.598H92.3067L92.3067 189.718C92.3067 189.984 92.3627 190.201 92.4747 190.369C92.5914 190.532 92.8084 190.633 93.1257 190.67L93.4687 190.691L93.4687 191.951C93.3287 191.998 93.1864 192.037 93.0417 192.07C92.897 192.107 92.7547 192.126 92.6147 192.126ZM98.0832 192L98.0832 181.878H105.034L105.027 183.6H100.134L100.134 186.057H104.383L104.383 187.744H100.12L100.12 190.257L105.104 190.264L105.104 192H98.0832ZM109.519 192.14C109.015 192.14 108.53 192.058 108.063 191.895C107.597 191.727 107.202 191.466 106.88 191.111C106.558 190.752 106.353 190.287 106.264 189.718H108.035C108.096 189.975 108.206 190.178 108.364 190.327C108.528 190.476 108.712 190.584 108.917 190.649C109.123 190.71 109.319 190.74 109.505 190.74C109.897 190.74 110.212 190.679 110.45 190.558C110.693 190.432 110.814 190.241 110.814 189.984C110.814 189.788 110.742 189.632 110.597 189.515C110.457 189.398 110.224 189.31 109.897 189.249L108.623 188.983C107.984 188.848 107.471 188.619 107.083 188.297C106.696 187.97 106.498 187.508 106.488 186.911C106.488 186.477 106.603 186.087 106.831 185.742C107.065 185.397 107.408 185.124 107.86 184.923C108.313 184.722 108.868 184.622 109.526 184.622C110.418 184.622 111.129 184.818 111.661 185.21C112.198 185.602 112.471 186.155 112.48 186.869H110.772C110.721 186.589 110.581 186.374 110.352 186.225C110.128 186.071 109.846 185.994 109.505 185.994C109.151 185.994 108.859 186.057 108.63 186.183C108.402 186.309 108.287 186.5 108.287 186.757C108.287 186.948 108.381 187.1 108.567 187.212C108.754 187.319 109.043 187.413 109.435 187.492L110.611 187.758C111.017 187.856 111.346 187.991 111.598 188.164C111.855 188.332 112.053 188.516 112.193 188.717C112.333 188.918 112.429 189.121 112.48 189.326C112.536 189.527 112.564 189.709 112.564 189.872C112.564 190.353 112.436 190.763 112.179 191.104C111.923 191.44 111.566 191.697 111.108 191.874C110.651 192.051 110.121 192.14 109.519 192.14ZM118.326 186.183H116.716L116.73 190.04C116.73 190.217 116.751 190.35 116.793 190.439C116.84 190.523 116.91 190.579 117.003 190.607C117.101 190.63 117.225 190.642 117.374 190.642H118.347L118.347 191.902C118.254 191.944 118.107 191.984 117.906 192.021C117.71 192.058 117.435 192.077 117.08 192.077C116.445 192.077 115.953 191.995 115.603 191.832C115.258 191.669 115.017 191.44 114.882 191.146C114.747 190.852 114.679 190.511 114.679 190.124L114.679 186.183H113.503L113.503 184.762H114.749L115.26 182.578H116.716L116.716 184.755H118.326L118.326 186.183ZM121.922 192.14C121.46 192.14 121.045 192.054 120.676 191.881C120.308 191.708 120.016 191.459 119.801 191.132C119.587 190.801 119.479 190.399 119.479 189.928C119.479 189.135 119.776 188.533 120.368 188.122C120.961 187.707 121.897 187.492 123.175 187.478L124.078 187.464L124.078 187.03C124.078 186.699 123.98 186.444 123.784 186.267C123.593 186.085 123.294 185.996 122.888 186.001C122.59 186.006 122.305 186.076 122.034 186.211C121.768 186.346 121.586 186.582 121.488 186.918H119.787C119.815 186.395 119.967 185.966 120.242 185.63C120.518 185.289 120.891 185.037 121.362 184.874C121.838 184.706 122.377 184.622 122.979 184.622C123.721 184.622 124.316 184.715 124.764 184.902C125.212 185.084 125.537 185.348 125.737 185.693C125.938 186.034 126.038 186.44 126.038 186.911L126.038 192H124.33L124.162 190.754C123.915 191.277 123.605 191.638 123.231 191.839C122.863 192.04 122.426 192.14 121.922 192.14ZM122.608 190.796C122.795 190.796 122.975 190.763 123.147 190.698C123.325 190.628 123.481 190.537 123.616 190.425C123.756 190.308 123.868 190.178 123.952 190.033C124.036 189.888 124.078 189.739 124.078 189.585L124.078 188.514L123.343 188.528C123.003 188.533 122.685 188.575 122.391 188.654C122.097 188.729 121.859 188.852 121.677 189.025C121.5 189.198 121.411 189.431 121.411 189.725C121.411 190.061 121.528 190.325 121.761 190.516C121.995 190.703 122.277 190.796 122.608 190.796ZM131.943 186.183H130.333L130.347 190.04C130.347 190.217 130.368 190.35 130.41 190.439C130.457 190.523 130.527 190.579 130.62 190.607C130.718 190.63 130.842 190.642 130.991 190.642H131.964L131.964 191.902C131.871 191.944 131.724 191.984 131.523 192.021C131.327 192.058 131.052 192.077 130.697 192.077C130.063 192.077 129.57 191.995 129.22 191.832C128.875 191.669 128.635 191.44 128.499 191.146C128.364 190.852 128.296 190.511 128.296 190.124L128.296 186.183H127.12L127.12 184.762H128.366L128.877 182.578H130.333L130.333 184.755H131.943L131.943 186.183ZM134.901 188.85C134.896 189.219 134.954 189.541 135.076 189.816C135.197 190.087 135.372 190.297 135.601 190.446C135.834 190.591 136.114 190.663 136.441 190.663C136.791 190.663 137.096 190.588 137.358 190.439C137.624 190.29 137.808 190.045 137.911 189.704H139.752C139.672 190.217 139.467 190.656 139.136 191.02C138.809 191.384 138.412 191.662 137.946 191.853C137.479 192.044 136.994 192.14 136.49 192.14C135.776 192.14 135.146 191.991 134.6 191.692C134.058 191.389 133.636 190.962 133.333 190.411C133.029 189.86 132.878 189.212 132.878 188.465C132.878 187.742 133.015 187.091 133.291 186.512C133.566 185.929 133.965 185.469 134.488 185.133C135.015 184.792 135.647 184.622 136.385 184.622C137.122 184.622 137.74 184.778 138.24 185.091C138.744 185.399 139.122 185.831 139.374 186.386C139.63 186.937 139.759 187.574 139.759 188.297L139.759 188.85H134.901ZM134.894 187.632H137.848C137.848 187.343 137.794 187.077 137.687 186.834C137.579 186.591 137.416 186.4 137.197 186.26C136.982 186.12 136.711 186.05 136.385 186.05C136.067 186.05 135.797 186.127 135.573 186.281C135.353 186.43 135.185 186.626 135.069 186.869C134.952 187.112 134.894 187.366 134.894 187.632Z" fill="black"/>
</g>
<g filter="url(#filter8_di_213_24670)">
<rect width="125.036" height="49.9762" rx="16" transform="matrix(1 0 0.0106695 0.999943 52.0312 268.242)" fill="white" shape-rendering="crispEdges"/>
<g clip-path="url(#clip9_213_24670)">
<g clip-path="url(#clip10_213_24670)">
<g clip-path="url(#clip11_213_24670)">
<path d="M140.59 295.503C140.677 295.365 140.825 295.283 140.988 295.283H141.07L144.478 287.999H143.698C143.176 287.999 142.755 287.577 142.761 287.058C142.766 286.539 143.196 286.117 143.718 286.117H151.3L151.313 284.878C150.821 284.548 150.499 283.987 150.506 283.351C150.517 282.339 151.355 281.516 152.374 281.516C153.394 281.516 154.214 282.339 154.204 283.351C154.197 283.987 153.864 284.548 153.364 284.878L153.351 286.117H160.932C161.455 286.117 161.876 286.539 161.87 287.058C161.864 287.577 161.435 287.999 160.912 287.999H160.133L163.385 295.283H163.467C163.63 295.283 163.776 295.365 163.86 295.503C163.943 295.64 163.948 295.808 163.873 295.952L163.259 297.128C163.021 297.584 162.554 297.867 162.039 297.867H156.714C156.2 297.867 155.738 297.584 155.51 297.128L154.921 295.952C154.849 295.808 154.857 295.64 154.944 295.503C155.03 295.365 155.179 295.283 155.341 295.283H155.423L158.831 287.999H153.331L153.194 300.84H155.694C156.308 300.84 156.802 301.335 156.796 301.945L156.789 302.546H157.343C157.957 302.546 158.451 303.042 158.444 303.651L158.434 304.596C158.432 304.786 158.275 304.941 158.084 304.941H146.165C145.974 304.941 145.82 304.786 145.822 304.596L145.832 303.651C145.839 303.042 146.343 302.546 146.957 302.546H147.511L147.517 301.945C147.524 301.335 148.028 300.84 148.642 300.84H151.143L151.249 290.896C151.251 290.706 151.408 290.552 151.599 290.552C151.791 290.552 151.945 290.706 151.942 290.896L151.836 300.84H152.5L152.641 287.655C152.643 287.464 152.8 287.31 152.991 287.31H160.92C161.06 287.31 161.175 287.197 161.176 287.058C161.178 286.919 161.065 286.806 160.925 286.806H152.997C152.805 286.806 152.652 286.651 152.654 286.461L152.668 285.158C152.655 285.16 152.641 285.162 152.628 285.164C152.622 285.165 152.615 285.166 152.609 285.167C152.586 285.17 152.564 285.173 152.541 285.176C152.533 285.176 152.525 285.178 152.516 285.178C152.495 285.18 152.474 285.182 152.453 285.183C152.444 285.184 152.434 285.185 152.425 285.185C152.398 285.186 152.372 285.187 152.346 285.187C152.342 285.187 152.339 285.187 152.335 285.187C152.332 285.187 152.328 285.187 152.325 285.187C152.299 285.187 152.272 285.186 152.246 285.185C152.236 285.184 152.227 285.184 152.218 285.183C152.197 285.182 152.175 285.18 152.154 285.178C152.146 285.177 152.138 285.176 152.129 285.176C152.107 285.173 152.085 285.17 152.063 285.167C152.056 285.166 152.049 285.165 152.043 285.164C152.03 285.162 152.017 285.16 152.004 285.158L151.99 286.461C151.988 286.651 151.831 286.806 151.639 286.806H143.711C143.571 286.806 143.456 286.919 143.454 287.058C143.453 287.197 143.566 287.31 143.706 287.31H151.634C151.825 287.31 151.979 287.464 151.977 287.655L151.96 289.264C151.958 289.454 151.801 289.608 151.609 289.608C151.418 289.608 151.264 289.454 151.266 289.264L151.28 287.999H145.779L149.032 295.283H149.114C149.276 295.283 149.423 295.365 149.507 295.503C149.59 295.64 149.595 295.808 149.52 295.952L148.906 297.128C148.668 297.584 148.2 297.867 147.686 297.867H142.361C141.846 297.867 141.385 297.584 141.157 297.128L140.567 295.952C140.495 295.808 140.504 295.64 140.59 295.503ZM148.635 301.528C148.404 301.528 148.213 301.715 148.211 301.945L148.204 302.546H153.51C153.702 302.546 153.855 302.7 153.853 302.89C153.851 303.08 153.695 303.234 153.503 303.234H146.95C146.718 303.234 146.528 303.421 146.526 303.651L146.519 304.252H157.744L157.751 303.651C157.753 303.421 157.567 303.234 157.336 303.234H155.112C154.921 303.234 154.767 303.08 154.769 302.89C154.771 302.7 154.928 302.546 155.12 302.546H156.096L156.102 301.945C156.105 301.715 155.918 301.528 155.687 301.528H148.635ZM156.132 296.816C156.244 297.039 156.47 297.178 156.722 297.178H162.046C162.298 297.178 162.527 297.039 162.644 296.816L163.085 295.972H155.709L156.132 296.816ZM156.181 295.283H162.627L159.479 288.232L156.181 295.283ZM151.831 284.379C151.844 284.385 151.857 284.391 151.869 284.397C151.876 284.4 151.882 284.403 151.889 284.406C151.903 284.412 151.918 284.418 151.932 284.423C151.944 284.428 151.955 284.432 151.966 284.436C151.978 284.44 151.99 284.444 152.002 284.448C152.013 284.451 152.025 284.454 152.036 284.457C152.044 284.459 152.053 284.462 152.061 284.464C152.073 284.467 152.085 284.469 152.096 284.472C152.105 284.474 152.113 284.476 152.122 284.477C152.133 284.48 152.145 284.482 152.156 284.483C152.166 284.485 152.175 284.486 152.185 284.488C152.196 284.489 152.206 284.491 152.217 284.492C152.229 284.493 152.241 284.494 152.253 284.495C152.262 284.495 152.27 284.496 152.279 284.497C152.3 284.498 152.321 284.499 152.343 284.499C152.364 284.499 152.385 284.498 152.406 284.497C152.415 284.496 152.423 284.495 152.432 284.495C152.444 284.494 152.456 284.493 152.468 284.492C152.479 284.491 152.49 284.489 152.5 284.488C152.51 284.486 152.52 284.485 152.529 284.483C152.541 284.482 152.552 284.48 152.564 284.477C152.572 284.476 152.581 284.474 152.589 284.472C152.601 284.47 152.613 284.467 152.625 284.464C152.633 284.462 152.642 284.459 152.65 284.457C152.661 284.454 152.673 284.451 152.684 284.448C152.696 284.444 152.708 284.44 152.72 284.436C152.732 284.432 152.743 284.428 152.754 284.423C152.769 284.418 152.784 284.412 152.798 284.406C152.805 284.403 152.811 284.4 152.818 284.397C152.831 284.391 152.844 284.385 152.856 284.379C153.239 284.191 153.505 283.801 153.51 283.351C153.517 282.719 153.004 282.204 152.367 282.204C151.73 282.204 151.206 282.719 151.199 283.351C151.195 283.801 151.453 284.191 151.831 284.379ZM145.126 288.232L141.828 295.283H148.274L145.126 288.232ZM141.778 296.816C141.89 297.039 142.116 297.178 142.368 297.178H147.693C147.945 297.178 148.174 297.039 148.291 296.816L148.732 295.972H141.355L141.778 296.816Z" fill="#660D33"/>
</g>
</g>
</g>
<path d="M69.134 286.878H71.192L71.192 295.271H75.588L75.588 297H69.134L69.134 286.878ZM79.3012 297.14C78.8392 297.14 78.4238 297.054 78.0552 296.881C77.6865 296.708 77.3948 296.459 77.1802 296.132C76.9655 295.801 76.8582 295.399 76.8582 294.928C76.8582 294.135 77.1545 293.533 77.7472 293.122C78.3398 292.707 79.2755 292.492 80.5542 292.478L81.4572 292.464L81.4572 292.03C81.4572 291.699 81.3592 291.444 81.1632 291.267C80.9718 291.085 80.6732 290.996 80.2672 291.001C79.9685 291.006 79.6838 291.076 79.4132 291.211C79.1472 291.346 78.9652 291.582 78.8672 291.918H77.1662C77.1942 291.395 77.3458 290.966 77.6212 290.63C77.8965 290.289 78.2698 290.037 78.7412 289.874C79.2172 289.706 79.7562 289.622 80.3582 289.622C81.1002 289.622 81.6952 289.715 82.1432 289.902C82.5912 290.084 82.9155 290.348 83.1162 290.693C83.3168 291.034 83.4172 291.44 83.4172 291.911L83.4172 297H81.7092L81.5412 295.754C81.2938 296.277 80.9835 296.638 80.6102 296.839C80.2415 297.04 79.8052 297.14 79.3012 297.14ZM79.9872 295.796C80.1738 295.796 80.3535 295.763 80.5262 295.698C80.7035 295.628 80.8598 295.537 80.9952 295.425C81.1352 295.308 81.2472 295.178 81.3312 295.033C81.4152 294.888 81.4572 294.739 81.4572 294.585L81.4572 293.514L80.7222 293.528C80.3815 293.533 80.0642 293.575 79.7702 293.654C79.4762 293.729 79.2382 293.852 79.0562 294.025C78.8788 294.198 78.7902 294.431 78.7902 294.725C78.7902 295.061 78.9068 295.325 79.1402 295.516C79.3735 295.703 79.6558 295.796 79.9872 295.796ZM94.9488 289.762L92.5688 297H90.9448L89.5938 292.618L88.2498 297H86.6678L84.3228 289.762H86.1288L87.5148 294.249H87.5708L88.9008 289.762H90.3568L91.7008 294.249H91.7568L93.1008 289.762H94.9488Z" fill="black"/>
</g>
<defs>
<filter id="filter0_i_213_24670" x="179.365" y="437.132" width="21.584" height="23.8015" filterUnits="userSpaceOnUse" color-interpolation-filters="sRGB">
<feFlood flood-opacity="0" result="BackgroundImageFix"/>
<feBlend mode="normal" in="SourceGraphic" in2="BackgroundImageFix" result="shape"/>
<feColorMatrix in="SourceAlpha" type="matrix" values="0 0 0 0 0 0 0 0 0 0 0 0 0 0 0 0 0 0 127 0" result="hardAlpha"/>
<feOffset dy="-2"/>
<feGaussianBlur stdDeviation="2"/>
<feComposite in2="hardAlpha" operator="arithmetic" k2="-1" k3="1"/>
<feColorMatrix type="matrix" values="0 0 0 0 0.682353 0 0 0 0 0.0588235 0 0 0 0 0 0 0 0 1 0"/>
<feBlend mode="normal" in2="shape" result="effect1_innerShadow_213_24670"/>
</filter>
<filter id="filter1_i_213_24670" x="62.5176" y="284.456" width="12.5898" height="14.7173" filterUnits="userSpaceOnUse" color-interpolation-filters="sRGB">
<feFlood flood-opacity="0" result="BackgroundImageFix"/>
<feBlend mode="normal" in="SourceGraphic" in2="BackgroundImageFix" result="shape"/>
<feColorMatrix in="SourceAlpha" type="matrix" values="0 0 0 0 0 0 0 0 0 0 0 0 0 0 0 0 0 0 127 0" result="hardAlpha"/>
<feOffset dy="-2"/>
<feGaussianBlur stdDeviation="2"/>
<feComposite in2="hardAlpha" operator="arithmetic" k2="-1" k3="1"/>
<feColorMatrix type="matrix" values="0 0 0 0 0 0 0 0 0 0.439216 0 0 0 0 0.607843 0 0 0 1 0"/>
<feBlend mode="normal" in2="shape" result="effect1_innerShadow_213_24670"/>
</filter>
<filter id="filter2_i_213_24670" x="99.4648" y="367.208" width="14.3887" height="16.5342" filterUnits="userSpaceOnUse" color-interpolation-filters="sRGB">
<feFlood flood-opacity="0" result="BackgroundImageFix"/>
<feBlend mode="normal" in="SourceGraphic" in2="BackgroundImageFix" result="shape"/>
<feColorMatrix in="SourceAlpha" type="matrix" values="0 0 0 0 0 0 0 0 0 0 0 0 0 0 0 0 0 0 127 0" result="hardAlpha"/>
<feOffset dy="-2"/>
<feGaussianBlur stdDeviation="2"/>
<feComposite in2="hardAlpha" operator="arithmetic" k2="-1" k3="1"/>
<feColorMatrix type="matrix" values="0 0 0 0 0.478431 0 0 0 0 0.321569 0 0 0 0 0.0156863 0 0 0 1 0"/>
<feBlend mode="normal" in2="shape" result="effect1_innerShadow_213_24670"/>
</filter>
<filter id="filter3_i_213_24670" x="104.891" y="88.1833" width="10.793" height="12.9006" filterUnits="userSpaceOnUse" color-interpolation-filters="sRGB">
<feFlood flood-opacity="0" result="BackgroundImageFix"/>
<feBlend mode="normal" in="SourceGraphic" in2="BackgroundImageFix" result="shape"/>
<feColorMatrix in="SourceAlpha" type="matrix" values="0 0 0 0 0 0 0 0 0 0 0 0 0 0 0 0 0 0 127 0" result="hardAlpha"/>
<feOffset dy="-2"/>
<feGaussianBlur stdDeviation="2"/>
<feComposite in2="hardAlpha" operator="arithmetic" k2="-1" k3="1"/>
<feColorMatrix type="matrix" values="0 0 0 0 0.0235294 0 0 0 0 0.603922 0 0 0 0 0.419608 0 0 0 1 0"/>
<feBlend mode="normal" in2="shape" result="effect1_innerShadow_213_24670"/>
</filter>
<filter id="filter4_di_213_24670" x="423.992" y="305.433" width="208.035" height="145.809" filterUnits="userSpaceOnUse" color-interpolation-filters="sRGB">
<feFlood flood-opacity="0" result="BackgroundImageFix"/>
<feColorMatrix in="SourceAlpha" type="matrix" values="0 0 0 0 0 0 0 0 0 0 0 0 0 0 0 0 0 0 127 0" result="hardAlpha"/>
<feOffset dy="32"/>
<feGaussianBlur stdDeviation="24"/>
<feComposite in2="hardAlpha" operator="out"/>
<feColorMatrix type="matrix" values="0 0 0 0 0 0 0 0 0 0 0 0 0 0 0 0 0 0 0.8 0"/>
<feBlend mode="normal" in2="BackgroundImageFix" result="effect1_dropShadow_213_24670"/>
<feBlend mode="normal" in="SourceGraphic" in2="effect1_dropShadow_213_24670" result="shape"/>
<feColorMatrix in="SourceAlpha" type="matrix" values="0 0 0 0 0 0 0 0 0 0 0 0 0 0 0 0 0 0 127 0" result="hardAlpha"/>
<feOffset dy="-4"/>
<feGaussianBlur stdDeviation="5"/>
<feComposite in2="hardAlpha" operator="arithmetic" k2="-1" k3="1"/>
<feColorMatrix type="matrix" values="0 0 0 0 0.388235 0 0 0 0 0.45098 0 0 0 0 0.505882 0 0 0 1 0"/>
<feBlend mode="normal" in2="shape" result="effect2_innerShadow_213_24670"/>
</filter>
<filter id="filter5_di_213_24670" x="429.799" y="199.803" width="245.227" height="145.944" filterUnits="userSpaceOnUse" color-interpolation-filters="sRGB">
<feFlood flood-opacity="0" result="BackgroundImageFix"/>
<feColorMatrix in="SourceAlpha" type="matrix" values="0 0 0 0 0 0 0 0 0 0 0 0 0 0 0 0 0 0 127 0" result="hardAlpha"/>
<feOffset dy="32"/>
<feGaussianBlur stdDeviation="24"/>
<feComposite in2="hardAlpha" operator="out"/>
<feColorMatrix type="matrix" values="0 0 0 0 0 0 0 0 0 0 0 0 0 0 0 0 0 0 0.8 0"/>
<feBlend mode="normal" in2="BackgroundImageFix" result="effect1_dropShadow_213_24670"/>
<feBlend mode="normal" in="SourceGraphic" in2="effect1_dropShadow_213_24670" result="shape"/>
<feColorMatrix in="SourceAlpha" type="matrix" values="0 0 0 0 0 0 0 0 0 0 0 0 0 0 0 0 0 0 127 0" result="hardAlpha"/>
<feOffset dy="-4"/>
<feGaussianBlur stdDeviation="5"/>
<feComposite in2="hardAlpha" operator="arithmetic" k2="-1" k3="1"/>
<feColorMatrix type="matrix" values="0 0 0 0 0.388235 0 0 0 0 0.45098 0 0 0 0 0.505882 0 0 0 1 0"/>
<feBlend mode="normal" in2="shape" result="effect2_innerShadow_213_24670"/>
</filter>
<filter id="filter6_di_213_24670" x="377.654" y="94" width="254.268" height="143.999" filterUnits="userSpaceOnUse" color-interpolation-filters="sRGB">
<feFlood flood-opacity="0" result="BackgroundImageFix"/>
<feColorMatrix in="SourceAlpha" type="matrix" values="0 0 0 0 0 0 0 0 0 0 0 0 0 0 0 0 0 0 127 0" result="hardAlpha"/>
<feOffset dy="32"/>
<feGaussianBlur stdDeviation="24"/>
<feComposite in2="hardAlpha" operator="out"/>
<feColorMatrix type="matrix" values="0 0 0 0 0 0 0 0 0 0 0 0 0 0 0 0 0 0 0.8 0"/>
<feBlend mode="normal" in2="BackgroundImageFix" result="effect1_dropShadow_213_24670"/>
<feBlend mode="normal" in="SourceGraphic" in2="effect1_dropShadow_213_24670" result="shape"/>
<feColorMatrix in="SourceAlpha" type="matrix" values="0 0 0 0 0 0 0 0 0 0 0 0 0 0 0 0 0 0 127 0" result="hardAlpha"/>
<feOffset dy="-4"/>
<feGaussianBlur stdDeviation="5"/>
<feComposite in2="hardAlpha" operator="arithmetic" k2="-1" k3="1"/>
<feColorMatrix type="matrix" values="0 0 0 0 0.388235 0 0 0 0 0.45098 0 0 0 0 0.505882 0 0 0 1 0"/>
<feBlend mode="normal" in2="shape" result="effect2_innerShadow_213_24670"/>
</filter>
<filter id="filter7_di_213_24670" x="0" y="146.462" width="224.738" height="145.82" filterUnits="userSpaceOnUse" color-interpolation-filters="sRGB">
<feFlood flood-opacity="0" result="BackgroundImageFix"/>
<feColorMatrix in="SourceAlpha" type="matrix" values="0 0 0 0 0 0 0 0 0 0 0 0 0 0 0 0 0 0 127 0" result="hardAlpha"/>
<feOffset dy="32"/>
<feGaussianBlur stdDeviation="24"/>
<feComposite in2="hardAlpha" operator="out"/>
<feColorMatrix type="matrix" values="0 0 0 0 0 0 0 0 0 0 0 0 0 0 0 0 0 0 0.8 0"/>
<feBlend mode="normal" in2="BackgroundImageFix" result="effect1_dropShadow_213_24670"/>
<feBlend mode="normal" in="SourceGraphic" in2="effect1_dropShadow_213_24670" result="shape"/>
<feColorMatrix in="SourceAlpha" type="matrix" values="0 0 0 0 0 0 0 0 0 0 0 0 0 0 0 0 0 0 127 0" result="hardAlpha"/>
<feOffset dy="-4"/>
<feGaussianBlur stdDeviation="5"/>
<feComposite in2="hardAlpha" operator="arithmetic" k2="-1" k3="1"/>
<feColorMatrix type="matrix" values="0 0 0 0 0.388235 0 0 0 0 0.45098 0 0 0 0 0.505882 0 0 0 1 0"/>
<feBlend mode="normal" in2="shape" result="effect2_innerShadow_213_24670"/>
</filter>
<filter id="filter8_di_213_24670" x="4.03125" y="252.242" width="221.57" height="145.973" filterUnits="userSpaceOnUse" color-interpolation-filters="sRGB">
<feFlood flood-opacity="0" result="BackgroundImageFix"/>
<feColorMatrix in="SourceAlpha" type="matrix" values="0 0 0 0 0 0 0 0 0 0 0 0 0 0 0 0 0 0 127 0" result="hardAlpha"/>
<feOffset dy="32"/>
<feGaussianBlur stdDeviation="24"/>
<feComposite in2="hardAlpha" operator="out"/>
<feColorMatrix type="matrix" values="0 0 0 0 0 0 0 0 0 0 0 0 0 0 0 0 0 0 0.8 0"/>
<feBlend mode="normal" in2="BackgroundImageFix" result="effect1_dropShadow_213_24670"/>
<feBlend mode="normal" in="SourceGraphic" in2="effect1_dropShadow_213_24670" result="shape"/>
<feColorMatrix in="SourceAlpha" type="matrix" values="0 0 0 0 0 0 0 0 0 0 0 0 0 0 0 0 0 0 127 0" result="hardAlpha"/>
<feOffset dy="-4"/>
<feGaussianBlur stdDeviation="5"/>
<feComposite in2="hardAlpha" operator="arithmetic" k2="-1" k3="1"/>
<feColorMatrix type="matrix" values="0 0 0 0 0.388235 0 0 0 0 0.45098 0 0 0 0 0.505882 0 0 0 1 0"/>
<feBlend mode="normal" in2="shape" result="effect2_innerShadow_213_24670"/>
</filter>
<linearGradient id="paint0_linear_213_24670" x1="73.1271" y1="492.402" x2="367.234" y2="173.758" gradientUnits="userSpaceOnUse">
<stop stop-color="#660D33" stop-opacity="0.17"/>
<stop offset="1" stop-color="#660D33" stop-opacity="0.04"/>
</linearGradient>
<linearGradient id="paint1_linear_213_24670" x1="294.375" y1="385.516" x2="309.61" y2="415.591" gradientUnits="userSpaceOnUse">
<stop stop-color="#660D33"/>
<stop offset="1" stop-color="#660D33"/>
</linearGradient>
<linearGradient id="paint2_linear_213_24670" x1="323.522" y1="397.466" x2="308.254" y2="397.466" gradientUnits="userSpaceOnUse">
<stop stop-color="#FEBBBA"/>
<stop offset="1" stop-color="#FF928E"/>
</linearGradient>
<linearGradient id="paint3_linear_213_24670" x1="344.649" y1="357.219" x2="280.089" y2="266.393" gradientUnits="userSpaceOnUse">
<stop stop-color="#570025"/>
<stop offset="1" stop-color="#820B3E"/>
</linearGradient>
<linearGradient id="paint4_linear_213_24670" x1="303.272" y1="415.877" x2="356.152" y2="485.288" gradientUnits="userSpaceOnUse">
<stop stop-color="#5B0027"/>
<stop offset="1" stop-color="#780F3C"/>
</linearGradient>
<linearGradient id="paint5_linear_213_24670" x1="329.861" y1="430.869" x2="288.806" y2="430.869" gradientUnits="userSpaceOnUse">
<stop stop-color="#660D33"/>
<stop offset="1" stop-color="#660D33"/>
</linearGradient>
<linearGradient id="paint6_linear_213_24670" x1="334.561" y1="411.504" x2="320.232" y2="411.504" gradientUnits="userSpaceOnUse">
<stop stop-color="#FEBBBA"/>
<stop offset="1" stop-color="#FF928E"/>
</linearGradient>
<linearGradient id="paint7_linear_213_24670" x1="387.155" y1="361.659" x2="301.33" y2="263.598" gradientUnits="userSpaceOnUse">
<stop stop-color="#570025"/>
<stop offset="1" stop-color="#820B3E"/>
</linearGradient>
<linearGradient id="paint8_linear_213_24670" x1="428.237" y1="295.076" x2="288.485" y2="233.704" gradientUnits="userSpaceOnUse">
<stop stop-color="#97174E"/>
<stop offset="1" stop-color="#660D33"/>
</linearGradient>
<linearGradient id="paint9_linear_213_24670" x1="290.776" y1="246.882" x2="240.79" y2="246.882" gradientUnits="userSpaceOnUse">
<stop stop-color="#FEBBBA"/>
<stop offset="1" stop-color="#FF928E"/>
</linearGradient>
<linearGradient id="paint10_linear_213_24670" x1="443.987" y1="259.207" x2="304.235" y2="197.836" gradientUnits="userSpaceOnUse">
<stop stop-color="#660D33"/>
<stop offset="1" stop-color="#660D33"/>
</linearGradient>
<linearGradient id="paint11_linear_213_24670" x1="372.246" y1="203.982" x2="308.973" y2="165.291" gradientUnits="userSpaceOnUse">
<stop stop-color="#FEBBBA"/>
<stop offset="1" stop-color="#FF928E"/>
</linearGradient>
<linearGradient id="paint12_linear_213_24670" x1="453.026" y1="242.431" x2="367.071" y2="215.968" gradientUnits="userSpaceOnUse">
<stop stop-color="#6A364C"/>
<stop offset="1" stop-color="#660D33"/>
</linearGradient>
<linearGradient id="paint13_linear_213_24670" x1="394.855" y1="146.288" x2="384.995" y2="214.579" gradientUnits="userSpaceOnUse">
<stop stop-color="#660D33"/>
<stop offset="0.807292" stop-color="#660D33"/>
<stop offset="1" stop-color="#C07696"/>
</linearGradient>
<linearGradient id="paint14_linear_213_24670" x1="293.979" y1="152.935" x2="343.791" y2="166.002" gradientUnits="userSpaceOnUse">
<stop stop-color="#FEBBBA"/>
<stop offset="1" stop-color="#FF928E"/>
</linearGradient>
<linearGradient id="paint15_linear_213_24670" x1="310.913" y1="119.154" x2="295.33" y2="177.28" gradientUnits="userSpaceOnUse">
<stop stop-color="#630C31"/>
<stop offset="1" stop-color="#59082B"/>
</linearGradient>
<linearGradient id="paint16_linear_213_24670" x1="296.093" y1="144.887" x2="345.905" y2="157.954" gradientUnits="userSpaceOnUse">
<stop stop-color="#FEBBBA"/>
<stop offset="1" stop-color="#FF928E"/>
</linearGradient>
<linearGradient id="paint17_linear_213_24670" x1="344.382" y1="244.861" x2="280.372" y2="265.934" gradientUnits="userSpaceOnUse">
<stop stop-color="#B3205F"/>
<stop offset="1" stop-color="#760032"/>
</linearGradient>
<linearGradient id="paint18_linear_213_24670" x1="256.391" y1="203.018" x2="210.443" y2="251.765" gradientUnits="userSpaceOnUse">
<stop stop-color="#520A28"/>
<stop offset="1" stop-color="#860D41"/>
</linearGradient>
<linearGradient id="paint19_linear_213_24670" x1="361.087" y1="247.481" x2="487.345" y2="467.706" gradientUnits="userSpaceOnUse">
<stop stop-color="#FEBBBA"/>
<stop offset="1" stop-color="#FF928E"/>
</linearGradient>
<linearGradient id="paint20_linear_213_24670" x1="248.639" y1="355.645" x2="170.739" y2="355.645" gradientUnits="userSpaceOnUse">
<stop stop-color="#660D33"/>
<stop offset="1" stop-color="#8A1447"/>
</linearGradient>
<linearGradient id="paint21_linear_213_24670" x1="257.634" y1="355.645" x2="179.734" y2="355.645" gradientUnits="userSpaceOnUse">
<stop stop-color="#660D33"/>
<stop offset="1" stop-color="#660D33"/>
</linearGradient>
<linearGradient id="paint22_linear_213_24670" x1="468.771" y1="355.645" x2="390.871" y2="355.645" gradientUnits="userSpaceOnUse">
<stop stop-color="#660D33"/>
<stop offset="1" stop-color="#660D33"/>
</linearGradient>
<linearGradient id="paint23_linear_213_24670" x1="477.768" y1="355.645" x2="399.868" y2="355.645" gradientUnits="userSpaceOnUse">
<stop stop-color="#660D33"/>
<stop offset="1" stop-color="#660D33"/>
</linearGradient>
<linearGradient id="paint24_linear_213_24670" x1="482.779" y1="274.192" x2="152.369" y2="274.192" gradientUnits="userSpaceOnUse">
<stop stop-color="#470A24"/>
<stop offset="1" stop-color="#811342"/>
</linearGradient>
<linearGradient id="paint25_linear_213_24670" x1="0" y1="0" x2="21.5825" y2="21.8002" gradientUnits="userSpaceOnUse">
<stop stop-color="#FDAB76"/>
<stop offset="1" stop-color="#FA541C"/>
</linearGradient>
<linearGradient id="paint26_linear_213_24670" x1="0" y1="0" x2="12.5898" y2="12.7168" gradientUnits="userSpaceOnUse">
<stop stop-color="#77F0ED"/>
<stop offset="1" stop-color="#22B8CF"/>
</linearGradient>
<linearGradient id="paint27_linear_213_24670" x1="99.6289" y1="383.9" x2="113.838" y2="369.192" gradientUnits="userSpaceOnUse">
<stop stop-color="#FFE475"/>
<stop offset="1" stop-color="#FFC81A"/>
</linearGradient>
<linearGradient id="paint28_linear_213_24670" x1="0" y1="0" x2="10.7913" y2="10.9001" gradientUnits="userSpaceOnUse">
<stop stop-color="#69F290"/>
<stop offset="1" stop-color="#0CD66E"/>
</linearGradient>
<clipPath id="clip0_213_24670">
<rect width="23.6696" height="23.348" fill="white" transform="matrix(-1 0 0 1 575.07 334.664)"/>
</clipPath>
<clipPath id="clip1_213_24670">
<rect width="23.6696" height="23.348" fill="white" transform="matrix(-1 0 0 1 575.07 334.664)"/>
</clipPath>
<clipPath id="clip2_213_24670">
<rect width="24" height="24" fill="white" transform="matrix(-0.998531 0.0541737 0.0443826 0.999016 616.404 228.433)"/>
</clipPath>
<clipPath id="clip3_213_24670">
<rect width="24" height="24" fill="white" transform="matrix(-0.998531 0.0541737 0.0443826 0.999016 616.297 228.339)"/>
</clipPath>
<clipPath id="clip4_213_24670">
<rect width="24" height="24" fill="white" transform="matrix(-0.998531 0.0541737 0.0443826 0.999016 616.297 228.339)"/>
</clipPath>
<clipPath id="clip5_213_24670">
<rect width="24.0878" height="23.1123" fill="white" transform="matrix(-1 0 0.00604794 0.999979 571.881 123.482)"/>
</clipPath>
<clipPath id="clip6_213_24670">
<rect width="24.0878" height="23.1123" fill="white" transform="matrix(1 0 0.00604794 0.999979 548.094 123.265)"/>
</clipPath>
<clipPath id="clip7_213_24670">
<rect width="24.0878" height="23.1123" fill="white" transform="matrix(1 0 0.00604794 0.999979 548.094 123.265)"/>
</clipPath>
<clipPath id="clip8_213_24670">
<rect width="23.6642" height="23.3534" fill="white" transform="matrix(-1 0 -0.00327449 0.999995 164.139 175.695)"/>
</clipPath>
<clipPath id="clip9_213_24670">
<rect width="23.5918" height="23.4264" fill="white" transform="matrix(-1 0 -0.0106695 0.999942 164.17 281.516)"/>
</clipPath>
<clipPath id="clip10_213_24670">
<rect width="23.5918" height="23.4264" fill="white" transform="matrix(-1 0 -0.0106695 0.999942 164.17 281.516)"/>
</clipPath>
<clipPath id="clip11_213_24670">
<rect width="23.5918" height="23.4264" fill="white" transform="matrix(-1 0 -0.0106695 0.999942 164.17 281.516)"/>
</clipPath>
</defs>
</svg>
