<svg width="65" height="64" viewBox="0 0 65 64" fill="none" xmlns="http://www.w3.org/2000/svg">
<path d="M22.7381 4.89426C22.5766 4.51151 22.1872 4.25888 21.7705 4.27663C21.3595 4.29401 20.9892 4.57201 20.8614 4.96351C20.5799 5.82513 21.5438 6.60338 22.3248 6.13838C22.7502 5.88488 22.9208 5.35088 22.7381 4.89426Z" fill="#660D33"/>
<path d="M27.0137 4.89426C26.8512 4.50913 26.4583 4.25551 26.0384 4.27688C25.6209 4.29813 25.2495 4.58601 25.1292 4.98676C25.0094 5.38501 25.1522 5.82538 25.4835 6.07651C25.8365 6.34401 26.3389 6.34388 26.6919 6.07651C27.0538 5.80226 27.1815 5.31388 27.0137 4.89426Z" fill="#660D33"/>
<path d="M18.4619 4.89425C18.2959 4.50088 17.8901 4.24613 17.462 4.27875C17.043 4.31088 16.6826 4.60725 16.5705 5.01188C16.3266 5.89113 17.3541 6.6275 18.108 6.1C18.4921 5.83113 18.6355 5.32775 18.4619 4.89425Z" fill="#660D33"/>
<path d="M23.9494 57.7203H19.6738C19.1204 57.7203 18.6717 58.1689 18.6717 58.7224C18.6717 59.2758 19.1203 59.7245 19.6738 59.7245H23.9494C24.5028 59.7245 24.9516 59.2759 24.9516 58.7224C24.9516 58.1689 24.5028 57.7203 23.9494 57.7203Z" fill="#660D33"/>
<path d="M17.5364 42.7557H12.1919C11.6385 42.7557 11.1898 43.2043 11.1898 43.7578C11.1898 44.3113 11.6384 44.76 12.1919 44.76H17.5364C18.0898 44.76 18.5385 44.3113 18.5385 43.7578C18.5385 43.2043 18.0898 42.7557 17.5364 42.7557Z" fill="#660D33"/>
<path d="M20.743 45.9624H12.1919C11.6385 45.9624 11.1898 46.411 11.1898 46.9645C11.1898 47.5179 11.6384 47.9667 12.1919 47.9667H20.743C21.2964 47.9667 21.7452 47.518 21.7452 46.9645C21.7452 46.4112 21.2965 45.9624 20.743 45.9624Z" fill="#660D33"/>
<path d="M21.8117 23.5156C20.0803 23.5156 18.6718 24.9241 18.6718 26.6555C18.6718 28.3869 20.0803 29.7954 21.8117 29.7954C23.5431 29.7954 24.9516 28.3869 24.9516 26.6555C24.9516 24.9241 23.543 23.5156 21.8117 23.5156ZM21.8117 27.7913C21.1855 27.7913 20.676 27.2817 20.676 26.6555C20.676 26.0293 21.1855 25.5198 21.8117 25.5198C22.438 25.5198 22.9475 26.0293 22.9475 26.6555C22.9475 27.2817 22.4378 27.7913 21.8117 27.7913Z" fill="#660D33"/>
<path d="M28.2302 14.4045C26.2637 13.3722 24.0444 12.8266 21.812 12.8266C19.5796 12.8266 17.3602 13.3721 15.3937 14.4045C14.9037 14.6617 14.715 15.2675 14.9722 15.7575C15.2296 16.2476 15.8352 16.4362 16.3252 16.179C18.0056 15.297 19.9029 14.8309 21.8121 14.8309C23.7214 14.8309 25.6186 15.297 27.2989 16.179C27.4476 16.257 27.6069 16.294 27.7637 16.294C28.2384 16.294 28.6586 15.9476 28.7489 15.4815C28.8315 15.0525 28.6167 14.6075 28.2302 14.4045Z" fill="#660D33"/>
<path d="M25.253 20.0875C24.1971 19.5332 23.007 19.2402 21.8116 19.2402C20.6162 19.2402 19.4261 19.5332 18.3702 20.0875C17.8802 20.3447 17.6915 20.9505 17.9487 21.4405C18.206 21.9305 18.8117 22.1194 19.3017 21.862C20.0826 21.4523 20.927 21.2444 21.8117 21.2444C22.6965 21.2444 23.541 21.4521 24.3217 21.862C24.8057 22.116 25.4211 21.9238 25.6747 21.4405C25.9317 20.9505 25.7431 20.3445 25.253 20.0875Z" fill="#660D33"/>
<path d="M26.7412 17.2469C25.2287 16.4532 23.5241 16.0334 21.8117 16.0334C20.0994 16.0334 18.3947 16.453 16.8824 17.2469C16.3924 17.5042 16.2036 18.1098 16.4609 18.5999C16.718 19.0899 17.3237 19.2788 17.8139 19.0214C19.0576 18.3685 20.4026 18.0376 21.8116 18.0376C23.2207 18.0376 24.5657 18.3688 25.8094 19.0214C25.9582 19.0994 26.1175 19.1364 26.2745 19.1364C26.7491 19.1364 27.1694 18.79 27.2596 18.3239C27.3425 17.8949 27.1279 17.4499 26.7412 17.2469Z" fill="#660D33"/>
<path d="M60.3428 13.3663L57.2998 13.2107C55.8558 13.137 50.734 12.2054 47.2093 10.443L45.7753 9.72587C45.4933 9.58475 45.161 9.58475 44.879 9.72587L43.445 10.443C42.3678 10.9816 41.141 11.4423 39.9159 11.825V5.27763C39.9159 2.36762 37.5483 0 34.6382 0H8.98478C6.07466 0 3.70703 2.36762 3.70703 5.27763V19.2178C3.70703 19.7711 4.15566 20.2199 4.70916 20.2199C5.26253 20.2199 5.71128 19.7712 5.71128 19.2178V10.5553H37.9117V12.3875C35.8874 12.896 34.113 13.1719 33.3544 13.2106L30.3114 13.3661C29.7785 13.3934 29.3605 13.8334 29.3605 14.3669V30.9977H11.1225C9.39116 30.9977 7.98266 32.4062 7.98266 34.1376V48.0332C7.98266 49.7646 9.39116 51.1731 11.1225 51.1731H32.5004C34.2318 51.1731 35.6403 49.7646 35.6403 48.0332V42.6651C36.3865 43.3678 37.1652 44.0305 37.9633 44.6445C37.9303 44.7439 37.9117 44.8498 37.9117 44.9603V53.4446H5.71128V23.4044C5.71128 22.851 5.26266 22.4023 4.70916 22.4023C4.15578 22.4023 3.70703 22.8509 3.70703 23.4044V58.7224C3.70703 61.6325 6.07466 64 8.98466 64H34.6382C37.5483 64 39.9158 61.6324 39.9158 58.7224V46.0234C41.1989 46.8503 42.4997 47.5384 43.7639 48.0441L44.9549 48.5205C45.1922 48.6155 45.462 48.6155 45.6993 48.5205L46.8902 48.0441C50.0753 46.7701 53.494 44.3537 56.2699 41.4146C58.5617 38.9881 61.2935 35.2653 61.2935 31.3097V14.367C61.2938 13.8335 60.8757 13.3935 60.3428 13.3663ZM37.9117 58.7224C37.9117 60.5274 36.4432 61.9959 34.6382 61.9959H8.98478C7.17978 61.9959 5.71128 60.5274 5.71128 58.7224V55.4489H37.9117V58.7224ZM5.71128 8.55112V5.27763C5.71128 3.47263 7.17978 2.00413 8.98478 2.00413H34.6383C36.4433 2.00413 37.9118 3.47263 37.9118 5.27763V8.55112H5.71128ZM9.98678 34.1377C9.98678 33.5115 10.4963 33.002 11.1225 33.002H29.5229C29.7389 34.1596 30.158 35.2825 30.6967 36.3423H9.98678V34.1377ZM9.98678 38.3465H31.8918C32.1764 38.7635 32.4724 39.165 32.7737 39.549H9.98678V38.3465ZM33.6362 48.0334C33.6362 48.6596 33.1267 49.1691 32.5004 49.1691H11.1225C10.4963 49.1691 9.98678 48.6596 9.98678 48.0334V41.5532H33.636L33.6362 48.0334ZM54.813 40.0384C52.2298 42.7736 49.0707 45.0134 46.1459 46.1833L45.3272 46.5107L44.5084 46.1833C41.5837 45.0134 38.4247 42.7736 35.8414 40.0384C33.7992 37.8761 31.3648 34.6065 31.3648 31.3096V15.3193L33.4569 15.2124C34.8647 15.1404 40.2765 14.2679 44.3413 12.2355L45.3272 11.7426L46.313 12.2355C50.3778 14.2679 55.7898 15.1404 57.1974 15.2124L59.2895 15.3193V31.3096C59.2895 34.6065 56.8552 37.8761 54.813 40.0384Z" fill="#660D33"/>
<path d="M47.5991 25.6311H44.1919V24.1614H49.7368C51.3946 24.1614 52.7431 22.8129 52.7431 21.1551C52.7431 19.4974 51.3946 18.1489 49.7368 18.1489H48.4676V17.9485C48.4676 16.2907 47.1191 14.9422 45.4613 14.9422C43.8036 14.9422 42.4551 16.2907 42.4551 17.9485V18.2222C40.0306 18.6361 38.1794 20.7525 38.1794 23.293V26.4997C38.1794 29.3362 40.487 31.6437 43.3234 31.6437H46.7306V33.1135H41.1857C39.5279 33.1135 38.1794 34.462 38.1794 36.1197C38.1794 37.7775 39.5279 39.126 41.1857 39.126H42.4549V39.3264C42.4549 40.9841 43.8034 42.3326 45.4612 42.3326C47.1189 42.3326 48.4674 40.9841 48.4674 39.3264V39.0526C50.8919 38.6387 52.7431 36.5224 52.7431 33.9819V30.7752C52.7431 27.9387 50.4356 25.6311 47.5991 25.6311ZM50.7389 33.9819C50.7389 35.7132 49.3304 37.1217 47.5991 37.1217H47.4654C46.9121 37.1217 46.4633 37.5704 46.4633 38.1239V39.3264C46.4633 39.879 46.0138 40.3285 45.4612 40.3285C44.9086 40.3285 44.4591 39.879 44.4591 39.3264V38.1239C44.4591 37.5705 44.0104 37.1217 43.4569 37.1217H41.1856C40.6329 37.1217 40.1834 36.6722 40.1834 36.1196C40.1834 35.567 40.6329 35.1175 41.1856 35.1175H47.5989C48.2252 35.1175 48.7347 34.608 48.7347 33.9817V30.7751C48.7347 30.1489 48.2252 29.6394 47.5989 29.6394H43.3234C41.592 29.6394 40.1836 28.2309 40.1836 26.4995V23.2929C40.1836 21.5615 41.592 20.153 43.3234 20.153H43.4571C44.0104 20.153 44.4592 19.7044 44.4592 19.1509V17.9484C44.4592 17.3957 44.9087 16.9462 45.4613 16.9462C46.0139 16.9462 46.4634 17.3957 46.4634 17.9484V19.1509C46.4634 19.7042 46.9121 20.153 47.4656 20.153H49.7369C50.2896 20.153 50.7391 20.6025 50.7391 21.1551C50.7391 21.7077 50.2896 22.1572 49.7369 22.1572H43.3234C42.6972 22.1572 42.1877 22.6667 42.1877 23.293V26.4996C42.1877 27.1259 42.6972 27.6354 43.3234 27.6354H47.5991C49.3304 27.6354 50.7389 29.0439 50.7389 30.7752V33.9819Z" fill="#660D33"/>
</svg>
