<svg width="176" height="56" viewBox="0 0 176 56" fill="none" xmlns="http://www.w3.org/2000/svg">
<path d="M0.44 35.048C0.44 34.28 0.504 33.464 0.632 32.6C0.792 31.704 1.016 30.76 1.304 29.768C1.624 28.744 2.008 27.672 2.456 26.552L5.912 27.896C5.592 28.792 5.304 29.64 5.048 30.44C4.824 31.24 4.648 31.992 4.52 32.696C4.424 33.4 4.376 34.072 4.376 34.712C4.376 35.96 4.632 37.048 5.144 37.976C5.688 38.904 6.44 39.672 7.4 40.28C8.36 40.92 9.48 41.4 10.76 41.72C12.04 42.04 13.416 42.2 14.888 42.2C17.192 42.2 19.208 41.944 20.936 41.432C22.664 40.952 24.104 40.328 25.256 39.56C26.408 38.792 27.256 37.992 27.8 37.16C28.376 36.328 28.664 35.592 28.664 34.952C28.664 34.504 28.392 34.104 27.848 33.752C27.304 33.4 26.6 33.064 25.736 32.744C24.872 32.424 23.96 32.088 23 31.736C22.04 31.352 21.128 30.904 20.264 30.392C19.4 29.88 18.696 29.272 18.152 28.568C17.608 27.832 17.336 26.968 17.336 25.976C17.336 24.664 17.656 23.368 18.296 22.088C18.968 20.776 19.864 19.576 20.984 18.488C22.136 17.4 23.416 16.536 24.824 15.896C26.232 15.224 27.688 14.888 29.192 14.888C30.536 14.888 31.688 15.08 32.648 15.464C33.608 15.816 34.296 16.152 34.712 16.472L33.128 19.88C32.584 19.624 31.976 19.384 31.304 19.16C30.632 18.936 29.928 18.824 29.192 18.824C28.264 18.824 27.32 19.016 26.36 19.4C25.432 19.784 24.568 20.296 23.768 20.936C23 21.576 22.376 22.28 21.896 23.048C21.416 23.816 21.176 24.584 21.176 25.352C21.176 25.896 21.448 26.392 21.992 26.84C22.568 27.288 23.304 27.704 24.2 28.088C25.096 28.472 26.04 28.872 27.032 29.288C28.056 29.672 29.016 30.104 29.912 30.584C30.808 31.032 31.528 31.56 32.072 32.168C32.648 32.776 32.936 33.496 32.936 34.328C32.936 35.512 32.536 36.792 31.736 38.168C30.936 39.544 29.752 40.824 28.184 42.008C26.616 43.224 24.696 44.216 22.424 44.984C20.184 45.752 17.592 46.136 14.648 46.136C12.632 46.136 10.76 45.912 9.032 45.464C7.336 45.016 5.832 44.328 4.52 43.4C3.24 42.504 2.232 41.352 1.496 39.944C0.792 38.568 0.44 36.936 0.44 35.048ZM19.544 55.208C18.872 55.208 18.296 54.968 17.816 54.488C17.368 54.04 17.144 53.496 17.144 52.856C17.144 52.216 17.368 51.656 17.816 51.176C18.296 50.696 18.872 50.456 19.544 50.456C20.184 50.456 20.728 50.696 21.176 51.176C21.656 51.656 21.896 52.216 21.896 52.856C21.896 53.496 21.656 54.04 21.176 54.488C20.728 54.968 20.184 55.208 19.544 55.208ZM12.968 55.208C12.296 55.208 11.72 54.968 11.24 54.488C10.792 54.04 10.568 53.496 10.568 52.856C10.568 52.216 10.792 51.656 11.24 51.176C11.72 50.696 12.296 50.456 12.968 50.456C13.608 50.456 14.152 50.696 14.6 51.176C15.08 51.656 15.32 52.216 15.32 52.856C15.32 53.496 15.08 54.04 14.6 54.488C14.152 54.968 13.608 55.208 12.968 55.208ZM35.6608 46.04L34.2687 42.392C37.5008 41.368 39.9808 40.136 41.7088 38.696C43.4688 37.288 44.6688 35.816 45.3088 34.28C45.9808 32.744 46.3168 31.272 46.3168 29.864C46.3168 28.968 46.2208 28.104 46.0288 27.272C45.8368 26.44 45.5008 25.496 45.0208 24.44C44.5408 23.384 43.8688 22.072 43.0048 20.504L46.5088 18.728C47.7248 20.808 48.5888 22.776 49.1008 24.632C49.6448 26.488 49.9168 28.12 49.9168 29.528C49.9168 31.544 49.5808 33.368 48.9088 35C48.2688 36.632 47.4048 38.072 46.3168 39.32C45.2608 40.6 44.0928 41.688 42.8128 42.584C41.5648 43.48 40.3008 44.216 39.0208 44.792C37.7728 45.368 36.6528 45.784 35.6608 46.04ZM67.0618 35.24C64.5018 35.24 62.5338 34.952 61.1578 34.376C59.8138 33.8 58.8858 32.904 58.3738 31.688C57.8618 30.472 57.5738 28.904 57.5098 26.984L56.5498 0.727998H60.4858L61.4458 25.448C61.5098 27.016 61.6538 28.232 61.8778 29.096C62.1338 29.928 62.6778 30.504 63.5098 30.824C64.3738 31.144 65.7178 31.304 67.5418 31.304C68.2138 31.304 68.6938 31.496 68.9818 31.88C69.3018 32.232 69.4618 32.664 69.4618 33.176C69.4618 33.688 69.2378 34.168 68.7898 34.616C68.3418 35.032 67.7658 35.24 67.0618 35.24ZM67.0625 35.24L67.5425 31.304C68.5665 31.304 69.3985 31.24 70.0385 31.112C70.6785 30.952 71.2065 30.584 71.6225 30.008C72.0705 29.4 72.4865 28.456 72.8705 27.176C73.2545 25.896 73.7025 24.104 74.2145 21.8L77.8145 22.808C77.6225 23.608 77.3985 24.568 77.1425 25.688C76.8865 26.808 76.7585 27.832 76.7585 28.76C76.7585 29.272 76.8865 29.72 77.1425 30.104C77.3985 30.488 77.8305 30.792 78.4385 31.016C79.0785 31.208 79.9265 31.304 80.9825 31.304C81.9425 31.304 82.7265 31.224 83.3345 31.064C83.9425 30.904 84.4385 30.52 84.8225 29.912C85.2385 29.304 85.6065 28.328 85.9265 26.984C86.2465 25.64 86.5825 23.8 86.9345 21.464L90.5825 22.136C90.4865 22.712 90.3745 23.416 90.2465 24.248C90.1185 25.08 89.9905 25.912 89.8625 26.744C89.7665 27.544 89.7185 28.216 89.7185 28.76C89.7185 29.208 89.8145 29.64 90.0065 30.056C90.2305 30.44 90.6465 30.744 91.2545 30.968C91.8945 31.192 92.8385 31.304 94.0865 31.304C95.6865 31.304 96.8385 30.968 97.5425 30.296C98.2785 29.624 98.6465 28.6 98.6465 27.224C98.6465 26.488 98.6305 25.72 98.5985 24.92C98.5665 24.088 98.5025 23.176 98.4065 22.184C98.3425 21.16 98.2305 19.992 98.0705 18.68L101.575 18.44C101.767 21.032 101.975 23.16 102.199 24.824C102.455 26.488 102.807 27.8 103.255 28.76C103.735 29.688 104.375 30.344 105.175 30.728C105.975 31.112 107.031 31.304 108.343 31.304C109.015 31.304 109.495 31.496 109.783 31.88C110.103 32.232 110.263 32.664 110.263 33.176C110.263 33.688 110.039 34.168 109.591 34.616C109.143 35.032 108.567 35.24 107.863 35.24C106.775 35.24 105.799 35.096 104.935 34.808C104.103 34.488 103.367 34.072 102.727 33.56C102.119 33.016 101.607 32.408 101.191 31.736C100.807 31.032 100.535 30.296 100.375 29.528L101.239 29.816C100.887 31.256 100.327 32.376 99.5585 33.176C98.8225 33.944 97.9425 34.488 96.9185 34.808C95.8945 35.096 94.8065 35.24 93.6545 35.24C92.2465 35.24 91.0945 35.064 90.1985 34.712C89.3025 34.36 88.5985 33.832 88.0865 33.128C87.6065 32.392 87.2865 31.464 87.1265 30.344H88.7585C88.1505 31.72 87.5105 32.76 86.8385 33.464C86.1665 34.168 85.3345 34.648 84.3425 34.904C83.3505 35.128 82.0385 35.24 80.4065 35.24C79.6065 35.24 78.7425 35.112 77.8145 34.856C76.9185 34.6 76.1345 34.104 75.4625 33.368C74.7905 32.6 74.3905 31.464 74.2625 29.96L75.7025 29.672C75.1585 31.304 74.4865 32.52 73.6865 33.32C72.9185 34.088 71.9905 34.6 70.9025 34.856C69.8145 35.112 68.5345 35.24 67.0625 35.24ZM87.7505 8.84C87.0785 8.84 86.5025 8.616 86.0225 8.168C85.5745 7.688 85.3505 7.128 85.3505 6.488C85.3505 5.848 85.5745 5.288 86.0225 4.808C86.5025 4.328 87.0785 4.088 87.7505 4.088C88.3905 4.088 88.9345 4.328 89.3825 4.808C89.8625 5.288 90.1025 5.848 90.1025 6.488C90.1025 7.128 89.8625 7.688 89.3825 8.168C88.9345 8.616 88.3905 8.84 87.7505 8.84ZM84.4865 14.12C83.8145 14.12 83.2385 13.896 82.7585 13.448C82.3105 12.968 82.0865 12.408 82.0865 11.768C82.0865 11.128 82.3105 10.568 82.7585 10.088C83.2385 9.608 83.8145 9.368 84.4865 9.368C85.1265 9.368 85.6705 9.608 86.1185 10.088C86.5985 10.568 86.8385 11.128 86.8385 11.768C86.8385 12.408 86.5985 12.968 86.1185 13.448C85.6705 13.896 85.1265 14.12 84.4865 14.12ZM91.0145 14.12C90.3425 14.12 89.7665 13.896 89.2865 13.448C88.8385 12.968 88.6145 12.408 88.6145 11.768C88.6145 11.128 88.8385 10.568 89.2865 10.088C89.7665 9.608 90.3425 9.368 91.0145 9.368C91.6545 9.368 92.1985 9.608 92.6465 10.088C93.1265 10.568 93.3665 11.128 93.3665 11.768C93.3665 12.408 93.1265 12.968 92.6465 13.448C92.1985 13.896 91.6545 14.12 91.0145 14.12ZM107.844 35.24L108.324 31.304C109.924 31.304 111.172 31.192 112.068 30.968C112.964 30.712 113.636 30.248 114.084 29.576C114.564 28.872 114.948 27.864 115.236 26.552C115.524 25.24 115.876 23.528 116.292 21.416L120.036 22.136C119.908 22.712 119.764 23.352 119.604 24.056C119.444 24.76 119.3 25.464 119.172 26.168C119.076 26.84 119.028 27.432 119.028 27.944C119.028 28.424 119.06 28.872 119.124 29.288C119.188 29.704 119.428 30.056 119.844 30.344C120.26 30.632 120.964 30.872 121.956 31.064C122.948 31.224 124.372 31.304 126.228 31.304C126.9 31.304 127.38 31.496 127.668 31.88C127.988 32.232 128.148 32.664 128.148 33.176C128.148 33.688 127.924 34.168 127.476 34.616C127.028 35.032 126.452 35.24 125.748 35.24C123.796 35.24 122.244 35.144 121.092 34.952C119.94 34.728 119.06 34.408 118.452 33.992C117.876 33.576 117.46 33.064 117.204 32.456C116.98 31.816 116.804 31.08 116.676 30.248L118.116 30.344C117.604 31.368 117.044 32.2 116.436 32.84C115.86 33.48 115.188 33.976 114.42 34.328C113.652 34.68 112.724 34.92 111.636 35.048C110.58 35.176 109.316 35.24 107.844 35.24ZM120.66 16.472C119.988 16.472 119.412 16.248 118.932 15.8C118.484 15.32 118.26 14.76 118.26 14.12C118.26 13.48 118.484 12.92 118.932 12.44C119.412 11.96 119.988 11.72 120.66 11.72C121.3 11.72 121.844 11.96 122.292 12.44C122.772 12.92 123.012 13.48 123.012 14.12C123.012 14.76 122.772 15.32 122.292 15.8C121.844 16.248 121.3 16.472 120.66 16.472ZM114.084 16.472C113.412 16.472 112.836 16.248 112.356 15.8C111.908 15.32 111.684 14.76 111.684 14.12C111.684 13.48 111.908 12.92 112.356 12.44C112.836 11.96 113.412 11.72 114.084 11.72C114.724 11.72 115.268 11.96 115.716 12.44C116.196 12.92 116.436 13.48 116.436 14.12C116.436 14.76 116.196 15.32 115.716 15.8C115.268 16.248 114.724 16.472 114.084 16.472ZM125.75 35.24L126.23 31.304C127.254 31.304 128.086 31.24 128.726 31.112C129.366 30.952 129.894 30.584 130.31 30.008C130.758 29.4 131.174 28.456 131.558 27.176C131.942 25.896 132.39 24.104 132.902 21.8L136.502 22.808C136.374 23.352 136.23 23.976 136.07 24.68C135.91 25.352 135.766 26.056 135.638 26.792C135.51 27.496 135.446 28.152 135.446 28.76C135.446 29.56 135.75 30.184 136.358 30.632C136.966 31.08 138.07 31.304 139.67 31.304C140.63 31.304 141.414 31.224 142.022 31.064C142.63 30.904 143.126 30.52 143.51 29.912C143.926 29.304 144.294 28.328 144.614 26.984C144.934 25.64 145.27 23.8 145.622 21.464L149.27 22.136C149.174 22.712 149.062 23.416 148.934 24.248C148.806 25.08 148.678 25.912 148.55 26.744C148.454 27.544 148.406 28.216 148.406 28.76C148.406 29.208 148.502 29.64 148.694 30.056C148.918 30.44 149.334 30.744 149.942 30.968C150.582 31.192 151.526 31.304 152.774 31.304C153.702 31.304 154.502 31.192 155.174 30.968C155.878 30.744 156.406 30.328 156.758 29.72C157.142 29.112 157.334 28.264 157.334 27.176C157.334 25.96 157.046 24.44 156.47 22.616C155.926 20.76 155.302 18.92 154.598 17.096L158.486 15.656C158.902 16.68 159.286 17.848 159.638 19.16C160.022 20.472 160.342 21.768 160.598 23.048C160.854 24.328 160.982 25.448 160.982 26.408C160.982 27.88 160.79 29.176 160.406 30.296C160.022 31.416 159.478 32.344 158.774 33.08C158.07 33.784 157.206 34.328 156.182 34.712C155.158 35.064 154.006 35.24 152.726 35.24C151.222 35.24 149.99 35.064 149.03 34.712C148.07 34.36 147.334 33.832 146.822 33.128C146.31 32.392 145.974 31.464 145.814 30.344H147.446C146.838 31.72 146.198 32.76 145.526 33.464C144.854 34.168 144.022 34.648 143.03 34.904C142.038 35.128 140.726 35.24 139.094 35.24C138.294 35.24 137.43 35.112 136.502 34.856C135.606 34.6 134.822 34.104 134.15 33.368C133.478 32.6 133.078 31.464 132.95 29.96L134.39 29.672C133.846 31.304 133.174 32.52 132.374 33.32C131.606 34.088 130.678 34.6 129.59 34.856C128.502 35.112 127.222 35.24 125.75 35.24ZM167.807 35L166.847 0.727998H170.735L171.695 35H167.807ZM166.511 49.544L165.935 46.952C166.767 46.76 167.439 46.6 167.951 46.472C168.463 46.344 169.039 46.2 169.679 46.04L169.439 47.048C168.607 46.792 167.807 46.248 167.039 45.416C166.303 44.584 165.935 43.64 165.935 42.584C165.935 41.624 166.159 40.808 166.607 40.136C167.087 39.496 167.695 39.016 168.431 38.696C169.199 38.376 170.015 38.216 170.879 38.216C171.231 38.216 171.599 38.248 171.983 38.312C172.399 38.376 172.783 38.472 173.135 38.6L172.751 41C172.431 40.936 172.127 40.872 171.839 40.808C171.551 40.744 171.231 40.712 170.879 40.712C170.143 40.712 169.567 40.856 169.151 41.144C168.735 41.464 168.527 41.896 168.527 42.44C168.527 43.112 168.735 43.688 169.151 44.168C169.599 44.648 170.095 45.016 170.639 45.272C171.215 45.56 171.679 45.704 172.031 45.704L170.063 45.896C170.927 45.672 171.727 45.432 172.463 45.176C173.231 44.952 173.919 44.728 174.527 44.504L175.295 46.952C174.527 47.24 173.615 47.544 172.559 47.864C171.535 48.184 170.495 48.488 169.439 48.776C168.383 49.064 167.407 49.32 166.511 49.544Z" fill="white"/>
<path d="M0.632 32.6L-2.32128 32.0726L-2.3291 32.1164L-2.33561 32.1604L0.632 32.6ZM1.304 29.768L-1.55944 28.8732L-1.56854 28.9023L-1.57704 28.9316L1.304 29.768ZM2.456 26.552L3.54334 23.756L0.774081 22.6791L-0.32943 25.4378L2.456 26.552ZM5.912 27.896L8.73723 28.905L9.7185 26.1574L6.99934 25.1L5.912 27.896ZM5.048 30.44L2.19073 29.5257L2.17395 29.5781L2.15911 29.6311L5.048 30.44ZM4.52 32.696L1.56839 32.1593L1.55649 32.2248L1.54751 32.2907L4.52 32.696ZM5.144 37.976L2.51727 39.4252L2.53614 39.4594L2.55591 39.4932L5.144 37.976ZM7.4 40.28L9.0641 37.7838L9.03485 37.7644L9.00516 37.7455L7.4 40.28ZM10.76 41.72L11.4876 38.8096L10.76 41.72ZM20.936 41.432L20.1331 38.5414L20.1083 38.5483L20.0837 38.5556L20.936 41.432ZM25.256 39.56L26.9201 42.0562L26.9201 42.0561L25.256 39.56ZM27.8 37.16L25.3334 35.4524L25.3108 35.485L25.2891 35.5182L27.8 37.16ZM27.848 33.752L26.2182 36.2707H26.2182L27.848 33.752ZM23 31.736L21.8858 34.5214L21.9263 34.5376L21.9672 34.5526L23 31.736ZM20.264 30.392L18.7346 32.9729L20.264 30.392ZM18.152 28.568L15.7395 30.3512L15.7585 30.377L15.7781 30.4023L18.152 28.568ZM18.296 22.088L15.6259 20.7204L15.6192 20.7333L15.6127 20.7464L18.296 22.088ZM20.984 18.488L18.9241 16.307L18.9088 16.3215L18.8936 16.3362L20.984 18.488ZM24.824 15.896L26.0654 18.6271L26.0909 18.6155L26.1162 18.6034L24.824 15.896ZM32.648 15.464L31.5338 18.2494L31.5743 18.2656L31.6152 18.2806L32.648 15.464ZM34.712 16.472L37.4325 17.7365L38.4448 15.5585L36.5411 14.0941L34.712 16.472ZM33.128 19.88L31.8506 22.5945L34.578 23.8779L35.8485 21.1445L33.128 19.88ZM31.304 19.16L32.2527 16.3139L31.304 19.16ZM26.36 19.4L25.2458 16.6146L25.2293 16.6212L25.2129 16.6279L26.36 19.4ZM23.768 20.936L21.8939 18.5934L21.8705 18.6121L21.8474 18.6313L23.768 20.936ZM21.896 23.048L24.44 24.638H24.44L21.896 23.048ZM21.992 26.84L20.0849 29.1558L20.1172 29.1824L20.1502 29.2081L21.992 26.84ZM24.2 28.088L25.3818 25.3306L25.3818 25.3306L24.2 28.088ZM27.032 29.288L25.8718 32.0546L25.9248 32.0768L25.9786 32.097L27.032 29.288ZM29.912 30.584L28.4953 33.2284L28.5326 33.2484L28.5704 33.2673L29.912 30.584ZM32.072 32.168L29.8363 34.1684L29.8648 34.2002L29.8941 34.2312L32.072 32.168ZM31.736 38.168L34.3295 39.6759H34.3295L31.736 38.168ZM28.184 42.008L26.3762 39.6139L26.3608 39.6255L26.3455 39.6373L28.184 42.008ZM22.424 44.984L21.4633 42.142L21.451 42.1462L22.424 44.984ZM9.032 45.464L8.26582 48.3645L8.27911 48.368L9.032 45.464ZM4.52 43.4L6.25239 40.9508L6.2464 40.9465L6.24039 40.9423L4.52 43.4ZM1.496 39.944L-1.17474 41.3104L-1.16876 41.3221L-1.16268 41.3338L1.496 39.944ZM17.816 54.488L19.9373 52.3667H19.9373L17.816 54.488ZM17.816 51.176L15.6947 49.0547L15.6581 49.0912L15.6228 49.129L17.816 51.176ZM21.176 51.176L18.9828 53.223L19.0181 53.2608L19.0547 53.2973L21.176 51.176ZM21.176 54.488L19.129 52.2948L19.0534 52.3654L18.9828 52.441L21.176 54.488ZM11.24 54.488L13.3613 52.3667L13.3613 52.3667L11.24 54.488ZM11.24 51.176L9.11868 49.0547L9.08212 49.0912L9.04683 49.129L11.24 51.176ZM14.6 51.176L12.4068 53.223L12.4421 53.2608L12.4787 53.2973L14.6 51.176ZM14.6 54.488L12.553 52.2948L12.4774 52.3654L12.4068 52.441L14.6 54.488ZM3.44 35.048C3.44 34.4455 3.4903 33.7775 3.59961 33.0396L-2.33561 32.1604C-2.4823 33.1505 -2.56 34.1145 -2.56 35.048H3.44ZM3.58528 33.1274C3.72439 32.3484 3.9227 31.508 4.18504 30.6044L-1.57704 28.9316C-1.8907 30.012 -2.14039 31.0596 -2.32128 32.0726L3.58528 33.1274ZM4.16744 30.6628C4.46165 29.7214 4.81878 28.7228 5.24143 27.6662L-0.32943 25.4378C-0.802783 26.6212 -1.21365 27.7666 -1.55944 28.8732L4.16744 30.6628ZM1.36866 29.348L4.82466 30.692L6.99934 25.1L3.54334 23.756L1.36866 29.348ZM3.08677 26.887C2.75701 27.8103 2.45811 28.6901 2.19073 29.5257L7.90527 31.3543C8.14989 30.5899 8.42699 29.7737 8.73723 28.905L3.08677 26.887ZM2.15911 29.6311C1.91388 30.5069 1.71545 31.3505 1.56839 32.1593L7.47161 33.2327C7.58055 32.6335 7.73412 31.9731 7.93689 31.2489L2.15911 29.6311ZM1.54751 32.2907C1.43516 33.1146 1.376 33.9226 1.376 34.712H7.376C7.376 34.2214 7.41284 33.6854 7.49249 33.1013L1.54751 32.2907ZM1.376 34.712C1.376 36.3766 1.72024 37.9806 2.51727 39.4252L7.77073 36.5268C7.54376 36.1154 7.376 35.5434 7.376 34.712H1.376ZM2.55591 39.4932C3.35543 40.8571 4.45424 41.9654 5.79484 42.8145L9.00516 37.7455C8.42577 37.3786 8.02057 36.9509 7.73209 36.4588L2.55591 39.4932ZM5.7359 42.7761C7.01988 43.6321 8.466 44.2388 10.0324 44.6304L11.4876 38.8096C10.494 38.5612 9.70012 38.2079 9.0641 37.7838L5.7359 42.7761ZM10.0324 44.6304C11.5759 45.0163 13.1986 45.2 14.888 45.2V39.2C13.6334 39.2 12.5041 39.0637 11.4876 38.8096L10.0324 44.6304ZM14.888 45.2C17.4046 45.2 19.7191 44.9215 21.7883 44.3084L20.0837 38.5556C18.6969 38.9665 16.9794 39.2 14.888 39.2V45.2ZM21.7389 44.3226C23.6876 43.7812 25.4389 43.0436 26.9201 42.0562L23.5919 37.0639C22.7691 37.6124 21.6404 38.1228 20.1331 38.5414L21.7389 44.3226ZM26.9201 42.0561C28.2857 41.1457 29.4764 40.0781 30.3109 38.8018L25.2891 35.5182C25.0356 35.9059 24.5303 36.4383 23.5919 37.0639L26.9201 42.0561ZM30.2666 38.8676C31.0037 37.8028 31.664 36.4632 31.664 34.952H25.664C25.664 34.8215 25.6929 34.792 25.6543 34.8908C25.6149 34.9914 25.5238 35.1773 25.3334 35.4524L30.2666 38.8676ZM31.664 34.952C31.664 33.0775 30.4642 31.8716 29.4778 31.2333L26.2182 36.2707C26.2617 36.2989 26.131 36.2261 25.9792 36.0029C25.8052 35.747 25.664 35.3781 25.664 34.952H31.664ZM29.4778 31.2333C28.69 30.7235 27.7693 30.2979 26.7779 29.9308L24.6941 35.5572C25.4307 35.8301 25.918 36.0765 26.2182 36.2707L29.4778 31.2333ZM26.7779 29.9308C25.9106 29.6095 24.9955 29.2724 24.0328 28.9194L21.9672 34.5526C22.9245 34.9036 23.8334 35.2385 24.6941 35.5572L26.7779 29.9308ZM24.1142 28.9506C23.2934 28.6223 22.5206 28.2421 21.7934 27.8111L18.7346 32.9729C19.7354 33.5659 20.7866 34.0817 21.8858 34.5214L24.1142 28.9506ZM21.7934 27.8111C21.2138 27.4676 20.8101 27.1015 20.5259 26.7337L15.7781 30.4023C16.5819 31.4425 17.5862 32.2924 18.7346 32.9729L21.7934 27.8111ZM20.5645 26.7848C20.4346 26.6091 20.336 26.383 20.336 25.976H14.336C14.336 27.553 14.7814 29.0549 15.7395 30.3512L20.5645 26.7848ZM20.336 25.976C20.336 25.1709 20.5283 24.3316 20.9793 23.4296L15.6127 20.7464C14.7837 22.4044 14.336 24.1571 14.336 25.976H20.336ZM20.9661 23.4556C21.4803 22.4518 22.1751 21.5134 23.0744 20.6398L18.8936 16.3362C17.5529 17.6386 16.4557 19.1002 15.6259 20.7204L20.9661 23.4556ZM23.0439 20.669C23.9612 19.8026 24.9661 19.1268 26.0654 18.6271L23.5826 13.1649C21.8659 13.9452 20.3108 14.9974 18.9241 16.307L23.0439 20.669ZM26.1162 18.6034C27.1361 18.1166 28.152 17.888 29.192 17.888V11.888C27.224 11.888 25.3279 12.3314 23.5318 13.1886L26.1162 18.6034ZM29.192 17.888C30.2633 17.888 31.0169 18.0427 31.5338 18.2494L33.7622 12.6786C32.3591 12.1173 30.8087 11.888 29.192 11.888V17.888ZM31.6152 18.2806C32.0284 18.4321 32.3406 18.5649 32.5675 18.6757C32.8048 18.7916 32.8891 18.8547 32.8829 18.8499L36.5411 14.0941C35.7509 13.4863 34.7098 13.0247 33.6808 12.6474L31.6152 18.2806ZM31.9915 15.2075L30.4075 18.6155L35.8485 21.1445L37.4325 17.7365L31.9915 15.2075ZM34.4054 17.1655C33.7377 16.8513 33.0176 16.5689 32.2527 16.3139L30.3553 22.0061C30.9344 22.1991 31.4303 22.3967 31.8506 22.5945L34.4054 17.1655ZM32.2527 16.3139C31.263 15.984 30.2377 15.824 29.192 15.824V21.824C29.6183 21.824 30.001 21.888 30.3553 22.0061L32.2527 16.3139ZM29.192 15.824C27.8411 15.824 26.5198 16.105 25.2458 16.6146L27.4742 22.1854C28.1202 21.927 28.6869 21.824 29.192 21.824V15.824ZM25.2129 16.6279C24.0183 17.1223 22.9103 17.7803 21.8939 18.5934L25.6421 23.2786C26.2257 22.8117 26.8457 22.4457 27.5071 22.1721L25.2129 16.6279ZM21.8474 18.6313C20.8603 19.454 20.0172 20.3938 19.352 21.458L24.44 24.638C24.7348 24.1662 25.1397 23.698 25.6886 23.2407L21.8474 18.6313ZM19.352 21.458C18.6282 22.6162 18.176 23.9276 18.176 25.352H24.176C24.176 25.2404 24.2038 25.0158 24.44 24.638L19.352 21.458ZM18.176 25.352C18.176 27.0434 19.0692 28.3194 20.0849 29.1558L23.8991 24.5242C23.8517 24.4852 23.924 24.532 24.0104 24.6895C24.1069 24.8653 24.176 25.0993 24.176 25.352H18.176ZM20.1502 29.2081C20.9834 29.8561 21.9601 30.3919 23.0182 30.8454L25.3818 25.3306C24.648 25.0161 24.1526 24.7199 23.8338 24.4719L20.1502 29.2081ZM23.0182 30.8454C23.9221 31.2328 24.8733 31.6359 25.8718 32.0546L28.1922 26.5214C27.2067 26.1081 26.2699 25.7112 25.3818 25.3306L23.0182 30.8454ZM25.9786 32.097C26.8873 32.4377 27.7251 32.8158 28.4953 33.2284L31.3287 27.9396C30.3069 27.3922 29.2247 26.9062 28.0854 26.479L25.9786 32.097ZM28.5704 33.2673C29.2027 33.5834 29.5949 33.8986 29.8363 34.1684L34.3077 30.1676C33.4611 29.2214 32.4133 28.4806 31.2536 27.9007L28.5704 33.2673ZM29.8941 34.2312C29.9203 34.2588 29.9319 34.2757 29.9354 34.281C29.9385 34.2859 29.9371 34.2845 29.9346 34.2782C29.932 34.2719 29.9317 34.2688 29.9324 34.2724C29.9331 34.2764 29.936 34.2937 29.936 34.328H35.936C35.936 32.7227 35.3499 31.2659 34.2499 30.1048L29.8941 34.2312ZM29.936 34.328C29.936 34.8304 29.7647 35.59 29.1425 36.6601L34.3295 39.6759C35.3073 37.994 35.936 36.1936 35.936 34.328H29.936ZM29.1425 36.6601C28.5839 37.6208 27.6984 38.6155 26.3762 39.6139L29.9918 44.4021C31.8056 43.0325 33.2881 41.4672 34.3295 39.6759L29.1425 36.6601ZM26.3455 39.6373C25.0904 40.6107 23.4825 41.4594 21.4633 42.142L23.3847 47.826C25.9095 46.9726 28.1416 45.8373 30.0225 44.3787L26.3455 39.6373ZM21.451 42.1462C19.5897 42.7843 17.3382 43.136 14.648 43.136V49.136C17.8458 49.136 20.7783 48.7197 23.397 47.8218L21.451 42.1462ZM14.648 43.136C12.8538 43.136 11.2377 42.9367 9.78489 42.56L8.27911 48.368C10.2823 48.8873 12.4102 49.136 14.648 49.136V43.136ZM9.79817 42.5635C8.41686 42.1986 7.24619 41.6537 6.25239 40.9508L2.78761 45.8492C4.41781 47.0023 6.25514 47.8334 8.26583 48.3645L9.79817 42.5635ZM6.24039 40.9423C5.36103 40.3268 4.67189 39.5437 4.15468 38.5542L-1.16268 41.3338C-0.207891 43.1603 1.11897 44.6812 2.79961 45.8577L6.24039 40.9423ZM4.16674 38.5776C3.72192 37.7081 3.44 36.5646 3.44 35.048H-2.56C-2.56 37.3074 -2.13792 39.4279 -1.17474 41.3104L4.16674 38.5776ZM19.544 52.208C19.5733 52.208 19.6569 52.215 19.7618 52.2588C19.8662 52.3023 19.9247 52.3541 19.9373 52.3667L15.6947 56.6093C16.7309 57.6455 18.0673 58.208 19.544 58.208V52.208ZM19.9373 52.3667C19.9716 52.401 20.0359 52.4801 20.086 52.6018C20.1359 52.7228 20.144 52.8188 20.144 52.856H14.144C14.144 54.2826 14.6777 55.5923 15.6947 56.6093L19.9373 52.3667ZM20.144 52.856C20.144 52.8941 20.1357 52.9745 20.0974 53.0702C20.0597 53.1645 20.0161 53.2155 20.0092 53.223L15.6228 49.129C14.6712 50.1486 14.144 51.4346 14.144 52.856H20.144ZM19.9373 53.2973C19.9247 53.3099 19.8662 53.3617 19.7618 53.4052C19.6569 53.449 19.5733 53.456 19.544 53.456V47.456C18.0673 47.456 16.7309 48.0185 15.6947 49.0547L19.9373 53.2973ZM19.544 53.456C19.4793 53.456 19.3591 53.4416 19.2211 53.3808C19.0848 53.3206 19.0067 53.2485 18.9828 53.223L23.3692 49.129C22.3704 48.059 21.0396 47.456 19.544 47.456V53.456ZM19.0547 53.2973C19.0556 53.2982 19.0051 53.2464 18.9586 53.1378C18.9105 53.0256 18.896 52.9214 18.896 52.856H24.896C24.896 51.3683 24.3021 50.0594 23.2973 49.0547L19.0547 53.2973ZM18.896 52.856C18.896 52.7913 18.9104 52.6711 18.9712 52.5331C19.0314 52.3968 19.1035 52.3187 19.129 52.2948L23.223 56.6812C24.293 55.6824 24.896 54.3516 24.896 52.856H18.896ZM18.9828 52.441C19.0067 52.4155 19.0848 52.3434 19.2211 52.2832C19.3591 52.2224 19.4793 52.208 19.544 52.208V58.208C21.0396 58.208 22.3704 57.605 23.3692 56.535L18.9828 52.441ZM12.968 52.208C12.9973 52.208 13.0809 52.215 13.1858 52.2588C13.2902 52.3023 13.3487 52.3541 13.3613 52.3667L9.11868 56.6093C10.1549 57.6455 11.4913 58.208 12.968 58.208V52.208ZM13.3613 52.3667C13.3956 52.401 13.4599 52.4801 13.51 52.6018C13.5599 52.7228 13.568 52.8188 13.568 52.856H7.568C7.568 54.2826 8.10168 55.5923 9.11868 56.6093L13.3613 52.3667ZM13.568 52.856C13.568 52.8941 13.5597 52.9745 13.5214 53.0702C13.4837 53.1645 13.4401 53.2155 13.4332 53.223L9.04683 49.129C8.09524 50.1486 7.568 51.4346 7.568 52.856H13.568ZM13.3613 53.2973C13.3487 53.3099 13.2902 53.3617 13.1858 53.4052C13.0809 53.449 12.9973 53.456 12.968 53.456V47.456C11.4913 47.456 10.1549 48.0185 9.11868 49.0547L13.3613 53.2973ZM12.968 53.456C12.9033 53.456 12.7831 53.4416 12.6451 53.3808C12.5088 53.3206 12.4307 53.2485 12.4068 53.223L16.7932 49.129C15.7944 48.059 14.4636 47.456 12.968 47.456V53.456ZM12.4787 53.2973C12.4796 53.2982 12.4291 53.2464 12.3826 53.1378C12.3345 53.0256 12.32 52.9214 12.32 52.856H18.32C18.32 51.3683 17.7261 50.0594 16.7213 49.0547L12.4787 53.2973ZM12.32 52.856C12.32 52.7913 12.3344 52.6711 12.3952 52.5331C12.4554 52.3968 12.5275 52.3187 12.553 52.2948L16.647 56.6812C17.717 55.6824 18.32 54.3516 18.32 52.856H12.32ZM12.4068 52.441C12.4307 52.4155 12.5088 52.3434 12.6451 52.2832C12.7831 52.2224 12.9033 52.208 12.968 52.208V58.208C14.4636 58.208 15.7944 57.605 16.7932 56.535L12.4068 52.441ZM35.6608 46.04L32.8579 47.1095L33.8139 49.6149L36.4104 48.9448L35.6608 46.04ZM34.2687 42.392L33.3626 39.5321L30.3328 40.4921L31.4659 43.4615L34.2687 42.392ZM41.7088 38.696L39.8347 36.3534L39.8112 36.3721L39.7882 36.3913L41.7088 38.696ZM45.3088 34.28L42.5603 33.0775L42.5497 33.1018L42.5395 33.1262L45.3088 34.28ZM46.0288 27.272L48.9519 26.5974L46.0288 27.272ZM43.0047 20.504L41.6485 17.8281L38.8786 19.232L40.3772 21.9518L43.0047 20.504ZM46.5088 18.728L49.0986 17.2139L47.6727 14.7747L45.1525 16.0521L46.5088 18.728ZM49.1007 24.632L46.2088 25.4298L46.2151 25.4529L46.2219 25.4758L49.1007 24.632ZM48.9087 35L46.1347 33.8577L46.1251 33.8812L46.1158 33.9047L48.9087 35ZM46.3167 39.32L44.0554 37.3486L44.0286 37.3794L44.0026 37.4109L46.3167 39.32ZM42.8128 42.584L41.0924 40.1263L41.0777 40.1366L41.0631 40.147L42.8128 42.584ZM39.0208 44.792L37.7897 42.0562L37.7766 42.0621L37.7636 42.0681L39.0208 44.792ZM38.4636 44.9705L37.0716 41.3225L31.4659 43.4615L32.8579 47.1095L38.4636 44.9705ZM35.1749 45.2519C38.6079 44.1642 41.4906 42.7829 43.6293 41.0007L39.7882 36.3913C38.4709 37.4891 36.3936 38.5718 33.3626 39.5321L35.1749 45.2519ZM43.5828 41.0386C45.6028 39.4226 47.1876 37.5708 48.078 35.4338L42.5395 33.1262C42.1499 34.0612 41.3347 35.1534 39.8347 36.3534L43.5828 41.0386ZM48.0572 35.4825C48.864 33.6384 49.3167 31.7571 49.3167 29.864H43.3167C43.3167 30.7869 43.0975 31.8496 42.5603 33.0775L48.0572 35.4825ZM49.3167 29.864C49.3167 28.7521 49.1974 27.6613 48.9519 26.5974L43.1056 27.9466C43.2441 28.5467 43.3167 29.1839 43.3167 29.864H49.3167ZM48.9519 26.5974C48.7022 25.5154 48.2873 24.3767 47.7519 23.1986L42.2896 25.6814C42.7142 26.6153 42.9713 27.3646 43.1056 27.9466L48.9519 26.5974ZM47.7519 23.1986C47.2278 22.0457 46.5158 20.6597 45.6323 19.0562L40.3772 21.9518C41.2217 23.4843 41.8537 24.7223 42.2896 25.6814L47.7519 23.1986ZM44.361 23.1799L47.865 21.4039L45.1525 16.0521L41.6485 17.8281L44.361 23.1799ZM43.9189 20.2421C45.0349 22.1511 45.7808 23.8782 46.2088 25.4298L51.9927 23.8342C51.3967 21.6738 50.4146 19.4649 49.0986 17.2139L43.9189 20.2421ZM46.2219 25.4758C46.7132 27.1522 46.9168 28.4897 46.9168 29.528H52.9168C52.9168 27.7503 52.5763 25.8238 51.9796 23.7882L46.2219 25.4758ZM46.9168 29.528C46.9168 31.2075 46.6378 32.636 46.1347 33.8577L51.6828 36.1423C52.5237 34.1 52.9168 31.8805 52.9168 29.528H46.9168ZM46.1158 33.9047C45.594 35.2353 44.9043 36.3749 44.0554 37.3486L48.5781 41.2914C49.9052 39.7691 50.9435 38.0287 51.7017 36.0953L46.1158 33.9047ZM44.0026 37.4109C43.1082 38.495 42.1373 39.3949 41.0924 40.1263L44.5331 45.0417C46.0482 43.9811 47.4133 42.705 48.6309 41.2291L44.0026 37.4109ZM41.0631 40.147C39.9625 40.9372 38.8711 41.5696 37.7897 42.0562L40.2518 47.5278C41.7304 46.8624 43.167 46.0228 44.5624 45.021L41.0631 40.147ZM37.7636 42.0681C36.6275 42.5925 35.6814 42.9364 34.9111 43.1352L36.4104 48.9448C37.6241 48.6316 38.918 48.1435 40.2779 47.5159L37.7636 42.0681ZM61.1577 34.376L59.976 37.1334L59.9876 37.1384L59.9993 37.1433L61.1577 34.376ZM58.3737 31.688L61.1387 30.5238L58.3737 31.688ZM57.5098 26.984L60.5081 26.8841L60.5077 26.8744L57.5098 26.984ZM56.5498 0.727997V-2.272H53.4381L53.5518 0.837614L56.5498 0.727997ZM60.4858 0.727997L63.4835 0.61158L63.3715 -2.272H60.4858V0.727997ZM61.4458 25.448L58.448 25.5644L58.4482 25.5703L61.4458 25.448ZM61.8778 29.096L58.9738 29.8489L58.9906 29.914L59.0104 29.9783L61.8778 29.096ZM63.5098 30.824L62.4328 33.624L62.4503 33.6307L62.4678 33.6372L63.5098 30.824ZM68.9818 31.88L66.5817 33.68L66.6667 33.7933L66.7619 33.898L68.9818 31.88ZM68.7897 34.616L70.8311 36.8144L70.8718 36.7766L70.9111 36.7373L68.7897 34.616ZM67.0618 32.24C64.6553 32.24 63.1525 31.9588 62.3162 31.6087L59.9993 37.1433C61.915 37.9452 64.3482 38.24 67.0618 38.24V32.24ZM62.3395 31.6186C61.6253 31.3125 61.3154 30.9435 61.1387 30.5238L55.6088 32.8522C56.4561 34.8645 58.0022 36.2875 59.976 37.1334L62.3395 31.6186ZM61.1387 30.5238C60.8178 29.7619 60.565 28.5903 60.5081 26.8841L54.5114 27.0839C54.5825 29.2177 54.9057 31.1821 55.6088 32.8522L61.1387 30.5238ZM60.5077 26.8744L59.5477 0.618382L53.5518 0.837614L54.5118 27.0936L60.5077 26.8744ZM56.5498 3.728H60.4858V-2.272H56.5498V3.728ZM57.488 0.844416L58.448 25.5644L64.4435 25.3316L63.4835 0.61158L57.488 0.844416ZM58.4482 25.5703C58.5155 27.217 58.6707 28.68 58.9738 29.8489L64.7817 28.3431C64.6368 27.784 64.504 26.815 64.4433 25.3257L58.4482 25.5703ZM59.0104 29.9783C59.5447 31.7148 60.7654 32.9827 62.4328 33.624L64.5867 28.024C64.5583 28.013 64.5583 28.01 64.5768 28.022C64.5962 28.0347 64.6262 28.0576 64.6588 28.0921C64.6915 28.1267 64.716 28.1615 64.7321 28.19C64.7478 28.2175 64.7496 28.2285 64.7451 28.2137L59.0104 29.9783ZM62.4678 33.6372C63.8527 34.1502 65.6404 34.304 67.5417 34.304V28.304C65.7951 28.304 64.8948 28.1378 64.5517 28.0108L62.4678 33.6372ZM67.5417 34.304C67.605 34.304 67.4947 34.3147 67.2916 34.2334C67.0616 34.1414 66.7933 33.9621 66.5817 33.68L71.3818 30.08C70.3229 28.6682 68.7557 28.304 67.5417 28.304V34.304ZM66.7619 33.898C66.672 33.7991 66.5863 33.6661 66.5285 33.5099C66.472 33.3574 66.4618 33.2362 66.4618 33.176H72.4618C72.4618 31.9797 72.0638 30.8104 71.2016 29.862L66.7619 33.898ZM66.4618 33.176C66.4618 32.9783 66.5084 32.7945 66.5752 32.6513C66.6369 32.5192 66.6924 32.4707 66.6684 32.4947L70.9111 36.7373C71.7801 35.8683 72.4618 34.6637 72.4618 33.176H66.4618ZM66.7484 32.4176C66.8204 32.3508 66.9123 32.295 67.0028 32.2623C67.0865 32.2321 67.1175 32.24 67.0618 32.24V38.24C68.4 38.24 69.7442 37.8236 70.8311 36.8144L66.7484 32.4176ZM67.0625 35.24L64.0846 34.8768L63.6744 38.24H67.0625V35.24ZM67.5425 31.304V28.304H64.8861L64.5646 30.9408L67.5425 31.304ZM70.0385 31.112L70.6268 34.0537L70.6969 34.0397L70.7661 34.0224L70.0385 31.112ZM71.6225 30.008L69.2073 28.2284L69.1988 28.2399L69.1905 28.2515L71.6225 30.008ZM72.8705 27.176L75.744 28.038L72.8705 27.176ZM74.2145 21.8L75.0234 18.9111L71.9731 18.057L71.2859 21.1492L74.2145 21.8ZM77.8145 22.808L80.7317 23.5081L81.406 20.6982L78.6234 19.9191L77.8145 22.808ZM77.1425 25.688L80.0671 26.3565L77.1425 25.688ZM78.4385 31.016L77.4014 33.831L77.488 33.8629L77.5765 33.8895L78.4385 31.016ZM83.3345 31.064L84.098 33.9652H84.098L83.3345 31.064ZM84.8225 29.912L82.3466 28.2179L82.3155 28.2634L82.286 28.31L84.8225 29.912ZM85.9265 26.984L83.0081 26.2891V26.2891L85.9265 26.984ZM86.9345 21.464L87.478 18.5136L84.4298 17.9521L83.968 21.017L86.9345 21.464ZM90.5825 22.136L93.5417 22.6292L94.0266 19.72L91.126 19.1856L90.5825 22.136ZM90.2465 24.248L87.2814 23.7918V23.7918L90.2465 24.248ZM89.8625 26.744L86.8974 26.2878L86.8898 26.3371L86.8839 26.3866L89.8625 26.744ZM90.0065 30.056L87.2826 31.3132L87.3428 31.4436L87.4152 31.5676L90.0065 30.056ZM91.2545 30.968L90.2174 33.783L90.2403 33.7915L90.2635 33.7996L91.2545 30.968ZM97.5425 30.296L95.5197 28.0805L95.4951 28.103L95.4711 28.1259L97.5425 30.296ZM98.5985 24.92L95.6007 25.0353L95.6009 25.0399L98.5985 24.92ZM98.4065 22.184L95.4123 22.3711L95.4155 22.4221L95.4205 22.473L98.4065 22.184ZM98.0705 18.68L97.8655 15.687L94.7096 15.9032L95.0926 19.0432L98.0705 18.68ZM101.575 18.44L104.566 18.2184L104.346 15.2431L101.369 15.447L101.575 18.44ZM102.199 24.824L99.2253 25.2242L99.2291 25.2522L99.2334 25.2802L102.199 24.824ZM103.255 28.76L100.536 30.0287L100.562 30.084L100.59 30.1383L103.255 28.76ZM105.174 30.728L103.876 33.4326L103.876 33.4326L105.174 30.728ZM109.783 31.88L107.382 33.68L107.467 33.7933L107.563 33.898L109.783 31.88ZM109.59 34.616L111.632 36.8144L111.673 36.7766L111.712 36.7373L109.59 34.616ZM104.935 34.808L103.858 37.608L103.921 37.6325L103.986 37.654L104.935 34.808ZM102.727 33.56L100.726 35.7957L100.788 35.8509L100.852 35.9026L102.727 33.56ZM101.19 31.736L98.5568 33.1726L98.5963 33.2449L98.6397 33.3151L101.19 31.736ZM100.374 29.528L101.323 26.6819L96.3734 25.032L97.4376 30.1399L100.374 29.528ZM101.239 29.816L104.153 30.5284L104.809 27.8439L102.187 26.97L101.239 29.816ZM99.5585 33.176L97.3943 31.0984L97.3925 31.1003L99.5585 33.176ZM96.9185 34.808L97.7307 37.696L97.7722 37.6843L97.8133 37.6714L96.9185 34.808ZM90.1985 34.712L89.1015 37.5043L90.1985 34.712ZM88.0865 33.128L85.5737 34.7668L85.6154 34.8308L85.6603 34.8925L88.0865 33.128ZM87.1265 30.344V27.344H83.6675L84.1567 30.7683L87.1265 30.344ZM88.7585 30.344L91.5026 31.5565L93.3639 27.344H88.7585V30.344ZM86.8385 33.464L84.6684 31.3926L86.8385 33.464ZM84.3425 34.904L85.0033 37.8303L85.0479 37.8203L85.0921 37.8088L84.3425 34.904ZM77.8145 34.856L76.9903 37.7406L77.0035 37.7443L77.0167 37.748L77.8145 34.856ZM75.4625 33.368L73.2048 35.3435L73.2257 35.3674L73.247 35.3908L75.4625 33.368ZM74.2625 29.96L73.6741 27.0183L71.046 27.5439L71.2733 30.2144L74.2625 29.96ZM75.7025 29.672L78.5486 30.6207L80.1833 25.7164L75.1142 26.7303L75.7025 29.672ZM73.6865 33.32L75.8078 35.4413V35.4413L73.6865 33.32ZM70.9025 34.856L71.5896 37.7763L70.9025 34.856ZM86.0225 8.168L83.8293 10.215L83.8999 10.2906L83.9755 10.3612L86.0225 8.168ZM86.0225 4.808L83.9012 2.68668L83.8646 2.72324L83.8293 2.76104L86.0225 4.808ZM89.3825 4.808L87.1893 6.85495L87.2246 6.89276L87.2612 6.92932L89.3825 4.808ZM82.7585 13.448L80.5653 15.495L80.6359 15.5706L80.7115 15.6412L82.7585 13.448ZM82.7585 10.088L80.6372 7.96668L80.6006 8.00324L80.5653 8.04105L82.7585 10.088ZM86.1185 10.088L83.9253 12.135L83.9606 12.1728L83.9972 12.2093L86.1185 10.088ZM86.1185 13.448L83.9972 11.3267L83.9972 11.3267L86.1185 13.448ZM89.2865 13.448L87.0933 15.495L87.1639 15.5706L87.2395 15.6412L89.2865 13.448ZM89.2865 10.088L87.1652 7.96668L87.1286 8.00324L87.0933 8.04105L89.2865 10.088ZM92.6465 10.088L90.4533 12.135L90.4886 12.1728L90.5252 12.2093L92.6465 10.088ZM70.0404 35.6032L70.5204 31.6672L64.5646 30.9408L64.0846 34.8768L70.0404 35.6032ZM67.5425 34.304C68.6662 34.304 69.7163 34.2359 70.6268 34.0537L69.4501 28.1703C69.0807 28.2441 68.4668 28.304 67.5425 28.304V34.304ZM70.7661 34.0224C72.1475 33.6771 73.2587 32.8665 74.0545 31.7645L69.1905 28.2515C69.1596 28.2943 69.159 28.2827 69.1991 28.2548C69.2177 28.2419 69.2391 28.2296 69.2617 28.2193C69.2842 28.2092 69.3017 28.2039 69.3109 28.2016L70.7661 34.0224ZM74.0377 31.7876C74.7898 30.7668 75.325 29.4347 75.744 28.038L69.997 26.314C69.648 27.4773 69.3512 28.0332 69.2073 28.2284L74.0377 31.7876ZM75.744 28.038C76.1589 26.655 76.6252 24.781 77.1431 22.4508L71.2859 21.1492C70.7798 23.427 70.3501 25.137 69.997 26.314L75.744 28.038ZM73.4056 24.6889L77.0056 25.6969L78.6234 19.9191L75.0234 18.9111L73.4056 24.6889ZM74.8973 22.1079C74.702 22.9216 74.4755 23.8927 74.2179 25.0195L80.0671 26.3565C80.3215 25.2433 80.543 24.2944 80.7317 23.5081L74.8973 22.1079ZM74.2179 25.0195C73.9231 26.3092 73.7585 27.5613 73.7585 28.76H79.7585C79.7585 28.1027 79.8499 27.3068 80.0671 26.3565L74.2179 25.0195ZM73.7585 28.76C73.7585 29.797 74.0264 30.8381 74.6463 31.7681L79.6386 28.4399C79.6845 28.5086 79.7187 28.5844 79.7391 28.6558C79.7588 28.7249 79.7585 28.7645 79.7585 28.76H73.7585ZM74.6463 31.7681C75.3715 32.8558 76.4314 33.4737 77.4014 33.831L79.4756 28.201C79.3632 28.1595 79.3462 28.1393 79.385 28.1666C79.4287 28.1974 79.5336 28.2823 79.6386 28.4399L74.6463 31.7681ZM77.5765 33.8895C78.6095 34.1994 79.7829 34.304 80.9825 34.304V28.304C80.0701 28.304 79.5475 28.2166 79.3005 28.1425L77.5765 33.8895ZM80.9825 34.304C82.0801 34.304 83.1466 34.2156 84.098 33.9652L82.571 28.1628C82.3064 28.2324 81.8049 28.304 80.9825 28.304V34.304ZM84.098 33.9652C85.5461 33.5841 86.6323 32.6646 87.359 31.514L82.286 28.31C82.2538 28.3611 82.2603 28.3347 82.326 28.2838C82.3973 28.2286 82.4864 28.1851 82.571 28.1628L84.098 33.9652ZM87.2984 31.6061C88.0315 30.5346 88.501 29.1235 88.8449 27.6789L83.0081 26.2891C82.712 27.5325 82.4455 28.0734 82.3466 28.2179L87.2984 31.6061ZM88.8449 27.6789C89.1933 26.2156 89.5439 24.2809 89.901 21.911L83.968 21.017C83.6211 23.3191 83.2997 25.0644 83.0081 26.2891L88.8449 27.6789ZM86.391 24.4144L90.039 25.0864L91.126 19.1856L87.478 18.5136L86.391 24.4144ZM87.6233 21.6428C87.5246 22.2352 87.4105 22.9523 87.2814 23.7918L93.2116 24.7042C93.3385 23.8797 93.4484 23.1888 93.5417 22.6292L87.6233 21.6428ZM87.2814 23.7918C87.1534 24.6238 87.0254 25.4558 86.8974 26.2878L92.8276 27.2002C92.9556 26.3682 93.0836 25.5362 93.2116 24.7042L87.2814 23.7918ZM86.8839 26.3866C86.7797 27.2546 86.7185 28.0546 86.7185 28.76H92.7185C92.7185 28.3774 92.7533 27.8334 92.8411 27.1014L86.8839 26.3866ZM86.7185 28.76C86.7185 29.6521 86.913 30.5122 87.2826 31.3132L92.7304 28.7988C92.7254 28.788 92.7226 28.7805 92.7211 28.7763C92.7197 28.772 92.7192 28.7698 92.7191 28.7692C92.7189 28.7686 92.7189 28.7683 92.7188 28.7677C92.7187 28.767 92.7185 28.7646 92.7185 28.76H86.7185ZM87.4152 31.5676C88.1198 32.7756 89.2466 33.4254 90.2174 33.783L92.2916 28.153C92.185 28.1137 92.1906 28.1016 92.2566 28.1498C92.3295 28.2031 92.4712 28.3273 92.5978 28.5444L87.4152 31.5676ZM90.2635 33.7996C91.3859 34.1924 92.7349 34.304 94.0865 34.304V28.304C92.9421 28.304 92.4031 28.1916 92.2456 28.1364L90.2635 33.7996ZM94.0865 34.304C95.9886 34.304 98.0859 33.9246 99.6139 32.4661L95.4711 28.1259C95.5386 28.0615 95.5309 28.1077 95.3105 28.172C95.0809 28.239 94.6906 28.304 94.0865 28.304V34.304ZM99.5653 32.5115C101.133 31.0802 101.646 29.1109 101.646 27.224H95.6465C95.6465 27.6536 95.588 27.8961 95.5473 28.0094C95.5129 28.105 95.4948 28.1033 95.5197 28.0805L99.5653 32.5115ZM101.646 27.224C101.646 26.4447 101.63 25.6366 101.596 24.8001L95.6009 25.0399C95.6314 25.8034 95.6465 26.5313 95.6465 27.224H101.646ZM101.596 24.8047C101.562 23.9048 101.493 22.934 101.393 21.895L95.4205 22.473C95.5119 23.418 95.5713 24.2712 95.6007 25.0353L101.596 24.8047ZM101.401 21.9969C101.332 20.9001 101.214 19.6717 101.048 18.3168L95.0926 19.0432C95.2473 20.3123 95.3529 21.4199 95.4123 22.3711L101.401 21.9969ZM98.2755 21.673L101.78 21.433L101.369 15.447L97.8655 15.687L98.2755 21.673ZM98.5827 18.6616C98.777 21.2849 98.9903 23.4781 99.2253 25.2242L105.172 24.4238C104.959 22.8419 104.756 20.7791 104.566 18.2184L98.5827 18.6616ZM99.2334 25.2802C99.5104 27.0807 99.9184 28.7054 100.536 30.0287L105.973 27.4913C105.695 26.8946 105.399 25.8953 105.164 24.3678L99.2334 25.2802ZM100.59 30.1383C101.314 31.5388 102.389 32.7189 103.876 33.4326L106.473 28.0234C106.36 27.9691 106.155 27.8372 105.919 27.3817L100.59 30.1383ZM103.876 33.4326C105.228 34.0814 106.779 34.304 108.342 34.304V28.304C107.282 28.304 106.721 28.1426 106.473 28.0234L103.876 33.4326ZM108.342 34.304C108.406 34.304 108.295 34.3147 108.092 34.2334C107.862 34.1414 107.594 33.9621 107.382 33.68L112.183 30.08C111.124 28.6682 109.556 28.304 108.342 28.304V34.304ZM107.563 33.898C107.473 33.7991 107.387 33.6661 107.329 33.5099C107.273 33.3574 107.263 33.2362 107.263 33.176H113.263C113.263 31.9797 112.865 30.8104 112.002 29.862L107.563 33.898ZM107.263 33.176C107.263 32.9783 107.309 32.7945 107.376 32.6513C107.438 32.5192 107.493 32.4707 107.469 32.4947L111.712 36.7373C112.581 35.8683 113.263 34.6637 113.263 33.176H107.263ZM107.549 32.4176C107.621 32.3508 107.713 32.295 107.804 32.2623C107.887 32.2321 107.918 32.24 107.863 32.24V38.24C109.201 38.24 110.545 37.8236 111.632 36.8144L107.549 32.4176ZM107.863 32.24C107.036 32.24 106.388 32.1304 105.883 31.9619L103.986 37.654C105.209 38.0616 106.513 38.24 107.863 38.24V32.24ZM106.011 32.008C105.442 31.7889 104.98 31.5208 104.601 31.2174L100.852 35.9026C101.753 36.6232 102.763 37.1871 103.858 37.608L106.011 32.008ZM104.727 31.3243C104.326 30.9655 104.001 30.577 103.741 30.1569L98.6397 33.3151C99.2116 34.239 99.9111 35.0665 100.726 35.7957L104.727 31.3243ZM103.824 30.2994C103.578 29.8482 103.41 29.3894 103.311 28.9161L97.4376 30.1399C97.659 31.2026 98.035 32.2158 98.5568 33.1726L103.824 30.2994ZM99.4258 32.3741L100.29 32.662L102.187 26.97L101.323 26.6819L99.4258 32.3741ZM98.3243 29.1036C98.0569 30.1974 97.6934 30.7868 97.3943 31.0984L101.723 35.2536C102.96 33.9652 103.716 32.3146 104.153 30.5284L98.3243 29.1036ZM97.3925 31.1003C97.0101 31.4994 96.5686 31.7743 96.0237 31.9446L97.8133 37.6714C99.3164 37.2017 100.635 36.3886 101.724 35.2517L97.3925 31.1003ZM96.1063 31.92C95.3675 32.1278 94.5545 32.24 93.6545 32.24V38.24C95.0585 38.24 96.4215 38.0642 97.7307 37.696L96.1063 31.92ZM93.6545 32.24C92.4636 32.24 91.72 32.0865 91.2955 31.9197L89.1015 37.5043C90.469 38.0415 92.0294 38.24 93.6545 38.24V32.24ZM91.2955 31.9197C90.8731 31.7538 90.6535 31.5571 90.5127 31.3635L85.6603 34.8925C86.5435 36.1069 87.7319 36.9662 89.1015 37.5043L91.2955 31.9197ZM90.5993 31.4892C90.4168 31.2094 90.2116 30.7264 90.0964 29.9197L84.1567 30.7683C84.3614 32.2016 84.7962 33.5746 85.5737 34.7668L90.5993 31.4892ZM87.1265 33.344H88.7585V27.344H87.1265V33.344ZM86.0144 29.1315C85.4786 30.3441 85.0071 31.0377 84.6684 31.3926L89.0086 35.5354C90.0139 34.4823 90.8224 33.0959 91.5026 31.5565L86.0144 29.1315ZM84.6684 31.3926C84.4037 31.67 84.0728 31.8753 83.5929 31.9992L85.0921 37.8088C86.5962 37.4207 87.9293 36.666 89.0086 35.5354L84.6684 31.3926ZM83.6817 31.9777C82.9964 32.1324 81.9324 32.24 80.4065 32.24V38.24C82.1446 38.24 83.7046 38.1236 85.0033 37.8303L83.6817 31.9777ZM80.4065 32.24C79.9242 32.24 79.3313 32.1624 78.6123 31.964L77.0167 37.748C78.1537 38.0616 79.2888 38.24 80.4065 38.24V32.24ZM78.6387 31.9714C78.3148 31.8789 78.0022 31.7003 77.678 31.3452L73.247 35.3908C74.2668 36.5077 75.5222 37.3211 76.9903 37.7406L78.6387 31.9714ZM77.7202 31.3925C77.6277 31.2867 77.3503 30.8636 77.2517 29.7056L71.2733 30.2144C71.4308 32.0644 71.9533 33.9133 73.2048 35.3435L77.7202 31.3925ZM74.8508 32.9017L76.2908 32.6137L75.1142 26.7303L73.6741 27.0183L74.8508 32.9017ZM72.8565 28.7233C72.3899 30.1229 71.9089 30.8549 71.5652 31.1987L75.8078 35.4413C77.0641 34.1851 77.9271 32.4851 78.5486 30.6207L72.8565 28.7233ZM71.5652 31.1987C71.2036 31.5603 70.777 31.8036 70.2154 31.9357L71.5896 37.7763C73.204 37.3964 74.6334 36.6157 75.8078 35.4413L71.5652 31.1987ZM70.2154 31.9357C69.4106 32.1251 68.3715 32.24 67.0625 32.24V38.24C68.6975 38.24 70.2184 38.0989 71.5896 37.7763L70.2154 31.9357ZM87.7505 5.84C87.7496 5.84 87.7655 5.83998 87.7945 5.84519C87.824 5.85048 87.861 5.86008 87.9018 5.87598C87.9909 5.9106 88.0484 5.95516 88.0695 5.97483L83.9755 10.3612C85.0254 11.341 86.3384 11.84 87.7505 11.84V5.84ZM88.2157 6.12104C88.2226 6.12847 88.2662 6.17951 88.3039 6.27383C88.3422 6.36947 88.3505 6.44995 88.3505 6.488H82.3505C82.3505 7.90941 82.8777 9.19539 83.8293 10.215L88.2157 6.12104ZM88.3505 6.488C88.3505 6.52605 88.3422 6.60653 88.3039 6.70217C88.2662 6.79649 88.2226 6.84753 88.2157 6.85496L83.8293 2.76104C82.8777 3.78061 82.3505 5.06658 82.3505 6.488H88.3505ZM88.1438 6.92932C88.1312 6.94189 88.0727 6.99373 87.9684 7.03723C87.8634 7.08097 87.7798 7.088 87.7505 7.088V1.088C86.2738 1.088 84.9374 1.65049 83.9012 2.68668L88.1438 6.92932ZM87.7505 7.088C87.6858 7.088 87.5656 7.07362 87.4276 7.01275C87.2913 6.95264 87.2132 6.88051 87.1893 6.85495L91.5757 2.76105C90.5769 1.69098 89.2461 1.088 87.7505 1.088V7.088ZM87.2612 6.92932C87.2621 6.93021 87.2116 6.87844 87.1651 6.76976C87.117 6.6576 87.1025 6.5534 87.1025 6.488H93.1025C93.1025 5.00034 92.5086 3.69141 91.5038 2.68668L87.2612 6.92932ZM87.1025 6.488C87.1025 6.4226 87.117 6.3184 87.1651 6.20624C87.2116 6.09756 87.2621 6.04579 87.2612 6.04668L91.5038 10.2893C92.5086 9.28459 93.1025 7.97566 93.1025 6.488H87.1025ZM87.2612 6.04668C87.2955 6.01237 87.3746 5.94806 87.4963 5.89796C87.6173 5.84812 87.7133 5.84 87.7505 5.84V11.84C89.1771 11.84 90.4868 11.3063 91.5038 10.2893L87.2612 6.04668ZM84.4865 11.12C84.4856 11.12 84.5015 11.12 84.5305 11.1252C84.56 11.1305 84.597 11.1401 84.6378 11.156C84.7269 11.1906 84.7844 11.2352 84.8055 11.2548L80.7115 15.6412C81.7613 16.621 83.0744 17.12 84.4865 17.12V11.12ZM84.9517 11.401C84.9586 11.4085 85.0022 11.4595 85.0399 11.5538C85.0782 11.6495 85.0865 11.7299 85.0865 11.768H79.0865C79.0865 13.1894 79.6137 14.4754 80.5653 15.495L84.9517 11.401ZM85.0865 11.768C85.0865 11.8061 85.0782 11.8865 85.0399 11.9822C85.0022 12.0765 84.9586 12.1275 84.9517 12.1349L80.5653 8.04105C79.6137 9.06061 79.0865 10.3466 79.0865 11.768H85.0865ZM84.8798 12.2093C84.8672 12.2219 84.8087 12.2737 84.7043 12.3172C84.5994 12.361 84.5158 12.368 84.4865 12.368V6.368C83.0098 6.368 81.6734 6.93049 80.6372 7.96668L84.8798 12.2093ZM84.4865 12.368C84.4218 12.368 84.3016 12.3536 84.1636 12.2928C84.0273 12.2326 83.9492 12.1605 83.9253 12.135L88.3117 8.04104C87.3129 6.97097 85.9821 6.368 84.4865 6.368V12.368ZM83.9972 12.2093C83.9981 12.2102 83.9476 12.1584 83.9011 12.0498C83.853 11.9376 83.8385 11.8334 83.8385 11.768H89.8385C89.8385 10.2803 89.2446 8.97141 88.2398 7.96668L83.9972 12.2093ZM83.8385 11.768C83.8385 11.7026 83.853 11.5984 83.9011 11.4862C83.9476 11.3776 83.9981 11.3258 83.9972 11.3267L88.2398 15.5693C89.2446 14.5646 89.8385 13.2557 89.8385 11.768H83.8385ZM83.9972 11.3267C84.0315 11.2924 84.1106 11.2281 84.2323 11.178C84.3533 11.1281 84.4493 11.12 84.4865 11.12V17.12C85.9131 17.12 87.2228 16.5863 88.2398 15.5693L83.9972 11.3267ZM91.0145 11.12C91.0136 11.12 91.0295 11.12 91.0585 11.1252C91.088 11.1305 91.125 11.1401 91.1658 11.156C91.2549 11.1906 91.3124 11.2352 91.3335 11.2548L87.2395 15.6412C88.2894 16.621 89.6024 17.12 91.0145 17.12V11.12ZM91.4797 11.401C91.4866 11.4085 91.5302 11.4595 91.5679 11.5538C91.6062 11.6495 91.6145 11.7299 91.6145 11.768H85.6145C85.6145 13.1894 86.1417 14.4754 87.0933 15.495L91.4797 11.401ZM91.6145 11.768C91.6145 11.8061 91.6062 11.8865 91.5679 11.9822C91.5302 12.0765 91.4866 12.1275 91.4797 12.1349L87.0933 8.04105C86.1417 9.06061 85.6145 10.3466 85.6145 11.768H91.6145ZM91.4078 12.2093C91.3952 12.2219 91.3367 12.2737 91.2323 12.3172C91.1274 12.361 91.0438 12.368 91.0145 12.368V6.368C89.5378 6.368 88.2014 6.93049 87.1652 7.96668L91.4078 12.2093ZM91.0145 12.368C90.9498 12.368 90.8296 12.3536 90.6916 12.2928C90.5553 12.2326 90.4772 12.1605 90.4533 12.135L94.8397 8.04104C93.8409 6.97097 92.5101 6.368 91.0145 6.368V12.368ZM90.5252 12.2093C90.5261 12.2102 90.4756 12.1584 90.4291 12.0498C90.381 11.9376 90.3665 11.8334 90.3665 11.768H96.3665C96.3665 10.2803 95.7726 8.97141 94.7678 7.96668L90.5252 12.2093ZM90.3665 11.768C90.3665 11.7026 90.381 11.5984 90.4291 11.4862C90.4756 11.3776 90.5261 11.3258 90.5252 11.3267L94.7678 15.5693C95.7726 14.5646 96.3665 13.2557 96.3665 11.768H90.3665ZM90.5252 11.3267C90.5595 11.2924 90.6386 11.2281 90.7603 11.178C90.8813 11.1281 90.9773 11.12 91.0145 11.12V17.12C92.4411 17.12 93.7508 16.5863 94.7678 15.5693L90.5252 11.3267ZM107.844 35.24L104.866 34.8768L104.456 38.24H107.844V35.24ZM108.324 31.304V28.304H105.667L105.346 30.9408L108.324 31.304ZM112.068 30.968L112.795 33.8784L112.844 33.8663L112.892 33.8526L112.068 30.968ZM114.084 29.576L111.605 27.886L111.596 27.8989L111.588 27.9119L114.084 29.576ZM115.236 26.552L118.166 27.1952L115.236 26.552ZM116.292 21.416L116.858 18.47L113.925 17.906L113.348 20.8362L116.292 21.416ZM120.036 22.136L122.964 22.7868L123.634 19.773L120.602 19.19L120.036 22.136ZM119.604 24.056L116.678 23.3911L119.604 24.056ZM119.172 26.168L116.22 25.6313L116.21 25.6874L116.202 25.7437L119.172 26.168ZM119.844 30.344L118.136 32.8106L118.136 32.8106L119.844 30.344ZM121.956 31.064L121.386 34.0093L121.432 34.0183L121.478 34.0257L121.956 31.064ZM127.668 31.88L125.268 33.68L125.353 33.7933L125.448 33.898L127.668 31.88ZM127.476 34.616L129.517 36.8144L129.558 36.7766L129.597 36.7373L127.476 34.616ZM121.092 34.952L120.519 37.8968L120.559 37.9045L120.599 37.9112L121.092 34.952ZM118.452 33.992L116.695 36.424L116.726 36.4464L116.758 36.4679L118.452 33.992ZM117.204 32.456L114.372 33.4471L114.403 33.5346L114.439 33.6202L117.204 32.456ZM116.676 30.248L116.875 27.2546L113.142 27.0057L113.711 30.7042L116.676 30.248ZM118.116 30.344L120.799 31.6856L122.816 27.6507L118.315 27.3506L118.116 30.344ZM116.436 32.84L114.261 30.7738L114.233 30.8031L114.206 30.8331L116.436 32.84ZM114.42 34.328L113.17 31.6008L114.42 34.328ZM111.636 35.048L111.285 32.0685L111.275 32.0698L111.636 35.048ZM118.932 15.8L116.739 17.847L116.809 17.9226L116.885 17.9932L118.932 15.8ZM118.932 12.44L116.81 10.3187L116.774 10.3552L116.739 10.393L118.932 12.44ZM122.292 12.44L120.099 14.487L120.134 14.5248L120.17 14.5613L122.292 12.44ZM122.292 15.8L124.413 17.9213V17.9213L122.292 15.8ZM112.356 15.8L110.163 17.847L110.233 17.9226L110.309 17.9932L112.356 15.8ZM112.356 12.44L110.234 10.3187L110.198 10.3552L110.163 10.393L112.356 12.44ZM115.716 12.44L113.523 14.487L113.558 14.5248L113.594 14.5613L115.716 12.44ZM115.716 15.8L117.837 17.9213V17.9213L115.716 15.8ZM110.822 35.6032L111.302 31.6672L105.346 30.9408L104.866 34.8768L110.822 35.6032ZM108.324 34.304C110.018 34.304 111.55 34.1898 112.795 33.8784L111.34 28.0576C110.794 28.1942 109.829 28.304 108.324 28.304V34.304ZM112.892 33.8526C114.361 33.4328 115.677 32.5941 116.58 31.2401L111.588 27.9119C111.577 27.9285 111.566 27.9405 111.539 27.9593C111.507 27.9815 111.421 28.0327 111.244 28.0834L112.892 33.8526ZM116.562 31.266C117.347 30.1158 117.838 28.6904 118.166 27.1952L112.306 25.9088C112.058 27.0376 111.781 27.6282 111.605 27.886L116.562 31.266ZM118.166 27.1952C118.461 25.8535 118.817 24.118 119.235 21.9958L113.348 20.8362C112.934 22.938 112.587 24.6265 112.306 25.9088L118.166 27.1952ZM115.725 24.362L119.469 25.082L120.602 19.19L116.858 18.47L115.725 24.362ZM117.107 21.4852C116.98 22.0556 116.838 22.6908 116.678 23.3911L122.529 24.7209C122.69 24.0132 122.835 23.3684 122.964 22.7868L117.107 21.4852ZM116.678 23.3911C116.509 24.1373 116.356 24.884 116.22 25.6313L122.123 26.7047C122.243 26.044 122.379 25.3827 122.529 24.7209L116.678 23.3911ZM116.202 25.7437C116.092 26.514 116.028 27.2529 116.028 27.944H122.028C122.028 27.6111 122.06 27.166 122.142 26.5923L116.202 25.7437ZM116.028 27.944C116.028 28.5559 116.068 29.158 116.159 29.7442L122.089 28.8318C122.051 28.586 122.028 28.2921 122.028 27.944H116.028ZM116.159 29.7442C116.373 31.1366 117.19 32.1559 118.136 32.8106L121.551 27.8774C121.59 27.9044 121.708 27.9949 121.83 28.174C121.959 28.3632 122.052 28.5919 122.089 28.8318L116.159 29.7442ZM118.136 32.8106C119.09 33.4706 120.312 33.8015 121.386 34.0093L122.526 28.1187C122.12 28.0402 121.837 27.9636 121.652 27.9005C121.451 27.8321 121.452 27.8083 121.551 27.8774L118.136 32.8106ZM121.478 34.0257C122.708 34.2242 124.322 34.304 126.228 34.304V28.304C124.422 28.304 123.187 28.2238 122.433 28.1023L121.478 34.0257ZM126.228 34.304C126.291 34.304 126.181 34.3147 125.978 34.2334C125.748 34.1414 125.479 33.9621 125.268 33.68L130.068 30.08C129.009 28.6682 127.442 28.304 126.228 28.304V34.304ZM125.448 33.898C125.358 33.7991 125.272 33.6661 125.215 33.5099C125.158 33.3574 125.148 33.2362 125.148 33.176H131.148C131.148 31.9797 130.75 30.8104 129.888 29.862L125.448 33.898ZM125.148 33.176C125.148 32.9783 125.194 32.7945 125.261 32.6513C125.323 32.5192 125.378 32.4707 125.354 32.4947L129.597 36.7373C130.466 35.8683 131.148 34.6637 131.148 33.176H125.148ZM125.434 32.4176C125.506 32.3508 125.598 32.295 125.689 32.2623C125.772 32.2321 125.804 32.24 125.748 32.24V38.24C127.086 38.24 128.43 37.8236 129.517 36.8144L125.434 32.4176ZM125.748 32.24C123.867 32.24 122.502 32.1457 121.585 31.9928L120.599 37.9112C121.986 38.1423 123.724 38.24 125.748 38.24V32.24ZM121.664 32.0072C120.703 31.8202 120.275 31.6043 120.146 31.5161L116.758 36.4679C117.845 37.2117 119.176 37.6358 120.519 37.8968L121.664 32.0072ZM120.208 31.56C120.043 31.4403 119.995 31.3536 119.969 31.2918L114.439 33.6202C114.925 34.7744 115.709 35.7117 116.695 36.424L120.208 31.56ZM120.035 31.465C119.885 31.0344 119.747 30.4834 119.641 29.7918L113.711 30.7042C113.86 31.6766 114.075 32.5976 114.372 33.4471L120.035 31.465ZM116.476 33.2414L117.916 33.3374L118.315 27.3506L116.875 27.2546L116.476 33.2414ZM115.432 29.0024C115.016 29.8353 114.614 30.4017 114.261 30.7738L118.611 34.9062C119.473 33.9983 120.191 32.9007 120.799 31.6856L115.432 29.0024ZM114.206 30.8331C113.899 31.1746 113.558 31.4228 113.17 31.6008L115.67 37.0552C116.817 36.5292 117.821 35.7854 118.666 34.8469L114.206 30.8331ZM113.17 31.6008C112.757 31.7901 112.149 31.9669 111.285 32.0685L111.986 38.0275C113.298 37.8731 114.547 37.5699 115.67 37.0552L113.17 31.6008ZM111.275 32.0698C110.374 32.179 109.237 32.24 107.844 32.24V38.24C109.394 38.24 110.785 38.173 111.997 38.0262L111.275 32.0698ZM120.66 13.472C120.659 13.472 120.675 13.472 120.704 13.4772C120.733 13.4825 120.77 13.4921 120.811 13.508C120.9 13.5426 120.958 13.5872 120.979 13.6068L116.885 17.9932C117.935 18.973 119.248 19.472 120.66 19.472V13.472ZM121.125 13.753C121.132 13.7605 121.175 13.8115 121.213 13.9058C121.251 14.0015 121.26 14.0819 121.26 14.12H115.26C115.26 15.5414 115.787 16.8274 116.739 17.847L121.125 13.753ZM121.26 14.12C121.26 14.1581 121.251 14.2385 121.213 14.3342C121.175 14.4285 121.132 14.4795 121.125 14.487L116.739 10.393C115.787 11.4126 115.26 12.6986 115.26 14.12H121.26ZM121.053 14.5613C121.04 14.5739 120.982 14.6257 120.878 14.6692C120.773 14.713 120.689 14.72 120.66 14.72V8.72C119.183 8.72 117.847 9.28249 116.81 10.3187L121.053 14.5613ZM120.66 14.72C120.595 14.72 120.475 14.7056 120.337 14.6448C120.201 14.5846 120.122 14.5125 120.099 14.487L124.485 10.393C123.486 9.32298 122.155 8.72 120.66 8.72V14.72ZM120.17 14.5613C120.171 14.5622 120.121 14.5104 120.074 14.4018C120.026 14.2896 120.012 14.1854 120.012 14.12H126.012C126.012 12.6323 125.418 11.3234 124.413 10.3187L120.17 14.5613ZM120.012 14.12C120.012 14.0546 120.026 13.9504 120.074 13.8382C120.121 13.7296 120.171 13.6778 120.17 13.6787L124.413 17.9213C125.418 16.9166 126.012 15.6077 126.012 14.12H120.012ZM120.17 13.6787C120.205 13.6444 120.284 13.5801 120.406 13.53C120.527 13.4801 120.623 13.472 120.66 13.472V19.472C122.086 19.472 123.396 18.9383 124.413 17.9213L120.17 13.6787ZM114.084 13.472C114.083 13.472 114.099 13.472 114.128 13.4772C114.157 13.4825 114.194 13.4921 114.235 13.508C114.324 13.5426 114.382 13.5872 114.403 13.6068L110.309 17.9932C111.359 18.973 112.672 19.472 114.084 19.472V13.472ZM114.549 13.753C114.556 13.7605 114.599 13.8115 114.637 13.9058C114.675 14.0015 114.684 14.0819 114.684 14.12H108.684C108.684 15.5414 109.211 16.8274 110.163 17.847L114.549 13.753ZM114.684 14.12C114.684 14.1581 114.675 14.2385 114.637 14.3342C114.599 14.4285 114.556 14.4795 114.549 14.487L110.163 10.393C109.211 11.4126 108.684 12.6986 108.684 14.12H114.684ZM114.477 14.5613C114.464 14.5739 114.406 14.6257 114.302 14.6692C114.197 14.713 114.113 14.72 114.084 14.72V8.72C112.607 8.72 111.271 9.28249 110.234 10.3187L114.477 14.5613ZM114.084 14.72C114.019 14.72 113.899 14.7056 113.761 14.6448C113.625 14.5846 113.546 14.5125 113.523 14.487L117.909 10.393C116.91 9.32298 115.579 8.72 114.084 8.72V14.72ZM113.594 14.5613C113.595 14.5622 113.545 14.5104 113.498 14.4018C113.45 14.2896 113.436 14.1854 113.436 14.12H119.436C119.436 12.6323 118.842 11.3234 117.837 10.3187L113.594 14.5613ZM113.436 14.12C113.436 14.0546 113.45 13.9504 113.498 13.8382C113.545 13.7296 113.595 13.6778 113.594 13.6787L117.837 17.9213C118.842 16.9166 119.436 15.6077 119.436 14.12H113.436ZM113.594 13.6787C113.629 13.6444 113.708 13.5801 113.829 13.53C113.951 13.4801 114.047 13.472 114.084 13.472V19.472C115.51 19.472 116.82 18.9383 117.837 17.9213L113.594 13.6787ZM125.75 35.24L122.772 34.8768L122.362 38.24H125.75V35.24ZM126.23 31.304V28.304H123.574L123.252 30.9408L126.23 31.304ZM128.726 31.112L129.314 34.0537L129.384 34.0397L129.454 34.0224L128.726 31.112ZM130.31 30.008L127.895 28.2284L127.886 28.2399L127.878 28.2515L130.31 30.008ZM131.558 27.176L134.431 28.038L131.558 27.176ZM132.902 21.8L133.711 18.9111L130.661 18.057L129.973 21.1492L132.902 21.8ZM136.502 22.808L139.422 23.4951L140.081 20.6948L137.311 19.9191L136.502 22.808ZM136.07 24.68L138.988 25.3749L138.992 25.3599L138.995 25.3449L136.07 24.68ZM135.638 26.792L138.59 27.3287L138.592 27.3173L138.594 27.306L135.638 26.792ZM136.358 30.632L138.138 28.2168L136.358 30.632ZM142.022 31.064L142.785 33.9652L142.022 31.064ZM143.51 29.912L141.034 28.2179L141.003 28.2634L140.974 28.31L143.51 29.912ZM144.614 26.984L141.696 26.2891V26.2891L144.614 26.984ZM145.622 21.464L146.165 18.5136L143.117 17.9521L142.655 21.017L145.622 21.464ZM149.27 22.136L152.229 22.6292L152.714 19.72L149.813 19.1856L149.27 22.136ZM148.934 24.248L145.969 23.7918V23.7918L148.934 24.248ZM148.55 26.744L145.585 26.2878L145.577 26.3371L145.571 26.3866L148.55 26.744ZM148.694 30.056L145.97 31.3132L146.03 31.4436L146.103 31.5676L148.694 30.056ZM149.942 30.968L148.905 33.783L148.928 33.7915L148.951 33.7996L149.942 30.968ZM155.174 30.968L154.264 28.1092L154.245 28.1155L154.225 28.1219L155.174 30.968ZM156.758 29.72L154.222 28.118L154.191 28.1669L154.162 28.2169L156.758 29.72ZM156.47 22.616L153.591 23.4598L153.6 23.4897L153.609 23.5194L156.47 22.616ZM154.598 17.096L153.556 14.2828L150.704 15.339L151.799 18.1762L154.598 17.096ZM158.486 15.656L161.265 14.5269L160.171 11.8328L157.444 12.8428L158.486 15.656ZM159.638 19.16L156.74 19.9374L156.749 19.9701L156.759 20.0027L159.638 19.16ZM160.598 23.048L157.656 23.6363V23.6363L160.598 23.048ZM160.406 30.296L163.244 31.269V31.269L160.406 30.296ZM158.774 33.08L160.895 35.2013L160.919 35.1778L160.942 35.1537L158.774 33.08ZM156.182 34.712L157.157 37.5491L157.197 37.5356L157.235 37.521L156.182 34.712ZM149.03 34.712L147.997 37.5286L149.03 34.712ZM146.822 33.128L144.359 34.8412L144.377 34.867L144.396 34.8925L146.822 33.128ZM145.814 30.344V27.344H142.355L142.844 30.7683L145.814 30.344ZM147.446 30.344L150.19 31.5565L152.051 27.344H147.446V30.344ZM145.526 33.464L143.356 31.3926L145.526 33.464ZM143.03 34.904L143.691 37.8303L143.735 37.8203L143.78 37.8088L143.03 34.904ZM136.502 34.856L135.678 37.7406L135.691 37.7443L135.704 37.748L136.502 34.856ZM134.15 33.368L131.892 35.3435L131.913 35.3674L131.935 35.3908L134.15 33.368ZM132.95 29.96L132.362 27.0183L129.734 27.5439L129.961 30.2144L132.95 29.96ZM134.39 29.672L137.236 30.6207L138.871 25.7164L133.802 26.7303L134.39 29.672ZM132.374 33.32L134.495 35.4413V35.4413L132.374 33.32ZM129.59 34.856L130.277 37.7763L129.59 34.856ZM128.728 35.6032L129.208 31.6672L123.252 30.9408L122.772 34.8768L128.728 35.6032ZM126.23 34.304C127.354 34.304 128.404 34.2359 129.314 34.0537L128.138 28.1703C127.768 28.2441 127.154 28.304 126.23 28.304V34.304ZM129.454 34.0224C130.835 33.6771 131.946 32.8665 132.742 31.7645L127.878 28.2515C127.847 28.2943 127.847 28.2827 127.887 28.2548C127.905 28.2419 127.927 28.2296 127.949 28.2193C127.972 28.2092 127.989 28.2039 127.998 28.2016L129.454 34.0224ZM132.725 31.7876C133.477 30.7668 134.012 29.4347 134.431 28.038L128.685 26.314C128.336 27.4773 128.039 28.0332 127.895 28.2284L132.725 31.7876ZM134.431 28.038C134.846 26.655 135.313 24.781 135.831 22.4508L129.973 21.1492C129.467 23.427 129.038 25.137 128.685 26.314L134.431 28.038ZM132.093 24.6889L135.693 25.6969L137.311 19.9191L133.711 18.9111L132.093 24.6889ZM133.582 22.1209C133.452 22.6741 133.306 23.3057 133.145 24.0151L138.995 25.3449C139.154 24.6463 139.296 24.0299 139.422 23.4951L133.582 22.1209ZM133.152 23.9851C132.976 24.7216 132.82 25.4862 132.682 26.278L138.594 27.306C138.712 26.6258 138.844 25.9824 138.988 25.3749L133.152 23.9851ZM132.686 26.2553C132.532 27.1063 132.446 27.9438 132.446 28.76H138.446C138.446 28.3602 138.488 27.8857 138.59 27.3287L132.686 26.2553ZM132.446 28.76C132.446 30.4471 133.151 31.9956 134.578 33.0472L138.138 28.2168C138.189 28.2545 138.292 28.3527 138.371 28.5141C138.447 28.6696 138.446 28.7742 138.446 28.76H132.446ZM134.578 33.0472C136.028 34.1152 138.011 34.304 139.67 34.304V28.304C138.994 28.304 138.531 28.2553 138.239 28.1959C137.922 28.1317 137.961 28.0865 138.138 28.2168L134.578 33.0472ZM139.67 34.304C140.768 34.304 141.834 34.2156 142.785 33.9652L141.259 28.1628C140.994 28.2324 140.492 28.304 139.67 28.304V34.304ZM142.785 33.9652C144.234 33.5841 145.32 32.6646 146.046 31.514L140.974 28.31C140.941 28.3611 140.948 28.3347 141.013 28.2838C141.085 28.2286 141.174 28.1851 141.259 28.1628L142.785 33.9652ZM145.986 31.6061C146.719 30.5346 147.188 29.1235 147.532 27.6789L141.696 26.2891C141.4 27.5325 141.133 28.0734 141.034 28.2179L145.986 31.6061ZM147.532 27.6789C147.881 26.2156 148.231 24.2809 148.589 21.911L142.655 21.017C142.309 23.3191 141.987 25.0644 141.696 26.2891L147.532 27.6789ZM145.079 24.4144L148.727 25.0864L149.813 19.1856L146.165 18.5136L145.079 24.4144ZM146.311 21.6428C146.212 22.2352 146.098 22.9523 145.969 23.7918L151.899 24.7042C152.026 23.8797 152.136 23.1888 152.229 22.6292L146.311 21.6428ZM145.969 23.7918C145.841 24.6238 145.713 25.4558 145.585 26.2878L151.515 27.2002C151.643 26.3682 151.771 25.5362 151.899 24.7042L145.969 23.7918ZM145.571 26.3866C145.467 27.2546 145.406 28.0546 145.406 28.76H151.406C151.406 28.3774 151.441 27.8334 151.529 27.1014L145.571 26.3866ZM145.406 28.76C145.406 29.6521 145.6 30.5122 145.97 31.3132L151.418 28.7988C151.413 28.788 151.41 28.7805 151.409 28.7763C151.407 28.772 151.407 28.7698 151.407 28.7692C151.406 28.7686 151.406 28.7683 151.406 28.7677C151.406 28.767 151.406 28.7646 151.406 28.76H145.406ZM146.103 31.5676C146.807 32.7756 147.934 33.4254 148.905 33.783L150.979 28.153C150.873 28.1137 150.878 28.1016 150.944 28.1498C151.017 28.2031 151.159 28.3273 151.285 28.5444L146.103 31.5676ZM148.951 33.7996C150.073 34.1924 151.422 34.304 152.774 34.304V28.304C151.63 28.304 151.091 28.1916 150.933 28.1364L148.951 33.7996ZM152.774 34.304C153.93 34.304 155.067 34.166 156.123 33.814L154.225 28.1219C153.937 28.2179 153.474 28.304 152.774 28.304V34.304ZM156.084 33.8268C157.459 33.3893 158.608 32.5127 159.354 31.2231L154.162 28.2169C154.163 28.2151 154.17 28.2028 154.186 28.1847C154.201 28.1664 154.221 28.1479 154.241 28.1315C154.262 28.1152 154.278 28.1058 154.286 28.1018C154.293 28.098 154.288 28.1018 154.264 28.1092L156.084 33.8268ZM159.294 31.322C160.099 30.0481 160.334 28.5605 160.334 27.176H154.334C154.334 27.5501 154.3 27.8052 154.264 27.9655C154.228 28.124 154.198 28.1559 154.222 28.118L159.294 31.322ZM160.334 27.176C160.334 25.5301 159.953 23.6817 159.331 21.7126L153.609 23.5194C154.139 25.1983 154.334 26.3899 154.334 27.176H160.334ZM159.349 21.7722C158.781 19.8354 158.13 17.9166 157.397 16.0158L151.799 18.1762C152.474 19.9234 153.071 21.6846 153.591 23.4598L159.349 21.7722ZM155.64 19.9092L159.528 18.4692L157.444 12.8428L153.556 14.2828L155.64 19.9092ZM155.707 16.7851C156.067 17.672 156.414 18.7191 156.74 19.9374L162.536 18.3826C162.158 16.9769 161.737 15.688 161.265 14.5269L155.707 16.7851ZM156.759 20.0027C157.119 21.2348 157.418 22.4459 157.656 23.6363L163.54 22.4597C163.266 21.0901 162.925 19.7092 162.517 18.3173L156.759 20.0027ZM157.656 23.6363C157.886 24.7867 157.982 25.7016 157.982 26.408H163.982C163.982 25.1944 163.822 23.8693 163.54 22.4596L157.656 23.6363ZM157.982 26.408C157.982 27.6262 157.822 28.5817 157.568 29.323L163.244 31.269C163.758 29.7703 163.982 28.1338 163.982 26.408H157.982ZM157.568 29.323C157.302 30.0984 156.965 30.6314 156.606 31.0063L160.942 35.1537C161.991 34.0566 162.742 32.7337 163.244 31.269L157.568 29.323ZM156.653 30.9587C156.28 31.3311 155.792 31.6544 155.129 31.903L157.235 37.521C158.62 37.0016 159.86 36.2369 160.895 35.2013L156.653 30.9587ZM155.207 31.8749C154.548 32.1014 153.733 32.24 152.726 32.24V38.24C154.279 38.24 155.768 38.0266 157.157 37.5491L155.207 31.8749ZM152.726 32.24C151.424 32.24 150.575 32.0833 150.063 31.8954L147.997 37.5286C149.405 38.0447 151.02 38.24 152.726 38.24V32.24ZM150.063 31.8954C149.562 31.7116 149.353 31.5071 149.248 31.3635L144.396 34.8925C145.315 36.1569 146.578 37.0084 147.997 37.5286L150.063 31.8954ZM149.285 31.4148C149.101 31.1503 148.895 30.6946 148.784 29.9197L142.844 30.7683C143.053 32.2334 143.519 33.6337 144.359 34.8412L149.285 31.4148ZM145.814 33.344H147.446V27.344H145.814V33.344ZM144.702 29.1315C144.166 30.3441 143.695 31.0377 143.356 31.3926L147.696 35.5354C148.701 34.4823 149.51 33.0959 150.19 31.5565L144.702 29.1315ZM143.356 31.3926C143.091 31.67 142.76 31.8753 142.28 31.9992L143.78 37.8088C145.284 37.4207 146.617 36.666 147.696 35.5354L143.356 31.3926ZM142.369 31.9777C141.684 32.1324 140.62 32.24 139.094 32.24V38.24C140.832 38.24 142.392 38.1236 143.691 37.8303L142.369 31.9777ZM139.094 32.24C138.612 32.24 138.019 32.1624 137.3 31.964L135.704 37.748C136.841 38.0616 137.976 38.24 139.094 38.24V32.24ZM137.326 31.9714C137.002 31.8789 136.69 31.7003 136.365 31.3452L131.935 35.3908C132.954 36.5077 134.21 37.3211 135.678 37.7406L137.326 31.9714ZM136.408 31.3925C136.315 31.2867 136.038 30.8636 135.939 29.7056L129.961 30.2144C130.118 32.0644 130.641 33.9133 131.892 35.3435L136.408 31.3925ZM133.538 32.9017L134.978 32.6137L133.802 26.7303L132.362 27.0183L133.538 32.9017ZM131.544 28.7233C131.077 30.1229 130.596 30.8549 130.253 31.1987L134.495 35.4413C135.752 34.1851 136.615 32.4851 137.236 30.6207L131.544 28.7233ZM130.253 31.1987C129.891 31.5603 129.464 31.8036 128.903 31.9357L130.277 37.7763C131.892 37.3964 133.321 36.6157 134.495 35.4413L130.253 31.1987ZM128.903 31.9357C128.098 32.1251 127.059 32.24 125.75 32.24V38.24C127.385 38.24 128.906 38.0989 130.277 37.7763L128.903 31.9357ZM167.807 35L164.808 35.084L164.889 38H167.807V35ZM166.847 0.727997V-2.272H163.761L163.848 0.811998L166.847 0.727997ZM170.735 0.727997L173.733 0.643997L173.652 -2.272H170.735V0.727997ZM171.695 35V38H174.78L174.693 34.916L171.695 35ZM166.511 49.544L163.582 50.1948L164.25 53.2014L167.238 52.4544L166.511 49.544ZM165.935 46.952L165.26 44.0288L162.361 44.6979L163.006 47.6028L165.935 46.952ZM167.951 46.472L167.223 43.5616L167.951 46.472ZM169.679 46.04L172.597 46.7349L173.741 41.9322L168.951 43.1296L169.679 46.04ZM169.439 47.048L168.556 49.9153L171.616 50.8567L172.357 47.7429L169.439 47.048ZM167.039 45.416L164.792 47.4037L164.813 47.4275L164.834 47.4508L167.039 45.416ZM166.607 40.136L164.207 38.336L164.157 38.4026L164.11 38.4719L166.607 40.136ZM168.431 38.696L167.277 35.9268L167.256 35.9356L167.234 35.9448L168.431 38.696ZM171.983 38.312L171.489 41.2712L171.508 41.2743L171.526 41.2771L171.983 38.312ZM173.135 38.6L176.097 39.074L176.488 36.6274L174.16 35.7806L173.135 38.6ZM172.751 41L172.162 43.9417L175.22 44.5533L175.713 41.474L172.751 41ZM171.839 40.808L171.188 43.7366L171.839 40.808ZM169.151 41.144L167.443 38.6774L167.381 38.7203L167.321 38.7661L169.151 41.144ZM169.151 44.168L166.884 46.1328L166.92 46.1746L166.957 46.215L169.151 44.168ZM170.639 45.272L171.98 42.5887L171.948 42.5728L171.916 42.5575L170.639 45.272ZM172.031 45.704L172.322 48.6898L172.031 42.704V45.704ZM170.063 45.896L169.31 42.992L170.354 48.8818L170.063 45.896ZM172.463 45.176L171.623 42.296L171.549 42.3174L171.477 42.3425L172.463 45.176ZM174.527 44.504L177.389 43.606L176.446 40.5998L173.49 41.689L174.527 44.504ZM175.295 46.952L176.348 49.761L179.007 48.7638L178.157 46.054L175.295 46.952ZM172.559 47.864L171.689 44.9929L171.676 44.9967L171.664 45.0006L172.559 47.864ZM169.439 48.776L168.649 45.8817V45.8817L169.439 48.776ZM170.805 34.916L169.845 0.643997L163.848 0.811998L164.808 35.084L170.805 34.916ZM166.847 3.728H170.735V-2.272H166.847V3.728ZM167.736 0.811998L168.696 35.084L174.693 34.916L173.733 0.643997L167.736 0.811998ZM171.695 32H167.807V38H171.695V32ZM169.439 48.8932L168.863 46.3012L163.006 47.6028L163.582 50.1948L169.439 48.8932ZM166.609 49.8752C167.45 49.6812 168.141 49.5167 168.678 49.3824L167.223 43.5616C166.736 43.6833 166.084 43.8388 165.26 44.0288L166.609 49.8752ZM168.678 49.3824C169.19 49.2544 169.766 49.1104 170.406 48.9504L168.951 43.1296C168.311 43.2896 167.735 43.4336 167.223 43.5616L168.678 49.3824ZM166.76 45.3451L166.52 46.3531L172.357 47.7429L172.597 46.7349L166.76 45.3451ZM170.321 44.1807C170.126 44.1206 169.757 43.938 169.243 43.3812L164.834 47.4508C165.856 48.558 167.087 49.4634 168.556 49.9153L170.321 44.1807ZM169.286 43.4283C169.007 43.1137 168.935 42.8673 168.935 42.584H162.935C162.935 44.4127 163.598 46.0543 164.792 47.4037L169.286 43.4283ZM168.935 42.584C168.935 42.1025 169.041 41.8925 169.103 41.8001L164.11 38.4719C163.276 39.7235 162.935 41.1455 162.935 42.584H168.935ZM169.007 41.936C169.174 41.7135 169.366 41.5605 169.627 41.4472L167.234 35.9448C166.023 36.4715 165 37.2785 164.207 38.336L169.007 41.936ZM169.584 41.4652C169.973 41.3034 170.395 41.216 170.879 41.216V35.216C169.634 35.216 168.424 35.4486 167.277 35.9268L169.584 41.4652ZM170.879 41.216C171.049 41.216 171.252 41.2315 171.489 41.2712L172.476 35.3528C171.946 35.2645 171.412 35.216 170.879 35.216V41.216ZM171.526 41.2771C171.772 41.3149 171.963 41.3661 172.109 41.4194L174.16 35.7806C173.602 35.5779 173.025 35.4371 172.439 35.3469L171.526 41.2771ZM170.172 38.126L169.788 40.526L175.713 41.474L176.097 39.074L170.172 38.126ZM173.339 38.0583C173.038 37.998 172.755 37.9384 172.489 37.8794L171.188 43.7366C171.499 43.8056 171.824 43.874 172.162 43.9417L173.339 38.0583ZM172.489 37.8794C171.951 37.7599 171.409 37.712 170.879 37.712V43.712C171.052 43.712 171.15 43.7281 171.188 43.7366L172.489 37.8794ZM170.879 37.712C169.797 37.712 168.541 37.9171 167.443 38.6774L170.858 43.6106C170.722 43.7047 170.625 43.7297 170.622 43.7304C170.621 43.7307 170.64 43.7259 170.684 43.7211C170.728 43.7163 170.792 43.712 170.879 43.712V37.712ZM167.321 38.7661C166.136 39.6778 165.527 41.0043 165.527 42.44H171.527C171.527 42.5577 171.502 42.7679 171.386 43.0094C171.268 43.2544 171.107 43.4237 170.98 43.5219L167.321 38.7661ZM165.527 42.44C165.527 43.7883 165.966 45.0739 166.884 46.1328L171.418 42.2032C171.442 42.2312 171.478 42.2855 171.504 42.3571C171.529 42.4261 171.527 42.4623 171.527 42.44H165.527ZM166.957 46.215C167.641 46.9479 168.442 47.5538 169.361 47.9865L171.916 42.5575C171.747 42.4782 171.556 42.3481 171.344 42.121L166.957 46.215ZM169.297 47.9553C169.999 48.3061 170.971 48.704 172.031 48.704V42.704C172.145 42.704 172.226 42.7154 172.267 42.7226C172.308 42.73 172.323 42.7356 172.308 42.7308C172.293 42.7262 172.258 42.7144 172.2 42.6905C172.143 42.6668 172.07 42.6338 171.98 42.5887L169.297 47.9553ZM171.739 42.7182L169.771 42.9102L170.354 48.8818L172.322 48.6898L171.739 42.7182ZM170.816 48.8C171.747 48.5585 172.626 48.2956 173.448 48.0095L171.477 42.3425C170.828 42.5684 170.106 42.7855 169.31 42.992L170.816 48.8ZM173.303 48.056C174.122 47.8169 174.878 47.5717 175.564 47.319L173.49 41.689C172.959 41.8843 172.339 42.0871 171.623 42.296L173.303 48.056ZM171.664 45.402L172.432 47.85L178.157 46.054L177.389 43.606L171.664 45.402ZM174.241 44.143C173.55 44.4022 172.702 44.6857 171.689 44.9929L173.429 50.7351C174.527 50.4023 175.503 50.0778 176.348 49.761L174.241 44.143ZM171.664 45.0006C170.675 45.3094 169.671 45.6032 168.649 45.8817L170.228 51.6703C171.319 51.3728 172.394 51.0586 173.453 50.7274L171.664 45.0006ZM168.649 45.8817C167.61 46.1651 166.655 46.4156 165.783 46.6336L167.238 52.4544C168.158 52.2244 169.155 51.9629 170.228 51.6703L168.649 45.8817Z" fill="#660D33"/>
</svg>
