<svg width="16" height="16" viewBox="0 0 16 16" fill="none" xmlns="http://www.w3.org/2000/svg">
<path d="M11.1836 14.0189V12.6823C11.1836 11.9734 10.9154 11.2935 10.4379 10.7922C9.9605 10.2909 9.31293 10.0093 8.63772 10.0093H3.54591C2.87069 10.0093 2.22313 10.2909 1.74568 10.7922C1.26823 11.2935 1 11.9734 1 12.6823V14.0189" stroke="white" stroke-width="0.8" stroke-linecap="round" stroke-linejoin="round"/>
<path d="M6.08888 7.33638C7.49494 7.33638 8.63478 6.1396 8.63478 4.66331C8.63478 3.18701 7.49494 1.99023 6.08888 1.99023C4.68281 1.99023 3.54297 3.18701 3.54297 4.66331C3.54297 6.1396 4.68281 7.33638 6.08888 7.33638Z" stroke="white" stroke-width="0.8" stroke-linecap="round" stroke-linejoin="round"/>
<path d="M14.9993 14.0189V12.6824C14.9989 12.0901 14.8111 11.5148 14.4655 11.0467C14.1199 10.5786 13.636 10.2443 13.0898 10.0962" stroke="white" stroke-width="0.8" stroke-linecap="round" stroke-linejoin="round"/>
<path d="M10.5469 2.07666C11.0945 2.22388 11.5799 2.55828 11.9265 3.02715C12.2732 3.49601 12.4613 4.07266 12.4613 4.6662C12.4613 5.25974 12.2732 5.83639 11.9265 6.30526C11.5799 6.77412 11.0945 7.10852 10.5469 7.25574" stroke="white" stroke-width="0.8" stroke-linecap="round" stroke-linejoin="round"/>
</svg>
