<svg width="16" height="17" viewBox="0 0 16 17" fill="none" xmlns="http://www.w3.org/2000/svg">
<path fill-rule="evenodd" clip-rule="evenodd" d="M6.6641 16.3931C5.62831 16.2173 4.63721 15.8387 3.74739 15.2789C2.85756 14.7192 2.08644 13.9892 1.47805 13.1308C0.249354 11.397 -0.241913 9.245 0.112323 7.14816C0.46656 5.05133 1.63728 3.18143 3.36694 1.94982C5.09661 0.718207 7.24353 0.225775 9.3354 0.580851C11.4274 0.935927 13.293 2.10948 14.5218 3.84334C15.7506 5.57719 16.2419 7.72933 15.8877 9.8263C15.5334 11.9233 14.3627 13.7933 12.6329 15.025C10.9032 16.2567 8.75611 16.7492 6.6641 16.3941V16.3931ZM2.00033 12.1011C3.82353 11.0436 5.89334 10.4884 7.99975 10.4917C10.1852 10.4917 12.2346 11.0779 13.9992 12.1011C14.6369 11.0367 14.9813 9.8217 14.9973 8.58021C15.0133 7.33872 14.7003 6.11522 14.0902 5.03467C13.4802 3.95411 12.5949 3.05522 11.5249 2.4298C10.4549 1.80438 9.23841 1.47485 7.99975 1.47485C6.7611 1.47485 5.54464 1.80438 4.47461 2.4298C3.40458 3.05522 2.51932 3.95411 1.90926 5.03467C1.29919 6.11522 0.986174 7.33872 1.00217 8.58021C1.01817 9.8217 1.36262 11.0367 2.00033 12.1011Z" fill="#544F5A"/>
</svg>
