<svg width="516" height="424" viewBox="0 0 516 424" fill="none" xmlns="http://www.w3.org/2000/svg">
<path opacity="0.18" d="M403.815 141.347C434.247 157.57 465.603 174.56 486.814 201.73C499.553 218.066 508.04 237.511 512.509 257.744C520.165 292.28 514.497 332.317 488.161 356.068C478.997 364.369 467.788 370.23 456.227 374.732C432.263 384.048 406.504 387.859 380.862 385.883C359.806 384.244 338.784 378.707 317.834 381.345C292.28 384.553 269.968 399.468 246.162 409.289C216.582 421.444 184.372 425.828 152.61 422.023C144.602 421.052 136.495 419.497 129.453 415.571C121.092 410.907 114.896 403.288 108.305 396.323C93.4428 380.561 75.9129 367.536 56.5198 357.848C46.3475 352.768 35.569 348.554 26.7361 341.407C3.47314 322.623 -0.509732 289.009 0.84375 259.201C2.19723 229.393 8.92939 196.489 32.8339 178.388C38.1702 174.349 44.1763 171.219 49.3506 166.962C66.6075 152.765 71.7676 129.001 82.821 109.576C107.607 66.1413 162.909 47.1252 212.699 52.5001C284.046 60.2036 342.478 108.655 403.815 141.347Z" fill="#EAC7D1"/>
<g clip-path="url(#clip0_165_26321)">
<path d="M250.2 421.4C233 413.2 226.1 393.8 223.7 375.8C223.3 372.8 222.4 369.7 223.4 366.8C224.4 363.9 227.4 361.6 230.3 362.4C232.7 363.1 234.1 365.5 235.7 367.4C237.8 370 240.7 371.9 243.9 372.9C246 373.6 248.4 373.8 250.2 372.4C252.5 370.5 252.2 366.9 251.7 363.9C250.7 358.3 249.7 352.8 248.8 347.2C248.3 344.2 247.8 341.2 248.2 338.2C248.6 335.2 250.3 332.2 253 331C255.7 329.7 259.5 330.8 260.6 333.6C261.1 334.8 261 336.1 261.3 337.3C261.6 338.5 262.4 339.8 263.6 339.9C264.8 340 265.9 339 266.6 338C269.2 334.5 270.6 330.2 271.9 326C273.2 321.8 274.4 317.5 276.7 313.8C278.9 310 282.4 306.8 286.6 305.8C290.8 304.8 295.8 306.7 297.6 310.7C299.4 314.7 297.7 319.4 295.6 323.3C292.5 329 288.6 334.3 284 338.9C283.2 339.7 282.3 340.6 282.1 341.8C281.8 343.9 284 345.6 286.1 345.9C288.4 346.3 290.8 345.6 293.2 345.5C295.6 345.4 298.3 346 299.5 348C301.2 350.8 299.2 354.5 297.1 357C292.8 362 287.6 366.3 281.9 369.6C279.8 370.8 277.7 371.9 276.1 373.7C274.6 375.5 274 378.4 275.4 380.3C276.8 382.2 279.7 382.4 281.9 381.6C284.1 380.8 286 379.2 288 378C291.8 375.8 297.2 375.1 300.4 378.2C302.5 380.2 303.2 383.5 302.8 386.4C302.4 389.3 301 392 299.5 394.5C294.2 403.3 286.9 410.9 277.9 415.9C268.9 420.8 260.2 423.2 250.2 421.4Z" fill="#660D33" fill-opacity="0.07"/>
<path d="M252.899 409.3C253.999 399.8 256.099 389.5 258.599 378.7C259.199 376 259.899 373.4 260.499 370.8C261.099 368.2 261.799 365.6 262.499 363.1C263.999 358.1 265.899 353.4 267.799 349.1C269.699 344.7 271.599 340.6 273.499 336.8C275.399 333 277.199 329.5 278.899 326.3C282.399 320 285.899 315.3 288.399 312.1C289.599 310.5 290.699 309.3 291.299 308.5C291.599 308.1 291.899 307.8 292.099 307.6C292.299 307.4 292.399 307.3 292.399 307.3C292.399 307.3 292.299 307.4 292.199 307.6C291.999 307.8 291.799 308.1 291.399 308.5C290.699 309.3 289.799 310.5 288.499 312.1C286.099 315.3 282.699 320 279.199 326.3C277.399 329.4 275.699 333 273.799 336.8C271.999 340.6 269.999 344.7 268.199 349.1C266.299 353.5 264.499 358.1 262.999 363.1C262.199 365.6 261.599 368.1 260.999 370.7C260.399 373.3 259.699 376 259.099 378.6C256.599 389.3 254.499 399.6 253.299 409.1" fill="#E0E0E0"/>
<path d="M262.799 363.1C262.799 363.1 262.599 362.7 262.299 361.9C261.999 361.1 261.599 359.9 261.199 358.5C260.299 355.6 259.099 351.6 257.899 347.1C256.699 342.6 255.499 338.6 254.499 335.7C253.999 334.3 253.599 333.1 253.299 332.3C252.999 331.5 252.899 331 252.899 331C252.899 331 253.099 331.4 253.499 332.2C253.799 333 254.299 334.1 254.799 335.5C255.899 338.4 257.099 342.4 258.399 346.8C259.599 351.2 260.699 355.2 261.499 358.2C261.899 359.6 262.199 360.7 262.499 361.7C262.699 362.6 262.799 363.1 262.799 363.1Z" fill="#E0E0E0"/>
<path d="M299.9 349.4C299.9 349.4 299.4 349.6 298.4 349.8C297.4 350.1 296 350.4 294.3 350.9C290.9 351.9 286.1 353.4 281 355.3C275.9 357.2 271.3 359.1 268 360.6C266.4 361.3 265.1 362 264.1 362.4C263.2 362.8 262.7 363.1 262.7 363C262.7 363 263.2 362.7 264 362.2C264.9 361.7 266.2 361 267.8 360.2C271 358.6 275.6 356.6 280.7 354.7C285.8 352.8 290.6 351.3 294.1 350.5C295.8 350 297.3 349.7 298.2 349.6C299.4 349.5 299.9 349.4 299.9 349.4Z" fill="#E0E0E0"/>
<path d="M253.3 408.5C253.3 408.5 253.2 408.4 253 408.1C252.8 407.8 252.5 407.3 252.1 406.8C251.3 405.7 250.3 404.1 249 402C246.4 397.9 243 392.2 239.3 385.8C235.6 379.4 232.3 373.6 229.8 369.5C228.6 367.5 227.6 365.8 226.8 364.6C226.5 364.1 226.2 363.6 226 363.3C225.8 363 225.7 362.8 225.8 362.8C225.8 362.8 225.9 362.9 226.1 363.2C226.3 363.5 226.6 364 227 364.5C227.8 365.6 228.8 367.2 230.1 369.3C232.7 373.4 236.1 379.1 239.8 385.5C243.5 391.9 246.8 397.7 249.3 401.8C250.5 403.8 251.5 405.5 252.3 406.7C252.6 407.2 252.9 407.7 253.1 408C253.2 408.4 253.3 408.5 253.3 408.5Z" fill="#E0E0E0"/>
<path d="M301.499 383.5C301.499 383.5 301.299 383.6 300.999 383.8C300.599 384 300.199 384.2 299.599 384.5C298.299 385.2 296.599 386.1 294.399 387.2C289.999 389.5 284.099 392.7 277.499 396.2C270.899 399.8 264.899 402.9 260.499 405.1C258.299 406.2 256.499 407.1 255.299 407.6C254.699 407.9 254.199 408.1 253.899 408.3C253.599 408.4 253.399 408.5 253.399 408.5C253.399 408.5 253.599 408.4 253.899 408.2C254.299 408 254.699 407.8 255.299 407.5C256.599 406.8 258.299 405.9 260.499 404.8C264.899 402.5 270.799 399.3 277.399 395.8C283.999 392.2 289.999 389.1 294.399 386.9C296.599 385.8 298.399 384.9 299.599 384.4C300.199 384.1 300.699 383.9 300.999 383.7C301.299 383.5 301.499 383.5 301.499 383.5Z" fill="#E0E0E0"/>
<path d="M125.2 206.7C125.2 206.7 113.3 208.4 120 234.4C126.7 260.4 132.3 273.8 132.3 273.8C132.3 273.8 133.2 279.7 128.4 279.5C123.6 279.3 114 275.5 110.7 280.6C107.3 285.9 110.3 292.3 117.7 299C125.2 305.7 140.9 321 142.4 322.4C143.8 323.8 144.9 326.6 141.6 327C138.3 327.4 115.2 324.7 114.6 335.7C114 346.8 137.8 362 140.4 363.7C143 365.4 143.4 366.8 142.8 368.3C142.2 369.8 134.5 368.1 127.9 367.6C121.3 367.1 113.5 367.7 113.7 374.1C113.9 380.5 126.4 396.7 162.9 408.7L180.2 413.2L193 400.6C218.7 372 221.5 351.7 218.5 346.1C215.5 340.5 208.5 343.8 203 347.5C197.5 351.2 191.7 356.5 190.4 355.5C189.2 354.5 188.8 353.1 190.2 350.3C191.6 347.5 204.7 322.4 198.6 313.2C192.6 303.9 173.8 317.8 170.8 319C167.8 320.3 167.3 317.2 167.8 315.4C168.3 313.5 174.4 292.4 177.6 282.8C180.7 273.3 180.1 266.2 174.5 263.3C169.1 260.5 162.6 268.6 158.6 271.2C154.6 273.7 152.4 268.2 152.4 268.2C152.4 268.2 150.6 253.7 143.5 227.9C136.4 202 125 206.6 125 206.6" fill="#660D33" fill-opacity="0.07"/>
<path d="M180.1 417.7C174.9 398.7 166.3 364.7 158.8 335.5C151.2 306.4 144.4 280 139.3 260.9C136.8 251.4 134.7 243.7 133.3 238.3C132.6 235.7 132 233.6 131.7 232.2C131.5 231.5 131.4 231 131.3 230.6C131.2 230.2 131.2 230 131.2 230C131.2 230 131.3 230.2 131.4 230.5C131.5 230.9 131.7 231.4 131.9 232.1C132.3 233.5 132.9 235.6 133.6 238.2C135.1 243.5 137.2 251.2 139.8 260.7C145 279.7 151.9 306.1 159.4 335.2C167 364.3 175.5 398.4 180.6 417.4" fill="#E0E0E0"/>
<path d="M124 286.6C124 286.6 124.4 286.8 125.1 287.2C125.8 287.6 126.8 288.3 128.1 289.1C130.6 290.7 134 293 137.7 295.6C141.3 298.2 144.6 300.5 147.1 302.3C148.2 303.1 149.2 303.8 150 304.3C150.7 304.8 151 305.1 151 305.1C151 305.1 150.6 304.9 149.9 304.5C149.2 304.1 148.2 303.4 146.9 302.6C144.4 301 141.1 298.6 137.4 296C133.8 293.4 130.5 291.1 127.9 289.3C126.8 288.5 125.8 287.8 125 287.3C124.4 286.9 124 286.6 124 286.6Z" fill="#E0E0E0"/>
<path d="M152.501 304.3C152.401 304.2 156.801 297 162.401 288.2C168.001 279.4 172.701 272.4 172.801 272.4C172.901 272.5 168.501 279.7 162.901 288.5C157.301 297.3 152.601 304.3 152.501 304.3Z" fill="#E0E0E0"/>
<path d="M162.101 349.5C162.101 349.5 162.401 349.1 163.001 348.6C163.701 348 164.601 347.2 165.701 346.2C168.001 344.2 171.101 341.4 174.401 338.3C177.701 335.1 180.701 332.1 182.801 330C183.801 329 184.601 328.1 185.301 327.4C185.901 326.8 186.201 326.5 186.301 326.5C186.301 326.5 186.001 326.9 185.501 327.5C185.001 328.1 184.201 329.1 183.101 330.2C181.101 332.4 178.201 335.5 174.801 338.7C171.501 341.9 168.301 344.6 165.901 346.5C164.701 347.5 163.801 348.2 163.101 348.7C162.501 349.3 162.101 349.6 162.101 349.5Z" fill="#E0E0E0"/>
<path d="M132.801 339.2C132.801 339.2 133.201 339.3 134.001 339.5C134.901 339.8 135.901 340.1 137.201 340.5C139.901 341.3 143.501 342.6 147.601 343.9C151.601 345.3 155.301 346.5 157.901 347.5C159.101 348 160.201 348.3 161.001 348.6C161.701 348.9 162.101 349.1 162.101 349.1C162.101 349.1 161.701 349 160.901 348.8C160.001 348.5 159.001 348.2 157.701 347.8C155.001 347 151.401 345.7 147.301 344.4C143.301 343 139.601 341.8 137.001 340.8C135.801 340.3 134.701 340 133.901 339.7C133.201 339.4 132.801 339.2 132.801 339.2Z" fill="#E0E0E0"/>
<path d="M136.2 380.3C136.2 380.3 136.7 380.4 137.7 380.7C138.8 381 140.1 381.4 141.8 381.9C145.2 383 149.9 384.5 155.1 386.2C160.3 387.9 165 389.5 168.4 390.6C170 391.2 171.4 391.6 172.4 392C173.3 392.3 173.9 392.6 173.8 392.6C173.8 392.6 173.3 392.5 172.3 392.2C171.2 391.9 169.9 391.5 168.2 391C164.8 389.9 160.1 388.4 154.9 386.7C149.7 385 145 383.4 141.6 382.3C140 381.7 138.6 381.3 137.6 380.9C136.7 380.5 136.2 380.3 136.2 380.3Z" fill="#E0E0E0"/>
<path d="M173 392C173 392 173.4 391.5 174.2 390.8C175.1 390 176.2 388.9 177.5 387.7C180.3 385.1 184.1 381.4 188.3 377.3C192.4 373.2 196.1 369.3 198.7 366.5C200 365.2 201 364 201.8 363.2C202.5 362.4 203 362 203 362C203 362 202.7 362.5 202 363.3C201.3 364.1 200.3 365.3 199 366.7C196.5 369.6 192.8 373.5 188.7 377.6C184.6 381.8 180.7 385.4 177.8 387.9C176.4 389.2 175.2 390.2 174.4 390.9C173.5 391.7 173 392.1 173 392Z" fill="#E0E0E0"/>
<path d="M73.6003 51.5998L63.8003 48.5998C63.8003 48.5998 61.2003 56.7998 52.7003 54.2998C48.3003 52.9998 46.9003 49.3998 46.6003 46.8998C46.3003 43.9998 47.6003 41.1998 49.8003 39.1998C52.3003 36.9998 56.7003 35.5998 62.9003 38.7998L69.8003 16.7998L60.2003 13.7998L56.2003 26.6998C56.2003 26.6998 41.6003 25.9998 36.9003 40.8998C32.4003 55.1998 44.2003 62.4998 49.7003 64.1998C53.8003 65.3998 68.4003 68.7998 73.6003 51.5998Z" fill="#660D33" fill-opacity="0.26"/>
<path d="M61.3854 9.14799L71.2178 12.2153L74.0767 3.05117L64.2443 -0.0161682L61.3854 9.14799Z" fill="#660D33" fill-opacity="0.26"/>
<path d="M100.5 26.7001L104.4 25.7001C104.4 25.7001 103.5 22.4001 106.9 21.5001C108.7 21.0001 109.9 21.9001 110.5 22.7001C111.2 23.6001 111.4 24.8001 111.1 25.9001C110.7 27.2001 109.5 28.5001 106.8 28.8001L109.1 37.6001L113 36.6001L111.6 31.4001C111.6 31.4001 116.7 28.6001 115.1 22.6001C113.6 16.9001 108.1 16.9001 105.9 17.5001C104.2 17.9001 98.5997 19.8001 100.5 26.7001Z" fill="#660D33" fill-opacity="0.26"/>
<path d="M113.542 38.3242L109.578 39.3701L110.548 43.0443L114.512 41.9984L113.542 38.3242Z" fill="#660D33" fill-opacity="0.26"/>
<path d="M423.3 127.9L427.1 129.3C427.1 129.3 428.3 126.1 431.6 127.3C433.3 127.9 433.8 129.3 433.9 130.3C434 131.5 433.4 132.6 432.5 133.3C431.5 134.1 429.7 134.6 427.3 133.2L424.2 141.8L428 143.2L429.8 138.2C429.8 138.2 435.6 138.7 437.7 132.9C439.7 127.3 435.2 124.2 433.1 123.5C431.4 122.8 425.7 121.2 423.3 127.9Z" fill="#EBEBEB"/>
<path d="M427.414 144.919L423.56 143.523L422.265 147.096L426.12 148.492L427.414 144.919Z" fill="#EBEBEB"/>
<path d="M20.0003 171.4L28.0003 168.3C28.0003 168.3 25.4003 161.5 32.4003 158.7C36.0003 157.2 38.8003 158.9 40.3003 160.4C42.0003 162.2 42.7003 164.7 42.2003 167.1C41.7003 169.9 39.5003 173.1 33.7003 174.2L40.7003 192.3L48.7003 189.2L44.6003 178.6C44.6003 178.6 54.6003 171.4 49.9003 159.1C45.4003 147.3 33.8003 148.7 29.3003 150.4C25.8003 152 14.4003 157.3 20.0003 171.4Z" fill="#660D33" fill-opacity="0.26"/>
<path d="M50.2629 193.107L42.2383 196.198L45.1502 203.756L53.1749 200.665L50.2629 193.107Z" fill="#660D33" fill-opacity="0.26"/>
<path d="M437 423.4C437 423.6 356.375 424 257 424C157.543 424 77 423.8 77 423.4C77 423 157.543 422.8 257 422.8C356.457 422.8 437 423 437 423.4Z" fill="#263238"/>
<path d="M393.201 48.1005H389.201C389.201 48.1005 389.201 51.4005 385.701 51.5005C383.901 51.5005 383.001 50.3005 382.601 49.4005C382.201 48.3005 382.301 47.2005 382.901 46.2005C383.601 45.1005 385.101 44.1005 387.701 44.5005V35.5005H383.801V40.8005C383.801 40.8005 378.301 42.2005 378.301 48.3005C378.301 54.1005 383.501 55.5005 385.801 55.5005C387.501 55.5005 393.301 55.1005 393.201 48.1005Z" fill="#E8505B"/>
<path d="M383.813 33.7393H387.813V30.0393H383.813V33.7393Z" fill="#E8505B"/>
<path d="M415 42.8002C415 42.8002 415 42.6002 415 42.3002C415 41.9002 415 41.4002 415 40.8002C415 40.5002 415 40.1002 415 39.7002C414.9 39.3002 414.9 38.9002 414.8 38.4002C414.7 37.9002 414.7 37.4002 414.6 36.9002C414.5 36.4002 414.3 35.8002 414.2 35.2002C413.6 32.8002 412.5 29.9002 410.6 26.9002C408.7 23.9002 406 20.9002 402.3 18.4002C398.6 15.9002 393.9 14.1002 388.7 13.6002C387.4 13.6002 386.1 13.4002 384.7 13.5002C384 13.5002 383.3 13.5002 382.7 13.6002C382 13.7002 381.3 13.8002 380.6 13.9002C377.9 14.5002 375.1 15.3002 372.5 16.7002C369.9 18.1002 367.4 19.8002 365.2 22.0002C363 24.2002 361.2 26.8002 359.7 29.6002C358.2 32.5002 357.2 35.6002 356.8 38.9002C356.6 39.7002 356.6 40.6002 356.6 41.4002C356.5 42.2002 356.5 43.1002 356.6 43.9002C356.7 45.6002 356.9 47.3002 357.2 48.9002C358 52.5002 359.4 55.9002 361.4 58.9002V58.6002C360 62.1002 358.6 65.5002 357.3 68.8002L357.1 69.4002L357.7 69.2002C361.4 68.2002 365.1 67.2002 368.6 66.2002L368.3 66.1002C372.1 69.0002 376.4 70.8002 380.8 71.5002C383 71.9002 385.1 72.0002 387.2 71.9002C388.2 71.9002 389.3 71.8002 390.3 71.6002C390.8 71.5002 391.3 71.4002 391.8 71.4002C392.3 71.3002 392.8 71.2002 393.2 71.0002C400.9 69.0002 406.5 64.3002 409.8 59.6002C411.5 57.3002 412.6 54.9002 413.4 52.8002C413.6 52.3002 413.8 51.8002 413.9 51.3002C414 50.8002 414.2 50.3002 414.3 49.9002C414.4 49.4002 414.5 49.0002 414.6 48.6002C414.7 48.2002 414.7 47.8002 414.8 47.4002C414.9 46.6002 415 46.0002 415.1 45.4002C415.1 44.8002 415.1 44.3002 415.2 43.9002C415.2 43.5002 415.2 43.2002 415.2 43.0002C415.1 42.9002 415.1 42.8002 415 42.8002C415 42.8002 415 42.9002 415 43.1002C415 43.3002 415 43.6002 414.9 44.0002C414.9 44.4002 414.8 44.9002 414.8 45.5002C414.8 46.1002 414.6 46.8002 414.5 47.5002C413.9 50.5002 412.8 55.0002 409.4 59.6002C406.2 64.2002 400.5 68.8002 393 70.7002C392.5 70.8002 392.1 71.0002 391.6 71.0002C391.1 71.1002 390.6 71.1002 390.1 71.2002C389.1 71.4002 388.1 71.4002 387.1 71.5002C385.1 71.6002 383 71.5002 380.8 71.1002C376.6 70.3002 372.3 68.5002 368.6 65.7002L368.5 65.6002H368.4C364.9 66.6002 361.2 67.6002 357.5 68.6002L357.9 69.0002C359.2 65.7002 360.6 62.3002 362 58.8002L362.1 58.6002L362 58.5002C360.1 55.6002 358.6 52.2002 357.9 48.7002C357.6 47.1002 357.3 45.4002 357.3 43.8002C357.3 43.0002 357.3 42.2002 357.3 41.3002C357.3 40.5002 357.3 39.7002 357.5 38.9002C357.9 35.7002 358.9 32.6002 360.3 29.8002C361.7 27.0002 363.5 24.5002 365.7 22.3002C367.9 20.2002 370.3 18.4002 372.8 17.1002C375.3 15.7002 378.1 14.9002 380.7 14.4002C381.4 14.3002 382 14.2002 382.7 14.1002C383.4 14.0002 384 14.0002 384.7 14.0002C386 13.9002 387.3 14.0002 388.6 14.1002C393.7 14.6002 398.3 16.4002 402 18.8002C405.7 21.2002 408.4 24.2002 410.3 27.1002C412.2 30.0002 413.3 32.9002 414 35.2002C414.2 35.8002 414.3 36.4002 414.4 36.9002C414.5 37.4002 414.6 37.9002 414.6 38.4002C414.7 38.9002 414.7 39.3002 414.8 39.7002C414.8 40.1002 414.9 40.5002 414.9 40.8002C414.9 41.4002 415 41.9002 415 42.3002C415 42.6002 415 42.8002 415 42.8002Z" fill="#263238"/>
<path d="M116.8 160.7H174.6C174.6 160.7 174.6 112.2 225 111.3C251.2 110.8 264.7 128 270.3 141.1C276.7 156.4 274.8 173.7 266.2 187.9C256.4 204.1 235.3 220.3 196.4 213.4L196 342.1H253V265.8C253 265.8 333.1 245.1 333.1 156.8C333.1 72.2999 264.8 54.0999 228.1 52.8999C207.7 52.1999 200.3 51.3999 175 54.9999C142.9 59.5999 116.2 96.9999 116.8 160.7Z" fill="#E8505B"/>
<path d="M253.8 369H195.8V423.1H253.8V369Z" fill="#E8505B"/>
<path opacity="0.1" d="M253.8 369H195.8V423.1H253.8V369Z" fill="black"/>
<path opacity="0.1" d="M116.8 160.7H174.6C174.6 160.7 174.6 112.2 225 111.3C251.2 110.8 264.7 128 270.3 141.1C276.7 156.4 274.8 173.7 266.2 187.9C256.4 204.1 235.3 220.3 196.4 213.4L196 342.1H253V265.8C253 265.8 333.1 245.1 333.1 156.8C333.1 72.2999 264.8 54.0999 228.1 52.8999C207.7 52.1999 200.3 51.3999 175 54.9999C142.9 59.5999 116.2 96.9999 116.8 160.7Z" fill="black"/>
<path d="M92.9003 160.7H150.7C150.7 160.7 150.7 112.2 201.1 111.3C227.3 110.8 240.8 128 246.4 141.1C252.8 156.4 250.9 173.7 242.3 187.9C232.5 204.1 211 218.7 172.1 211.9V342.1H229.2V265.8C229.2 265.8 309.3 245.1 309.3 156.8C309.3 72.2997 233.6 52.6997 201.1 52.6997C176.3 52.7997 91.8003 58.7997 92.9003 160.7Z" fill="#E8505B"/>
<path opacity="0.3" d="M92.9003 160.7H150.7C150.7 160.7 150.7 112.2 201.1 111.3C227.3 110.8 240.8 128 246.4 141.1C252.8 156.4 250.9 173.7 242.3 187.9C232.5 204.1 211 218.7 172.1 211.9V342.1H229.2V265.8C229.2 265.8 309.3 245.1 309.3 156.8C309.3 72.2997 233.6 52.6997 201.1 52.6997C176.3 52.7997 91.8003 58.7997 92.9003 160.7Z" fill="black"/>
<path d="M229.9 369H171.9V423.1H229.9V369Z" fill="#E8505B"/>
<path opacity="0.3" d="M229.9 369H171.9V423.1H229.9V369Z" fill="black"/>
<path d="M207.6 111.6C207.6 111.6 207.3 111.6 206.7 111.5C206.1 111.5 205.3 111.3 204.2 111.3C202.1 111.2 198.9 111.2 195.1 111.7C191.3 112.2 186.8 113.1 182 114.8C179.6 115.7 177.1 116.6 174.7 117.9C172.2 119.1 169.8 120.7 167.6 122.5C165.3 124.3 163.4 126.5 161.8 128.7C160.1 130.9 158.7 133.1 157.4 135.3C154.9 139.7 153.3 144 152.2 147.7C151.1 151.4 150.7 154.5 150.5 156.6C150.4 157.7 150.3 158.5 150.3 159.1C150.3 159.7 150.2 160 150.2 160C150.2 160 150.2 159.7 150.2 159.1C150.2 158.5 150.2 157.7 150.3 156.6C150.4 154.5 150.9 151.3 151.9 147.6C152.9 143.9 154.6 139.6 157 135.1C158.3 132.9 159.7 130.6 161.4 128.4C163.1 126.2 165 124 167.3 122.1C169.6 120.2 172 118.7 174.5 117.4C177 116.1 179.5 115.1 181.9 114.3C186.7 112.7 191.3 111.7 195.1 111.3C198.9 110.9 202.1 110.9 204.2 111.1C205.3 111.1 206.1 111.3 206.7 111.4C207.3 111.5 207.6 111.6 207.6 111.6Z" fill="#263238"/>
<path d="M294.6 101.3C294.6 101.3 294.5 101.2 294.4 101.1C294.3 100.9 294.1 100.7 293.9 100.4C293.4 99.7999 292.8 98.8999 292 97.6999C291.6 97.0999 291.1 96.3999 290.6 95.7999C290 95.0999 289.4 94.3999 288.8 93.5999C288.2 92.7999 287.5 91.9999 286.7 91.0999C285.9 90.1999 285.1 89.3999 284.2 88.3999C283.3 87.4999 282.4 86.4999 281.4 85.4999C280.4 84.5999 279.3 83.5999 278.2 82.5999C277.6 82.0999 277.1 81.5999 276.5 81.0999C275.9 80.5999 275.3 80.0999 274.6 79.5999C273.3 78.5999 272.1 77.5999 270.7 76.5999C265.2 72.5999 258.8 68.7999 251.8 65.3999C250 64.5999 248.3 63.7999 246.5 62.9999C244.7 62.2999 243 61.5999 241.3 60.9999C239.6 60.2999 237.9 59.7999 236.2 59.1999C234.5 58.6999 232.9 58.0999 231.2 57.6999C229.6 57.2999 228 56.8999 226.4 56.3999C224.9 55.9999 223.3 55.6999 221.8 55.3999C220.3 55.0999 218.9 54.7999 217.5 54.5999C216.1 54.3999 214.8 54.1999 213.5 53.9999C211 53.5999 208.7 53.4999 206.6 53.2999C205.6 53.1999 204.6 53.0999 203.8 53.0999C202.9 53.0999 202.1 53.0999 201.4 52.9999C200 52.9999 198.9 52.8999 198.1 52.8999C197.7 52.8999 197.5 52.8999 197.2 52.8999C197 52.8999 196.9 52.8999 196.9 52.8999C196.9 52.8999 197 52.8999 197.2 52.8999C197.4 52.8999 197.7 52.8999 198.1 52.8999C198.9 52.8999 200 52.8999 201.4 52.8999C202.1 52.8999 202.9 52.8999 203.8 52.8999C204.7 52.8999 205.6 52.9999 206.6 53.0999C208.6 53.2999 211 53.2999 213.5 53.6999C214.8 53.8999 216.1 54.0999 217.5 54.1999C218.9 54.3999 220.3 54.6999 221.8 54.9999C223.3 55.2999 224.8 55.4999 226.4 55.9999C228 56.3999 229.6 56.7999 231.2 57.1999C232.9 57.5999 234.5 58.1999 236.2 58.6999C237.9 59.2999 239.6 59.7999 241.3 60.4999C243 61.1999 244.8 61.7999 246.6 62.4999C248.3 63.2999 250.1 64.0999 251.9 64.8999C259 68.2999 265.4 72.0999 270.9 76.1999C272.3 77.1999 273.5 78.2999 274.8 79.2999C275.4 79.7999 276 80.2999 276.7 80.7999C277.3 81.2999 277.8 81.7999 278.4 82.2999C279.5 83.2999 280.6 84.2999 281.6 85.2999C282.6 86.2999 283.5 87.2999 284.4 88.1999C285.3 89.0999 286.1 89.9999 286.9 90.8999C287.6 91.7999 288.3 92.6999 288.9 93.4999C289.5 94.2999 290.1 94.9999 290.7 95.6999C291.2 96.3999 291.6 97.0999 292 97.6999C292.8 98.8999 293.4 99.7999 293.8 100.5C294 100.8 294.1 101 294.3 101.2C294.6 101.2 294.6 101.3 294.6 101.3Z" fill="#263238"/>
<path d="M288.601 225.3C288.601 225.3 288.501 225.5 288.201 225.9C287.901 226.3 287.401 226.9 286.901 227.6C286.301 228.3 285.601 229.2 284.701 230.2C283.801 231.2 282.901 232.3 281.701 233.5C280.601 234.7 279.301 236 277.901 237.3C276.501 238.7 275.001 240 273.301 241.5C270.001 244.4 266.201 247.3 262.101 250.2C257.901 253.1 253.801 255.5 250.001 257.6C248.101 258.6 246.201 259.6 244.501 260.4C242.801 261.3 241.101 262 239.601 262.6C238.101 263.3 236.701 263.8 235.501 264.2C234.301 264.7 233.201 265 232.301 265.3C231.501 265.6 230.801 265.8 230.301 266C229.801 266.1 229.601 266.2 229.601 266.2C229.601 266.2 229.801 266.1 230.301 265.9C230.801 265.7 231.501 265.5 232.301 265.2C233.201 264.9 234.201 264.5 235.401 264C236.601 263.5 238.001 263 239.501 262.3C241.001 261.6 242.701 260.9 244.401 260.1C246.201 259.3 248.001 258.3 249.901 257.3C253.701 255.2 257.801 252.7 262.001 249.9C266.101 247 269.901 244.1 273.201 241.2C274.801 239.8 276.401 238.4 277.801 237.1C279.201 235.8 280.501 234.5 281.601 233.3C282.801 232.1 283.801 231 284.701 230.1C285.601 229.2 286.301 228.3 286.901 227.6C287.501 226.9 288.001 226.4 288.301 226C288.401 225.5 288.601 225.3 288.601 225.3Z" fill="#263238"/>
<path d="M228.101 337.6C228.001 337.6 227.801 321.5 227.801 301.7C227.801 281.9 227.901 265.8 228.101 265.8C228.201 265.8 228.401 281.9 228.401 301.7C228.401 321.5 228.301 337.6 228.101 337.6Z" fill="#263238"/>
<path d="M230.3 419.4C230.2 419.4 230 408.1 230 394.2C230 380.3 230.1 369 230.3 369C230.4 369 230.6 380.3 230.6 394.2C230.6 408.1 230.5 419.4 230.3 419.4Z" fill="#263238"/>
<path d="M322.862 198.248L358.219 206.046L363.613 198.248L362.814 188.15L357.42 183.251H338.843L321.563 198.848" fill="#660D33"/>
<g opacity="0.3">
<path d="M322.862 198.248L358.219 206.046L363.613 198.248L362.814 188.15L357.42 183.251H338.843L321.563 198.848" fill="black"/>
</g>
<path d="M376.797 125.363L421.443 119.364L428.435 117.364C428.435 117.364 444.515 113.865 446.013 113.265C447.711 112.665 448.51 113.365 448.61 113.965C448.91 114.965 447.911 116.165 446.413 116.665C445.914 116.865 437.723 119.664 437.723 119.664C437.723 119.664 438.522 119.764 440.52 120.464C442.518 121.164 444.315 123.663 445.314 126.562C446.213 129.462 446.213 130.362 445.115 130.862C444.615 131.062 444.216 130.862 443.816 130.662C443.217 130.262 442.717 129.662 442.518 128.962C440.92 124.263 438.023 123.863 438.023 123.863L437.124 124.163C437.124 124.163 440.121 126.263 440.121 128.862C440.121 129.262 440.021 129.662 439.921 129.962C440.32 131.162 440.121 132.661 439.322 133.661C438.423 134.761 437.024 135.261 435.626 135.061C435.027 134.961 434.328 134.561 434.228 133.961C434.228 133.661 434.328 133.261 434.427 132.961C434.527 132.761 434.527 132.661 434.627 132.461L431.93 132.861C431.93 132.861 425.838 133.361 423.241 133.861L381.491 146.458C375.698 148.158 369.606 144.859 367.908 139.06C366.01 132.661 370.305 126.263 376.797 125.363Z" fill="#FFBE9D"/>
<path d="M422.441 120.464C422.541 121.364 423.44 122.064 424.339 122.264C425.238 122.464 426.237 122.364 427.136 122.464C429.932 122.863 432.03 125.363 434.826 125.563C435.226 125.563 435.725 125.563 435.825 125.163C435.925 124.863 435.625 124.463 435.326 124.263C433.029 122.164 430.731 120.164 428.334 118.064" fill="#FFBE9D"/>
<path d="M428.534 118.064C428.534 118.064 428.834 118.264 429.333 118.664C429.833 119.064 430.532 119.664 431.431 120.464C432.33 121.264 433.428 122.164 434.527 123.163C434.827 123.463 435.126 123.663 435.426 123.963C435.726 124.263 436.125 124.463 436.225 125.063C436.225 125.363 436.025 125.663 435.726 125.763C435.426 125.863 435.226 125.863 434.927 125.863C434.427 125.863 434.028 125.763 433.628 125.563C431.83 124.963 430.532 123.963 429.134 123.263C428.435 122.963 427.835 122.663 427.136 122.563C426.537 122.464 425.838 122.464 425.238 122.464C424.04 122.464 423.041 121.964 422.741 121.364C422.342 120.764 422.442 120.364 422.442 120.364C422.542 120.364 422.442 120.764 422.941 121.164C423.341 121.664 424.24 122.064 425.338 122.064C425.938 122.064 426.537 122.064 427.236 122.164C427.935 122.264 428.634 122.464 429.333 122.863C430.732 123.463 432.13 124.563 433.728 125.063C434.128 125.163 434.527 125.263 434.927 125.263C435.326 125.263 435.626 125.163 435.626 124.963C435.626 124.763 435.326 124.463 435.027 124.163C434.727 123.863 434.427 123.663 434.128 123.363C433.029 122.364 432.03 121.464 431.131 120.664C430.232 119.864 429.633 119.264 429.134 118.764C428.734 118.364 428.534 118.164 428.534 118.064Z" fill="#EB996E"/>
<path d="M437.024 124.164C437.024 124.264 437.724 123.864 438.822 124.164C439.322 124.264 439.921 124.664 440.32 125.263C440.82 125.863 441.119 126.563 441.419 127.363C441.719 128.163 442.018 128.963 442.418 129.563C442.817 130.162 443.317 130.662 443.916 130.962C444.415 131.262 445.015 131.162 445.314 130.962C445.614 130.762 445.714 130.662 445.714 130.662C445.714 130.662 445.514 130.762 445.314 130.862C445.015 130.962 444.615 130.962 444.116 130.762C443.616 130.462 443.217 130.062 442.817 129.363C442.418 128.763 442.118 127.963 441.819 127.163C441.519 126.363 441.119 125.563 440.62 124.964C440.121 124.364 439.521 123.964 438.922 123.864C438.323 123.764 437.823 123.864 437.524 123.864C437.224 124.064 437.024 124.164 437.024 124.164Z" fill="#EB996E"/>
<path d="M447.112 116.465C447.112 116.465 446.512 116.665 445.514 117.065C444.415 117.465 443.117 117.965 441.618 118.465C440.12 118.965 438.822 119.465 437.723 119.865C436.724 120.165 436.125 120.465 436.125 120.465C436.125 120.465 436.824 120.365 437.823 120.065C438.822 119.765 440.22 119.365 441.718 118.765C443.216 118.265 444.615 117.665 445.614 117.265C446.512 116.865 447.112 116.565 447.112 116.465Z" fill="#EB996E"/>
<path d="M435.926 126.662C435.926 126.662 436.026 126.862 436.326 127.062C436.525 127.262 436.925 127.762 436.825 128.262C436.825 128.562 436.625 128.762 436.326 128.962C436.026 129.162 435.626 129.162 435.227 129.262C434.827 129.362 434.328 129.462 434.028 129.861C433.729 130.261 433.629 130.861 433.829 131.361C434.028 131.861 434.428 132.261 434.827 132.461C435.227 132.661 435.726 132.761 436.126 132.661C436.925 132.461 437.624 132.161 438.223 131.861C438.823 131.561 439.222 131.261 439.422 130.961C439.622 130.661 439.721 130.461 439.721 130.461C439.721 130.461 439.622 130.661 439.322 130.861C439.122 131.061 438.623 131.361 438.123 131.661C437.624 131.961 436.925 132.161 436.126 132.361C435.427 132.461 434.428 132.061 434.128 131.261C434.028 130.861 434.028 130.361 434.228 130.061C434.428 129.761 434.827 129.661 435.227 129.561C435.626 129.462 436.026 129.362 436.326 129.162C436.725 128.962 436.925 128.662 436.925 128.262C436.925 127.562 436.525 127.162 436.226 126.862C436.026 126.762 435.926 126.662 435.926 126.662Z" fill="#EB996E"/>
<path d="M434.927 132.261C434.927 132.261 434.727 132.261 434.528 132.461C434.328 132.661 434.028 133.061 434.028 133.66C434.028 134.26 434.528 134.96 435.227 135.26C435.926 135.56 436.825 135.56 437.624 135.26C438.423 134.96 439.122 134.46 439.522 133.76C439.921 133.16 440.121 132.461 440.121 131.861C440.121 131.261 440.021 130.861 440.021 130.561C439.921 130.261 439.821 130.161 439.821 130.161C439.721 130.161 440.021 130.861 439.921 131.861C439.821 132.361 439.622 132.961 439.222 133.56C438.823 134.16 438.223 134.66 437.424 134.86C436.625 135.16 435.826 135.16 435.227 134.86C434.628 134.56 434.228 134.06 434.128 133.56C434.028 133.061 434.328 132.661 434.528 132.461C434.827 132.361 434.927 132.261 434.927 132.261Z" fill="#EB996E"/>
<path d="M427.536 128.562C427.536 128.562 427.536 128.262 427.236 127.763C426.937 127.363 426.437 126.763 425.638 126.463V126.763C425.938 126.563 426.337 126.463 426.637 126.163C428.535 124.963 429.533 123.264 429.433 123.264C429.334 123.164 428.335 124.663 426.437 125.863C426.137 126.063 425.738 126.263 425.438 126.463L425.139 126.663L425.538 126.763C426.237 127.063 426.837 127.563 427.136 127.863C427.336 128.362 427.436 128.562 427.536 128.562Z" fill="#EB996E"/>
<path d="M441.42 123.863C441.32 123.763 440.92 124.363 440.82 125.163C440.72 125.963 441.12 126.563 441.22 126.563C441.32 126.563 441.12 125.963 441.12 125.263C441.22 124.363 441.52 123.863 441.42 123.863Z" fill="#EB996E"/>
<path d="M233.17 139.361C233.17 139.361 226.678 128.763 225.48 127.863C224.281 126.963 213.994 123.164 213.095 123.464C212.196 123.764 199.711 125.864 201.109 127.363C202.507 128.863 211.297 127.263 211.297 127.263L212.495 127.863C212.495 127.863 205.004 129.063 203.406 129.963C201.908 130.763 202.408 132.562 203.806 132.462C205.204 132.362 211.696 131.062 212.096 131.362C212.495 131.662 205.004 133.162 204.205 133.562C203.107 134.162 203.007 136.161 204.405 136.061C205.204 135.961 212.296 134.162 212.296 134.162C212.296 134.162 206.702 136.361 206.203 136.861C205.404 137.661 206.003 138.861 207.202 138.661C208.001 138.461 211.996 136.561 213.095 136.361C213.095 136.361 214.093 136.661 215.092 138.761C215.492 139.761 217.589 145.959 221.285 145.859C224.581 145.759 227.777 148.459 227.777 148.459L233.17 139.361Z" fill="#FFBE9D"/>
<path d="M201.209 127.463C201.209 127.563 202.008 127.863 203.506 128.063C204.205 128.163 205.104 128.263 206.103 128.163C207.102 128.063 208.101 127.863 209.199 127.763C209.998 127.663 210.797 127.563 211.497 127.463H211.397C214.493 128.563 216.79 129.263 216.79 129.163C216.79 129.063 214.693 128.063 211.596 126.963H211.497H211.397C210.698 127.063 209.898 127.163 209.099 127.263C208.001 127.463 207.002 127.563 206.003 127.663C205.104 127.763 204.205 127.763 203.506 127.663C202.108 127.563 201.209 127.363 201.209 127.463Z" fill="#EB996E"/>
<path d="M228.277 138.061C227.477 138.761 226.279 138.561 225.38 138.061C224.481 137.561 223.782 136.662 222.983 136.062C220.486 134.262 216.79 134.662 214.293 132.762C213.994 132.462 213.594 132.063 213.794 131.663C213.994 131.263 214.493 131.263 214.893 131.263C218.289 131.363 221.784 131.463 225.18 131.463" fill="#FFBE9D"/>
<path d="M225.18 131.662C225.18 131.662 224.78 131.562 224.081 131.562C223.382 131.462 222.283 131.462 221.085 131.362C219.786 131.262 218.188 131.262 216.59 131.162C216.191 131.162 215.691 131.162 215.292 131.162C214.892 131.162 214.293 131.062 213.794 131.462C213.494 131.662 213.494 132.162 213.594 132.462C213.694 132.762 213.894 132.962 214.093 133.162C214.493 133.462 214.892 133.762 215.392 133.962C217.289 134.862 219.187 134.962 220.685 135.462C221.484 135.662 222.184 136.061 222.783 136.461C223.382 136.861 223.881 137.361 224.381 137.761C225.38 138.661 226.578 138.961 227.277 138.761C228.076 138.661 228.276 138.161 228.276 138.161C228.276 138.061 227.977 138.461 227.277 138.461C226.578 138.561 225.579 138.261 224.681 137.361C224.181 136.961 223.682 136.461 223.082 135.961C222.483 135.462 221.684 135.162 220.885 134.862C219.287 134.262 217.389 134.162 215.592 133.362C215.192 133.162 214.792 132.862 214.393 132.662C214.093 132.362 213.894 132.062 214.093 131.862C214.293 131.662 214.693 131.662 215.192 131.662C215.592 131.662 216.091 131.662 216.49 131.662C218.188 131.662 219.687 131.662 220.985 131.662C222.283 131.662 223.282 131.662 223.981 131.662C224.78 131.662 225.18 131.662 225.18 131.662Z" fill="#EB996E"/>
<path d="M283.909 373.51L281.512 399.704L273.621 419.9C273.022 421.4 273.821 422.999 275.319 423.499C276.118 423.799 277.017 423.599 277.716 423.099C282.111 419.7 298.391 407.203 298.391 405.303C298.491 403.103 302.786 377.809 302.786 377.809L283.909 373.51Z" fill="#660D33"/>
<g opacity="0.6">
<path d="M275.419 423.499L298.791 403.503L298.691 404.603C298.591 405.602 298.092 406.402 297.392 407.102C295.495 408.902 290.201 413.601 277.916 423.099C277.217 423.699 276.218 423.799 275.419 423.499Z" fill="white"/>
</g>
<g opacity="0.6">
<path d="M294.296 394.505C293.597 394.905 293.298 395.805 293.597 396.605C293.897 397.305 294.896 397.705 295.595 397.305C296.294 396.905 296.693 395.805 296.294 395.105C295.894 394.405 294.696 394.105 294.097 394.605" fill="white"/>
</g>
<path d="M282.711 412.802C282.511 412.902 282.111 411.402 280.613 410.502C279.215 409.502 277.717 409.702 277.717 409.602C277.717 409.502 278.016 409.402 278.716 409.402C279.315 409.402 280.214 409.602 281.013 410.102C281.812 410.602 282.311 411.302 282.611 411.902C282.711 412.402 282.711 412.802 282.711 412.802Z" fill="#263238"/>
<path d="M280.412 416.101C280.312 416.201 279.513 415.301 278.215 414.701C276.916 414.101 275.718 414.201 275.718 414.101C275.618 414.001 277.016 413.501 278.415 414.201C279.913 414.801 280.512 416.001 280.412 416.101Z" fill="#263238"/>
<path d="M286.605 408.703C286.505 408.803 285.306 407.303 283.409 406.303C281.511 405.203 279.613 405.103 279.613 405.003C279.613 404.903 281.611 404.703 283.708 405.803C285.806 406.903 286.805 408.603 286.605 408.703Z" fill="#263238"/>
<path d="M288.003 400.804C287.903 400.904 286.505 400.204 284.707 399.904C282.81 399.604 281.311 399.904 281.211 399.704C281.112 399.604 282.71 399.004 284.707 399.304C286.805 399.604 288.103 400.604 288.003 400.804Z" fill="#263238"/>
<path d="M288.903 393.106C288.803 393.206 287.405 392.206 285.507 392.106C283.509 391.906 282.011 392.706 281.911 392.606C281.911 392.506 282.211 392.206 282.81 392.006C283.409 391.706 284.408 391.506 285.507 391.606C286.605 391.706 287.504 392.106 288.104 392.406C288.703 392.706 289.003 393.006 288.903 393.106Z" fill="#263238"/>
<path d="M285.706 390.606C285.706 390.606 285.606 390.206 285.806 389.606C285.906 389.006 286.206 388.106 286.905 387.106C287.204 386.606 287.604 386.107 288.403 385.807C288.803 385.707 289.302 385.807 289.602 386.207C289.901 386.606 289.901 387.006 289.901 387.406C289.701 389.106 288.103 390.506 286.206 390.506C284.308 390.506 282.71 389.206 282.111 387.706C282.011 387.306 281.911 386.806 282.211 386.406C282.51 386.007 283.01 385.907 283.409 386.007C284.208 386.206 284.608 386.706 285.007 387.106C285.806 387.906 286.306 388.806 286.605 389.306C286.905 389.906 286.905 390.206 286.905 390.306C286.805 390.406 286.405 388.906 284.807 387.406C284.408 387.006 283.908 386.606 283.409 386.506C283.109 386.406 282.91 386.506 282.81 386.706C282.71 386.906 282.71 387.206 282.81 387.506C283.309 388.706 284.707 389.906 286.306 389.906C287.904 389.906 289.302 388.606 289.502 387.306C289.502 387.006 289.502 386.606 289.302 386.406C289.202 386.206 288.902 386.107 288.603 386.207C288.103 386.306 287.704 386.906 287.304 387.306C285.906 389.106 285.806 390.606 285.706 390.606Z" fill="#263238"/>
<path d="M307.98 388.907L327.557 233.44L321.264 197.348L284.309 199.347L279.814 386.007C279.814 387.407 280.713 388.607 282.112 388.907L303.686 392.206C305.783 392.606 307.781 391.106 307.98 388.907Z" fill="#263238"/>
<path d="M327.057 238.739L362.714 274.031L311.376 286.528L315.072 312.423L384.488 302.925C390.381 302.125 395.774 298.926 399.27 294.027C404.663 286.528 404.763 276.531 399.569 268.932L345.435 189.449L321.264 197.348L327.057 238.739Z" fill="#263238"/>
<path d="M325.06 229.74C325.16 229.74 325.759 231.74 326.259 234.139C326.758 236.639 327.158 238.638 326.958 238.738C326.858 238.738 326.259 236.739 325.759 234.339C325.26 231.84 324.96 229.74 325.06 229.74Z" fill="#455A64"/>
<path d="M319.866 289.828C319.866 289.828 320.166 289.728 320.665 289.528C321.264 289.328 322.063 289.128 323.162 288.728C325.359 288.028 328.555 287.028 332.75 285.829C341.04 283.329 353.026 279.73 367.608 275.331L367.508 275.631C355.423 262.734 340.741 247.137 324.66 230.041L325.06 229.941C324.261 237.139 323.362 244.638 322.463 252.236C318.068 289.228 313.873 322.721 310.677 346.916C309.079 359.013 307.681 368.811 306.682 375.61C306.083 379.009 305.783 381.608 305.383 383.408C305.184 384.308 305.084 384.908 304.984 385.407C304.884 385.907 304.784 386.107 304.784 386.107C304.784 386.107 304.784 385.907 304.884 385.407C304.984 384.908 305.084 384.308 305.284 383.408C305.683 381.608 305.983 379.009 306.482 375.61C307.481 368.811 308.779 359.013 310.377 346.916C313.474 322.721 317.569 289.228 321.963 252.136C322.862 244.538 323.761 237.039 324.56 229.841L324.66 229.341L325.06 229.741C341.14 246.937 355.723 262.534 367.808 275.431L368.008 275.631L367.708 275.731C353.126 280.03 341.14 283.629 332.85 286.029C328.755 287.228 325.459 288.228 323.262 288.828C322.163 289.128 321.364 289.428 320.765 289.528C320.166 289.728 319.866 289.828 319.866 289.828Z" fill="#455A64"/>
<path d="M308.381 386.007C308.281 386.007 312.276 353.014 317.47 312.323C322.663 271.631 326.958 238.738 327.058 238.738C327.158 238.738 323.163 271.731 317.969 312.423C312.775 353.014 308.481 386.007 308.381 386.007Z" fill="#455A64"/>
<path d="M321.265 213.244C321.365 213.244 321.664 214.144 322.064 215.644C322.463 217.143 323.063 219.243 323.562 221.642C324.061 223.942 324.461 226.141 324.661 227.641C324.86 229.241 324.96 230.141 324.96 230.141C324.86 230.141 324.661 229.241 324.361 227.641C323.961 225.941 323.562 223.942 323.063 221.642C322.563 219.443 322.064 217.343 321.764 215.644C321.365 214.244 321.165 213.344 321.265 213.244Z" fill="#455A64"/>
<path d="M323.561 210.245C323.461 210.245 324.061 209.745 325.06 210.045C325.459 210.245 326.058 210.645 326.158 211.345C326.258 211.945 326.058 212.845 325.359 213.245C324.66 213.645 323.861 213.445 323.262 213.045C322.762 212.645 322.662 211.845 322.762 211.445C322.862 210.945 323.162 210.645 323.461 210.545C323.661 210.445 323.861 210.445 323.861 210.445C323.861 210.545 323.362 210.745 323.162 211.545C323.062 211.945 323.162 212.445 323.561 212.745C323.961 213.045 324.56 213.145 325.06 212.845C325.559 212.545 325.759 211.945 325.659 211.445C325.559 210.945 325.259 210.645 324.86 210.445C324.161 210.045 323.561 210.345 323.561 210.245Z" fill="#455A64"/>
<path d="M373.202 280.13C373.102 280.23 371.104 278.43 368.208 276.731C365.311 275.031 362.714 274.231 362.814 274.031C362.814 273.931 365.511 274.531 368.507 276.231C371.404 277.93 373.302 280.03 373.202 280.13Z" fill="#455A64"/>
<path d="M296.094 91.4704L275.619 101.368L284.409 163.055L280.913 190.749C280.513 194.348 281.812 197.848 284.508 200.247L317.568 199.547L340.741 186.85L351.328 185.05L346.933 163.955L348.931 134.061L373.101 146.959C374.999 147.958 377.097 148.258 379.194 147.658L423.54 136.161L421.243 119.065L381.092 123.564L350.529 96.4694L327.756 91.3704L323.661 84.6719H300.389L298.791 85.8716C297.992 86.4715 297.393 87.2713 297.093 88.1711L296.094 91.4704Z" fill="#660D33"/>
<path d="M275.619 101.368C275.619 101.368 268.927 105.667 266.43 113.366C264.133 120.664 258.839 150.058 258.839 150.058L235.567 135.561L222.184 149.658L253.246 177.052C258.04 181.251 264.832 182.151 270.525 179.451C275.319 177.152 278.615 172.653 279.315 167.354L283.11 139.46L275.619 101.368Z" fill="#660D33"/>
<path d="M345.535 189.449L344.037 187.35L328.756 190.149L325.959 196.748L345.535 189.449Z" fill="#FFBE9D"/>
<path d="M284.608 200.147C298.292 205.646 312.874 203.646 325.958 196.747C329.854 194.648 333.549 192.048 337.445 190.049C341.44 187.949 345.735 186.45 350.229 186.75C354.624 187.05 359.118 189.549 360.916 193.648C362.714 197.747 360.916 203.346 356.721 204.846C357.221 205.246 357.72 205.746 358.22 206.145C364.412 203.246 367.309 195.048 364.312 188.949C362.015 184.25 357.221 181.551 353.625 177.652C348.431 172.053 347.832 161.255 347.832 152.757" fill="#660D33"/>
<path d="M314.672 103.368C314.672 103.368 314.273 103.368 313.673 103.468C313.074 103.568 312.075 103.667 311.276 104.567C310.477 105.467 310.078 106.867 310.078 108.466C310.078 110.066 310.377 111.966 311.176 113.665L311.576 114.565L310.777 113.965C309.079 112.666 307.281 111.166 305.583 109.366C301.588 105.267 298.991 100.668 297.693 97.1689C296.993 95.4692 296.594 93.9696 296.394 92.9698C296.194 91.97 296.095 91.3701 296.194 91.3701C296.294 91.3701 296.594 93.6696 298.092 97.0689C299.49 100.468 302.187 104.967 306.083 108.966C307.78 110.666 309.478 112.266 311.176 113.465L310.777 113.765C310.377 112.866 310.078 111.866 309.878 110.966C309.678 110.066 309.578 109.166 309.678 108.266C309.678 106.567 310.178 105.067 311.076 104.167C311.975 103.268 313.074 103.168 313.673 103.068C314.273 103.268 314.672 103.368 314.672 103.368Z" fill="#263238"/>
<path d="M315.87 103.368C317.568 102.668 320.065 103.668 321.264 105.068C322.063 105.967 322.562 107.267 323.561 107.867C324.659 108.467 327.956 108.967 328.954 108.167C328.954 108.167 329.554 105.368 329.853 104.168C331.052 99.4689 331.651 95.2698 332.15 90.4708C328.954 88.8711 329.853 86.8716 324.06 87.2715C324.06 87.2715 325.558 91.5706 324.26 95.4697" fill="#660D33"/>
<path d="M324.16 95.4695C324.06 95.4695 324.36 94.6697 324.46 93.27C324.56 91.8703 324.46 89.7707 323.761 87.3712L323.661 87.1713H323.86C325.159 87.0713 326.657 86.9713 328.155 87.5712C328.954 87.8711 329.554 88.471 330.153 88.9709C330.752 89.4708 331.351 89.9707 332.15 90.3706L332.35 90.4706V90.6705C332.051 93.07 331.751 95.7694 331.351 98.4689C331.052 100.268 330.652 101.968 330.253 103.668C329.853 105.367 329.554 106.867 329.154 108.367V108.467H329.054C328.455 108.867 327.856 108.867 327.356 108.867C326.757 108.867 326.258 108.867 325.758 108.767C325.259 108.667 324.759 108.567 324.26 108.467C323.761 108.367 323.261 108.067 322.962 107.767C322.262 107.067 321.863 106.267 321.463 105.667C320.964 105.067 320.465 104.568 319.865 104.268C318.767 103.568 317.668 103.368 316.969 103.368C316.27 103.368 315.87 103.568 315.87 103.568C315.87 103.568 316.17 103.368 316.969 103.268C317.668 103.168 318.767 103.368 319.965 104.068C320.564 104.368 321.164 104.867 321.663 105.567C322.163 106.167 322.562 106.967 323.161 107.567C323.761 108.167 324.759 108.267 325.758 108.467C326.258 108.567 326.757 108.567 327.256 108.567C327.756 108.567 328.355 108.467 328.655 108.267L328.555 108.367C328.854 106.867 329.254 105.267 329.653 103.568C330.053 101.968 330.453 100.169 330.752 98.4689C331.252 95.7694 331.551 93.07 331.751 90.6705L331.851 90.8705C331.052 90.4706 330.353 89.9707 329.753 89.3708C329.154 88.7709 328.555 88.271 327.956 87.9711C326.557 87.4712 325.159 87.4712 323.86 87.5712L324.06 87.2713C324.759 89.7707 324.759 91.8703 324.66 93.37C324.56 94.0698 324.46 94.6697 324.36 94.9696C324.26 95.2696 324.16 95.4695 324.16 95.4695Z" fill="#263238"/>
<path d="M358.32 189.849C358.32 189.849 358.32 189.449 358.32 188.749C358.22 188.049 358.02 186.85 357.321 185.65C356.622 184.45 355.423 183.15 353.625 182.051C351.927 181.051 349.63 180.451 347.033 180.251C344.536 180.051 341.64 180.151 338.643 179.951C335.647 179.751 332.351 179.251 329.155 177.952C325.959 176.652 322.863 174.552 320.665 171.553C319.567 170.053 318.668 168.254 318.168 166.454C317.669 164.554 317.569 162.555 317.569 160.655C317.769 156.656 318.668 152.957 319.167 149.358C319.766 145.758 320.066 142.159 320.166 138.76C320.366 131.961 319.766 125.863 318.867 120.864C317.968 115.865 316.77 111.866 315.971 109.066C315.571 107.667 315.172 106.667 314.872 105.967C314.772 105.667 314.672 105.367 314.573 105.167C314.473 104.967 314.473 104.867 314.473 104.867C314.473 104.867 314.573 104.967 314.573 105.167C314.672 105.367 314.772 105.667 314.872 105.967C315.172 106.667 315.571 107.667 316.071 109.066C316.97 111.766 318.268 115.765 319.167 120.864C320.166 125.963 320.765 132.061 320.565 138.86C320.465 142.259 320.166 145.858 319.566 149.458C319.067 153.157 318.168 156.856 317.968 160.755C317.769 164.654 318.668 168.454 320.865 171.353C323.062 174.252 326.059 176.352 329.155 177.552C332.251 178.851 335.447 179.351 338.444 179.551C341.44 179.751 344.237 179.651 346.834 179.951C349.43 180.151 351.728 180.751 353.525 181.851C355.323 182.951 356.522 184.25 357.221 185.55C357.92 186.85 358.12 187.949 358.12 188.749C358.12 189.149 358.12 189.449 358.12 189.649C358.32 189.749 358.32 189.849 358.32 189.849Z" fill="#263238"/>
<path d="M343.337 171.554C343.337 171.554 342.937 171.954 342.138 172.753C341.739 173.153 341.24 173.553 340.74 174.053C340.141 174.553 339.542 175.153 338.743 175.653C337.244 176.853 335.347 178.152 333.249 179.452C331.052 180.752 328.555 182.051 325.958 183.151C323.261 184.251 320.564 185.151 318.167 185.751C315.67 186.351 313.473 186.75 311.575 187.05C310.676 187.15 309.778 187.25 308.978 187.35C308.179 187.45 307.58 187.45 307.081 187.45C305.982 187.45 305.383 187.45 305.383 187.45C305.383 187.45 305.982 187.35 306.981 187.25C307.48 187.25 308.179 187.15 308.879 187.05C309.678 186.95 310.477 186.85 311.376 186.75C313.273 186.451 315.471 186.051 317.868 185.351C320.265 184.651 322.962 183.851 325.558 182.751C328.255 181.652 330.652 180.352 332.85 179.052C335.047 177.752 336.845 176.453 338.443 175.353C339.242 174.853 339.841 174.253 340.44 173.753C341.04 173.253 341.539 172.853 341.939 172.553C342.838 171.954 343.337 171.554 343.337 171.554Z" fill="#263238"/>
<path d="M336.945 138.761C336.945 138.761 336.945 138.961 336.845 139.361C336.746 139.761 336.646 140.26 336.546 140.96C336.446 141.66 336.146 142.46 335.847 143.36C335.547 144.26 335.247 145.359 334.748 146.559C334.548 147.159 334.249 147.759 334.049 148.359C333.849 148.959 333.45 149.658 333.15 150.258C332.551 151.558 331.851 152.958 331.052 154.457C329.454 157.357 327.357 160.356 324.96 163.256C322.463 166.155 319.866 168.654 317.369 170.754C316.071 171.754 314.872 172.753 313.673 173.553C313.074 173.953 312.475 174.353 311.876 174.753C311.276 175.053 310.777 175.453 310.178 175.753C309.179 176.453 308.08 176.853 307.281 177.353C306.382 177.852 305.683 178.152 304.984 178.452C304.385 178.652 303.885 178.952 303.486 179.052C303.186 179.152 302.986 179.252 302.986 179.252C302.986 179.252 303.186 179.152 303.486 178.952C303.885 178.752 304.385 178.552 304.884 178.252C305.483 177.952 306.282 177.552 307.081 177.053C307.98 176.553 308.979 176.053 309.978 175.353C310.477 175.053 311.077 174.653 311.576 174.353C312.175 173.953 312.675 173.553 313.274 173.153C314.472 172.354 315.671 171.354 316.969 170.354C319.466 168.254 322.063 165.755 324.46 162.856C326.857 159.956 328.855 156.957 330.553 154.157C331.352 152.758 332.051 151.358 332.651 150.058C332.95 149.358 333.25 148.759 333.549 148.159C333.849 147.559 334.049 146.959 334.249 146.359C334.748 145.259 335.048 144.16 335.347 143.26C335.647 142.36 335.947 141.56 336.046 140.86C336.246 140.26 336.346 139.761 336.446 139.361C336.845 138.961 336.945 138.761 336.945 138.761Z" fill="#263238"/>
<path d="M294.795 205.146C294.795 205.146 293.996 204.746 292.998 203.746C291.999 202.746 290.8 201.247 289.901 199.247C289.102 197.248 288.803 195.248 288.803 193.848C288.803 192.449 289.102 191.549 289.102 191.549C289.202 191.549 289.102 192.449 289.202 193.748C289.302 195.148 289.602 197.048 290.401 198.947C291.2 200.847 292.299 202.446 293.297 203.446C294.196 204.546 294.895 205.146 294.795 205.146Z" fill="#263238"/>
<path d="M294.097 197.348C294.197 197.348 293.998 198.647 294.097 200.247C294.197 201.847 294.697 203.046 294.597 203.146C294.497 203.246 293.698 202.047 293.598 200.347C293.398 198.647 293.898 197.348 294.097 197.348Z" fill="#263238"/>
<path d="M284.209 161.555C284.209 161.555 284.109 161.355 284.109 161.055C284.009 160.655 284.009 160.256 283.909 159.656C283.709 158.356 283.41 156.656 283.11 154.657C282.411 150.458 281.412 144.559 280.214 138.16C279.015 131.762 277.816 125.963 277.017 121.764C276.618 119.764 276.218 118.065 276.019 116.765C275.919 116.265 275.819 115.765 275.719 115.365C275.619 115.065 275.619 114.865 275.619 114.865C275.619 114.865 275.719 115.065 275.819 115.365C275.919 115.765 276.019 116.165 276.218 116.665C276.518 117.865 276.918 119.564 277.417 121.564C278.416 125.763 279.614 131.562 280.813 137.96C282.011 144.359 282.91 150.258 283.51 154.457C283.809 156.556 284.009 158.256 284.209 159.456C284.309 159.956 284.309 160.455 284.409 160.855C284.209 161.455 284.209 161.555 284.209 161.555Z" fill="#263238"/>
<path d="M348.131 161.555C348.131 161.555 348.131 161.355 348.031 161.055C348.031 160.655 348.031 160.155 348.031 159.655C348.031 158.456 348.031 156.656 348.031 154.457C348.031 150.058 348.231 143.959 348.73 137.26C349.23 130.562 349.929 124.463 350.428 120.164C350.728 118.064 350.928 116.265 351.128 114.965C351.227 114.365 351.327 113.965 351.327 113.565C351.427 113.265 351.427 113.065 351.427 113.065C351.427 113.065 351.427 113.265 351.427 113.565C351.427 113.965 351.327 114.465 351.327 114.965C351.227 116.265 351.028 118.064 350.828 120.164C350.428 124.563 349.829 130.562 349.23 137.26C348.73 143.959 348.431 150.058 348.331 154.457C348.231 156.556 348.231 158.356 348.231 159.655C348.231 160.255 348.231 160.655 348.131 161.055C348.131 161.455 348.131 161.555 348.131 161.555Z" fill="#263238"/>
<path d="M268.228 164.155C268.028 164.255 266.73 160.555 264.233 156.656C261.636 152.657 258.74 150.158 258.839 150.058C258.839 150.058 259.638 150.558 260.837 151.657C261.936 152.757 263.434 154.357 264.732 156.356C266.031 158.356 266.93 160.355 267.529 161.755C268.028 163.255 268.328 164.155 268.228 164.155Z" fill="#263238"/>
<path d="M270.026 159.856C269.926 159.856 269.626 159.056 268.927 157.956C268.228 156.756 267.129 155.257 265.431 153.957C263.833 152.657 262.135 151.757 260.837 151.158C259.539 150.558 258.74 150.258 258.839 150.158C258.839 150.058 259.738 150.258 261.037 150.758C262.335 151.258 264.133 152.157 265.831 153.457C267.529 154.857 268.628 156.456 269.227 157.756C269.826 158.956 270.026 159.856 270.026 159.856Z" fill="#263238"/>
<path d="M280.314 135.761C280.314 135.761 280.314 135.961 280.114 136.161C279.914 136.461 279.615 136.86 279.215 137.26C278.316 138.06 276.518 138.96 274.321 138.56C272.124 138.26 269.726 136.661 268.128 134.161C267.329 132.961 266.63 131.562 266.131 130.162C265.831 129.462 265.532 128.662 265.332 127.862C265.132 127.063 264.932 126.263 265.032 125.363C265.132 124.463 265.532 123.663 266.231 123.063C266.93 122.464 267.929 122.464 268.728 122.664C270.326 123.063 271.524 124.363 272.024 125.763C272.523 127.163 272.323 128.762 271.624 129.862C270.925 130.962 269.826 131.762 268.728 132.062C267.629 132.361 266.63 132.261 265.731 131.962C264.932 131.662 264.333 131.162 263.933 130.662C263.534 130.162 263.234 129.762 263.134 129.462C263.035 129.162 262.935 128.962 263.035 128.962C263.134 128.962 263.234 129.662 264.133 130.462C264.533 130.862 265.132 131.262 265.931 131.562C266.73 131.862 267.729 131.962 268.728 131.662C269.726 131.362 270.725 130.662 271.325 129.562C271.924 128.562 272.124 127.163 271.624 125.863C271.125 124.563 270.126 123.463 268.628 123.063C267.929 122.863 267.13 122.963 266.63 123.463C266.031 123.863 265.731 124.663 265.631 125.363C265.432 126.863 266.131 128.462 266.63 129.862C267.229 131.262 267.829 132.661 268.628 133.861C270.126 136.261 272.323 137.76 274.421 138.16C276.518 138.56 278.216 137.76 279.115 137.06C279.914 136.361 280.214 135.761 280.314 135.761Z" fill="#FAFAFA"/>
<path d="M319.566 151.157C319.566 151.157 319.466 151.257 319.266 151.357C319.067 151.557 318.767 151.757 318.467 151.957C317.768 152.457 316.57 153.357 315.071 154.157C314.272 154.557 313.374 154.856 312.275 155.056C311.176 155.256 309.978 155.256 308.779 154.856C306.282 154.057 304.085 151.957 302.487 149.258C300.789 146.558 299.69 143.159 299.59 139.36C299.49 135.661 300.389 131.561 302.686 127.962C303.785 126.163 305.283 124.463 307.381 123.563C308.38 123.163 309.578 122.963 310.777 123.163C311.875 123.363 313.074 123.863 313.773 124.863C314.472 125.863 314.772 127.062 314.672 128.262C314.572 129.462 314.173 130.662 313.573 131.661C312.375 133.761 310.277 135.261 307.98 136.16C305.683 137.06 303.186 137.26 300.889 136.86C298.491 136.56 296.294 135.561 294.496 134.161C290.701 131.461 288.304 127.462 286.905 123.563C286.206 121.564 285.707 119.564 286.007 117.464C286.206 116.465 286.506 115.465 287.205 114.665C287.804 113.865 288.703 113.265 289.602 113.065C291.5 112.665 293.498 113.465 294.596 114.765C295.795 116.165 296.094 117.964 295.795 119.564C295.495 121.164 294.796 122.563 293.697 123.563C292.698 124.563 291.5 125.263 290.301 125.763C287.904 126.662 285.707 126.762 283.909 126.762C282.111 126.662 280.813 126.463 279.914 126.363C279.514 126.263 279.115 126.263 278.915 126.163C278.715 126.163 278.516 126.063 278.516 126.063C278.516 126.063 278.615 126.063 278.915 126.063C279.215 126.063 279.514 126.163 279.914 126.163C280.813 126.263 282.211 126.463 283.909 126.463C285.607 126.463 287.804 126.363 290.102 125.463C291.2 124.963 292.399 124.263 293.398 123.263C294.396 122.263 295.096 120.864 295.295 119.364C295.495 117.864 295.295 116.165 294.097 114.865C292.998 113.665 291.2 112.865 289.502 113.265C287.705 113.665 286.506 115.365 286.206 117.264C285.907 119.164 286.406 121.164 287.105 123.063C288.504 126.962 290.901 130.762 294.496 133.361C296.294 134.661 298.392 135.661 300.689 135.96C302.986 136.36 305.383 136.06 307.581 135.261C309.778 134.461 311.676 132.961 312.874 130.962C313.473 129.962 313.773 128.862 313.873 127.762C313.973 126.662 313.673 125.563 313.074 124.663C312.475 123.763 311.376 123.263 310.377 123.163C309.378 122.963 308.28 123.163 307.281 123.563C305.383 124.363 303.885 126.063 302.786 127.762C300.589 131.262 299.69 135.161 299.79 138.86C299.89 142.559 300.988 145.858 302.587 148.558C304.185 151.257 306.382 153.257 308.679 154.057C311.076 154.856 313.274 154.157 314.772 153.457C316.37 152.757 317.469 151.957 318.268 151.357C318.667 151.057 318.867 150.857 319.167 150.757C319.466 151.157 319.566 151.157 319.566 151.157Z" fill="#FAFAFA"/>
<path d="M291.999 95.0689C291.999 95.0689 291.899 95.3688 291.7 95.9687C291.5 96.5686 291.001 97.2684 290.401 98.1682C289.203 99.9678 287.005 102.267 283.909 103.667C280.813 105.167 277.717 105.367 275.519 105.267C274.421 105.167 273.522 104.967 272.922 104.867C272.323 104.667 272.023 104.567 272.023 104.567C272.023 104.467 273.322 104.867 275.519 104.967C277.617 105.067 280.713 104.667 283.609 103.267C286.606 101.867 288.703 99.7679 290.002 97.9683C291.4 96.2686 291.899 94.9689 291.999 95.0689Z" fill="#FAFAFA"/>
<path d="M306.781 99.2681C306.781 99.4681 305.283 99.4681 303.985 100.668C302.586 101.768 302.287 103.268 302.187 103.268C302.087 103.268 302.087 102.868 302.287 102.268C302.486 101.668 302.886 100.868 303.685 100.268C304.384 99.6681 305.283 99.3681 305.882 99.2681C306.382 99.1681 306.781 99.2681 306.781 99.2681Z" fill="#FAFAFA"/>
<path d="M327.857 105.168C327.857 105.168 327.557 105.068 327.058 104.768C326.558 104.468 325.859 103.868 325.16 103.068C324.561 102.168 323.862 100.969 323.762 99.5689C323.762 98.8691 323.862 97.9693 324.361 97.3694C324.86 96.6696 325.759 96.1697 326.658 96.3696C327.557 96.5696 328.256 97.3694 328.456 98.0693C328.756 98.8691 328.456 99.7689 327.957 100.369C326.958 101.569 325.36 101.768 324.361 101.369C323.262 100.969 322.663 100.269 322.363 99.7689C322.064 99.269 321.964 98.8691 321.964 98.8691C321.964 98.8691 322.164 99.169 322.463 99.5689C322.863 99.9689 323.462 100.669 324.361 100.969C325.26 101.269 326.658 101.069 327.457 100.069C327.857 99.5689 328.057 98.8691 327.757 98.2692C327.557 97.6693 326.958 97.0695 326.359 96.8695C325.659 96.6696 324.96 97.0695 324.561 97.6693C324.161 98.2692 323.961 98.9691 324.061 99.5689C324.161 100.869 324.661 102.068 325.26 102.968C326.658 104.568 327.957 105.068 327.857 105.168Z" fill="#FAFAFA"/>
<path d="M331.851 93.4706C331.751 93.5706 330.652 91.9706 328.555 91.1706C326.457 90.2706 324.56 90.6706 324.56 90.4706C324.56 90.3706 324.959 90.2706 325.758 90.1706C326.557 90.0706 327.656 90.1706 328.755 90.6706C329.853 91.1706 330.752 91.7706 331.252 92.3706C331.751 93.0706 331.951 93.4706 331.851 93.4706Z" fill="#FAFAFA"/>
<path d="M359.318 105.167C359.318 105.167 359.218 105.167 359.118 105.267C358.918 105.367 358.719 105.467 358.519 105.567C358.019 105.867 357.22 106.167 356.122 106.567C354.024 107.367 350.828 108.267 346.733 108.367C345.734 108.367 344.636 108.267 343.537 108.067C342.438 107.867 341.34 107.367 340.341 106.567C339.442 105.767 338.843 104.468 338.843 103.168C338.843 101.868 339.242 100.469 340.141 99.3687C341.939 97.1692 345.235 96.4694 348.131 97.3692C351.028 98.169 353.625 100.469 354.524 103.568C355.423 106.567 354.624 110.066 352.626 112.266C350.628 114.565 347.832 115.665 345.235 116.265C342.638 116.865 340.041 116.965 337.644 117.065C335.247 117.165 333.05 117.265 331.152 117.665C327.257 118.465 324.46 120.464 323.062 122.264C321.663 124.063 321.563 125.363 321.563 125.363C321.563 125.363 321.563 125.263 321.563 125.163C321.563 125.063 321.663 124.763 321.763 124.463C321.963 123.863 322.263 123.064 322.962 122.164C324.26 120.264 327.057 118.165 331.052 117.365C333.05 116.965 335.247 116.765 337.644 116.665C340.041 116.565 342.538 116.465 345.135 115.865C347.632 115.265 350.329 114.166 352.226 111.966C354.124 109.866 354.823 106.667 354.024 103.768C353.225 100.868 350.728 98.6689 348.032 97.969C345.335 97.1692 342.239 97.8691 340.541 99.8686C339.742 100.868 339.242 102.068 339.342 103.268C339.342 104.468 339.841 105.567 340.74 106.367C341.539 107.167 342.638 107.567 343.737 107.867C344.835 108.167 345.834 108.167 346.833 108.167C350.828 108.167 354.024 107.267 356.222 106.567C357.32 106.167 358.119 105.867 358.619 105.667C359.018 105.267 359.318 105.167 359.318 105.167Z" fill="#FAFAFA"/>
<path d="M334.448 144.36C334.348 144.36 334.048 143.56 333.149 142.36C332.25 141.16 330.652 139.761 328.555 138.961C326.457 138.161 324.36 138.261 322.862 138.461C321.363 138.761 320.564 139.161 320.564 139.061C320.564 139.061 321.363 138.461 322.862 138.061C324.36 137.661 326.557 137.561 328.755 138.361C330.952 139.161 332.55 140.76 333.449 142.06C334.248 143.46 334.448 144.36 334.448 144.36Z" fill="#FAFAFA"/>
<path d="M346.034 151.958C346.034 151.958 345.734 152.858 344.636 153.958C343.637 155.058 341.739 156.258 339.342 156.458C336.945 156.658 334.947 155.758 333.749 154.858C332.55 153.958 332.051 153.058 332.051 153.058C332.151 152.958 332.65 153.758 333.948 154.558C335.147 155.358 337.145 156.158 339.342 155.958C341.539 155.758 343.337 154.658 344.436 153.758C345.535 152.758 346.034 151.858 346.034 151.958Z" fill="#FAFAFA"/>
<path d="M349.131 132.062C349.131 132.162 348.531 131.762 347.433 131.462C346.334 131.162 344.836 131.062 343.238 131.562C341.64 132.062 340.441 133.062 339.742 133.962C339.043 134.762 338.743 135.462 338.643 135.462C338.543 135.462 338.743 134.762 339.442 133.762C340.042 132.862 341.34 131.662 343.038 131.162C344.736 130.662 346.434 130.862 347.533 131.262C348.631 131.562 349.131 132.062 349.131 132.062Z" fill="#FAFAFA"/>
<path d="M386.285 122.864C386.285 122.864 386.385 123.164 386.485 123.564C386.585 123.764 386.585 124.163 386.585 124.463C386.585 124.863 386.685 125.263 386.585 125.763C386.585 127.663 385.886 130.462 383.689 133.262C382.59 134.561 381.192 135.861 379.394 136.861C377.596 137.761 375.399 138.26 373.201 138.26C368.707 138.26 363.613 136.061 360.417 131.862C359.618 130.862 358.918 129.662 358.619 128.363C358.319 127.063 358.319 125.763 358.719 124.563C359.118 123.364 359.917 122.264 361.016 121.664C362.115 121.064 363.413 121.064 364.512 121.264C365.61 121.464 366.709 122.064 367.508 122.864C368.307 123.664 368.807 124.563 369.106 125.563C369.705 127.563 369.606 129.462 369.106 131.162C368.607 132.762 367.708 134.161 366.709 135.161C365.81 136.161 364.811 136.861 363.912 137.261C363.113 137.761 362.314 137.961 361.915 138.061C361.415 138.161 361.216 138.26 361.116 138.161C361.116 138.061 362.115 137.961 363.813 137.061C365.411 136.161 367.608 134.261 368.707 131.062C369.206 129.462 369.306 127.563 368.707 125.763C368.407 124.863 367.908 123.964 367.208 123.264C366.509 122.564 365.511 122.064 364.512 121.864C363.513 121.664 362.314 121.764 361.316 122.264C360.317 122.764 359.618 123.764 359.218 124.863C358.819 125.963 358.819 127.263 359.218 128.363C359.518 129.562 360.117 130.662 360.916 131.662C364.112 135.661 368.906 137.861 373.301 137.861C375.498 137.861 377.596 137.461 379.294 136.561C381.092 135.661 382.49 134.461 383.489 133.162C385.586 130.562 386.385 127.763 386.385 125.963C386.585 123.864 386.285 122.864 386.285 122.864Z" fill="#FAFAFA"/>
<path d="M393.976 143.559C393.976 143.559 393.677 143.359 393.377 142.859C393.077 142.359 392.578 141.66 392.278 140.56C391.979 139.56 391.879 138.26 392.079 136.861C392.278 135.461 392.678 133.961 393.077 132.461C394.076 129.362 395.574 126.863 396.673 125.063C397.272 124.163 397.672 123.463 398.071 122.964C398.371 122.464 398.571 122.264 398.671 122.264C398.77 122.264 398.071 123.463 397.073 125.263C396.074 127.063 394.576 129.562 393.677 132.561C393.277 134.061 392.878 135.561 392.678 136.861C392.478 138.16 392.478 139.46 392.678 140.46C393.177 142.559 394.176 143.459 393.976 143.559Z" fill="#FAFAFA"/>
<path d="M412.953 120.564C412.953 120.564 413.053 120.764 413.253 121.264C413.453 121.764 413.552 122.464 413.752 123.364C414.052 125.163 414.152 127.663 413.552 130.362C412.953 133.062 411.854 135.261 410.756 136.761C410.256 137.461 409.757 138.061 409.457 138.461C409.158 138.861 408.958 138.961 408.858 138.961C408.758 138.861 409.557 138.061 410.456 136.561C411.355 135.061 412.454 132.862 413.053 130.262C413.652 127.663 413.552 125.163 413.353 123.464C413.153 121.664 412.853 120.564 412.953 120.564Z" fill="#FAFAFA"/>
<path d="M347.532 167.354C347.532 167.354 347.332 167.254 347.132 167.154C346.833 166.954 346.433 166.754 345.934 166.454C344.835 165.954 343.237 165.254 341.04 165.054C338.942 164.854 336.245 165.054 333.748 166.254C332.45 166.854 331.152 167.654 330.053 168.654C329.454 169.153 328.954 169.753 328.655 170.453C328.255 171.153 328.055 171.853 328.155 172.653C328.255 173.453 328.655 174.152 329.254 174.552C329.853 174.952 330.652 174.952 331.251 174.652C332.65 174.052 333.149 172.453 333.149 171.153C333.049 168.354 331.251 166.054 329.454 165.154C327.556 164.155 325.758 164.255 324.56 164.554C323.361 164.854 322.762 165.154 322.762 165.154C322.762 165.154 322.862 165.054 323.161 164.854C323.461 164.754 323.86 164.554 324.46 164.355C325.658 164.055 327.556 163.855 329.554 164.854C331.551 165.854 333.449 168.154 333.549 171.153C333.549 171.853 333.449 172.653 333.149 173.453C332.85 174.152 332.25 174.852 331.451 175.152C330.652 175.552 329.653 175.552 328.954 175.052C328.155 174.552 327.756 173.653 327.656 172.853C327.556 171.953 327.856 171.053 328.255 170.353C328.655 169.653 329.254 168.954 329.753 168.454C330.952 167.354 332.25 166.554 333.549 165.954C336.245 164.754 338.942 164.554 341.14 164.854C343.337 165.154 345.035 165.854 346.034 166.454C346.533 166.754 346.933 167.054 347.232 167.254C347.432 167.154 347.632 167.254 347.532 167.354Z" fill="#FAFAFA"/>
<path d="M351.228 175.553C351.328 175.653 350.829 176.653 350.03 177.853C349.231 179.053 348.531 179.953 348.432 179.853C348.332 179.753 348.831 178.753 349.63 177.553C350.329 176.453 351.028 175.553 351.228 175.553Z" fill="#FAFAFA"/>
<path d="M363.913 189.95C363.813 189.95 363.713 189.55 363.314 189.05C363.014 188.55 362.415 187.85 361.516 187.45C360.717 186.95 359.818 186.85 359.219 186.75C358.619 186.75 358.22 186.85 358.22 186.75C358.22 186.65 358.619 186.45 359.219 186.45C359.918 186.35 360.817 186.55 361.815 187.05C362.714 187.55 363.314 188.35 363.613 188.95C363.913 189.45 363.913 189.85 363.913 189.95Z" fill="#FAFAFA"/>
<path d="M322.663 184.851C322.663 184.951 321.464 185.551 319.566 186.651C317.669 187.751 314.972 189.35 312.775 191.95C310.577 194.449 309.379 197.449 309.179 199.548C308.879 201.748 309.379 203.047 309.279 203.147C309.279 203.147 309.079 202.847 308.979 202.248C308.879 201.648 308.779 200.748 308.879 199.548C308.979 197.249 310.178 194.149 312.475 191.65C314.772 189.05 317.469 187.451 319.466 186.451C320.465 185.951 321.264 185.551 321.864 185.351C322.263 184.851 322.563 184.751 322.663 184.851Z" fill="#FAFAFA"/>
<path d="M337.245 189.65C337.245 189.65 336.645 189.35 336.146 188.45C335.646 187.55 335.147 186.15 335.347 184.651C335.447 183.051 336.146 181.751 336.845 181.052C337.544 180.252 338.044 180.052 338.143 180.052C338.243 180.152 337.744 180.452 337.145 181.251C336.545 182.051 336.046 183.251 335.946 184.751C335.846 186.25 336.146 187.55 336.545 188.35C336.945 189.15 337.344 189.65 337.245 189.65Z" fill="#FAFAFA"/>
<path d="M314.372 171.553C314.372 171.553 314.172 171.353 313.772 170.953C313.373 170.653 312.674 170.153 311.675 170.053C310.676 169.953 309.378 170.053 308.179 170.753C306.981 171.453 305.882 172.753 304.883 174.253C303.884 175.752 303.085 177.552 301.787 179.351C300.588 181.151 298.591 182.751 296.293 183.451C293.996 184.25 291.2 184.15 288.703 183.051C286.306 181.951 284.108 179.851 283.109 177.152C282.61 175.852 282.51 174.253 282.91 172.953C283.309 171.553 284.308 170.453 285.506 169.754C286.705 169.054 288.003 168.754 289.402 168.854C290.7 169.054 291.899 169.654 292.798 170.453C294.695 172.153 295.594 174.552 295.494 176.752C295.494 178.952 294.695 180.951 293.597 182.451C292.598 183.95 291.2 185.05 290.001 185.85C288.703 186.65 287.604 187.05 286.605 187.35C285.606 187.65 284.807 187.75 284.308 187.85C284.008 187.85 283.809 187.95 283.709 187.95C283.609 187.95 283.509 187.95 283.509 187.95C283.509 187.95 283.809 187.85 284.308 187.75C284.807 187.65 285.606 187.45 286.605 187.15C287.604 186.85 288.703 186.35 289.901 185.65C291.1 184.85 292.398 183.751 293.397 182.251C294.396 180.751 295.095 178.852 295.095 176.752C295.095 174.652 294.296 172.353 292.498 170.853C291.599 170.053 290.5 169.554 289.302 169.354C288.103 169.254 286.805 169.554 285.806 170.153C284.707 170.853 283.809 171.853 283.409 173.053C283.009 174.253 283.109 175.652 283.609 176.952C284.508 179.551 286.605 181.551 288.902 182.551C291.2 183.651 293.896 183.751 296.094 182.951C298.391 182.251 300.189 180.751 301.387 179.052C302.586 177.352 303.485 175.552 304.484 173.953C305.482 172.453 306.681 171.153 307.979 170.453C309.278 169.654 310.676 169.554 311.675 169.754C312.674 169.953 313.373 170.453 313.772 170.753C314.272 171.353 314.372 171.553 314.372 171.553Z" fill="#FAFAFA"/>
<path d="M314.671 187.15C314.671 187.15 313.972 186.85 313.073 185.85C312.174 184.951 311.176 183.451 310.576 181.551C309.977 179.652 310.077 177.852 310.277 176.552C310.476 175.253 310.876 174.553 310.976 174.553C311.076 174.553 310.776 175.353 310.676 176.552C310.576 177.752 310.576 179.552 311.076 181.351C311.575 183.151 312.474 184.651 313.273 185.55C314.172 186.55 314.771 187.05 314.671 187.15Z" fill="#FAFAFA"/>
<path d="M318.368 164.055C318.368 164.155 317.669 163.755 316.37 163.255C315.072 162.755 313.174 162.055 310.677 161.755C308.18 161.455 305.184 161.455 301.988 162.155C300.39 162.555 298.692 163.055 297.194 163.955C296.494 164.355 295.795 165.055 295.596 165.854C295.396 166.654 295.895 167.654 296.594 167.854C296.994 167.954 297.393 167.854 297.693 167.554C297.993 167.254 298.192 166.854 298.292 166.454C298.492 165.654 298.592 164.655 298.492 163.755C298.392 161.955 297.993 160.256 297.194 158.856C296.494 157.356 295.496 156.157 294.397 155.257C293.298 154.357 292.1 153.657 290.901 153.257C288.604 152.457 286.507 152.457 285.108 152.657C283.71 152.857 283.011 153.157 283.011 153.157C283.011 153.157 283.211 153.057 283.51 152.957C283.81 152.857 284.409 152.657 285.108 152.557C286.507 152.257 288.604 152.157 291.101 152.957C292.3 153.357 293.598 154.057 294.697 154.957C295.895 155.957 296.894 157.156 297.693 158.656C298.492 160.156 298.991 161.955 299.091 163.755C299.091 164.655 299.091 165.654 298.892 166.554C298.792 167.054 298.592 167.554 298.192 167.854C297.793 168.254 297.194 168.454 296.594 168.254C295.995 168.054 295.596 167.654 295.396 167.154C295.196 166.654 295.096 166.154 295.196 165.654C295.396 164.555 296.195 163.855 296.994 163.455C298.592 162.555 300.29 162.055 301.988 161.655C305.284 160.856 308.38 160.955 310.877 161.355C313.374 161.755 315.272 162.455 316.57 163.055C317.169 163.355 317.669 163.555 318.068 163.755C318.168 163.955 318.368 164.055 318.368 164.055Z" fill="#FAFAFA"/>
<path d="M240.561 166.954C240.561 166.954 241.16 166.454 242.159 165.454C243.158 164.454 244.456 162.854 245.255 160.455C246.154 158.155 246.454 154.956 244.956 151.957C244.256 150.457 243.158 149.057 241.759 148.058C240.361 146.958 238.563 146.258 236.765 146.158C235.867 146.158 234.968 146.358 234.169 146.758C233.37 147.158 232.67 147.758 232.371 148.557C232.071 149.357 232.271 150.257 232.77 150.857C233.27 151.557 233.969 152.057 234.668 152.257C236.166 152.757 237.764 152.257 238.963 151.557C240.161 150.757 241.06 149.657 241.56 148.557C242.658 146.258 242.658 144.158 242.858 142.859C242.858 142.159 242.958 141.659 242.958 141.259C242.958 140.859 242.958 140.659 242.958 140.659C242.958 140.659 242.958 140.859 243.058 141.259C243.058 141.659 243.058 142.159 243.058 142.859C243.058 144.258 242.958 146.358 241.959 148.757C241.46 149.957 240.561 151.057 239.262 151.957C237.964 152.757 236.266 153.356 234.568 152.757C233.769 152.457 232.97 151.957 232.371 151.157C231.871 150.357 231.572 149.357 231.971 148.358C232.271 147.358 233.07 146.658 233.969 146.258C234.868 145.858 235.867 145.658 236.865 145.658C238.863 145.758 240.761 146.558 242.159 147.658C243.657 148.757 244.756 150.257 245.455 151.757C246.154 153.256 246.454 154.956 246.454 156.456C246.454 157.955 246.054 159.355 245.655 160.555C244.756 162.954 243.358 164.554 242.359 165.554C241.859 166.054 241.36 166.354 241.06 166.554C240.661 166.854 240.561 166.954 240.561 166.954Z" fill="#FAFAFA"/>
<path d="M261.236 181.851C261.236 181.851 260.937 181.551 260.437 181.051C259.938 180.452 259.339 179.652 258.739 178.452C257.441 176.152 256.342 172.553 256.542 168.454C256.842 164.355 258.44 160.956 260.038 158.856C260.837 157.756 261.536 156.957 262.035 156.457C262.535 155.957 262.934 155.757 262.934 155.757C263.034 155.857 261.736 156.857 260.338 159.056C258.939 161.156 257.341 164.555 257.141 168.454C256.842 172.353 257.94 175.953 259.139 178.252C260.238 180.552 261.336 181.751 261.236 181.851Z" fill="#FAFAFA"/>
<path d="M280.713 160.155C280.613 160.155 280.213 158.656 279.015 156.456C277.816 154.257 275.619 151.457 272.423 149.258C269.226 147.158 265.731 146.258 263.234 145.958C260.737 145.658 259.139 145.858 259.139 145.758C259.139 145.758 259.538 145.658 260.237 145.558C260.937 145.458 262.035 145.458 263.234 145.558C265.831 145.758 269.326 146.558 272.622 148.758C275.918 150.957 278.116 153.857 279.314 156.156C279.914 157.256 280.313 158.256 280.513 158.956C280.713 159.755 280.813 160.055 280.713 160.155Z" fill="#FAFAFA"/>
<g opacity="0.3">
<path d="M308.081 188.049C307.082 188.449 307.182 189.949 307.981 190.649C308.78 191.349 309.878 191.349 310.977 191.249C322.663 190.649 333.949 184.35 340.541 174.652C331.552 182.051 319.667 184.85 308.28 187.45" fill="black"/>
</g>
<g opacity="0.3">
<path d="M306.283 177.852C305.284 176.352 305.983 174.253 307.182 172.953C308.48 171.653 310.178 170.954 311.776 170.154C317.669 167.254 322.463 162.256 325.26 156.357C327.058 152.458 328.456 147.559 332.451 145.959C330.354 159.856 320.066 172.153 306.782 176.652" fill="black"/>
</g>
<g opacity="0.3">
<path d="M277.916 126.062C278.915 136.96 278.116 148.058 275.619 158.756C275.12 161.055 274.42 163.355 274.52 165.654C274.52 167.954 276.019 170.653 277.816 172.153C279.514 168.353 279.514 164.654 280.213 160.555C280.813 156.856 281.911 148.158 281.911 148.058C282.011 140.459 280.313 133.961 277.317 127.162" fill="black"/>
</g>
<g opacity="0.3">
<path d="M296.694 93.2706C298.192 101.269 302.187 108.767 307.98 114.466C310.178 116.666 312.974 118.565 315.971 118.465C314.173 114.866 313.674 110.667 314.473 106.668C317.069 108.367 319.766 109.967 322.663 111.167C325.559 112.267 328.755 112.866 331.852 112.167C332.451 106.668 333.15 101.069 333.749 95.5701C333.849 94.9703 333.849 94.2704 333.549 93.6706C333.25 93.0707 332.351 92.8707 331.951 93.2706C331.752 93.4706 331.652 93.7705 331.652 93.9705C330.553 98.8694 329.854 103.169 328.755 108.067C327.956 108.867 325.459 108.567 323.861 107.967C322.463 107.468 321.864 106.268 320.965 105.068C320.066 103.868 320.166 104.068 318.767 103.468C316.17 102.369 311.276 103.269 310.178 105.568C309.079 107.868 309.878 110.967 310.677 113.166C303.586 108.567 298.192 101.169 296.095 92.9707" fill="black"/>
</g>
<g opacity="0.3">
<path d="M351.227 116.665C351.028 117.065 357.42 138.76 357.42 138.76L349.13 134.061L351.227 116.665Z" fill="black"/>
</g>
<path d="M299.49 53.7783V88.2709C299.49 90.2705 300.189 92.1701 301.488 93.6697C303.386 95.9693 305.783 97.9688 308.379 99.3685L315.371 103.268L321.164 98.1688C322.862 96.6691 323.861 94.5695 323.961 92.27C324.061 89.7706 324.061 87.2711 324.061 87.2711C324.061 87.2711 333.849 86.5713 334.748 76.9733C335.147 72.4743 335.347 63.1763 335.347 54.5781C335.347 44.7802 327.856 36.6819 318.168 35.8821H317.868C307.78 35.5822 299.49 43.6804 299.49 53.7783Z" fill="#FFBE9D"/>
<path d="M323.961 87.2713C323.961 87.2713 317.868 87.1713 311.775 82.5723C311.775 82.5723 314.272 89.8707 323.961 89.7707V87.2713Z" fill="#EB996E"/>
<path d="M332.349 60.777C332.349 61.477 331.65 62.077 330.951 62.077C330.152 62.077 329.652 61.477 329.652 60.677C329.652 59.977 330.351 59.377 331.051 59.377C331.85 59.377 332.449 59.977 332.349 60.777Z" fill="#263238"/>
<path d="M332.749 58.4784C332.549 58.6784 331.55 57.7784 330.152 57.6784C328.653 57.5784 327.555 58.1784 327.355 57.9784C327.255 57.8784 327.455 57.5784 327.954 57.2784C328.454 56.9784 329.253 56.6784 330.152 56.7784C331.051 56.8784 331.85 57.2784 332.249 57.6784C332.749 58.0784 332.848 58.3784 332.749 58.4784Z" fill="#263238"/>
<path d="M318.466 60.0777C318.466 60.7777 317.767 61.3777 317.068 61.3777C316.269 61.3777 315.77 60.7777 315.77 59.9777C315.77 59.2777 316.469 58.6777 317.168 58.6777C317.867 58.6777 318.466 59.2777 318.466 60.0777Z" fill="#263238"/>
<path d="M318.166 57.4784C317.967 57.6784 316.968 56.7784 315.57 56.6784C314.071 56.5784 312.973 57.1784 312.773 56.9784C312.673 56.8784 312.873 56.5784 313.372 56.2784C313.872 55.9784 314.671 55.6784 315.57 55.7784C316.469 55.8784 317.268 56.2784 317.667 56.6784C318.166 57.0784 318.266 57.4784 318.166 57.4784Z" fill="#263238"/>
<path d="M322.661 68.9761C322.661 68.8761 323.56 68.7761 325.058 68.7761C325.458 68.7761 325.757 68.6761 325.857 68.4762C325.957 68.1763 325.857 67.7763 325.658 67.3764C325.358 66.4766 325.058 65.4768 324.759 64.3771C323.56 60.178 322.661 56.6787 322.861 56.6787C323.061 56.6787 324.159 59.978 325.358 64.2771C325.658 65.2769 325.957 66.2767 326.157 67.2764C326.257 67.6764 326.457 68.1763 326.257 68.7761C326.157 69.0761 325.857 69.276 325.558 69.276C325.358 69.376 325.058 69.276 324.958 69.276C323.56 69.0761 322.661 69.0761 322.661 68.9761Z" fill="#263238"/>
<path d="M318.267 69.5752C318.467 69.5752 318.367 71.1752 319.665 72.4752C320.964 73.7752 322.662 73.6752 322.662 73.8752C322.662 73.9752 322.262 74.1752 321.563 74.0752C320.864 74.0752 319.865 73.7752 319.066 72.9752C318.267 72.1752 317.967 71.2752 317.967 70.5752C317.867 69.9752 318.167 69.5752 318.267 69.5752Z" fill="#263238"/>
<path d="M319.066 51.7793C318.866 52.1793 317.468 51.8793 315.67 51.8793C313.872 51.8793 312.474 52.2793 312.274 51.8793C312.174 51.6793 312.474 51.3793 313.073 50.9793C313.672 50.6793 314.571 50.3793 315.67 50.2793C316.768 50.2793 317.667 50.4793 318.267 50.7793C318.866 51.1793 319.165 51.5793 319.066 51.7793Z" fill="#263238"/>
<path d="M332.549 54.0786C332.25 54.3786 331.251 53.9786 330.052 53.8786C328.854 53.6786 327.755 53.8786 327.555 53.5786C327.455 53.3786 327.655 53.0786 328.155 52.7786C328.654 52.4786 329.353 52.2786 330.252 52.3786C331.051 52.4786 331.75 52.8786 332.15 53.1786C332.549 53.5786 332.749 53.9786 332.549 54.0786Z" fill="#263238"/>
<path d="M310.776 44.0806C309.078 45.1803 307.979 46.88 307.48 48.7796C307.48 48.8796 307.48 48.8796 307.48 48.9795C306.881 51.679 306.681 54.4784 306.082 57.1778C305.482 59.8772 305.582 61.9768 302.886 62.5766C301.188 62.9765 299.689 61.9768 299.09 61.0769C298.89 60.677 298.89 60.2771 298.89 59.7772C298.89 53.0787 297.592 50.4792 298.191 43.5807C298.391 41.6811 299.39 39.9815 300.988 38.9817C302.486 38.0819 304.384 37.0821 305.982 37.9819C307.58 38.8817 309.378 42.081 310.476 43.4807" fill="#3F3D56"/>
<path d="M302.387 58.3774C302.187 58.2774 295.894 55.8779 295.595 62.4765C295.295 69.0751 301.987 68.0753 301.987 67.8754C301.987 67.6754 302.387 58.3774 302.387 58.3774Z" fill="#FFBE9D"/>
<path d="M300.09 65.276C300.09 65.276 299.99 65.376 299.79 65.476C299.59 65.576 299.291 65.576 298.891 65.476C298.192 65.1761 297.692 64.0763 297.692 62.8766C297.692 62.2767 297.892 61.6768 298.092 61.2769C298.292 60.777 298.691 60.4771 298.991 60.4771C299.39 60.3771 299.59 60.677 299.69 60.777C299.79 60.977 299.69 61.0769 299.79 61.0769C299.79 61.0769 299.89 60.977 299.89 60.677C299.89 60.577 299.79 60.3771 299.69 60.2771C299.49 60.1771 299.291 60.0771 299.091 60.0771C298.591 60.0771 298.092 60.577 297.792 61.0769C297.493 61.5768 297.293 62.1767 297.293 62.8766C297.293 64.1763 297.892 65.476 298.791 65.7759C299.291 65.8759 299.69 65.7759 299.89 65.676C300.09 65.476 300.09 65.276 300.09 65.276Z" fill="#EB996E"/>
<path d="M305.583 39.0818C304.185 36.2824 308.979 32.8831 312.275 32.1833C315.571 31.3834 319.766 33.383 322.862 34.6827C324.86 35.4826 326.757 36.6823 328.955 36.6823C330.353 36.7823 331.851 36.2824 333.25 35.9825C334.648 35.5825 336.146 35.2826 337.544 35.4826C338.943 35.6825 340.341 36.5823 340.84 37.982C341.24 39.3817 340.341 41.0814 338.943 41.1813C340.84 40.2815 343.337 41.8812 343.537 43.9808C343.637 46.0803 341.34 47.8799 339.342 47.28C340.341 46.6802 341.639 47.9799 341.44 49.0797C341.24 50.2794 340.141 50.9793 338.943 51.3792C336.146 52.379 332.95 51.6791 330.153 50.4794C327.357 49.2796 324.86 47.58 322.163 46.2803C319.466 44.9805 314.872 42.781 311.975 43.5808C309.878 44.1807 308.18 46.5802 307.081 45.8803C305.982 45.2805 305.383 43.9808 305.283 42.781C304.984 41.5813 305.283 40.2815 305.583 39.0818Z" fill="#3F3D56"/>
<path d="M339.641 41.0821C339.541 41.0821 339.242 41.582 338.443 42.2818C337.643 42.9817 336.445 43.8815 334.547 44.3814C332.749 44.8813 330.452 44.8813 328.255 43.5815C326.057 42.3818 324.36 40.1823 322.262 38.1827C320.264 36.0831 317.767 34.4835 315.171 33.9836C312.574 33.4837 310.177 34.2835 308.678 35.6832C307.18 37.0829 306.781 38.7826 306.881 39.7824C306.881 40.2822 306.981 40.7821 307.08 40.9821C307.18 41.282 307.28 41.382 307.28 41.382C307.38 41.382 307.08 40.7821 307.18 39.7824C307.28 38.7826 307.68 37.1829 309.078 35.9832C310.476 34.7834 312.774 34.0836 315.171 34.5835C317.568 35.0834 319.965 36.583 321.962 38.5826C323.96 40.5822 325.758 42.8817 328.055 44.0814C330.352 45.3812 332.849 45.2812 334.747 44.7813C336.645 44.2814 337.943 43.2816 338.642 42.4818C339.042 42.0819 339.242 41.7819 339.441 41.482C339.641 41.282 339.641 41.0821 339.641 41.0821Z" fill="white" fill-opacity="0.34"/>
<path d="M300.688 57.978C300.688 57.978 300.988 57.7781 301.287 57.2782C301.587 56.7783 301.887 55.9785 301.787 54.8787C301.787 52.7792 300.089 50.2797 300.089 47.3803C300.089 45.8806 300.388 44.4809 301.187 43.4811C301.887 42.4814 302.885 41.8815 303.784 41.5815C304.683 41.2816 305.482 41.3816 305.982 41.4816C306.481 41.5815 306.781 41.7815 306.781 41.6815C306.781 41.6815 306.581 41.3816 305.982 41.1816C305.482 40.9817 304.583 40.8817 303.585 41.0817C302.586 41.2816 301.387 41.9815 300.588 43.0812C299.789 44.181 299.39 45.7806 299.39 47.2803C299.39 48.88 299.889 50.2797 300.289 51.5794C300.788 52.7792 301.088 53.8789 301.187 54.8787C301.587 56.9783 300.588 57.978 300.688 57.978Z" fill="white" fill-opacity="0.34"/>
</g>
<defs>
<clipPath id="clip0_165_26321">
<rect width="441.5" height="423.4" fill="white" transform="translate(1)"/>
</clipPath>
</defs>
</svg>
